<?xml version="1.0" encoding="utf-8" standalone="no"?>
<!DOCTYPE svg PUBLIC "-//W3C//DTD SVG 1.1//EN"
  "http://www.w3.org/Graphics/SVG/1.1/DTD/svg11.dtd">
<!-- Created with matplotlib (http://matplotlib.org/) -->
<svg height="283pt" version="1.1" viewBox="0 0 374 283" width="374pt" xmlns="http://www.w3.org/2000/svg" xmlns:xlink="http://www.w3.org/1999/xlink">
 <defs>
  <style type="text/css">
*{stroke-linecap:butt;stroke-linejoin:round;}
  </style>
 </defs>
 <g id="figure_1">
  <g id="patch_1">
   <path d="M 0 283.12125 
L 374.442187 283.12125 
L 374.442187 0 
L 0 0 
z
" style="fill:none;"/>
  </g>
  <g id="axes_1">
   <g id="patch_2">
    <path d="M 28.942188 239.758125 
L 363.742188 239.758125 
L 363.742188 22.318125 
L 28.942188 22.318125 
z
" style="fill:#ffffff;"/>
   </g>
   <g id="matplotlib.axis_1">
    <g id="xtick_1">
     <g id="line2d_1">
      <defs>
       <path d="M 0 0 
L 0 3.5 
" id="m599f55c2c6" style="stroke:#000000;stroke-width:0.8;"/>
      </defs>
      <g>
       <use style="stroke:#000000;stroke-width:0.8;" x="44.160369" xlink:href="#m599f55c2c6" y="239.758125"/>
      </g>
     </g>
     <g id="text_1">
      <!-- $\mathdefault{10^{-2}}$ -->
      <defs>
       <path d="M 12.40625 8.296875 
L 28.515625 8.296875 
L 28.515625 63.921875 
L 10.984375 60.40625 
L 10.984375 69.390625 
L 28.421875 72.90625 
L 38.28125 72.90625 
L 38.28125 8.296875 
L 54.390625 8.296875 
L 54.390625 0 
L 12.40625 0 
z
" id="DejaVuSans-31"/>
       <path d="M 31.78125 66.40625 
Q 24.171875 66.40625 20.328125 58.90625 
Q 16.5 51.421875 16.5 36.375 
Q 16.5 21.390625 20.328125 13.890625 
Q 24.171875 6.390625 31.78125 6.390625 
Q 39.453125 6.390625 43.28125 13.890625 
Q 47.125 21.390625 47.125 36.375 
Q 47.125 51.421875 43.28125 58.90625 
Q 39.453125 66.40625 31.78125 66.40625 
z
M 31.78125 74.21875 
Q 44.046875 74.21875 50.515625 64.515625 
Q 56.984375 54.828125 56.984375 36.375 
Q 56.984375 17.96875 50.515625 8.265625 
Q 44.046875 -1.421875 31.78125 -1.421875 
Q 19.53125 -1.421875 13.0625 8.265625 
Q 6.59375 17.96875 6.59375 36.375 
Q 6.59375 54.828125 13.0625 64.515625 
Q 19.53125 74.21875 31.78125 74.21875 
z
" id="DejaVuSans-30"/>
       <path d="M 10.59375 35.5 
L 73.1875 35.5 
L 73.1875 27.203125 
L 10.59375 27.203125 
z
" id="DejaVuSans-2212"/>
       <path d="M 19.1875 8.296875 
L 53.609375 8.296875 
L 53.609375 0 
L 7.328125 0 
L 7.328125 8.296875 
Q 12.9375 14.109375 22.625 23.890625 
Q 32.328125 33.6875 34.8125 36.53125 
Q 39.546875 41.84375 41.421875 45.53125 
Q 43.3125 49.21875 43.3125 52.78125 
Q 43.3125 58.59375 39.234375 62.25 
Q 35.15625 65.921875 28.609375 65.921875 
Q 23.96875 65.921875 18.8125 64.3125 
Q 13.671875 62.703125 7.8125 59.421875 
L 7.8125 69.390625 
Q 13.765625 71.78125 18.9375 73 
Q 24.125 74.21875 28.421875 74.21875 
Q 39.75 74.21875 46.484375 68.546875 
Q 53.21875 62.890625 53.21875 53.421875 
Q 53.21875 48.921875 51.53125 44.890625 
Q 49.859375 40.875 45.40625 35.40625 
Q 44.1875 33.984375 37.640625 27.21875 
Q 31.109375 20.453125 19.1875 8.296875 
z
" id="DejaVuSans-32"/>
      </defs>
      <g transform="translate(32.410369 254.356562)scale(0.1 -0.1)">
       <use transform="translate(0 0.765625)" xlink:href="#DejaVuSans-31"/>
       <use transform="translate(63.623047 0.765625)" xlink:href="#DejaVuSans-30"/>
       <use transform="translate(128.203125 39.046875)scale(0.7)" xlink:href="#DejaVuSans-2212"/>
       <use transform="translate(186.855469 39.046875)scale(0.7)" xlink:href="#DejaVuSans-32"/>
      </g>
     </g>
    </g>
    <g id="xtick_2">
     <g id="line2d_2">
      <g>
       <use style="stroke:#000000;stroke-width:0.8;" x="105.033097" xlink:href="#m599f55c2c6" y="239.758125"/>
      </g>
     </g>
     <g id="text_2">
      <!-- $\mathdefault{10^{-1}}$ -->
      <g transform="translate(93.283097 254.356562)scale(0.1 -0.1)">
       <use transform="translate(0 0.684375)" xlink:href="#DejaVuSans-31"/>
       <use transform="translate(63.623047 0.684375)" xlink:href="#DejaVuSans-30"/>
       <use transform="translate(128.203125 38.965625)scale(0.7)" xlink:href="#DejaVuSans-2212"/>
       <use transform="translate(186.855469 38.965625)scale(0.7)" xlink:href="#DejaVuSans-31"/>
      </g>
     </g>
    </g>
    <g id="xtick_3">
     <g id="line2d_3">
      <g>
       <use style="stroke:#000000;stroke-width:0.8;" x="165.905824" xlink:href="#m599f55c2c6" y="239.758125"/>
      </g>
     </g>
     <g id="text_3">
      <!-- $\mathdefault{10^{0}}$ -->
      <g transform="translate(157.105824 254.356562)scale(0.1 -0.1)">
       <use transform="translate(0 0.765625)" xlink:href="#DejaVuSans-31"/>
       <use transform="translate(63.623047 0.765625)" xlink:href="#DejaVuSans-30"/>
       <use transform="translate(128.203125 39.046875)scale(0.7)" xlink:href="#DejaVuSans-30"/>
      </g>
     </g>
    </g>
    <g id="xtick_4">
     <g id="line2d_4">
      <g>
       <use style="stroke:#000000;stroke-width:0.8;" x="226.778551" xlink:href="#m599f55c2c6" y="239.758125"/>
      </g>
     </g>
     <g id="text_4">
      <!-- $\mathdefault{10^{1}}$ -->
      <g transform="translate(217.978551 254.356562)scale(0.1 -0.1)">
       <use transform="translate(0 0.684375)" xlink:href="#DejaVuSans-31"/>
       <use transform="translate(63.623047 0.684375)" xlink:href="#DejaVuSans-30"/>
       <use transform="translate(128.203125 38.965625)scale(0.7)" xlink:href="#DejaVuSans-31"/>
      </g>
     </g>
    </g>
    <g id="xtick_5">
     <g id="line2d_5">
      <g>
       <use style="stroke:#000000;stroke-width:0.8;" x="287.651278" xlink:href="#m599f55c2c6" y="239.758125"/>
      </g>
     </g>
     <g id="text_5">
      <!-- $\mathdefault{10^{2}}$ -->
      <g transform="translate(278.851278 254.356562)scale(0.1 -0.1)">
       <use transform="translate(0 0.765625)" xlink:href="#DejaVuSans-31"/>
       <use transform="translate(63.623047 0.765625)" xlink:href="#DejaVuSans-30"/>
       <use transform="translate(128.203125 39.046875)scale(0.7)" xlink:href="#DejaVuSans-32"/>
      </g>
     </g>
    </g>
    <g id="xtick_6">
     <g id="line2d_6">
      <g>
       <use style="stroke:#000000;stroke-width:0.8;" x="348.524006" xlink:href="#m599f55c2c6" y="239.758125"/>
      </g>
     </g>
     <g id="text_6">
      <!-- $\mathdefault{10^{3}}$ -->
      <defs>
       <path d="M 40.578125 39.3125 
Q 47.65625 37.796875 51.625 33 
Q 55.609375 28.21875 55.609375 21.1875 
Q 55.609375 10.40625 48.1875 4.484375 
Q 40.765625 -1.421875 27.09375 -1.421875 
Q 22.515625 -1.421875 17.65625 -0.515625 
Q 12.796875 0.390625 7.625 2.203125 
L 7.625 11.71875 
Q 11.71875 9.328125 16.59375 8.109375 
Q 21.484375 6.890625 26.8125 6.890625 
Q 36.078125 6.890625 40.9375 10.546875 
Q 45.796875 14.203125 45.796875 21.1875 
Q 45.796875 27.640625 41.28125 31.265625 
Q 36.765625 34.90625 28.71875 34.90625 
L 20.21875 34.90625 
L 20.21875 43.015625 
L 29.109375 43.015625 
Q 36.375 43.015625 40.234375 45.921875 
Q 44.09375 48.828125 44.09375 54.296875 
Q 44.09375 59.90625 40.109375 62.90625 
Q 36.140625 65.921875 28.71875 65.921875 
Q 24.65625 65.921875 20.015625 65.03125 
Q 15.375 64.15625 9.8125 62.3125 
L 9.8125 71.09375 
Q 15.4375 72.65625 20.34375 73.4375 
Q 25.25 74.21875 29.59375 74.21875 
Q 40.828125 74.21875 47.359375 69.109375 
Q 53.90625 64.015625 53.90625 55.328125 
Q 53.90625 49.265625 50.4375 45.09375 
Q 46.96875 40.921875 40.578125 39.3125 
z
" id="DejaVuSans-33"/>
      </defs>
      <g transform="translate(339.724006 254.356562)scale(0.1 -0.1)">
       <use transform="translate(0 0.765625)" xlink:href="#DejaVuSans-31"/>
       <use transform="translate(63.623047 0.765625)" xlink:href="#DejaVuSans-30"/>
       <use transform="translate(128.203125 39.046875)scale(0.7)" xlink:href="#DejaVuSans-33"/>
      </g>
     </g>
    </g>
    <g id="xtick_7">
     <g id="line2d_7">
      <defs>
       <path d="M 0 0 
L 0 2 
" id="m9786a9981e" style="stroke:#000000;stroke-width:0.6;"/>
      </defs>
      <g>
       <use style="stroke:#000000;stroke-width:0.6;" x="30.655831" xlink:href="#m9786a9981e" y="239.758125"/>
      </g>
     </g>
    </g>
    <g id="xtick_8">
     <g id="line2d_8">
      <g>
       <use style="stroke:#000000;stroke-width:0.6;" x="34.731065" xlink:href="#m9786a9981e" y="239.758125"/>
      </g>
     </g>
    </g>
    <g id="xtick_9">
     <g id="line2d_9">
      <g>
       <use style="stroke:#000000;stroke-width:0.6;" x="38.261193" xlink:href="#m9786a9981e" y="239.758125"/>
      </g>
     </g>
    </g>
    <g id="xtick_10">
     <g id="line2d_10">
      <g>
       <use style="stroke:#000000;stroke-width:0.6;" x="41.374986" xlink:href="#m9786a9981e" y="239.758125"/>
      </g>
     </g>
    </g>
    <g id="xtick_11">
     <g id="line2d_11">
      <g>
       <use style="stroke:#000000;stroke-width:0.6;" x="62.484886" xlink:href="#m9786a9981e" y="239.758125"/>
      </g>
     </g>
    </g>
    <g id="xtick_12">
     <g id="line2d_12">
      <g>
       <use style="stroke:#000000;stroke-width:0.6;" x="73.204041" xlink:href="#m9786a9981e" y="239.758125"/>
      </g>
     </g>
    </g>
    <g id="xtick_13">
     <g id="line2d_13">
      <g>
       <use style="stroke:#000000;stroke-width:0.6;" x="80.809403" xlink:href="#m9786a9981e" y="239.758125"/>
      </g>
     </g>
    </g>
    <g id="xtick_14">
     <g id="line2d_14">
      <g>
       <use style="stroke:#000000;stroke-width:0.6;" x="86.70858" xlink:href="#m9786a9981e" y="239.758125"/>
      </g>
     </g>
    </g>
    <g id="xtick_15">
     <g id="line2d_15">
      <g>
       <use style="stroke:#000000;stroke-width:0.6;" x="91.528558" xlink:href="#m9786a9981e" y="239.758125"/>
      </g>
     </g>
    </g>
    <g id="xtick_16">
     <g id="line2d_16">
      <g>
       <use style="stroke:#000000;stroke-width:0.6;" x="95.603792" xlink:href="#m9786a9981e" y="239.758125"/>
      </g>
     </g>
    </g>
    <g id="xtick_17">
     <g id="line2d_17">
      <g>
       <use style="stroke:#000000;stroke-width:0.6;" x="99.13392" xlink:href="#m9786a9981e" y="239.758125"/>
      </g>
     </g>
    </g>
    <g id="xtick_18">
     <g id="line2d_18">
      <g>
       <use style="stroke:#000000;stroke-width:0.6;" x="102.247713" xlink:href="#m9786a9981e" y="239.758125"/>
      </g>
     </g>
    </g>
    <g id="xtick_19">
     <g id="line2d_19">
      <g>
       <use style="stroke:#000000;stroke-width:0.6;" x="123.357613" xlink:href="#m9786a9981e" y="239.758125"/>
      </g>
     </g>
    </g>
    <g id="xtick_20">
     <g id="line2d_20">
      <g>
       <use style="stroke:#000000;stroke-width:0.6;" x="134.076769" xlink:href="#m9786a9981e" y="239.758125"/>
      </g>
     </g>
    </g>
    <g id="xtick_21">
     <g id="line2d_21">
      <g>
       <use style="stroke:#000000;stroke-width:0.6;" x="141.68213" xlink:href="#m9786a9981e" y="239.758125"/>
      </g>
     </g>
    </g>
    <g id="xtick_22">
     <g id="line2d_22">
      <g>
       <use style="stroke:#000000;stroke-width:0.6;" x="147.581307" xlink:href="#m9786a9981e" y="239.758125"/>
      </g>
     </g>
    </g>
    <g id="xtick_23">
     <g id="line2d_23">
      <g>
       <use style="stroke:#000000;stroke-width:0.6;" x="152.401285" xlink:href="#m9786a9981e" y="239.758125"/>
      </g>
     </g>
    </g>
    <g id="xtick_24">
     <g id="line2d_24">
      <g>
       <use style="stroke:#000000;stroke-width:0.6;" x="156.476519" xlink:href="#m9786a9981e" y="239.758125"/>
      </g>
     </g>
    </g>
    <g id="xtick_25">
     <g id="line2d_25">
      <g>
       <use style="stroke:#000000;stroke-width:0.6;" x="160.006647" xlink:href="#m9786a9981e" y="239.758125"/>
      </g>
     </g>
    </g>
    <g id="xtick_26">
     <g id="line2d_26">
      <g>
       <use style="stroke:#000000;stroke-width:0.6;" x="163.120441" xlink:href="#m9786a9981e" y="239.758125"/>
      </g>
     </g>
    </g>
    <g id="xtick_27">
     <g id="line2d_27">
      <g>
       <use style="stroke:#000000;stroke-width:0.6;" x="184.230341" xlink:href="#m9786a9981e" y="239.758125"/>
      </g>
     </g>
    </g>
    <g id="xtick_28">
     <g id="line2d_28">
      <g>
       <use style="stroke:#000000;stroke-width:0.6;" x="194.949496" xlink:href="#m9786a9981e" y="239.758125"/>
      </g>
     </g>
    </g>
    <g id="xtick_29">
     <g id="line2d_29">
      <g>
       <use style="stroke:#000000;stroke-width:0.6;" x="202.554858" xlink:href="#m9786a9981e" y="239.758125"/>
      </g>
     </g>
    </g>
    <g id="xtick_30">
     <g id="line2d_30">
      <g>
       <use style="stroke:#000000;stroke-width:0.6;" x="208.454034" xlink:href="#m9786a9981e" y="239.758125"/>
      </g>
     </g>
    </g>
    <g id="xtick_31">
     <g id="line2d_31">
      <g>
       <use style="stroke:#000000;stroke-width:0.6;" x="213.274013" xlink:href="#m9786a9981e" y="239.758125"/>
      </g>
     </g>
    </g>
    <g id="xtick_32">
     <g id="line2d_32">
      <g>
       <use style="stroke:#000000;stroke-width:0.6;" x="217.349246" xlink:href="#m9786a9981e" y="239.758125"/>
      </g>
     </g>
    </g>
    <g id="xtick_33">
     <g id="line2d_33">
      <g>
       <use style="stroke:#000000;stroke-width:0.6;" x="220.879374" xlink:href="#m9786a9981e" y="239.758125"/>
      </g>
     </g>
    </g>
    <g id="xtick_34">
     <g id="line2d_34">
      <g>
       <use style="stroke:#000000;stroke-width:0.6;" x="223.993168" xlink:href="#m9786a9981e" y="239.758125"/>
      </g>
     </g>
    </g>
    <g id="xtick_35">
     <g id="line2d_35">
      <g>
       <use style="stroke:#000000;stroke-width:0.6;" x="245.103068" xlink:href="#m9786a9981e" y="239.758125"/>
      </g>
     </g>
    </g>
    <g id="xtick_36">
     <g id="line2d_36">
      <g>
       <use style="stroke:#000000;stroke-width:0.6;" x="255.822223" xlink:href="#m9786a9981e" y="239.758125"/>
      </g>
     </g>
    </g>
    <g id="xtick_37">
     <g id="line2d_37">
      <g>
       <use style="stroke:#000000;stroke-width:0.6;" x="263.427585" xlink:href="#m9786a9981e" y="239.758125"/>
      </g>
     </g>
    </g>
    <g id="xtick_38">
     <g id="line2d_38">
      <g>
       <use style="stroke:#000000;stroke-width:0.6;" x="269.326762" xlink:href="#m9786a9981e" y="239.758125"/>
      </g>
     </g>
    </g>
    <g id="xtick_39">
     <g id="line2d_39">
      <g>
       <use style="stroke:#000000;stroke-width:0.6;" x="274.14674" xlink:href="#m9786a9981e" y="239.758125"/>
      </g>
     </g>
    </g>
    <g id="xtick_40">
     <g id="line2d_40">
      <g>
       <use style="stroke:#000000;stroke-width:0.6;" x="278.221974" xlink:href="#m9786a9981e" y="239.758125"/>
      </g>
     </g>
    </g>
    <g id="xtick_41">
     <g id="line2d_41">
      <g>
       <use style="stroke:#000000;stroke-width:0.6;" x="281.752102" xlink:href="#m9786a9981e" y="239.758125"/>
      </g>
     </g>
    </g>
    <g id="xtick_42">
     <g id="line2d_42">
      <g>
       <use style="stroke:#000000;stroke-width:0.6;" x="284.865895" xlink:href="#m9786a9981e" y="239.758125"/>
      </g>
     </g>
    </g>
    <g id="xtick_43">
     <g id="line2d_43">
      <g>
       <use style="stroke:#000000;stroke-width:0.6;" x="305.975795" xlink:href="#m9786a9981e" y="239.758125"/>
      </g>
     </g>
    </g>
    <g id="xtick_44">
     <g id="line2d_44">
      <g>
       <use style="stroke:#000000;stroke-width:0.6;" x="316.69495" xlink:href="#m9786a9981e" y="239.758125"/>
      </g>
     </g>
    </g>
    <g id="xtick_45">
     <g id="line2d_45">
      <g>
       <use style="stroke:#000000;stroke-width:0.6;" x="324.300312" xlink:href="#m9786a9981e" y="239.758125"/>
      </g>
     </g>
    </g>
    <g id="xtick_46">
     <g id="line2d_46">
      <g>
       <use style="stroke:#000000;stroke-width:0.6;" x="330.199489" xlink:href="#m9786a9981e" y="239.758125"/>
      </g>
     </g>
    </g>
    <g id="xtick_47">
     <g id="line2d_47">
      <g>
       <use style="stroke:#000000;stroke-width:0.6;" x="335.019467" xlink:href="#m9786a9981e" y="239.758125"/>
      </g>
     </g>
    </g>
    <g id="xtick_48">
     <g id="line2d_48">
      <g>
       <use style="stroke:#000000;stroke-width:0.6;" x="339.094701" xlink:href="#m9786a9981e" y="239.758125"/>
      </g>
     </g>
    </g>
    <g id="xtick_49">
     <g id="line2d_49">
      <g>
       <use style="stroke:#000000;stroke-width:0.6;" x="342.624829" xlink:href="#m9786a9981e" y="239.758125"/>
      </g>
     </g>
    </g>
    <g id="xtick_50">
     <g id="line2d_50">
      <g>
       <use style="stroke:#000000;stroke-width:0.6;" x="345.738622" xlink:href="#m9786a9981e" y="239.758125"/>
      </g>
     </g>
    </g>
    <g id="text_7">
     <!-- $\lambda$ -->
     <defs>
      <path d="M 36.71875 67.4375 
L 48.828125 0 
L 39.3125 0 
L 31.84375 40.4375 
L 5.125 0 
L -4.390625 0 
L 29.734375 52.4375 
L 28.03125 62.109375 
Q 26.953125 68.265625 21.734375 68.265625 
L 17.046875 68.265625 
L 18.5 75.984375 
L 24.21875 75.875 
Q 35.203125 75.734375 36.71875 67.4375 
z
" id="DejaVuSans-Oblique-3bb"/>
     </defs>
     <g transform="translate(191.542188 272.59375)scale(0.16 -0.16)">
      <use transform="translate(0 0.015625)" xlink:href="#DejaVuSans-Oblique-3bb"/>
     </g>
    </g>
   </g>
   <g id="matplotlib.axis_2">
    <g id="ytick_1">
     <g id="line2d_51">
      <defs>
       <path d="M 0 0 
L -3.5 0 
" id="mf221680030" style="stroke:#000000;stroke-width:0.8;"/>
      </defs>
      <g>
       <use style="stroke:#000000;stroke-width:0.8;" x="28.942188" xlink:href="#mf221680030" y="209.191275"/>
      </g>
     </g>
     <g id="text_8">
      <!-- −2 -->
      <g transform="translate(7.2 212.990493)scale(0.1 -0.1)">
       <use xlink:href="#DejaVuSans-2212"/>
       <use x="83.789062" xlink:href="#DejaVuSans-32"/>
      </g>
     </g>
    </g>
    <g id="ytick_2">
     <g id="line2d_52">
      <g>
       <use style="stroke:#000000;stroke-width:0.8;" x="28.942188" xlink:href="#mf221680030" y="174.456008"/>
      </g>
     </g>
     <g id="text_9">
      <!-- −1 -->
      <g transform="translate(7.2 178.255227)scale(0.1 -0.1)">
       <use xlink:href="#DejaVuSans-2212"/>
       <use x="83.789062" xlink:href="#DejaVuSans-31"/>
      </g>
     </g>
    </g>
    <g id="ytick_3">
     <g id="line2d_53">
      <g>
       <use style="stroke:#000000;stroke-width:0.8;" x="28.942188" xlink:href="#mf221680030" y="139.720741"/>
      </g>
     </g>
     <g id="text_10">
      <!-- 0 -->
      <g transform="translate(15.579688 143.51996)scale(0.1 -0.1)">
       <use xlink:href="#DejaVuSans-30"/>
      </g>
     </g>
    </g>
    <g id="ytick_4">
     <g id="line2d_54">
      <g>
       <use style="stroke:#000000;stroke-width:0.8;" x="28.942188" xlink:href="#mf221680030" y="104.985474"/>
      </g>
     </g>
     <g id="text_11">
      <!-- 1 -->
      <g transform="translate(15.579688 108.784693)scale(0.1 -0.1)">
       <use xlink:href="#DejaVuSans-31"/>
      </g>
     </g>
    </g>
    <g id="ytick_5">
     <g id="line2d_55">
      <g>
       <use style="stroke:#000000;stroke-width:0.8;" x="28.942188" xlink:href="#mf221680030" y="70.250208"/>
      </g>
     </g>
     <g id="text_12">
      <!-- 2 -->
      <g transform="translate(15.579688 74.049426)scale(0.1 -0.1)">
       <use xlink:href="#DejaVuSans-32"/>
      </g>
     </g>
    </g>
    <g id="ytick_6">
     <g id="line2d_56">
      <g>
       <use style="stroke:#000000;stroke-width:0.8;" x="28.942188" xlink:href="#mf221680030" y="35.514941"/>
      </g>
     </g>
     <g id="text_13">
      <!-- 3 -->
      <g transform="translate(15.579688 39.31416)scale(0.1 -0.1)">
       <use xlink:href="#DejaVuSans-33"/>
      </g>
     </g>
    </g>
   </g>
   <g id="line2d_57">
    <path clip-path="url(#p97d5d27a43)" d="M 44.160369 126.480719 
L 50.371872 126.47874 
L 56.583375 126.47613 
L 62.794878 126.472895 
L 69.00638 126.469053 
L 75.217883 126.463973 
L 81.429386 126.457541 
L 87.640889 126.449447 
L 93.852392 126.439035 
L 100.063894 126.426001 
L 106.275397 126.409769 
L 112.4869 126.388803 
L 118.698403 126.362619 
L 124.909905 126.329484 
L 131.121408 126.28737 
L 137.332911 126.234186 
L 143.544414 126.166999 
L 149.755917 126.081951 
L 155.967419 125.973887 
L 162.178922 125.838211 
L 168.390425 125.666109 
L 174.601928 125.448654 
L 180.813431 125.17299 
L 187.024933 124.825951 
L 193.236436 124.38378 
L 199.447939 123.824771 
L 205.659442 123.120558 
L 211.870944 122.230295 
L 218.082447 121.104035 
L 224.29395 119.747924 
L 230.505453 118.758243 
L 236.716956 117.584491 
L 242.928458 116.650842 
L 249.139961 115.855995 
L 255.351464 113.934213 
L 261.562967 112.357389 
L 267.77447 113.362086 
L 273.985972 115.321381 
L 280.197475 117.055673 
L 286.408978 122.408078 
L 292.620481 130.420926 
L 298.831983 139.720739 
L 305.043486 139.720739 
L 311.254989 139.720741 
L 317.466492 139.720741 
L 323.677995 139.720741 
L 329.889497 139.720741 
L 336.101 139.720741 
L 342.312503 139.720741 
L 348.524006 139.720741 
" style="fill:none;stroke:#1f77b4;stroke-linecap:square;stroke-width:1.5;"/>
   </g>
   <g id="line2d_58">
    <path clip-path="url(#p97d5d27a43)" d="M 44.160369 186.989874 
L 50.371872 186.986471 
L 56.583375 186.982011 
L 62.794878 186.976462 
L 69.00638 186.969811 
L 75.217883 186.961076 
L 81.429386 186.950012 
L 87.640889 186.936095 
L 93.852392 186.9182 
L 100.063894 186.895776 
L 106.275397 186.867857 
L 112.4869 186.831891 
L 118.698403 186.786841 
L 124.909905 186.729785 
L 131.121408 186.657346 
L 137.332911 186.565867 
L 143.544414 186.450318 
L 149.755917 186.303599 
L 155.967419 186.118327 
L 162.178922 185.884751 
L 168.390425 185.588765 
L 174.601928 185.215589 
L 180.813431 184.740819 
L 187.024933 184.142978 
L 193.236436 183.383674 
L 199.447939 182.423425 
L 205.659442 181.211342 
L 211.870944 179.680495 
L 218.082447 177.739488 
L 224.29395 175.344763 
L 230.505453 173.385832 
L 236.716956 171.154387 
L 242.928458 168.989825 
L 249.139961 166.717989 
L 255.351464 164.001427 
L 261.562967 160.407194 
L 267.77447 156.054091 
L 273.985972 150.709587 
L 280.197475 142.900983 
L 286.408978 139.720751 
L 292.620481 139.720743 
L 298.831983 139.720741 
L 305.043486 139.720742 
L 311.254989 139.720741 
L 317.466492 139.720741 
L 323.677995 139.720741 
L 329.889497 139.720741 
L 336.101 139.720741 
L 342.312503 139.720741 
L 348.524006 139.720741 
" style="fill:none;stroke:#ff7f0e;stroke-linecap:square;stroke-width:1.5;"/>
   </g>
   <g id="line2d_59">
    <path clip-path="url(#p97d5d27a43)" d="M 44.160369 145.642429 
L 50.371872 145.640725 
L 56.583375 145.638367 
L 62.794878 145.635421 
L 69.00638 145.632011 
L 75.217883 145.627451 
L 81.429386 145.621644 
L 87.640889 145.614393 
L 93.852392 145.604894 
L 100.063894 145.593129 
L 106.275397 145.57873 
L 112.4869 145.559928 
L 118.698403 145.536293 
L 124.909905 145.506575 
L 131.121408 145.468661 
L 137.332911 145.420843 
L 143.544414 145.360479 
L 149.755917 145.283716 
L 155.967419 145.187108 
L 162.178922 145.065171 
L 168.390425 144.91025 
L 174.601928 144.71678 
L 180.813431 144.467181 
L 187.024933 144.15552 
L 193.236436 143.757712 
L 199.447939 143.254449 
L 205.659442 142.620957 
L 211.870944 141.822088 
L 218.082447 140.813159 
L 224.29395 139.720744 
L 230.505453 139.72075 
L 236.716956 139.720744 
L 242.928458 139.720744 
L 249.139961 139.720745 
L 255.351464 139.720741 
L 261.562967 139.720742 
L 267.77447 139.720741 
L 273.985972 139.720741 
L 280.197475 139.720741 
L 286.408978 139.720742 
L 292.620481 139.720741 
L 298.831983 139.720741 
L 305.043486 139.720741 
L 311.254989 139.720741 
L 317.466492 139.720741 
L 323.677995 139.720741 
L 329.889497 139.720741 
L 336.101 139.720741 
L 342.312503 139.720741 
L 348.524006 139.720741 
" style="fill:none;stroke:#2ca02c;stroke-linecap:square;stroke-width:1.5;"/>
   </g>
   <g id="line2d_60">
    <path clip-path="url(#p97d5d27a43)" d="M 44.160369 185.585605 
L 50.371872 185.586268 
L 56.583375 185.587127 
L 62.794878 185.588196 
L 69.00638 185.589546 
L 75.217883 185.591264 
L 81.429386 185.593427 
L 87.640889 185.596177 
L 93.852392 185.599628 
L 100.063894 185.604003 
L 106.275397 185.609598 
L 112.4869 185.616633 
L 118.698403 185.625572 
L 124.909905 185.636753 
L 131.121408 185.650978 
L 137.332911 185.66895 
L 143.544414 185.691684 
L 149.755917 185.720442 
L 155.967419 185.757074 
L 162.178922 185.802997 
L 168.390425 185.861157 
L 174.601928 185.934888 
L 180.813431 186.02794 
L 187.024933 186.145717 
L 193.236436 186.294801 
L 199.447939 186.483376 
L 205.659442 186.721875 
L 211.870944 187.023896 
L 218.082447 187.403217 
L 224.29395 187.921595 
L 230.505453 188.125373 
L 236.716956 188.122566 
L 242.928458 188.134054 
L 249.139961 188.160419 
L 255.351464 187.321759 
L 261.562967 186.141772 
L 267.77447 182.988604 
L 273.985972 178.165488 
L 280.197475 173.387985 
L 286.408978 167.852534 
L 292.620481 161.965451 
L 298.831983 155.613531 
L 305.043486 146.133036 
L 311.254989 139.720742 
L 317.466492 139.720741 
L 323.677995 139.720741 
L 329.889497 139.720741 
L 336.101 139.720741 
L 342.312503 139.720741 
L 348.524006 139.720741 
" style="fill:none;stroke:#d62728;stroke-linecap:square;stroke-width:1.5;"/>
   </g>
   <g id="line2d_61">
    <path clip-path="url(#p97d5d27a43)" d="M 44.160369 154.457126 
L 50.371872 154.455881 
L 56.583375 154.454205 
L 62.794878 154.45211 
L 69.00638 154.449557 
L 75.217883 154.446247 
L 81.429386 154.44205 
L 87.640889 154.436771 
L 93.852392 154.429982 
L 100.063894 154.421481 
L 106.275397 154.410889 
L 112.4869 154.397304 
L 118.698403 154.380164 
L 124.909905 154.358522 
L 131.121408 154.331034 
L 137.332911 154.296331 
L 143.544414 154.252507 
L 149.755917 154.196523 
L 155.967419 154.126613 
L 162.178922 154.037916 
L 168.390425 153.925618 
L 174.601928 153.784642 
L 180.813431 153.604103 
L 187.024933 153.376088 
L 193.236436 153.089505 
L 199.447939 152.726345 
L 205.659442 152.266347 
L 211.870944 151.683686 
L 218.082447 150.946707 
L 224.29395 149.966615 
L 230.505453 149.102952 
L 236.716956 148.294662 
L 242.928458 147.63489 
L 249.139961 147.057356 
L 255.351464 146.248585 
L 261.562967 144.815017 
L 267.77447 141.792988 
L 273.985972 139.720757 
L 280.197475 139.720748 
L 286.408978 139.720747 
L 292.620481 139.720743 
L 298.831983 139.720741 
L 305.043486 139.720742 
L 311.254989 139.720741 
L 317.466492 139.720741 
L 323.677995 139.720741 
L 329.889497 139.720741 
L 336.101 139.720741 
L 342.312503 139.720741 
L 348.524006 139.720741 
" style="fill:none;stroke:#9467bd;stroke-linecap:square;stroke-width:1.5;"/>
   </g>
   <g id="line2d_62">
    <path clip-path="url(#p97d5d27a43)" d="M 44.160369 135.574269 
L 50.371872 135.571718 
L 56.583375 135.568512 
L 62.794878 135.564561 
L 69.00638 135.559577 
L 75.217883 135.553198 
L 81.429386 135.545183 
L 87.640889 135.534985 
L 93.852392 135.522272 
L 100.063894 135.506036 
L 106.275397 135.485228 
L 112.4869 135.459009 
L 118.698403 135.426252 
L 124.909905 135.38454 
L 131.121408 135.331826 
L 137.332911 135.265136 
L 143.544414 135.180848 
L 149.755917 135.07403 
L 155.967419 134.938406 
L 162.178922 134.768017 
L 168.390425 134.552545 
L 174.601928 134.277895 
L 180.813431 133.934134 
L 187.024933 133.497351 
L 193.236436 132.944688 
L 199.447939 132.245348 
L 205.659442 131.36048 
L 211.870944 130.244673 
L 218.082447 128.828719 
L 224.29395 127.051324 
L 230.505453 125.984437 
L 236.716956 125.051598 
L 242.928458 124.654685 
L 249.139961 124.700119 
L 255.351464 125.476781 
L 261.562967 126.046546 
L 267.77447 126.196033 
L 273.985972 126.635152 
L 280.197475 128.51976 
L 286.408978 131.363334 
L 292.620481 135.878633 
L 298.831983 139.720741 
L 305.043486 139.720739 
L 311.254989 139.720741 
L 317.466492 139.720741 
L 323.677995 139.720741 
L 329.889497 139.720741 
L 336.101 139.720741 
L 342.312503 139.720741 
L 348.524006 139.720741 
" style="fill:none;stroke:#8c564b;stroke-linecap:square;stroke-width:1.5;"/>
   </g>
   <g id="line2d_63">
    <path clip-path="url(#p97d5d27a43)" d="M 44.160369 32.201761 
L 50.371872 32.204297 
L 56.583375 32.207474 
L 62.794878 32.211426 
L 69.00638 32.216341 
L 75.217883 32.222666 
L 81.429386 32.230638 
L 87.640889 32.240734 
L 93.852392 32.253518 
L 100.063894 32.269691 
L 106.275397 32.290094 
L 112.4869 32.316037 
L 118.698403 32.348505 
L 124.909905 32.389975 
L 131.121408 32.442308 
L 137.332911 32.508453 
L 143.544414 32.592073 
L 149.755917 32.698036 
L 155.967419 32.832355 
L 162.178922 33.001487 
L 168.390425 33.215324 
L 174.601928 33.486926 
L 180.813431 33.82881 
L 187.024933 34.261499 
L 193.236436 34.810349 
L 199.447939 35.503391 
L 205.659442 36.380711 
L 211.870944 37.488481 
L 218.082447 38.896395 
L 224.29395 40.708224 
L 230.505453 42.979325 
L 236.716956 45.729686 
L 242.928458 48.686978 
L 249.139961 52.05711 
L 255.351464 54.406664 
L 261.562967 57.349169 
L 267.77447 60.688091 
L 273.985972 64.689605 
L 280.197475 69.889126 
L 286.408978 75.678388 
L 292.620481 83.045903 
L 298.831983 92.066813 
L 305.043486 101.238453 
L 311.254989 117.747594 
L 317.466492 139.72074 
L 323.677995 139.72074 
L 329.889497 139.720741 
L 336.101 139.720741 
L 342.312503 139.720741 
L 348.524006 139.720741 
" style="fill:none;stroke:#e377c2;stroke-linecap:square;stroke-width:1.5;"/>
   </g>
   <g id="line2d_64">
    <path clip-path="url(#p97d5d27a43)" d="M 44.160369 185.139266 
L 50.371872 185.136102 
L 56.583375 185.131977 
L 62.794878 185.126855 
L 69.00638 185.120663 
L 75.217883 185.112565 
L 81.429386 185.102324 
L 87.640889 185.089414 
L 93.852392 185.072896 
L 100.063894 185.052139 
L 106.275397 185.026173 
L 112.4869 184.992835 
L 118.698403 184.951118 
L 124.909905 184.898208 
L 131.121408 184.831103 
L 137.332911 184.746333 
L 143.544414 184.639232 
L 149.755917 184.503386 
L 155.967419 184.331451 
L 162.178922 184.114956 
L 168.390425 183.84077 
L 174.601928 183.493913 
L 180.813431 183.054844 
L 187.024933 182.500369 
L 193.236436 181.797148 
L 199.447939 180.907959 
L 205.659442 179.784055 
L 211.870944 178.365408 
L 218.082447 176.564257 
L 224.29395 174.285539 
L 230.505453 171.819945 
L 236.716956 168.877963 
L 242.928458 165.987297 
L 249.139961 162.91995 
L 255.351464 159.615767 
L 261.562967 155.111554 
L 267.77447 150.485533 
L 273.985972 144.927387 
L 280.197475 139.721234 
L 286.408978 139.720751 
L 292.620481 139.720743 
L 298.831983 139.720741 
L 305.043486 139.720742 
L 311.254989 139.720741 
L 317.466492 139.720741 
L 323.677995 139.720741 
L 329.889497 139.720741 
L 336.101 139.720741 
L 342.312503 139.720741 
L 348.524006 139.720741 
" style="fill:none;stroke:#7f7f7f;stroke-linecap:square;stroke-width:1.5;"/>
   </g>
   <g id="line2d_65">
    <path clip-path="url(#p97d5d27a43)" d="M 44.160369 104.753317 
L 50.371872 104.760265 
L 56.583375 104.769498 
L 62.794878 104.780986 
L 69.00638 104.794785 
L 75.217883 104.812876 
L 81.429386 104.835793 
L 87.640889 104.864626 
L 93.852392 104.901694 
L 100.063894 104.948123 
L 106.275397 105.005978 
L 112.4869 105.080444 
L 118.698403 105.173888 
L 124.909905 105.291985 
L 131.121408 105.442051 
L 137.332911 105.631546 
L 143.544414 105.870892 
L 149.755917 106.174942 
L 155.967419 106.558667 
L 162.178922 107.042512 
L 168.390425 107.655647 
L 174.601928 108.428504 
L 180.813431 109.41206 
L 187.024933 110.651964 
L 193.236436 112.223197 
L 199.447939 114.211188 
L 205.659442 116.723382 
L 211.870944 119.895585 
L 218.082447 123.914952 
L 224.29395 128.906354 
L 230.505453 133.021686 
L 236.716956 137.632257 
L 242.928458 139.720733 
L 249.139961 139.720738 
L 255.351464 139.720744 
L 261.562967 139.720744 
L 267.77447 139.720742 
L 273.985972 139.720743 
L 280.197475 139.720743 
L 286.408978 139.720743 
L 292.620481 139.720742 
L 298.831983 139.720741 
L 305.043486 139.720741 
L 311.254989 139.720741 
L 317.466492 139.720741 
L 323.677995 139.720741 
L 329.889497 139.720741 
L 336.101 139.720741 
L 342.312503 139.720741 
L 348.524006 139.720741 
" style="fill:none;stroke:#bcbd22;stroke-linecap:square;stroke-width:1.5;"/>
   </g>
   <g id="line2d_66">
    <path clip-path="url(#p97d5d27a43)" d="M 44.160369 176.390172 
L 50.371872 176.389014 
L 56.583375 176.387417 
L 62.794878 176.385451 
L 69.00638 176.383123 
L 75.217883 176.380035 
L 81.429386 176.376125 
L 87.640889 176.371206 
L 93.852392 176.364882 
L 100.063894 176.356952 
L 106.275397 176.347091 
L 112.4869 176.334314 
L 118.698403 176.318501 
L 124.909905 176.298294 
L 131.121408 176.272696 
L 137.332911 176.240356 
L 143.544414 176.199526 
L 149.755917 176.147647 
L 155.967419 176.082128 
L 162.178922 175.999654 
L 168.390425 175.89509 
L 174.601928 175.762579 
L 180.813431 175.595392 
L 187.024933 175.383961 
L 193.236436 175.115761 
L 199.447939 174.776277 
L 205.659442 174.347042 
L 211.870944 173.807406 
L 218.082447 173.12024 
L 224.29395 172.315131 
L 230.505453 171.226802 
L 236.716956 169.661899 
L 242.928458 168.044932 
L 249.139961 166.256805 
L 255.351464 163.010447 
L 261.562967 159.284214 
L 267.77447 156.606647 
L 273.985972 154.2294 
L 280.197475 151.454329 
L 286.408978 150.138024 
L 292.620481 149.579666 
L 298.831983 147.664092 
L 305.043486 139.720751 
L 311.254989 139.720741 
L 317.466492 139.720741 
L 323.677995 139.720741 
L 329.889497 139.720741 
L 336.101 139.720741 
L 342.312503 139.720741 
L 348.524006 139.720741 
" style="fill:none;stroke:#17becf;stroke-linecap:square;stroke-width:1.5;"/>
   </g>
   <g id="line2d_67">
    <path clip-path="url(#p97d5d27a43)" d="M 44.160369 117.323868 
L 50.371872 117.32565 
L 56.583375 117.327981 
L 62.794878 117.330871 
L 69.00638 117.334368 
L 75.217883 117.338939 
L 81.429386 117.34472 
L 87.640889 117.352011 
L 93.852392 117.361344 
L 100.063894 117.373063 
L 106.275397 117.387717 
L 112.4869 117.406553 
L 118.698403 117.430097 
L 124.909905 117.459966 
L 131.121408 117.497855 
L 137.332911 117.545721 
L 143.544414 117.606187 
L 149.755917 117.682862 
L 155.967419 117.780009 
L 162.178922 117.902241 
L 168.390425 118.056994 
L 174.601928 118.253175 
L 180.813431 118.500736 
L 187.024933 118.814155 
L 193.236436 119.210806 
L 199.447939 119.71246 
L 205.659442 120.348141 
L 211.870944 121.148523 
L 218.082447 122.166132 
L 224.29395 123.430319 
L 230.505453 125.604213 
L 236.716956 128.613576 
L 242.928458 131.457172 
L 249.139961 134.372966 
L 255.351464 137.705279 
L 261.562967 139.720721 
L 267.77447 139.720737 
L 273.985972 139.720737 
L 280.197475 139.720738 
L 286.408978 139.720736 
L 292.620481 139.72074 
L 298.831983 139.720741 
L 305.043486 139.720741 
L 311.254989 139.720741 
L 317.466492 139.720741 
L 323.677995 139.720741 
L 329.889497 139.720741 
L 336.101 139.720741 
L 342.312503 139.720741 
L 348.524006 139.720741 
" style="fill:none;stroke:#1f77b4;stroke-linecap:square;stroke-width:1.5;"/>
   </g>
   <g id="line2d_68">
    <path clip-path="url(#p97d5d27a43)" d="M 44.160369 205.102557 
L 50.371872 205.099157 
L 56.583375 205.094772 
L 62.794878 205.089335 
L 69.00638 205.082765 
L 75.217883 205.074163 
L 81.429386 205.063291 
L 87.640889 205.049578 
L 93.852392 205.032056 
L 100.063894 205.010013 
L 106.275397 204.982416 
L 112.4869 204.946979 
L 118.698403 204.90275 
L 124.909905 204.846517 
L 131.121408 204.775263 
L 137.332911 204.685236 
L 143.544414 204.57149 
L 149.755917 204.427307 
L 155.967419 204.244613 
L 162.178922 204.014718 
L 168.390425 203.72356 
L 174.601928 203.354914 
L 180.813431 202.888874 
L 187.024933 202.300569 
L 193.236436 201.553157 
L 199.447939 200.608441 
L 205.659442 199.415233 
L 211.870944 197.909033 
L 218.082447 195.99645 
L 224.29395 193.644979 
L 230.505453 191.454767 
L 236.716956 188.819388 
L 242.928458 186.417783 
L 249.139961 184.040127 
L 255.351464 180.304818 
L 261.562967 175.405895 
L 267.77447 170.372753 
L 273.985972 164.177229 
L 280.197475 155.220608 
L 286.408978 146.071192 
L 292.620481 139.72075 
L 298.831983 139.720741 
L 305.043486 139.720742 
L 311.254989 139.720741 
L 317.466492 139.720741 
L 323.677995 139.720741 
L 329.889497 139.720741 
L 336.101 139.720741 
L 342.312503 139.720741 
L 348.524006 139.720741 
" style="fill:none;stroke:#ff7f0e;stroke-linecap:square;stroke-width:1.5;"/>
   </g>
   <g id="line2d_69">
    <path clip-path="url(#p97d5d27a43)" d="M 44.160369 93.120933 
L 50.371872 93.125464 
L 56.583375 93.13141 
L 62.794878 93.138803 
L 69.00638 93.147723 
L 75.217883 93.159393 
L 81.429386 93.174165 
L 87.640889 93.192767 
L 93.852392 93.216622 
L 100.063894 93.246554 
L 106.275397 93.28393 
L 112.4869 93.331964 
L 118.698403 93.392159 
L 124.909905 93.46839 
L 131.121408 93.565151 
L 137.332911 93.687362 
L 143.544414 93.841737 
L 149.755917 94.037806 
L 155.967419 94.285349 
L 162.178922 94.597454 
L 168.390425 94.992797 
L 174.601928 95.491909 
L 180.813431 96.12562 
L 187.024933 96.925461 
L 193.236436 97.938581 
L 199.447939 99.220243 
L 205.659442 100.840644 
L 211.870944 102.886339 
L 218.082447 105.481468 
L 224.29395 108.719151 
L 230.505453 111.719736 
L 236.716956 115.194538 
L 242.928458 118.131632 
L 249.139961 120.815457 
L 255.351464 124.11926 
L 261.562967 128.39888 
L 267.77447 133.393088 
L 273.985972 139.210824 
L 280.197475 139.720736 
L 286.408978 139.720735 
L 292.620481 139.72074 
L 298.831983 139.720741 
L 305.043486 139.720741 
L 311.254989 139.720741 
L 317.466492 139.720741 
L 323.677995 139.720741 
L 329.889497 139.720741 
L 336.101 139.720741 
L 342.312503 139.720741 
L 348.524006 139.720741 
" style="fill:none;stroke:#2ca02c;stroke-linecap:square;stroke-width:1.5;"/>
   </g>
   <g id="line2d_70">
    <path clip-path="url(#p97d5d27a43)" d="M 44.160369 207.467477 
L 50.371872 207.466655 
L 56.583375 207.46567 
L 62.794878 207.464426 
L 69.00638 207.462967 
L 75.217883 207.461029 
L 81.429386 207.458566 
L 87.640889 207.455491 
L 93.852392 207.451457 
L 100.063894 207.44645 
L 106.275397 207.440356 
L 112.4869 207.432407 
L 118.698403 207.422455 
L 124.909905 207.409736 
L 131.121408 207.393654 
L 137.332911 207.373366 
L 143.544414 207.347735 
L 149.755917 207.315176 
L 155.967419 207.274267 
L 162.178922 207.222383 
L 168.390425 207.156672 
L 174.601928 207.074725 
L 180.813431 206.968626 
L 187.024933 206.836839 
L 193.236436 206.667561 
L 199.447939 206.454218 
L 205.659442 206.186327 
L 211.870944 205.846785 
L 218.082447 205.415726 
L 224.29395 204.886301 
L 230.505453 204.617944 
L 236.716956 204.388895 
L 242.928458 203.293745 
L 249.139961 201.343137 
L 255.351464 198.357417 
L 261.562967 194.834394 
L 267.77447 190.564655 
L 273.985972 184.935959 
L 280.197475 177.007871 
L 286.408978 165.802013 
L 292.620481 151.550655 
L 298.831983 139.720741 
L 305.043486 139.720743 
L 311.254989 139.720741 
L 317.466492 139.720741 
L 323.677995 139.720741 
L 329.889497 139.720741 
L 336.101 139.720741 
L 342.312503 139.720741 
L 348.524006 139.720741 
" style="fill:none;stroke:#d62728;stroke-linecap:square;stroke-width:1.5;"/>
   </g>
   <g id="line2d_71">
    <path clip-path="url(#p97d5d27a43)" d="M 44.160369 151.984131 
L 50.371872 151.983156 
L 56.583375 151.981786 
L 62.794878 151.980042 
L 69.00638 151.978079 
L 75.217883 151.975428 
L 81.429386 151.972024 
L 87.640889 151.967822 
L 93.852392 151.962167 
L 100.063894 151.955276 
L 106.275397 151.947048 
L 112.4869 151.93616 
L 118.698403 151.922286 
L 124.909905 151.905027 
L 131.121408 151.882894 
L 137.332911 151.855032 
L 143.544414 151.819886 
L 149.755917 151.774881 
L 155.967419 151.719119 
L 162.178922 151.647968 
L 168.390425 151.557577 
L 174.601928 151.446537 
L 180.813431 151.299632 
L 187.024933 151.117583 
L 193.236436 150.886465 
L 199.447939 150.593846 
L 205.659442 150.225516 
L 211.870944 149.758242 
L 218.082447 149.168972 
L 224.29395 148.429842 
L 230.505453 147.914333 
L 236.716956 147.396449 
L 242.928458 146.147182 
L 249.139961 144.148647 
L 255.351464 141.396843 
L 261.562967 139.720759 
L 267.77447 139.720744 
L 273.985972 139.720743 
L 280.197475 139.720743 
L 286.408978 139.720743 
L 292.620481 139.720741 
L 298.831983 139.720741 
L 305.043486 139.720741 
L 311.254989 139.720741 
L 317.466492 139.720741 
L 323.677995 139.720741 
L 329.889497 139.720741 
L 336.101 139.720741 
L 342.312503 139.720741 
L 348.524006 139.720741 
" style="fill:none;stroke:#9467bd;stroke-linecap:square;stroke-width:1.5;"/>
   </g>
   <g id="line2d_72">
    <path clip-path="url(#p97d5d27a43)" d="M 44.160369 229.874489 
L 50.371872 229.86977 
L 56.583375 229.86366 
L 62.794878 229.856047 
L 69.00638 229.846793 
L 75.217883 229.834742 
L 81.429386 229.819501 
L 87.640889 229.800288 
L 93.852392 229.775701 
L 100.063894 229.744811 
L 106.275397 229.706168 
L 112.4869 229.656661 
L 118.698403 229.594453 
L 124.909905 229.515726 
L 131.121408 229.415842 
L 137.332911 229.289686 
L 143.544414 229.130287 
L 149.755917 228.927926 
L 155.967419 228.672359 
L 162.178922 228.349995 
L 168.390425 227.941868 
L 174.601928 227.426859 
L 180.813431 226.772292 
L 187.024933 225.946988 
L 193.236436 224.900546 
L 199.447939 223.577469 
L 205.659442 221.905805 
L 211.870944 219.792568 
L 218.082447 217.112978 
L 224.29395 213.681818 
L 230.505453 210.625498 
L 236.716956 207.379436 
L 242.928458 203.483361 
L 249.139961 198.706473 
L 255.351464 194.312167 
L 261.562967 189.167873 
L 267.77447 183.759868 
L 273.985972 177.225694 
L 280.197475 170.124607 
L 286.408978 161.958108 
L 292.620481 151.911533 
L 298.831983 139.80612 
L 305.043486 139.720744 
L 311.254989 139.720741 
L 317.466492 139.720741 
L 323.677995 139.720741 
L 329.889497 139.720741 
L 336.101 139.720741 
L 342.312503 139.720741 
L 348.524006 139.720741 
" style="fill:none;stroke:#8c564b;stroke-linecap:square;stroke-width:1.5;"/>
   </g>
   <g id="line2d_73">
    <path clip-path="url(#p97d5d27a43)" d="M 44.160369 86.567796 
L 50.371872 86.573935 
L 56.583375 86.582043 
L 62.794878 86.592127 
L 69.00638 86.604252 
L 75.217883 86.620144 
L 81.429386 86.640266 
L 87.640889 86.665594 
L 93.852392 86.698127 
L 100.063894 86.7389 
L 106.275397 86.789745 
L 112.4869 86.855156 
L 118.698403 86.937194 
L 124.909905 87.04095 
L 131.121408 87.172736 
L 137.332911 87.33916 
L 143.544414 87.549393 
L 149.755917 87.816265 
L 155.967419 88.153478 
L 162.178922 88.578464 
L 168.390425 89.116919 
L 174.601928 89.796212 
L 180.813431 90.659666 
L 187.024933 91.748171 
L 193.236436 93.128726 
L 199.447939 94.874746 
L 205.659442 97.080934 
L 211.870944 99.866688 
L 218.082447 103.398905 
L 224.29395 107.810683 
L 230.505453 111.834724 
L 236.716956 116.466963 
L 242.928458 121.202928 
L 249.139961 126.397887 
L 255.351464 132.075594 
L 261.562967 138.178832 
L 267.77447 139.720738 
L 273.985972 139.720739 
L 280.197475 139.72074 
L 286.408978 139.720739 
L 292.620481 139.720741 
L 298.831983 139.720741 
L 305.043486 139.720741 
L 311.254989 139.720741 
L 317.466492 139.720741 
L 323.677995 139.720741 
L 329.889497 139.720741 
L 336.101 139.720741 
L 342.312503 139.720741 
L 348.524006 139.720741 
" style="fill:none;stroke:#e377c2;stroke-linecap:square;stroke-width:1.5;"/>
   </g>
   <g id="line2d_74">
    <path clip-path="url(#p97d5d27a43)" d="M 44.160369 123.105774 
L 50.371872 123.110222 
L 56.583375 123.116165 
L 62.794878 123.123571 
L 69.00638 123.13249 
L 75.217883 123.144156 
L 81.429386 123.158937 
L 87.640889 123.177532 
L 93.852392 123.201446 
L 100.063894 123.231387 
L 106.275397 123.268698 
L 112.4869 123.316665 
L 118.698403 123.377016 
L 124.909905 123.453156 
L 131.121408 123.549952 
L 137.332911 123.672165 
L 143.544414 123.826531 
L 149.755917 124.022804 
L 155.967419 124.270037 
L 162.178922 124.582174 
L 168.390425 124.977689 
L 174.601928 125.475252 
L 180.813431 126.11041 
L 187.024933 126.910408 
L 193.236436 127.923391 
L 199.447939 129.205334 
L 205.659442 130.824346 
L 211.870944 132.872607 
L 218.082447 135.46362 
L 224.29395 138.74878 
L 230.505453 139.720733 
L 236.716956 139.72074 
L 242.928458 139.720742 
L 249.139961 139.720744 
L 255.351464 139.720738 
L 261.562967 139.720745 
L 267.77447 139.720742 
L 273.985972 139.720742 
L 280.197475 139.720742 
L 286.408978 139.720742 
L 292.620481 139.720741 
L 298.831983 139.720741 
L 305.043486 139.720741 
L 311.254989 139.720741 
L 317.466492 139.720741 
L 323.677995 139.720741 
L 329.889497 139.720741 
L 336.101 139.720741 
L 342.312503 139.720741 
L 348.524006 139.720741 
" style="fill:none;stroke:#7f7f7f;stroke-linecap:square;stroke-width:1.5;"/>
   </g>
   <g id="line2d_75">
    <path clip-path="url(#p97d5d27a43)" d="M 44.160369 146.680271 
L 50.371872 146.678489 
L 56.583375 146.675978 
L 62.794878 146.672833 
L 69.00638 146.669164 
L 75.217883 146.664287 
L 81.429386 146.658077 
L 87.640889 146.65032 
L 93.852392 146.640184 
L 100.063894 146.627608 
L 106.275397 146.612171 
L 112.4869 146.592111 
L 118.698403 146.566774 
L 124.909905 146.534991 
L 131.121408 146.494435 
L 137.332911 146.44329 
L 143.544414 146.378721 
L 149.755917 146.296464 
L 155.967419 146.193312 
L 162.178922 146.062788 
L 168.390425 145.897067 
L 174.601928 145.690626 
L 180.813431 145.423179 
L 187.024933 145.089406 
L 193.236436 144.664356 
L 199.447939 144.126173 
L 205.659442 143.449465 
L 211.870944 142.593437 
L 218.082447 141.514188 
L 224.29395 140.127644 
L 230.505453 139.720766 
L 236.716956 139.720751 
L 242.928458 139.720746 
L 249.139961 139.720747 
L 255.351464 139.72074 
L 261.562967 139.720744 
L 267.77447 139.720742 
L 273.985972 139.720742 
L 280.197475 139.720741 
L 286.408978 139.720742 
L 292.620481 139.720741 
L 298.831983 139.720741 
L 305.043486 139.720741 
L 311.254989 139.720741 
L 317.466492 139.720741 
L 323.677995 139.720741 
L 329.889497 139.720741 
L 336.101 139.720741 
L 342.312503 139.720741 
L 348.524006 139.720741 
" style="fill:none;stroke:#bcbd22;stroke-linecap:square;stroke-width:1.5;"/>
   </g>
   <g id="line2d_76">
    <path clip-path="url(#p97d5d27a43)" d="M 44.160369 164.550758 
L 50.371872 164.547553 
L 56.583375 164.54339 
L 62.794878 164.538204 
L 69.00638 164.531878 
L 75.217883 164.523658 
L 81.429386 164.513263 
L 87.640889 164.500153 
L 93.852392 164.48339 
L 100.063894 164.462328 
L 106.275397 164.435948 
L 112.4869 164.402178 
L 118.698403 164.359712 
L 124.909905 164.306035 
L 131.121408 164.237897 
L 137.332911 164.151834 
L 143.544414 164.043104 
L 149.755917 163.905028 
L 155.967419 163.730636 
L 162.178922 163.510732 
L 168.390425 163.232378 
L 174.601928 162.880662 
L 180.813431 162.434547 
L 187.024933 161.870699 
L 193.236436 161.157782 
L 199.447939 160.255939 
L 205.659442 159.114162 
L 211.870944 157.672923 
L 218.082447 155.844325 
L 224.29395 153.48696 
L 230.505453 150.66496 
L 236.716956 147.298442 
L 242.928458 143.833063 
L 249.139961 140.012076 
L 255.351464 139.720739 
L 261.562967 139.720746 
L 267.77447 139.720742 
L 273.985972 139.720742 
L 280.197475 139.720741 
L 286.408978 139.720742 
L 292.620481 139.720741 
L 298.831983 139.720741 
L 305.043486 139.720741 
L 311.254989 139.720741 
L 317.466492 139.720741 
L 323.677995 139.720741 
L 329.889497 139.720741 
L 336.101 139.720741 
L 342.312503 139.720741 
L 348.524006 139.720741 
" style="fill:none;stroke:#17becf;stroke-linecap:square;stroke-width:1.5;"/>
   </g>
   <g id="patch_3">
    <path d="M 28.942188 239.758125 
L 28.942188 22.318125 
" style="fill:none;stroke:#000000;stroke-linecap:square;stroke-linejoin:miter;stroke-width:0.8;"/>
   </g>
   <g id="patch_4">
    <path d="M 363.742188 239.758125 
L 363.742188 22.318125 
" style="fill:none;stroke:#000000;stroke-linecap:square;stroke-linejoin:miter;stroke-width:0.8;"/>
   </g>
   <g id="patch_5">
    <path d="M 28.942188 239.758125 
L 363.742188 239.758125 
" style="fill:none;stroke:#000000;stroke-linecap:square;stroke-linejoin:miter;stroke-width:0.8;"/>
   </g>
   <g id="patch_6">
    <path d="M 28.942188 22.318125 
L 363.742188 22.318125 
" style="fill:none;stroke:#000000;stroke-linecap:square;stroke-linejoin:miter;stroke-width:0.8;"/>
   </g>
   <g id="text_14">
    <!-- Regularization Path -->
    <defs>
     <path d="M 44.390625 34.1875 
Q 47.5625 33.109375 50.5625 29.59375 
Q 53.5625 26.078125 56.59375 19.921875 
L 66.609375 0 
L 56 0 
L 46.6875 18.703125 
Q 43.0625 26.03125 39.671875 28.421875 
Q 36.28125 30.8125 30.421875 30.8125 
L 19.671875 30.8125 
L 19.671875 0 
L 9.8125 0 
L 9.8125 72.90625 
L 32.078125 72.90625 
Q 44.578125 72.90625 50.734375 67.671875 
Q 56.890625 62.453125 56.890625 51.90625 
Q 56.890625 45.015625 53.6875 40.46875 
Q 50.484375 35.9375 44.390625 34.1875 
z
M 19.671875 64.796875 
L 19.671875 38.921875 
L 32.078125 38.921875 
Q 39.203125 38.921875 42.84375 42.21875 
Q 46.484375 45.515625 46.484375 51.90625 
Q 46.484375 58.296875 42.84375 61.546875 
Q 39.203125 64.796875 32.078125 64.796875 
z
" id="DejaVuSans-52"/>
     <path d="M 56.203125 29.59375 
L 56.203125 25.203125 
L 14.890625 25.203125 
Q 15.484375 15.921875 20.484375 11.0625 
Q 25.484375 6.203125 34.421875 6.203125 
Q 39.59375 6.203125 44.453125 7.46875 
Q 49.3125 8.734375 54.109375 11.28125 
L 54.109375 2.78125 
Q 49.265625 0.734375 44.1875 -0.34375 
Q 39.109375 -1.421875 33.890625 -1.421875 
Q 20.796875 -1.421875 13.15625 6.1875 
Q 5.515625 13.8125 5.515625 26.8125 
Q 5.515625 40.234375 12.765625 48.109375 
Q 20.015625 56 32.328125 56 
Q 43.359375 56 49.78125 48.890625 
Q 56.203125 41.796875 56.203125 29.59375 
z
M 47.21875 32.234375 
Q 47.125 39.59375 43.09375 43.984375 
Q 39.0625 48.390625 32.421875 48.390625 
Q 24.90625 48.390625 20.390625 44.140625 
Q 15.875 39.890625 15.1875 32.171875 
z
" id="DejaVuSans-65"/>
     <path d="M 45.40625 27.984375 
Q 45.40625 37.75 41.375 43.109375 
Q 37.359375 48.484375 30.078125 48.484375 
Q 22.859375 48.484375 18.828125 43.109375 
Q 14.796875 37.75 14.796875 27.984375 
Q 14.796875 18.265625 18.828125 12.890625 
Q 22.859375 7.515625 30.078125 7.515625 
Q 37.359375 7.515625 41.375 12.890625 
Q 45.40625 18.265625 45.40625 27.984375 
z
M 54.390625 6.78125 
Q 54.390625 -7.171875 48.1875 -13.984375 
Q 42 -20.796875 29.203125 -20.796875 
Q 24.46875 -20.796875 20.265625 -20.09375 
Q 16.0625 -19.390625 12.109375 -17.921875 
L 12.109375 -9.1875 
Q 16.0625 -11.328125 19.921875 -12.34375 
Q 23.78125 -13.375 27.78125 -13.375 
Q 36.625 -13.375 41.015625 -8.765625 
Q 45.40625 -4.15625 45.40625 5.171875 
L 45.40625 9.625 
Q 42.625 4.78125 38.28125 2.390625 
Q 33.9375 0 27.875 0 
Q 17.828125 0 11.671875 7.65625 
Q 5.515625 15.328125 5.515625 27.984375 
Q 5.515625 40.671875 11.671875 48.328125 
Q 17.828125 56 27.875 56 
Q 33.9375 56 38.28125 53.609375 
Q 42.625 51.21875 45.40625 46.390625 
L 45.40625 54.6875 
L 54.390625 54.6875 
z
" id="DejaVuSans-67"/>
     <path d="M 8.5 21.578125 
L 8.5 54.6875 
L 17.484375 54.6875 
L 17.484375 21.921875 
Q 17.484375 14.15625 20.5 10.265625 
Q 23.53125 6.390625 29.59375 6.390625 
Q 36.859375 6.390625 41.078125 11.03125 
Q 45.3125 15.671875 45.3125 23.6875 
L 45.3125 54.6875 
L 54.296875 54.6875 
L 54.296875 0 
L 45.3125 0 
L 45.3125 8.40625 
Q 42.046875 3.421875 37.71875 1 
Q 33.40625 -1.421875 27.6875 -1.421875 
Q 18.265625 -1.421875 13.375 4.4375 
Q 8.5 10.296875 8.5 21.578125 
z
M 31.109375 56 
z
" id="DejaVuSans-75"/>
     <path d="M 9.421875 75.984375 
L 18.40625 75.984375 
L 18.40625 0 
L 9.421875 0 
z
" id="DejaVuSans-6c"/>
     <path d="M 34.28125 27.484375 
Q 23.390625 27.484375 19.1875 25 
Q 14.984375 22.515625 14.984375 16.5 
Q 14.984375 11.71875 18.140625 8.90625 
Q 21.296875 6.109375 26.703125 6.109375 
Q 34.1875 6.109375 38.703125 11.40625 
Q 43.21875 16.703125 43.21875 25.484375 
L 43.21875 27.484375 
z
M 52.203125 31.203125 
L 52.203125 0 
L 43.21875 0 
L 43.21875 8.296875 
Q 40.140625 3.328125 35.546875 0.953125 
Q 30.953125 -1.421875 24.3125 -1.421875 
Q 15.921875 -1.421875 10.953125 3.296875 
Q 6 8.015625 6 15.921875 
Q 6 25.140625 12.171875 29.828125 
Q 18.359375 34.515625 30.609375 34.515625 
L 43.21875 34.515625 
L 43.21875 35.40625 
Q 43.21875 41.609375 39.140625 45 
Q 35.0625 48.390625 27.6875 48.390625 
Q 23 48.390625 18.546875 47.265625 
Q 14.109375 46.140625 10.015625 43.890625 
L 10.015625 52.203125 
Q 14.9375 54.109375 19.578125 55.046875 
Q 24.21875 56 28.609375 56 
Q 40.484375 56 46.34375 49.84375 
Q 52.203125 43.703125 52.203125 31.203125 
z
" id="DejaVuSans-61"/>
     <path d="M 41.109375 46.296875 
Q 39.59375 47.171875 37.8125 47.578125 
Q 36.03125 48 33.890625 48 
Q 26.265625 48 22.1875 43.046875 
Q 18.109375 38.09375 18.109375 28.8125 
L 18.109375 0 
L 9.078125 0 
L 9.078125 54.6875 
L 18.109375 54.6875 
L 18.109375 46.1875 
Q 20.953125 51.171875 25.484375 53.578125 
Q 30.03125 56 36.53125 56 
Q 37.453125 56 38.578125 55.875 
Q 39.703125 55.765625 41.0625 55.515625 
z
" id="DejaVuSans-72"/>
     <path d="M 9.421875 54.6875 
L 18.40625 54.6875 
L 18.40625 0 
L 9.421875 0 
z
M 9.421875 75.984375 
L 18.40625 75.984375 
L 18.40625 64.59375 
L 9.421875 64.59375 
z
" id="DejaVuSans-69"/>
     <path d="M 5.515625 54.6875 
L 48.1875 54.6875 
L 48.1875 46.484375 
L 14.40625 7.171875 
L 48.1875 7.171875 
L 48.1875 0 
L 4.296875 0 
L 4.296875 8.203125 
L 38.09375 47.515625 
L 5.515625 47.515625 
z
" id="DejaVuSans-7a"/>
     <path d="M 18.3125 70.21875 
L 18.3125 54.6875 
L 36.8125 54.6875 
L 36.8125 47.703125 
L 18.3125 47.703125 
L 18.3125 18.015625 
Q 18.3125 11.328125 20.140625 9.421875 
Q 21.96875 7.515625 27.59375 7.515625 
L 36.8125 7.515625 
L 36.8125 0 
L 27.59375 0 
Q 17.1875 0 13.234375 3.875 
Q 9.28125 7.765625 9.28125 18.015625 
L 9.28125 47.703125 
L 2.6875 47.703125 
L 2.6875 54.6875 
L 9.28125 54.6875 
L 9.28125 70.21875 
z
" id="DejaVuSans-74"/>
     <path d="M 30.609375 48.390625 
Q 23.390625 48.390625 19.1875 42.75 
Q 14.984375 37.109375 14.984375 27.296875 
Q 14.984375 17.484375 19.15625 11.84375 
Q 23.34375 6.203125 30.609375 6.203125 
Q 37.796875 6.203125 41.984375 11.859375 
Q 46.1875 17.53125 46.1875 27.296875 
Q 46.1875 37.015625 41.984375 42.703125 
Q 37.796875 48.390625 30.609375 48.390625 
z
M 30.609375 56 
Q 42.328125 56 49.015625 48.375 
Q 55.71875 40.765625 55.71875 27.296875 
Q 55.71875 13.875 49.015625 6.21875 
Q 42.328125 -1.421875 30.609375 -1.421875 
Q 18.84375 -1.421875 12.171875 6.21875 
Q 5.515625 13.875 5.515625 27.296875 
Q 5.515625 40.765625 12.171875 48.375 
Q 18.84375 56 30.609375 56 
z
" id="DejaVuSans-6f"/>
     <path d="M 54.890625 33.015625 
L 54.890625 0 
L 45.90625 0 
L 45.90625 32.71875 
Q 45.90625 40.484375 42.875 44.328125 
Q 39.84375 48.1875 33.796875 48.1875 
Q 26.515625 48.1875 22.3125 43.546875 
Q 18.109375 38.921875 18.109375 30.90625 
L 18.109375 0 
L 9.078125 0 
L 9.078125 54.6875 
L 18.109375 54.6875 
L 18.109375 46.1875 
Q 21.34375 51.125 25.703125 53.5625 
Q 30.078125 56 35.796875 56 
Q 45.21875 56 50.046875 50.171875 
Q 54.890625 44.34375 54.890625 33.015625 
z
" id="DejaVuSans-6e"/>
     <path id="DejaVuSans-20"/>
     <path d="M 19.671875 64.796875 
L 19.671875 37.40625 
L 32.078125 37.40625 
Q 38.96875 37.40625 42.71875 40.96875 
Q 46.484375 44.53125 46.484375 51.125 
Q 46.484375 57.671875 42.71875 61.234375 
Q 38.96875 64.796875 32.078125 64.796875 
z
M 9.8125 72.90625 
L 32.078125 72.90625 
Q 44.34375 72.90625 50.609375 67.359375 
Q 56.890625 61.8125 56.890625 51.125 
Q 56.890625 40.328125 50.609375 34.8125 
Q 44.34375 29.296875 32.078125 29.296875 
L 19.671875 29.296875 
L 19.671875 0 
L 9.8125 0 
z
" id="DejaVuSans-50"/>
     <path d="M 54.890625 33.015625 
L 54.890625 0 
L 45.90625 0 
L 45.90625 32.71875 
Q 45.90625 40.484375 42.875 44.328125 
Q 39.84375 48.1875 33.796875 48.1875 
Q 26.515625 48.1875 22.3125 43.546875 
Q 18.109375 38.921875 18.109375 30.90625 
L 18.109375 0 
L 9.078125 0 
L 9.078125 75.984375 
L 18.109375 75.984375 
L 18.109375 46.1875 
Q 21.34375 51.125 25.703125 53.5625 
Q 30.078125 56 35.796875 56 
Q 45.21875 56 50.046875 50.171875 
Q 54.890625 44.34375 54.890625 33.015625 
z
" id="DejaVuSans-68"/>
    </defs>
    <g transform="translate(137.725 16.318125)scale(0.12 -0.12)">
     <use xlink:href="#DejaVuSans-52"/>
     <use x="69.419922" xlink:href="#DejaVuSans-65"/>
     <use x="130.943359" xlink:href="#DejaVuSans-67"/>
     <use x="194.419922" xlink:href="#DejaVuSans-75"/>
     <use x="257.798828" xlink:href="#DejaVuSans-6c"/>
     <use x="285.582031" xlink:href="#DejaVuSans-61"/>
     <use x="346.861328" xlink:href="#DejaVuSans-72"/>
     <use x="387.974609" xlink:href="#DejaVuSans-69"/>
     <use x="415.757812" xlink:href="#DejaVuSans-7a"/>
     <use x="468.248047" xlink:href="#DejaVuSans-61"/>
     <use x="529.527344" xlink:href="#DejaVuSans-74"/>
     <use x="568.736328" xlink:href="#DejaVuSans-69"/>
     <use x="596.519531" xlink:href="#DejaVuSans-6f"/>
     <use x="657.701172" xlink:href="#DejaVuSans-6e"/>
     <use x="721.080078" xlink:href="#DejaVuSans-20"/>
     <use x="752.867188" xlink:href="#DejaVuSans-50"/>
     <use x="813.107422" xlink:href="#DejaVuSans-61"/>
     <use x="874.386719" xlink:href="#DejaVuSans-74"/>
     <use x="913.595703" xlink:href="#DejaVuSans-68"/>
    </g>
   </g>
  </g>
 </g>
 <defs>
  <clipPath id="p97d5d27a43">
   <rect height="217.44" width="334.8" x="28.942188" y="22.318125"/>
  </clipPath>
 </defs>
</svg>
