<?xml version="1.0" encoding="utf-8" standalone="no"?>
<!DOCTYPE svg PUBLIC "-//W3C//DTD SVG 1.1//EN"
  "http://www.w3.org/Graphics/SVG/1.1/DTD/svg11.dtd">
<!-- Created with matplotlib (http://matplotlib.org/) -->
<svg height="283pt" version="1.1" viewBox="0 0 374 283" width="374pt" xmlns="http://www.w3.org/2000/svg" xmlns:xlink="http://www.w3.org/1999/xlink">
 <defs>
  <style type="text/css">
*{stroke-linecap:butt;stroke-linejoin:round;}
  </style>
 </defs>
 <g id="figure_1">
  <g id="patch_1">
   <path d="M 0 283.12125 
L 374.442187 283.12125 
L 374.442187 0 
L 0 0 
z
" style="fill:none;"/>
  </g>
  <g id="axes_1">
   <g id="patch_2">
    <path d="M 28.942188 239.758125 
L 363.742188 239.758125 
L 363.742188 22.318125 
L 28.942188 22.318125 
z
" style="fill:#ffffff;"/>
   </g>
   <g id="matplotlib.axis_1">
    <g id="xtick_1">
     <g id="line2d_1">
      <defs>
       <path d="M 0 0 
L 0 3.5 
" id="m41b4a809a9" style="stroke:#000000;stroke-width:0.8;"/>
      </defs>
      <g>
       <use style="stroke:#000000;stroke-width:0.8;" x="44.160369" xlink:href="#m41b4a809a9" y="239.758125"/>
      </g>
     </g>
     <g id="text_1">
      <!-- $\mathdefault{10^{-2}}$ -->
      <defs>
       <path d="M 12.40625 8.296875 
L 28.515625 8.296875 
L 28.515625 63.921875 
L 10.984375 60.40625 
L 10.984375 69.390625 
L 28.421875 72.90625 
L 38.28125 72.90625 
L 38.28125 8.296875 
L 54.390625 8.296875 
L 54.390625 0 
L 12.40625 0 
z
" id="DejaVuSans-31"/>
       <path d="M 31.78125 66.40625 
Q 24.171875 66.40625 20.328125 58.90625 
Q 16.5 51.421875 16.5 36.375 
Q 16.5 21.390625 20.328125 13.890625 
Q 24.171875 6.390625 31.78125 6.390625 
Q 39.453125 6.390625 43.28125 13.890625 
Q 47.125 21.390625 47.125 36.375 
Q 47.125 51.421875 43.28125 58.90625 
Q 39.453125 66.40625 31.78125 66.40625 
z
M 31.78125 74.21875 
Q 44.046875 74.21875 50.515625 64.515625 
Q 56.984375 54.828125 56.984375 36.375 
Q 56.984375 17.96875 50.515625 8.265625 
Q 44.046875 -1.421875 31.78125 -1.421875 
Q 19.53125 -1.421875 13.0625 8.265625 
Q 6.59375 17.96875 6.59375 36.375 
Q 6.59375 54.828125 13.0625 64.515625 
Q 19.53125 74.21875 31.78125 74.21875 
z
" id="DejaVuSans-30"/>
       <path d="M 10.59375 35.5 
L 73.1875 35.5 
L 73.1875 27.203125 
L 10.59375 27.203125 
z
" id="DejaVuSans-2212"/>
       <path d="M 19.1875 8.296875 
L 53.609375 8.296875 
L 53.609375 0 
L 7.328125 0 
L 7.328125 8.296875 
Q 12.9375 14.109375 22.625 23.890625 
Q 32.328125 33.6875 34.8125 36.53125 
Q 39.546875 41.84375 41.421875 45.53125 
Q 43.3125 49.21875 43.3125 52.78125 
Q 43.3125 58.59375 39.234375 62.25 
Q 35.15625 65.921875 28.609375 65.921875 
Q 23.96875 65.921875 18.8125 64.3125 
Q 13.671875 62.703125 7.8125 59.421875 
L 7.8125 69.390625 
Q 13.765625 71.78125 18.9375 73 
Q 24.125 74.21875 28.421875 74.21875 
Q 39.75 74.21875 46.484375 68.546875 
Q 53.21875 62.890625 53.21875 53.421875 
Q 53.21875 48.921875 51.53125 44.890625 
Q 49.859375 40.875 45.40625 35.40625 
Q 44.1875 33.984375 37.640625 27.21875 
Q 31.109375 20.453125 19.1875 8.296875 
z
" id="DejaVuSans-32"/>
      </defs>
      <g transform="translate(32.410369 254.356562)scale(0.1 -0.1)">
       <use transform="translate(0 0.765625)" xlink:href="#DejaVuSans-31"/>
       <use transform="translate(63.623047 0.765625)" xlink:href="#DejaVuSans-30"/>
       <use transform="translate(128.203125 39.046875)scale(0.7)" xlink:href="#DejaVuSans-2212"/>
       <use transform="translate(186.855469 39.046875)scale(0.7)" xlink:href="#DejaVuSans-32"/>
      </g>
     </g>
    </g>
    <g id="xtick_2">
     <g id="line2d_2">
      <g>
       <use style="stroke:#000000;stroke-width:0.8;" x="105.033097" xlink:href="#m41b4a809a9" y="239.758125"/>
      </g>
     </g>
     <g id="text_2">
      <!-- $\mathdefault{10^{-1}}$ -->
      <g transform="translate(93.283097 254.356562)scale(0.1 -0.1)">
       <use transform="translate(0 0.684375)" xlink:href="#DejaVuSans-31"/>
       <use transform="translate(63.623047 0.684375)" xlink:href="#DejaVuSans-30"/>
       <use transform="translate(128.203125 38.965625)scale(0.7)" xlink:href="#DejaVuSans-2212"/>
       <use transform="translate(186.855469 38.965625)scale(0.7)" xlink:href="#DejaVuSans-31"/>
      </g>
     </g>
    </g>
    <g id="xtick_3">
     <g id="line2d_3">
      <g>
       <use style="stroke:#000000;stroke-width:0.8;" x="165.905824" xlink:href="#m41b4a809a9" y="239.758125"/>
      </g>
     </g>
     <g id="text_3">
      <!-- $\mathdefault{10^{0}}$ -->
      <g transform="translate(157.105824 254.356562)scale(0.1 -0.1)">
       <use transform="translate(0 0.765625)" xlink:href="#DejaVuSans-31"/>
       <use transform="translate(63.623047 0.765625)" xlink:href="#DejaVuSans-30"/>
       <use transform="translate(128.203125 39.046875)scale(0.7)" xlink:href="#DejaVuSans-30"/>
      </g>
     </g>
    </g>
    <g id="xtick_4">
     <g id="line2d_4">
      <g>
       <use style="stroke:#000000;stroke-width:0.8;" x="226.778551" xlink:href="#m41b4a809a9" y="239.758125"/>
      </g>
     </g>
     <g id="text_4">
      <!-- $\mathdefault{10^{1}}$ -->
      <g transform="translate(217.978551 254.356562)scale(0.1 -0.1)">
       <use transform="translate(0 0.684375)" xlink:href="#DejaVuSans-31"/>
       <use transform="translate(63.623047 0.684375)" xlink:href="#DejaVuSans-30"/>
       <use transform="translate(128.203125 38.965625)scale(0.7)" xlink:href="#DejaVuSans-31"/>
      </g>
     </g>
    </g>
    <g id="xtick_5">
     <g id="line2d_5">
      <g>
       <use style="stroke:#000000;stroke-width:0.8;" x="287.651278" xlink:href="#m41b4a809a9" y="239.758125"/>
      </g>
     </g>
     <g id="text_5">
      <!-- $\mathdefault{10^{2}}$ -->
      <g transform="translate(278.851278 254.356562)scale(0.1 -0.1)">
       <use transform="translate(0 0.765625)" xlink:href="#DejaVuSans-31"/>
       <use transform="translate(63.623047 0.765625)" xlink:href="#DejaVuSans-30"/>
       <use transform="translate(128.203125 39.046875)scale(0.7)" xlink:href="#DejaVuSans-32"/>
      </g>
     </g>
    </g>
    <g id="xtick_6">
     <g id="line2d_6">
      <g>
       <use style="stroke:#000000;stroke-width:0.8;" x="348.524006" xlink:href="#m41b4a809a9" y="239.758125"/>
      </g>
     </g>
     <g id="text_6">
      <!-- $\mathdefault{10^{3}}$ -->
      <defs>
       <path d="M 40.578125 39.3125 
Q 47.65625 37.796875 51.625 33 
Q 55.609375 28.21875 55.609375 21.1875 
Q 55.609375 10.40625 48.1875 4.484375 
Q 40.765625 -1.421875 27.09375 -1.421875 
Q 22.515625 -1.421875 17.65625 -0.515625 
Q 12.796875 0.390625 7.625 2.203125 
L 7.625 11.71875 
Q 11.71875 9.328125 16.59375 8.109375 
Q 21.484375 6.890625 26.8125 6.890625 
Q 36.078125 6.890625 40.9375 10.546875 
Q 45.796875 14.203125 45.796875 21.1875 
Q 45.796875 27.640625 41.28125 31.265625 
Q 36.765625 34.90625 28.71875 34.90625 
L 20.21875 34.90625 
L 20.21875 43.015625 
L 29.109375 43.015625 
Q 36.375 43.015625 40.234375 45.921875 
Q 44.09375 48.828125 44.09375 54.296875 
Q 44.09375 59.90625 40.109375 62.90625 
Q 36.140625 65.921875 28.71875 65.921875 
Q 24.65625 65.921875 20.015625 65.03125 
Q 15.375 64.15625 9.8125 62.3125 
L 9.8125 71.09375 
Q 15.4375 72.65625 20.34375 73.4375 
Q 25.25 74.21875 29.59375 74.21875 
Q 40.828125 74.21875 47.359375 69.109375 
Q 53.90625 64.015625 53.90625 55.328125 
Q 53.90625 49.265625 50.4375 45.09375 
Q 46.96875 40.921875 40.578125 39.3125 
z
" id="DejaVuSans-33"/>
      </defs>
      <g transform="translate(339.724006 254.356562)scale(0.1 -0.1)">
       <use transform="translate(0 0.765625)" xlink:href="#DejaVuSans-31"/>
       <use transform="translate(63.623047 0.765625)" xlink:href="#DejaVuSans-30"/>
       <use transform="translate(128.203125 39.046875)scale(0.7)" xlink:href="#DejaVuSans-33"/>
      </g>
     </g>
    </g>
    <g id="xtick_7">
     <g id="line2d_7">
      <defs>
       <path d="M 0 0 
L 0 2 
" id="mdb485b8ada" style="stroke:#000000;stroke-width:0.6;"/>
      </defs>
      <g>
       <use style="stroke:#000000;stroke-width:0.6;" x="30.655831" xlink:href="#mdb485b8ada" y="239.758125"/>
      </g>
     </g>
    </g>
    <g id="xtick_8">
     <g id="line2d_8">
      <g>
       <use style="stroke:#000000;stroke-width:0.6;" x="34.731065" xlink:href="#mdb485b8ada" y="239.758125"/>
      </g>
     </g>
    </g>
    <g id="xtick_9">
     <g id="line2d_9">
      <g>
       <use style="stroke:#000000;stroke-width:0.6;" x="38.261193" xlink:href="#mdb485b8ada" y="239.758125"/>
      </g>
     </g>
    </g>
    <g id="xtick_10">
     <g id="line2d_10">
      <g>
       <use style="stroke:#000000;stroke-width:0.6;" x="41.374986" xlink:href="#mdb485b8ada" y="239.758125"/>
      </g>
     </g>
    </g>
    <g id="xtick_11">
     <g id="line2d_11">
      <g>
       <use style="stroke:#000000;stroke-width:0.6;" x="62.484886" xlink:href="#mdb485b8ada" y="239.758125"/>
      </g>
     </g>
    </g>
    <g id="xtick_12">
     <g id="line2d_12">
      <g>
       <use style="stroke:#000000;stroke-width:0.6;" x="73.204041" xlink:href="#mdb485b8ada" y="239.758125"/>
      </g>
     </g>
    </g>
    <g id="xtick_13">
     <g id="line2d_13">
      <g>
       <use style="stroke:#000000;stroke-width:0.6;" x="80.809403" xlink:href="#mdb485b8ada" y="239.758125"/>
      </g>
     </g>
    </g>
    <g id="xtick_14">
     <g id="line2d_14">
      <g>
       <use style="stroke:#000000;stroke-width:0.6;" x="86.70858" xlink:href="#mdb485b8ada" y="239.758125"/>
      </g>
     </g>
    </g>
    <g id="xtick_15">
     <g id="line2d_15">
      <g>
       <use style="stroke:#000000;stroke-width:0.6;" x="91.528558" xlink:href="#mdb485b8ada" y="239.758125"/>
      </g>
     </g>
    </g>
    <g id="xtick_16">
     <g id="line2d_16">
      <g>
       <use style="stroke:#000000;stroke-width:0.6;" x="95.603792" xlink:href="#mdb485b8ada" y="239.758125"/>
      </g>
     </g>
    </g>
    <g id="xtick_17">
     <g id="line2d_17">
      <g>
       <use style="stroke:#000000;stroke-width:0.6;" x="99.13392" xlink:href="#mdb485b8ada" y="239.758125"/>
      </g>
     </g>
    </g>
    <g id="xtick_18">
     <g id="line2d_18">
      <g>
       <use style="stroke:#000000;stroke-width:0.6;" x="102.247713" xlink:href="#mdb485b8ada" y="239.758125"/>
      </g>
     </g>
    </g>
    <g id="xtick_19">
     <g id="line2d_19">
      <g>
       <use style="stroke:#000000;stroke-width:0.6;" x="123.357613" xlink:href="#mdb485b8ada" y="239.758125"/>
      </g>
     </g>
    </g>
    <g id="xtick_20">
     <g id="line2d_20">
      <g>
       <use style="stroke:#000000;stroke-width:0.6;" x="134.076769" xlink:href="#mdb485b8ada" y="239.758125"/>
      </g>
     </g>
    </g>
    <g id="xtick_21">
     <g id="line2d_21">
      <g>
       <use style="stroke:#000000;stroke-width:0.6;" x="141.68213" xlink:href="#mdb485b8ada" y="239.758125"/>
      </g>
     </g>
    </g>
    <g id="xtick_22">
     <g id="line2d_22">
      <g>
       <use style="stroke:#000000;stroke-width:0.6;" x="147.581307" xlink:href="#mdb485b8ada" y="239.758125"/>
      </g>
     </g>
    </g>
    <g id="xtick_23">
     <g id="line2d_23">
      <g>
       <use style="stroke:#000000;stroke-width:0.6;" x="152.401285" xlink:href="#mdb485b8ada" y="239.758125"/>
      </g>
     </g>
    </g>
    <g id="xtick_24">
     <g id="line2d_24">
      <g>
       <use style="stroke:#000000;stroke-width:0.6;" x="156.476519" xlink:href="#mdb485b8ada" y="239.758125"/>
      </g>
     </g>
    </g>
    <g id="xtick_25">
     <g id="line2d_25">
      <g>
       <use style="stroke:#000000;stroke-width:0.6;" x="160.006647" xlink:href="#mdb485b8ada" y="239.758125"/>
      </g>
     </g>
    </g>
    <g id="xtick_26">
     <g id="line2d_26">
      <g>
       <use style="stroke:#000000;stroke-width:0.6;" x="163.120441" xlink:href="#mdb485b8ada" y="239.758125"/>
      </g>
     </g>
    </g>
    <g id="xtick_27">
     <g id="line2d_27">
      <g>
       <use style="stroke:#000000;stroke-width:0.6;" x="184.230341" xlink:href="#mdb485b8ada" y="239.758125"/>
      </g>
     </g>
    </g>
    <g id="xtick_28">
     <g id="line2d_28">
      <g>
       <use style="stroke:#000000;stroke-width:0.6;" x="194.949496" xlink:href="#mdb485b8ada" y="239.758125"/>
      </g>
     </g>
    </g>
    <g id="xtick_29">
     <g id="line2d_29">
      <g>
       <use style="stroke:#000000;stroke-width:0.6;" x="202.554858" xlink:href="#mdb485b8ada" y="239.758125"/>
      </g>
     </g>
    </g>
    <g id="xtick_30">
     <g id="line2d_30">
      <g>
       <use style="stroke:#000000;stroke-width:0.6;" x="208.454034" xlink:href="#mdb485b8ada" y="239.758125"/>
      </g>
     </g>
    </g>
    <g id="xtick_31">
     <g id="line2d_31">
      <g>
       <use style="stroke:#000000;stroke-width:0.6;" x="213.274013" xlink:href="#mdb485b8ada" y="239.758125"/>
      </g>
     </g>
    </g>
    <g id="xtick_32">
     <g id="line2d_32">
      <g>
       <use style="stroke:#000000;stroke-width:0.6;" x="217.349246" xlink:href="#mdb485b8ada" y="239.758125"/>
      </g>
     </g>
    </g>
    <g id="xtick_33">
     <g id="line2d_33">
      <g>
       <use style="stroke:#000000;stroke-width:0.6;" x="220.879374" xlink:href="#mdb485b8ada" y="239.758125"/>
      </g>
     </g>
    </g>
    <g id="xtick_34">
     <g id="line2d_34">
      <g>
       <use style="stroke:#000000;stroke-width:0.6;" x="223.993168" xlink:href="#mdb485b8ada" y="239.758125"/>
      </g>
     </g>
    </g>
    <g id="xtick_35">
     <g id="line2d_35">
      <g>
       <use style="stroke:#000000;stroke-width:0.6;" x="245.103068" xlink:href="#mdb485b8ada" y="239.758125"/>
      </g>
     </g>
    </g>
    <g id="xtick_36">
     <g id="line2d_36">
      <g>
       <use style="stroke:#000000;stroke-width:0.6;" x="255.822223" xlink:href="#mdb485b8ada" y="239.758125"/>
      </g>
     </g>
    </g>
    <g id="xtick_37">
     <g id="line2d_37">
      <g>
       <use style="stroke:#000000;stroke-width:0.6;" x="263.427585" xlink:href="#mdb485b8ada" y="239.758125"/>
      </g>
     </g>
    </g>
    <g id="xtick_38">
     <g id="line2d_38">
      <g>
       <use style="stroke:#000000;stroke-width:0.6;" x="269.326762" xlink:href="#mdb485b8ada" y="239.758125"/>
      </g>
     </g>
    </g>
    <g id="xtick_39">
     <g id="line2d_39">
      <g>
       <use style="stroke:#000000;stroke-width:0.6;" x="274.14674" xlink:href="#mdb485b8ada" y="239.758125"/>
      </g>
     </g>
    </g>
    <g id="xtick_40">
     <g id="line2d_40">
      <g>
       <use style="stroke:#000000;stroke-width:0.6;" x="278.221974" xlink:href="#mdb485b8ada" y="239.758125"/>
      </g>
     </g>
    </g>
    <g id="xtick_41">
     <g id="line2d_41">
      <g>
       <use style="stroke:#000000;stroke-width:0.6;" x="281.752102" xlink:href="#mdb485b8ada" y="239.758125"/>
      </g>
     </g>
    </g>
    <g id="xtick_42">
     <g id="line2d_42">
      <g>
       <use style="stroke:#000000;stroke-width:0.6;" x="284.865895" xlink:href="#mdb485b8ada" y="239.758125"/>
      </g>
     </g>
    </g>
    <g id="xtick_43">
     <g id="line2d_43">
      <g>
       <use style="stroke:#000000;stroke-width:0.6;" x="305.975795" xlink:href="#mdb485b8ada" y="239.758125"/>
      </g>
     </g>
    </g>
    <g id="xtick_44">
     <g id="line2d_44">
      <g>
       <use style="stroke:#000000;stroke-width:0.6;" x="316.69495" xlink:href="#mdb485b8ada" y="239.758125"/>
      </g>
     </g>
    </g>
    <g id="xtick_45">
     <g id="line2d_45">
      <g>
       <use style="stroke:#000000;stroke-width:0.6;" x="324.300312" xlink:href="#mdb485b8ada" y="239.758125"/>
      </g>
     </g>
    </g>
    <g id="xtick_46">
     <g id="line2d_46">
      <g>
       <use style="stroke:#000000;stroke-width:0.6;" x="330.199489" xlink:href="#mdb485b8ada" y="239.758125"/>
      </g>
     </g>
    </g>
    <g id="xtick_47">
     <g id="line2d_47">
      <g>
       <use style="stroke:#000000;stroke-width:0.6;" x="335.019467" xlink:href="#mdb485b8ada" y="239.758125"/>
      </g>
     </g>
    </g>
    <g id="xtick_48">
     <g id="line2d_48">
      <g>
       <use style="stroke:#000000;stroke-width:0.6;" x="339.094701" xlink:href="#mdb485b8ada" y="239.758125"/>
      </g>
     </g>
    </g>
    <g id="xtick_49">
     <g id="line2d_49">
      <g>
       <use style="stroke:#000000;stroke-width:0.6;" x="342.624829" xlink:href="#mdb485b8ada" y="239.758125"/>
      </g>
     </g>
    </g>
    <g id="xtick_50">
     <g id="line2d_50">
      <g>
       <use style="stroke:#000000;stroke-width:0.6;" x="345.738622" xlink:href="#mdb485b8ada" y="239.758125"/>
      </g>
     </g>
    </g>
    <g id="text_7">
     <!-- $\lambda$ -->
     <defs>
      <path d="M 36.71875 67.4375 
L 48.828125 0 
L 39.3125 0 
L 31.84375 40.4375 
L 5.125 0 
L -4.390625 0 
L 29.734375 52.4375 
L 28.03125 62.109375 
Q 26.953125 68.265625 21.734375 68.265625 
L 17.046875 68.265625 
L 18.5 75.984375 
L 24.21875 75.875 
Q 35.203125 75.734375 36.71875 67.4375 
z
" id="DejaVuSans-Oblique-3bb"/>
     </defs>
     <g transform="translate(191.542188 272.59375)scale(0.16 -0.16)">
      <use transform="translate(0 0.015625)" xlink:href="#DejaVuSans-Oblique-3bb"/>
     </g>
    </g>
   </g>
   <g id="matplotlib.axis_2">
    <g id="ytick_1">
     <g id="line2d_51">
      <defs>
       <path d="M 0 0 
L -3.5 0 
" id="m66651aa069" style="stroke:#000000;stroke-width:0.8;"/>
      </defs>
      <g>
       <use style="stroke:#000000;stroke-width:0.8;" x="28.942188" xlink:href="#m66651aa069" y="220.081273"/>
      </g>
     </g>
     <g id="text_8">
      <!-- −2 -->
      <g transform="translate(7.2 223.880492)scale(0.1 -0.1)">
       <use xlink:href="#DejaVuSans-2212"/>
       <use x="83.789062" xlink:href="#DejaVuSans-32"/>
      </g>
     </g>
    </g>
    <g id="ytick_2">
     <g id="line2d_52">
      <g>
       <use style="stroke:#000000;stroke-width:0.8;" x="28.942188" xlink:href="#m66651aa069" y="182.72469"/>
      </g>
     </g>
     <g id="text_9">
      <!-- −1 -->
      <g transform="translate(7.2 186.523909)scale(0.1 -0.1)">
       <use xlink:href="#DejaVuSans-2212"/>
       <use x="83.789062" xlink:href="#DejaVuSans-31"/>
      </g>
     </g>
    </g>
    <g id="ytick_3">
     <g id="line2d_53">
      <g>
       <use style="stroke:#000000;stroke-width:0.8;" x="28.942188" xlink:href="#m66651aa069" y="145.368108"/>
      </g>
     </g>
     <g id="text_10">
      <!-- 0 -->
      <g transform="translate(15.579688 149.167326)scale(0.1 -0.1)">
       <use xlink:href="#DejaVuSans-30"/>
      </g>
     </g>
    </g>
    <g id="ytick_4">
     <g id="line2d_54">
      <g>
       <use style="stroke:#000000;stroke-width:0.8;" x="28.942188" xlink:href="#m66651aa069" y="108.011525"/>
      </g>
     </g>
     <g id="text_11">
      <!-- 1 -->
      <g transform="translate(15.579688 111.810744)scale(0.1 -0.1)">
       <use xlink:href="#DejaVuSans-31"/>
      </g>
     </g>
    </g>
    <g id="ytick_5">
     <g id="line2d_55">
      <g>
       <use style="stroke:#000000;stroke-width:0.8;" x="28.942188" xlink:href="#m66651aa069" y="70.654943"/>
      </g>
     </g>
     <g id="text_12">
      <!-- 2 -->
      <g transform="translate(15.579688 74.454161)scale(0.1 -0.1)">
       <use xlink:href="#DejaVuSans-32"/>
      </g>
     </g>
    </g>
    <g id="ytick_6">
     <g id="line2d_56">
      <g>
       <use style="stroke:#000000;stroke-width:0.8;" x="28.942188" xlink:href="#m66651aa069" y="33.29836"/>
      </g>
     </g>
     <g id="text_13">
      <!-- 3 -->
      <g transform="translate(15.579688 37.097579)scale(0.1 -0.1)">
       <use xlink:href="#DejaVuSans-33"/>
      </g>
     </g>
    </g>
   </g>
   <g id="line2d_57">
    <path clip-path="url(#pcf7d8abe7f)" d="M 44.160369 32.201761 
L 50.371872 32.2175 
L 56.583375 32.237201 
L 62.794878 32.262294 
L 69.00638 32.293993 
L 75.217883 32.334248 
L 81.429386 32.384696 
L 87.640889 32.448467 
L 93.852392 32.529343 
L 100.063894 32.631205 
L 106.275397 32.759741 
L 112.4869 32.921774 
L 118.698403 33.12695 
L 124.909905 33.382553 
L 131.121408 33.704837 
L 137.332911 34.109202 
L 143.544414 34.614099 
L 149.755917 35.244318 
L 155.967419 36.027351 
L 162.178922 36.995188 
L 168.390425 38.190655 
L 174.601928 39.643926 
L 180.813431 41.416678 
L 187.024933 43.543627 
L 193.236436 46.072376 
L 199.447939 49.038389 
L 205.659442 52.473151 
L 211.870944 56.381356 
L 218.082447 60.749328 
L 224.29395 65.547457 
L 230.505453 70.690063 
L 236.716956 76.113836 
L 242.928458 81.714899 
L 249.139961 87.390299 
L 255.351464 93.027571 
L 261.562967 98.540125 
L 267.77447 103.856979 
L 273.985972 108.893974 
L 280.197475 113.625127 
L 286.408978 117.994689 
L 292.620481 121.974438 
L 298.831983 125.563143 
L 305.043486 128.750525 
L 311.254989 131.536734 
L 317.466492 133.943833 
L 323.677995 135.996441 
L 329.889497 137.728474 
L 336.101 139.166701 
L 342.312503 140.373432 
L 348.524006 141.349368 
" style="fill:none;stroke:#1f77b4;stroke-linecap:square;stroke-width:1.5;"/>
   </g>
   <g id="line2d_58">
    <path clip-path="url(#pcf7d8abe7f)" d="M 44.160369 201.560086 
L 50.371872 201.553543 
L 56.583375 201.545352 
L 62.794878 201.53492 
L 69.00638 201.521742 
L 75.217883 201.50501 
L 81.429386 201.484044 
L 87.640889 201.457546 
L 93.852392 201.423947 
L 100.063894 201.381643 
L 106.275397 201.328278 
L 112.4869 201.261037 
L 118.698403 201.175938 
L 124.909905 201.069994 
L 131.121408 200.936523 
L 137.332911 200.769229 
L 143.544414 200.560599 
L 149.755917 200.300567 
L 155.967419 199.97804 
L 162.178922 199.580185 
L 168.390425 199.089866 
L 174.601928 198.495196 
L 180.813431 197.771544 
L 187.024933 196.905179 
L 193.236436 195.876717 
L 199.447939 194.670993 
L 205.659442 193.272418 
L 211.870944 191.674717 
L 218.082447 189.875544 
L 224.29395 187.875534 
L 230.505453 185.697085 
L 236.716956 183.350127 
L 242.928458 180.862026 
L 249.139961 178.26531 
L 255.351464 175.601225 
L 261.562967 172.902899 
L 267.77447 170.207648 
L 273.985972 167.562601 
L 280.197475 164.991368 
L 286.408978 162.539496 
L 292.620481 160.238569 
L 298.831983 158.105751 
L 305.043486 156.166952 
L 311.254989 154.436547 
L 317.466492 152.915084 
L 323.677995 151.598248 
L 329.889497 150.473555 
L 336.101 149.528229 
L 342.312503 148.733412 
L 348.524006 148.0825 
" style="fill:none;stroke:#ff7f0e;stroke-linecap:square;stroke-width:1.5;"/>
   </g>
   <g id="line2d_59">
    <path clip-path="url(#pcf7d8abe7f)" d="M 44.160369 229.25195 
L 50.371872 229.237215 
L 56.583375 229.218769 
L 62.794878 229.195281 
L 69.00638 229.165613 
L 75.217883 229.127976 
L 81.429386 229.080798 
L 87.640889 229.02121 
L 93.852392 228.94571 
L 100.063894 228.85071 
L 106.275397 228.730979 
L 112.4869 228.580288 
L 118.698403 228.389848 
L 124.909905 228.153205 
L 131.121408 227.85577 
L 137.332911 227.484043 
L 143.544414 227.022161 
L 149.755917 226.449146 
L 155.967419 225.742514 
L 162.178922 224.877184 
L 168.390425 223.820441 
L 174.601928 222.552898 
L 180.813431 221.031725 
L 187.024933 219.241459 
L 193.236436 217.159521 
L 199.447939 214.779032 
L 205.659442 212.095177 
L 211.870944 209.130078 
L 218.082447 205.912933 
L 224.29395 202.476587 
L 230.505453 198.885216 
L 236.716956 195.169209 
L 242.928458 191.376102 
L 249.139961 187.546873 
L 255.351464 183.724299 
L 261.562967 179.939545 
L 267.77447 176.226364 
L 273.985972 172.638204 
L 280.197475 169.20112 
L 286.408978 165.972731 
L 292.620481 162.992213 
L 298.831983 160.279384 
L 305.043486 157.858221 
L 311.254989 155.738184 
L 317.466492 153.908309 
L 323.677995 152.352323 
L 329.889497 151.044508 
L 336.101 149.960629 
L 342.312503 149.059089 
L 348.524006 148.33168 
" style="fill:none;stroke:#2ca02c;stroke-linecap:square;stroke-width:1.5;"/>
   </g>
   <g id="line2d_60">
    <path clip-path="url(#pcf7d8abe7f)" d="M 44.160369 219.999289 
L 50.371872 219.991898 
L 56.583375 219.982647 
L 62.794878 219.970863 
L 69.00638 219.955977 
L 75.217883 219.937063 
L 81.429386 219.913367 
L 87.640889 219.883402 
L 93.852392 219.845387 
L 100.063894 219.797492 
L 106.275397 219.737032 
L 112.4869 219.660773 
L 118.698403 219.564145 
L 124.909905 219.443661 
L 131.121408 219.291577 
L 137.332911 219.1005 
L 143.544414 218.861506 
L 149.755917 218.562533 
L 155.967419 218.190047 
L 162.178922 217.728047 
L 168.390425 217.154894 
L 174.601928 216.454418 
L 180.813431 215.594168 
L 187.024933 214.5533 
L 193.236436 213.302944 
L 199.447939 211.817446 
L 205.659442 210.070476 
L 211.870944 208.045063 
L 218.082447 205.730115 
L 224.29395 203.119223 
L 230.505453 200.235544 
L 236.716956 197.088869 
L 242.928458 193.713606 
L 249.139961 190.154522 
L 255.351464 186.471333 
L 261.562967 182.714477 
L 267.77447 178.944908 
L 273.985972 175.238462 
L 280.197475 171.639678 
L 286.408978 168.221719 
L 292.620481 165.034962 
L 298.831983 162.106768 
L 305.043486 159.470487 
L 311.254989 157.141071 
L 317.466492 155.113152 
L 323.677995 153.374453 
L 329.889497 151.901971 
L 336.101 150.673146 
L 342.312503 149.645856 
L 348.524006 148.810786 
" style="fill:none;stroke:#d62728;stroke-linecap:square;stroke-width:1.5;"/>
   </g>
   <g id="line2d_61">
    <path clip-path="url(#pcf7d8abe7f)" d="M 44.160369 141.620173 
L 50.371872 141.620157 
L 56.583375 141.620137 
L 62.794878 141.620111 
L 69.00638 141.620077 
L 75.217883 141.620026 
L 81.429386 141.619964 
L 87.640889 141.619875 
L 93.852392 141.619748 
L 100.063894 141.619569 
L 106.275397 141.619312 
L 112.4869 141.618938 
L 118.698403 141.618386 
L 124.909905 141.617574 
L 131.121408 141.616357 
L 137.332911 141.614529 
L 143.544414 141.611783 
L 149.755917 141.607646 
L 155.967419 141.601434 
L 162.178922 141.592157 
L 168.390425 141.578333 
L 174.601928 141.558269 
L 180.813431 141.529153 
L 187.024933 141.48802 
L 193.236436 141.431302 
L 199.447939 141.355215 
L 205.659442 141.257458 
L 211.870944 141.136549 
L 218.082447 140.995031 
L 224.29395 140.839942 
L 230.505453 140.683316 
L 236.716956 140.542468 
L 242.928458 140.439232 
L 249.139961 140.39282 
L 255.351464 140.420736 
L 261.562967 140.535783 
L 267.77447 140.73745 
L 273.985972 141.018771 
L 280.197475 141.365897 
L 286.408978 141.755885 
L 292.620481 142.16743 
L 298.831983 142.581726 
L 305.043486 142.978951 
L 311.254989 143.347039 
L 317.466492 143.678555 
L 323.677995 143.969806 
L 329.889497 144.220664 
L 336.101 144.434309 
L 342.312503 144.611185 
L 348.524006 144.757931 
" style="fill:none;stroke:#9467bd;stroke-linecap:square;stroke-width:1.5;"/>
   </g>
   <g id="line2d_62">
    <path clip-path="url(#pcf7d8abe7f)" d="M 44.160369 185.860971 
L 50.371872 185.862154 
L 56.583375 185.863636 
L 62.794878 185.865516 
L 69.00638 185.867887 
L 75.217883 185.870838 
L 81.429386 185.874561 
L 87.640889 185.879195 
L 93.852392 185.884972 
L 100.063894 185.892124 
L 106.275397 185.900948 
L 112.4869 185.911736 
L 118.698403 185.924882 
L 124.909905 185.940417 
L 131.121408 185.958689 
L 137.332911 185.979577 
L 143.544414 186.002479 
L 149.755917 186.026089 
L 155.967419 186.047822 
L 162.178922 186.063029 
L 168.390425 186.06413 
L 174.601928 186.040052 
L 180.813431 185.972712 
L 187.024933 185.837551 
L 193.236436 185.601688 
L 199.447939 185.22165 
L 205.659442 184.650306 
L 211.870944 183.830284 
L 218.082447 182.708941 
L 224.29395 181.240787 
L 230.505453 179.408098 
L 236.716956 177.207866 
L 242.928458 174.676502 
L 249.139961 171.88044 
L 255.351464 168.921823 
L 261.562967 165.901584 
L 267.77447 162.930228 
L 273.985972 160.119038 
L 280.197475 157.537634 
L 286.408978 155.247662 
L 292.620481 153.276875 
L 298.831983 151.623034 
L 305.043486 150.266733 
L 311.254989 149.178187 
L 317.466492 148.317856 
L 323.677995 147.647052 
L 329.889497 147.127454 
L 336.101 146.731164 
L 342.312503 146.414395 
L 348.524006 146.183233 
" style="fill:none;stroke:#8c564b;stroke-linecap:square;stroke-width:1.5;"/>
   </g>
   <g id="line2d_63">
    <path clip-path="url(#pcf7d8abe7f)" d="M 44.160369 99.582178 
L 50.371872 99.588124 
L 56.583375 99.595567 
L 62.794878 99.605045 
L 69.00638 99.617017 
L 75.217883 99.63221 
L 81.429386 99.65125 
L 87.640889 99.675305 
L 93.852392 99.705789 
L 100.063894 99.744154 
L 106.275397 99.792519 
L 112.4869 99.85341 
L 118.698403 99.930396 
L 124.909905 100.026112 
L 131.121408 100.146503 
L 137.332911 100.297095 
L 143.544414 100.484419 
L 149.755917 100.717154 
L 155.967419 101.004686 
L 162.178922 101.357642 
L 168.390425 101.790011 
L 174.601928 102.31068 
L 180.813431 102.938811 
L 187.024933 103.683194 
L 193.236436 104.556734 
L 199.447939 105.567649 
L 205.659442 106.725566 
L 211.870944 108.031553 
L 218.082447 109.486799 
L 224.29395 111.093916 
L 230.505453 112.841121 
L 236.716956 114.732574 
L 242.928458 116.759451 
L 249.139961 118.905693 
L 255.351464 121.143012 
L 261.562967 123.442396 
L 267.77447 125.760498 
L 273.985972 128.041641 
L 280.197475 130.247461 
L 286.408978 132.325418 
L 292.620481 134.240873 
L 298.831983 135.977059 
L 305.043486 137.51825 
L 311.254989 138.861592 
L 317.466492 140.016181 
L 323.677995 140.994685 
L 329.889497 141.815177 
L 336.101 142.493734 
L 342.312503 143.05875 
L 348.524006 143.513685 
" style="fill:none;stroke:#e377c2;stroke-linecap:square;stroke-width:1.5;"/>
   </g>
   <g id="line2d_64">
    <path clip-path="url(#pcf7d8abe7f)" d="M 44.160369 191.197965 
L 50.371872 191.190465 
L 56.583375 191.181078 
L 62.794878 191.169121 
L 69.00638 191.154017 
L 75.217883 191.134838 
L 81.429386 191.110803 
L 87.640889 191.080423 
L 93.852392 191.041899 
L 100.063894 190.993383 
L 106.275397 190.932171 
L 112.4869 190.855022 
L 118.698403 190.757353 
L 124.909905 190.635713 
L 131.121408 190.482393 
L 137.332911 190.290107 
L 143.544414 190.050138 
L 149.755917 189.750793 
L 155.967419 189.379138 
L 162.178922 188.920168 
L 168.390425 188.353821 
L 174.601928 187.66609 
L 180.813431 186.828187 
L 187.024933 185.824138 
L 193.236436 184.631899 
L 199.447939 183.235169 
L 205.659442 181.619335 
L 211.870944 179.78251 
L 218.082447 177.73153 
L 224.29395 175.481407 
L 230.505453 173.074874 
L 236.716956 170.546341 
L 242.928458 167.953693 
L 249.139961 165.355466 
L 255.351464 162.818204 
L 261.562967 160.398011 
L 267.77447 158.138917 
L 273.985972 156.087081 
L 280.197475 154.25657 
L 286.408978 152.661579 
L 292.620481 151.300084 
L 298.831983 150.155486 
L 305.043486 149.206332 
L 311.254989 148.431605 
L 317.466492 147.804562 
L 323.677995 147.301459 
L 329.889497 146.899291 
L 336.101 146.583501 
L 342.312503 146.322792 
L 348.524006 146.12482 
" style="fill:none;stroke:#7f7f7f;stroke-linecap:square;stroke-width:1.5;"/>
   </g>
   <g id="line2d_65">
    <path clip-path="url(#pcf7d8abe7f)" d="M 44.160369 112.337768 
L 50.371872 112.345658 
L 56.583375 112.355536 
L 62.794878 112.368114 
L 69.00638 112.384004 
L 75.217883 112.404164 
L 81.429386 112.429437 
L 87.640889 112.461364 
L 93.852392 112.501824 
L 100.063894 112.552746 
L 106.275397 112.616946 
L 112.4869 112.697778 
L 118.698403 112.799981 
L 124.909905 112.927057 
L 131.121408 113.086896 
L 137.332911 113.286844 
L 143.544414 113.535562 
L 149.755917 113.844531 
L 155.967419 114.226142 
L 162.178922 114.694293 
L 168.390425 115.267153 
L 174.601928 115.955687 
L 180.813431 116.783655 
L 187.024933 117.759611 
L 193.236436 118.895214 
L 199.447939 120.192229 
L 205.659442 121.647861 
L 211.870944 123.241908 
L 218.082447 124.944397 
L 224.29395 126.717525 
L 230.505453 128.50508 
L 236.716956 130.26398 
L 242.928458 131.945696 
L 249.139961 133.516503 
L 255.351464 134.954027 
L 261.562967 136.249957 
L 267.77447 137.414215 
L 273.985972 138.453373 
L 280.197475 139.38701 
L 286.408978 140.224001 
L 292.620481 140.972911 
L 298.831983 141.642539 
L 305.043486 142.236745 
L 311.254989 142.75627 
L 317.466492 143.206417 
L 323.677995 143.591602 
L 329.889497 143.917769 
L 336.101 144.188997 
L 342.312503 144.41758 
L 348.524006 144.6027 
" style="fill:none;stroke:#bcbd22;stroke-linecap:square;stroke-width:1.5;"/>
   </g>
   <g id="line2d_66">
    <path clip-path="url(#pcf7d8abe7f)" d="M 44.160369 117.269036 
L 50.371872 117.275875 
L 56.583375 117.284435 
L 62.794878 117.295337 
L 69.00638 117.309107 
L 75.217883 117.326578 
L 81.429386 117.34848 
L 87.640889 117.376147 
L 93.852392 117.411207 
L 100.063894 117.455332 
L 106.275397 117.510959 
L 112.4869 117.580993 
L 118.698403 117.669536 
L 124.909905 117.779615 
L 131.121408 117.918057 
L 137.332911 118.091211 
L 143.544414 118.306556 
L 149.755917 118.574002 
L 155.967419 118.904229 
L 162.178922 119.309197 
L 168.390425 119.804533 
L 174.601928 120.399608 
L 180.813431 121.114817 
L 187.024933 121.957413 
L 193.236436 122.937396 
L 199.447939 124.056328 
L 205.659442 125.312332 
L 211.870944 126.68873 
L 218.082447 128.161223 
L 224.29395 129.699349 
L 230.505453 131.256537 
L 236.716956 132.797479 
L 242.928458 134.279922 
L 249.139961 135.672392 
L 255.351464 136.950285 
L 261.562967 138.099856 
L 267.77447 139.123342 
L 273.985972 140.021606 
L 280.197475 140.809836 
L 286.408978 141.49785 
L 292.620481 142.096708 
L 298.831983 142.61875 
L 305.043486 143.072627 
L 311.254989 143.463012 
L 317.466492 143.797137 
L 323.677995 144.080521 
L 329.889497 144.319033 
L 336.101 144.515722 
L 342.312503 144.682425 
L 348.524006 144.816286 
" style="fill:none;stroke:#17becf;stroke-linecap:square;stroke-width:1.5;"/>
   </g>
   <g id="line2d_67">
    <path clip-path="url(#pcf7d8abe7f)" d="M 44.160369 81.018765 
L 50.371872 81.024982 
L 56.583375 81.032762 
L 62.794878 81.042673 
L 69.00638 81.055193 
L 75.217883 81.071108 
L 81.429386 81.091041 
L 87.640889 81.116255 
L 93.852392 81.148252 
L 100.063894 81.188573 
L 106.275397 81.239489 
L 112.4869 81.303736 
L 118.698403 81.385184 
L 124.909905 81.486809 
L 131.121408 81.615197 
L 137.332911 81.776672 
L 143.544414 81.97891 
L 149.755917 82.232337 
L 155.967419 82.548757 
L 162.178922 82.942298 
L 168.390425 83.432217 
L 174.601928 84.033527 
L 180.813431 84.775995 
L 187.024933 85.680421 
L 193.236436 86.775777 
L 199.447939 88.090078 
L 205.659442 89.653338 
L 211.870944 91.489506 
L 218.082447 93.617895 
L 224.29395 96.053045 
L 230.505453 98.778943 
L 236.716956 101.786916 
L 242.928458 105.035602 
L 249.139961 108.467166 
L 255.351464 111.999999 
L 261.562967 115.558281 
L 267.77447 119.059932 
L 273.985972 122.415126 
L 280.197475 125.574118 
L 286.408978 128.47766 
L 292.620481 131.094415 
L 298.831983 133.419249 
L 305.043486 135.449656 
L 311.254989 137.194848 
L 317.466492 138.677613 
L 323.677995 139.922456 
L 329.889497 140.958496 
L 336.101 141.808143 
L 342.312503 142.516214 
L 348.524006 143.081329 
" style="fill:none;stroke:#1f77b4;stroke-linecap:square;stroke-width:1.5;"/>
   </g>
   <g id="line2d_68">
    <path clip-path="url(#pcf7d8abe7f)" d="M 44.160369 229.874489 
L 50.371872 229.857812 
L 56.583375 229.836936 
L 62.794878 229.810352 
L 69.00638 229.776771 
L 75.217883 229.734171 
L 81.429386 229.680767 
L 87.640889 229.613313 
L 93.852392 229.527838 
L 100.063894 229.420277 
L 106.275397 229.284698 
L 112.4869 229.114034 
L 118.698403 228.89831 
L 124.909905 228.630184 
L 131.121408 228.293078 
L 137.332911 227.871613 
L 143.544414 227.347693 
L 149.755917 226.69736 
L 155.967419 225.894864 
L 162.178922 224.911401 
L 168.390425 223.709357 
L 174.601928 222.26623 
L 180.813431 220.532721 
L 187.024933 218.490887 
L 193.236436 216.11521 
L 199.447939 213.399024 
L 205.659442 210.340814 
L 211.870944 206.971941 
L 218.082447 203.337018 
L 224.29395 199.490287 
L 230.505453 195.523896 
L 236.716956 191.497354 
L 242.928458 187.488497 
L 249.139961 183.558531 
L 255.351464 179.760794 
L 261.562967 176.12759 
L 267.77447 172.673436 
L 273.985972 169.426148 
L 280.197475 166.380686 
L 286.408978 163.560156 
L 292.620481 160.976579 
L 298.831983 158.629966 
L 305.043486 156.530355 
L 311.254989 154.68323 
L 317.466492 153.078302 
L 323.677995 151.703335 
L 329.889497 150.538913 
L 336.101 149.568683 
L 342.312503 148.754714 
L 348.524006 148.094156 
" style="fill:none;stroke:#ff7f0e;stroke-linecap:square;stroke-width:1.5;"/>
   </g>
   <g id="line2d_69">
    <path clip-path="url(#pcf7d8abe7f)" d="M 44.160369 160.999516 
L 50.371872 161.000833 
L 56.583375 161.002483 
L 62.794878 161.004583 
L 69.00638 161.007236 
L 75.217883 161.010598 
L 81.429386 161.014816 
L 87.640889 161.020141 
L 93.852392 161.026882 
L 100.063894 161.035362 
L 106.275397 161.046042 
L 112.4869 161.059473 
L 118.698403 161.076431 
L 124.909905 161.097472 
L 131.121408 161.123869 
L 137.332911 161.156787 
L 143.544414 161.197565 
L 149.755917 161.24795 
L 155.967419 161.309754 
L 162.178922 161.384887 
L 168.390425 161.475736 
L 174.601928 161.583258 
L 180.813431 161.709879 
L 187.024933 161.854933 
L 193.236436 162.017261 
L 199.447939 162.192691 
L 205.659442 162.374581 
L 211.870944 162.551246 
L 218.082447 162.706711 
L 224.29395 162.820343 
L 230.505453 162.867904 
L 236.716956 162.822209 
L 242.928458 162.652786 
L 249.139961 162.337053 
L 255.351464 161.856667 
L 261.562967 161.196154 
L 267.77447 160.361035 
L 273.985972 159.367082 
L 280.197475 158.23676 
L 286.408978 157.016306 
L 292.620481 155.749576 
L 298.831983 154.476135 
L 305.043486 153.245678 
L 311.254989 152.092177 
L 317.466492 151.038623 
L 323.677995 150.099236 
L 329.889497 149.27856 
L 336.101 148.572921 
L 342.312503 147.97919 
L 348.524006 147.481921 
" style="fill:none;stroke:#2ca02c;stroke-linecap:square;stroke-width:1.5;"/>
   </g>
   <g id="line2d_70">
    <path clip-path="url(#pcf7d8abe7f)" d="M 44.160369 160.91365 
L 50.371872 160.911944 
L 56.583375 160.909807 
L 62.794878 160.907087 
L 69.00638 160.903652 
L 75.217883 160.899294 
L 81.429386 160.893832 
L 87.640889 160.886935 
L 93.852392 160.878197 
L 100.063894 160.867204 
L 106.275397 160.853354 
L 112.4869 160.83593 
L 118.698403 160.813918 
L 124.909905 160.786583 
L 131.121408 160.75225 
L 137.332911 160.709381 
L 143.544414 160.656176 
L 149.755917 160.590264 
L 155.967419 160.509128 
L 162.178922 160.40999 
L 168.390425 160.289256 
L 174.601928 160.144909 
L 180.813431 159.972365 
L 187.024933 159.770235 
L 193.236436 159.536369 
L 199.447939 159.270416 
L 205.659442 158.971827 
L 211.870944 158.642769 
L 218.082447 158.284833 
L 224.29395 157.898021 
L 230.505453 157.483708 
L 236.716956 157.035772 
L 242.928458 156.54596 
L 249.139961 156.005948 
L 255.351464 155.406908 
L 261.562967 154.740274 
L 267.77447 154.008066 
L 273.985972 153.221359 
L 280.197475 152.394644 
L 286.408978 151.557542 
L 292.620481 150.736596 
L 298.831983 149.954298 
L 305.043486 149.233813 
L 311.254989 148.588719 
L 317.466492 148.024034 
L 323.677995 147.539999 
L 329.889497 147.131766 
L 336.101 146.790898 
L 342.312503 146.511631 
L 348.524006 146.284638 
" style="fill:none;stroke:#d62728;stroke-linecap:square;stroke-width:1.5;"/>
   </g>
   <g id="line2d_71">
    <path clip-path="url(#pcf7d8abe7f)" d="M 44.160369 113.927269 
L 50.371872 113.918696 
L 56.583375 113.907961 
L 62.794878 113.894293 
L 69.00638 113.877027 
L 75.217883 113.855142 
L 81.429386 113.827692 
L 87.640889 113.793037 
L 93.852392 113.749146 
L 100.063894 113.693938 
L 106.275397 113.624386 
L 112.4869 113.536901 
L 118.698403 113.426417 
L 124.909905 113.289267 
L 131.121408 113.117103 
L 137.332911 112.902272 
L 143.544414 112.635887 
L 149.755917 112.306314 
L 155.967419 111.901337 
L 162.178922 111.407786 
L 168.390425 110.808907 
L 174.601928 110.096633 
L 180.813431 109.25182 
L 187.024933 108.273688 
L 193.236436 107.161686 
L 199.447939 105.930505 
L 205.659442 104.604572 
L 211.870944 103.233735 
L 218.082447 101.885332 
L 224.29395 100.644443 
L 230.505453 99.616119 
L 236.716956 98.906712 
L 242.928458 98.635231 
L 249.139961 98.887723 
L 255.351464 99.730239 
L 261.562967 101.212052 
L 267.77447 103.305583 
L 273.985972 105.951629 
L 280.197475 109.062987 
L 286.408978 112.484413 
L 292.620481 116.070522 
L 298.831983 119.691095 
L 305.043486 123.191946 
L 311.254989 126.471038 
L 317.466492 129.459788 
L 323.677995 132.117661 
L 329.889497 134.43315 
L 336.101 136.420851 
L 342.312503 138.086216 
L 348.524006 139.478841 
" style="fill:none;stroke:#9467bd;stroke-linecap:square;stroke-width:1.5;"/>
   </g>
   <g id="line2d_72">
    <path clip-path="url(#pcf7d8abe7f)" d="M 44.160369 159.349724 
L 50.371872 159.337483 
L 56.583375 159.322156 
L 62.794878 159.302641 
L 69.00638 159.27799 
L 75.217883 159.24673 
L 81.429386 159.207533 
L 87.640889 159.158037 
L 93.852392 159.095334 
L 100.063894 159.016448 
L 106.275397 158.917043 
L 112.4869 158.791964 
L 118.698403 158.633941 
L 124.909905 158.437665 
L 131.121408 158.191105 
L 137.332911 157.88317 
L 143.544414 157.500899 
L 149.755917 157.027238 
L 155.967419 156.444074 
L 162.178922 155.731526 
L 168.390425 154.863969 
L 174.601928 153.827554 
L 180.813431 152.590798 
L 187.024933 151.146871 
L 193.236436 149.48639 
L 199.447939 147.617792 
L 205.659442 145.55814 
L 211.870944 143.354476 
L 218.082447 141.070355 
L 224.29395 138.784228 
L 230.505453 136.601064 
L 236.716956 134.612261 
L 242.928458 132.921419 
L 249.139961 131.602376 
L 255.351464 130.710103 
L 261.562967 130.279992 
L 267.77447 130.292427 
L 273.985972 130.714569 
L 280.197475 131.48625 
L 286.408978 132.519246 
L 292.620481 133.729172 
L 298.831983 135.037921 
L 305.043486 136.358154 
L 311.254989 137.632755 
L 317.466492 138.818661 
L 323.677995 139.888869 
L 329.889497 140.830831 
L 336.101 141.648323 
L 342.312503 142.331711 
L 348.524006 142.909267 
" style="fill:none;stroke:#8c564b;stroke-linecap:square;stroke-width:1.5;"/>
   </g>
   <g id="line2d_73">
    <path clip-path="url(#pcf7d8abe7f)" d="M 44.160369 172.072105 
L 50.371872 172.06394 
L 56.583375 172.053719 
L 62.794878 172.040703 
L 69.00638 172.024262 
L 75.217883 172.003407 
L 81.429386 171.97726 
L 87.640889 171.944235 
L 93.852392 171.902389 
L 100.063894 171.849731 
L 106.275397 171.783357 
L 112.4869 171.699809 
L 118.698403 171.594206 
L 124.909905 171.462958 
L 131.121408 171.297957 
L 137.332911 171.091683 
L 143.544414 170.835298 
L 149.755917 170.517113 
L 155.967419 170.124582 
L 162.178922 169.643717 
L 168.390425 169.056297 
L 174.601928 168.35162 
L 180.813431 167.50614 
L 187.024933 166.512019 
L 193.236436 165.358321 
L 199.447939 164.044265 
L 205.659442 162.573067 
L 211.870944 160.965674 
L 218.082447 159.252079 
L 224.29395 157.470042 
L 230.505453 155.676961 
L 236.716956 153.918528 
L 242.928458 152.25136 
L 249.139961 150.719539 
L 255.351464 149.360986 
L 261.562967 148.202037 
L 267.77447 147.245954 
L 273.985972 146.4942 
L 280.197475 145.928191 
L 286.408978 145.524759 
L 292.620481 145.257433 
L 298.831983 145.097326 
L 305.043486 145.013813 
L 311.254989 144.985648 
L 317.466492 144.992809 
L 323.677995 145.020815 
L 329.889497 145.058879 
L 336.101 145.103593 
L 342.312503 145.140119 
L 348.524006 145.178888 
" style="fill:none;stroke:#e377c2;stroke-linecap:square;stroke-width:1.5;"/>
   </g>
   <g id="line2d_74">
    <path clip-path="url(#pcf7d8abe7f)" d="M 44.160369 224.071465 
L 50.371872 224.068296 
L 56.583375 224.064331 
L 62.794878 224.059275 
L 69.00638 224.052888 
L 75.217883 224.04473 
L 81.429386 224.03453 
L 87.640889 224.021584 
L 93.852392 224.005096 
L 100.063894 223.984243 
L 106.275397 223.957793 
L 112.4869 223.92422 
L 118.698403 223.881351 
L 124.909905 223.827363 
L 131.121408 223.758374 
L 137.332911 223.670399 
L 143.544414 223.558329 
L 149.755917 223.41494 
L 155.967419 223.231403 
L 162.178922 222.996228 
L 168.390425 222.693004 
L 174.601928 222.305839 
L 180.813431 221.805457 
L 187.024933 221.164096 
L 193.236436 220.343629 
L 199.447939 219.299613 
L 205.659442 217.982987 
L 211.870944 216.341044 
L 218.082447 214.324312 
L 224.29395 211.887383 
L 230.505453 209.018204 
L 236.716956 205.704018 
L 242.928458 201.971621 
L 249.139961 197.878773 
L 255.351464 193.519373 
L 261.562967 188.983914 
L 267.77447 184.386748 
L 273.985972 179.856026 
L 280.197475 175.475843 
L 286.408978 171.351622 
L 292.620481 167.550952 
L 298.831983 164.105118 
L 305.043486 161.043954 
L 311.254989 158.372556 
L 317.466492 156.073606 
L 323.677995 154.122598 
L 329.889497 152.484604 
L 336.101 151.128518 
L 342.312503 149.998467 
L 348.524006 149.087444 
" style="fill:none;stroke:#7f7f7f;stroke-linecap:square;stroke-width:1.5;"/>
   </g>
   <g id="line2d_75">
    <path clip-path="url(#pcf7d8abe7f)" d="M 44.160369 147.978929 
L 50.371872 147.985607 
L 56.583375 147.993969 
L 62.794878 148.004613 
L 69.00638 148.018059 
L 75.217883 148.035098 
L 81.429386 148.056466 
L 87.640889 148.083435 
L 93.852392 148.11758 
L 100.063894 148.160512 
L 106.275397 148.214569 
L 112.4869 148.282517 
L 118.698403 148.368257 
L 124.909905 148.47458 
L 131.121408 148.607874 
L 137.332911 148.773931 
L 143.544414 148.979429 
L 149.755917 149.233056 
L 155.967419 149.543794 
L 162.178922 149.921169 
L 168.390425 150.377174 
L 174.601928 150.917041 
L 180.813431 151.554082 
L 187.024933 152.287815 
L 193.236436 153.118159 
L 199.447939 154.034673 
L 205.659442 155.023592 
L 211.870944 156.055011 
L 218.082447 157.093792 
L 224.29395 158.100184 
L 230.505453 159.024136 
L 236.716956 159.825096 
L 242.928458 160.455046 
L 249.139961 160.878962 
L 255.351464 161.065975 
L 261.562967 160.988156 
L 267.77447 160.642909 
L 273.985972 160.035818 
L 280.197475 159.187366 
L 286.408978 158.14734 
L 292.620481 156.968709 
L 298.831983 155.70501 
L 305.043486 154.426429 
L 311.254989 153.184463 
L 317.466492 152.018918 
L 323.677995 150.957485 
L 329.889497 150.015138 
L 336.101 149.193298 
L 342.312503 148.498777 
L 348.524006 147.909234 
" style="fill:none;stroke:#bcbd22;stroke-linecap:square;stroke-width:1.5;"/>
   </g>
   <g id="line2d_76">
    <path clip-path="url(#pcf7d8abe7f)" d="M 44.160369 127.719969 
L 50.371872 127.722656 
L 56.583375 127.72602 
L 62.794878 127.730308 
L 69.00638 127.735727 
L 75.217883 127.742634 
L 81.429386 127.751281 
L 87.640889 127.762245 
L 93.852392 127.776195 
L 100.063894 127.793822 
L 106.275397 127.816157 
L 112.4869 127.844468 
L 118.698403 127.880553 
L 124.909905 127.925893 
L 131.121408 127.983661 
L 137.332911 128.057074 
L 143.544414 128.150186 
L 149.755917 128.26866 
L 155.967419 128.419282 
L 162.178922 128.61065 
L 168.390425 128.854846 
L 174.601928 129.162775 
L 180.813431 129.554657 
L 187.024933 130.047532 
L 193.236436 130.663849 
L 199.447939 131.426749 
L 205.659442 132.35702 
L 211.870944 133.471477 
L 218.082447 134.775104 
L 224.29395 136.259478 
L 230.505453 137.889196 
L 236.716956 139.61778 
L 242.928458 141.370362 
L 249.139961 143.06936 
L 255.351464 144.627969 
L 261.562967 145.972366 
L 267.77447 147.05848 
L 273.985972 147.855289 
L 280.197475 148.368553 
L 286.408978 148.627171 
L 292.620481 148.671375 
L 298.831983 148.549421 
L 305.043486 148.318673 
L 311.254989 148.02226 
L 317.466492 147.697306 
L 323.677995 147.371257 
L 329.889497 147.063055 
L 336.101 146.778236 
L 342.312503 146.538578 
L 348.524006 146.324418 
" style="fill:none;stroke:#17becf;stroke-linecap:square;stroke-width:1.5;"/>
   </g>
   <g id="patch_3">
    <path d="M 28.942188 239.758125 
L 28.942188 22.318125 
" style="fill:none;stroke:#000000;stroke-linecap:square;stroke-linejoin:miter;stroke-width:0.8;"/>
   </g>
   <g id="patch_4">
    <path d="M 363.742188 239.758125 
L 363.742188 22.318125 
" style="fill:none;stroke:#000000;stroke-linecap:square;stroke-linejoin:miter;stroke-width:0.8;"/>
   </g>
   <g id="patch_5">
    <path d="M 28.942188 239.758125 
L 363.742188 239.758125 
" style="fill:none;stroke:#000000;stroke-linecap:square;stroke-linejoin:miter;stroke-width:0.8;"/>
   </g>
   <g id="patch_6">
    <path d="M 28.942188 22.318125 
L 363.742188 22.318125 
" style="fill:none;stroke:#000000;stroke-linecap:square;stroke-linejoin:miter;stroke-width:0.8;"/>
   </g>
   <g id="text_14">
    <!-- Regularization Path -->
    <defs>
     <path d="M 44.390625 34.1875 
Q 47.5625 33.109375 50.5625 29.59375 
Q 53.5625 26.078125 56.59375 19.921875 
L 66.609375 0 
L 56 0 
L 46.6875 18.703125 
Q 43.0625 26.03125 39.671875 28.421875 
Q 36.28125 30.8125 30.421875 30.8125 
L 19.671875 30.8125 
L 19.671875 0 
L 9.8125 0 
L 9.8125 72.90625 
L 32.078125 72.90625 
Q 44.578125 72.90625 50.734375 67.671875 
Q 56.890625 62.453125 56.890625 51.90625 
Q 56.890625 45.015625 53.6875 40.46875 
Q 50.484375 35.9375 44.390625 34.1875 
z
M 19.671875 64.796875 
L 19.671875 38.921875 
L 32.078125 38.921875 
Q 39.203125 38.921875 42.84375 42.21875 
Q 46.484375 45.515625 46.484375 51.90625 
Q 46.484375 58.296875 42.84375 61.546875 
Q 39.203125 64.796875 32.078125 64.796875 
z
" id="DejaVuSans-52"/>
     <path d="M 56.203125 29.59375 
L 56.203125 25.203125 
L 14.890625 25.203125 
Q 15.484375 15.921875 20.484375 11.0625 
Q 25.484375 6.203125 34.421875 6.203125 
Q 39.59375 6.203125 44.453125 7.46875 
Q 49.3125 8.734375 54.109375 11.28125 
L 54.109375 2.78125 
Q 49.265625 0.734375 44.1875 -0.34375 
Q 39.109375 -1.421875 33.890625 -1.421875 
Q 20.796875 -1.421875 13.15625 6.1875 
Q 5.515625 13.8125 5.515625 26.8125 
Q 5.515625 40.234375 12.765625 48.109375 
Q 20.015625 56 32.328125 56 
Q 43.359375 56 49.78125 48.890625 
Q 56.203125 41.796875 56.203125 29.59375 
z
M 47.21875 32.234375 
Q 47.125 39.59375 43.09375 43.984375 
Q 39.0625 48.390625 32.421875 48.390625 
Q 24.90625 48.390625 20.390625 44.140625 
Q 15.875 39.890625 15.1875 32.171875 
z
" id="DejaVuSans-65"/>
     <path d="M 45.40625 27.984375 
Q 45.40625 37.75 41.375 43.109375 
Q 37.359375 48.484375 30.078125 48.484375 
Q 22.859375 48.484375 18.828125 43.109375 
Q 14.796875 37.75 14.796875 27.984375 
Q 14.796875 18.265625 18.828125 12.890625 
Q 22.859375 7.515625 30.078125 7.515625 
Q 37.359375 7.515625 41.375 12.890625 
Q 45.40625 18.265625 45.40625 27.984375 
z
M 54.390625 6.78125 
Q 54.390625 -7.171875 48.1875 -13.984375 
Q 42 -20.796875 29.203125 -20.796875 
Q 24.46875 -20.796875 20.265625 -20.09375 
Q 16.0625 -19.390625 12.109375 -17.921875 
L 12.109375 -9.1875 
Q 16.0625 -11.328125 19.921875 -12.34375 
Q 23.78125 -13.375 27.78125 -13.375 
Q 36.625 -13.375 41.015625 -8.765625 
Q 45.40625 -4.15625 45.40625 5.171875 
L 45.40625 9.625 
Q 42.625 4.78125 38.28125 2.390625 
Q 33.9375 0 27.875 0 
Q 17.828125 0 11.671875 7.65625 
Q 5.515625 15.328125 5.515625 27.984375 
Q 5.515625 40.671875 11.671875 48.328125 
Q 17.828125 56 27.875 56 
Q 33.9375 56 38.28125 53.609375 
Q 42.625 51.21875 45.40625 46.390625 
L 45.40625 54.6875 
L 54.390625 54.6875 
z
" id="DejaVuSans-67"/>
     <path d="M 8.5 21.578125 
L 8.5 54.6875 
L 17.484375 54.6875 
L 17.484375 21.921875 
Q 17.484375 14.15625 20.5 10.265625 
Q 23.53125 6.390625 29.59375 6.390625 
Q 36.859375 6.390625 41.078125 11.03125 
Q 45.3125 15.671875 45.3125 23.6875 
L 45.3125 54.6875 
L 54.296875 54.6875 
L 54.296875 0 
L 45.3125 0 
L 45.3125 8.40625 
Q 42.046875 3.421875 37.71875 1 
Q 33.40625 -1.421875 27.6875 -1.421875 
Q 18.265625 -1.421875 13.375 4.4375 
Q 8.5 10.296875 8.5 21.578125 
z
M 31.109375 56 
z
" id="DejaVuSans-75"/>
     <path d="M 9.421875 75.984375 
L 18.40625 75.984375 
L 18.40625 0 
L 9.421875 0 
z
" id="DejaVuSans-6c"/>
     <path d="M 34.28125 27.484375 
Q 23.390625 27.484375 19.1875 25 
Q 14.984375 22.515625 14.984375 16.5 
Q 14.984375 11.71875 18.140625 8.90625 
Q 21.296875 6.109375 26.703125 6.109375 
Q 34.1875 6.109375 38.703125 11.40625 
Q 43.21875 16.703125 43.21875 25.484375 
L 43.21875 27.484375 
z
M 52.203125 31.203125 
L 52.203125 0 
L 43.21875 0 
L 43.21875 8.296875 
Q 40.140625 3.328125 35.546875 0.953125 
Q 30.953125 -1.421875 24.3125 -1.421875 
Q 15.921875 -1.421875 10.953125 3.296875 
Q 6 8.015625 6 15.921875 
Q 6 25.140625 12.171875 29.828125 
Q 18.359375 34.515625 30.609375 34.515625 
L 43.21875 34.515625 
L 43.21875 35.40625 
Q 43.21875 41.609375 39.140625 45 
Q 35.0625 48.390625 27.6875 48.390625 
Q 23 48.390625 18.546875 47.265625 
Q 14.109375 46.140625 10.015625 43.890625 
L 10.015625 52.203125 
Q 14.9375 54.109375 19.578125 55.046875 
Q 24.21875 56 28.609375 56 
Q 40.484375 56 46.34375 49.84375 
Q 52.203125 43.703125 52.203125 31.203125 
z
" id="DejaVuSans-61"/>
     <path d="M 41.109375 46.296875 
Q 39.59375 47.171875 37.8125 47.578125 
Q 36.03125 48 33.890625 48 
Q 26.265625 48 22.1875 43.046875 
Q 18.109375 38.09375 18.109375 28.8125 
L 18.109375 0 
L 9.078125 0 
L 9.078125 54.6875 
L 18.109375 54.6875 
L 18.109375 46.1875 
Q 20.953125 51.171875 25.484375 53.578125 
Q 30.03125 56 36.53125 56 
Q 37.453125 56 38.578125 55.875 
Q 39.703125 55.765625 41.0625 55.515625 
z
" id="DejaVuSans-72"/>
     <path d="M 9.421875 54.6875 
L 18.40625 54.6875 
L 18.40625 0 
L 9.421875 0 
z
M 9.421875 75.984375 
L 18.40625 75.984375 
L 18.40625 64.59375 
L 9.421875 64.59375 
z
" id="DejaVuSans-69"/>
     <path d="M 5.515625 54.6875 
L 48.1875 54.6875 
L 48.1875 46.484375 
L 14.40625 7.171875 
L 48.1875 7.171875 
L 48.1875 0 
L 4.296875 0 
L 4.296875 8.203125 
L 38.09375 47.515625 
L 5.515625 47.515625 
z
" id="DejaVuSans-7a"/>
     <path d="M 18.3125 70.21875 
L 18.3125 54.6875 
L 36.8125 54.6875 
L 36.8125 47.703125 
L 18.3125 47.703125 
L 18.3125 18.015625 
Q 18.3125 11.328125 20.140625 9.421875 
Q 21.96875 7.515625 27.59375 7.515625 
L 36.8125 7.515625 
L 36.8125 0 
L 27.59375 0 
Q 17.1875 0 13.234375 3.875 
Q 9.28125 7.765625 9.28125 18.015625 
L 9.28125 47.703125 
L 2.6875 47.703125 
L 2.6875 54.6875 
L 9.28125 54.6875 
L 9.28125 70.21875 
z
" id="DejaVuSans-74"/>
     <path d="M 30.609375 48.390625 
Q 23.390625 48.390625 19.1875 42.75 
Q 14.984375 37.109375 14.984375 27.296875 
Q 14.984375 17.484375 19.15625 11.84375 
Q 23.34375 6.203125 30.609375 6.203125 
Q 37.796875 6.203125 41.984375 11.859375 
Q 46.1875 17.53125 46.1875 27.296875 
Q 46.1875 37.015625 41.984375 42.703125 
Q 37.796875 48.390625 30.609375 48.390625 
z
M 30.609375 56 
Q 42.328125 56 49.015625 48.375 
Q 55.71875 40.765625 55.71875 27.296875 
Q 55.71875 13.875 49.015625 6.21875 
Q 42.328125 -1.421875 30.609375 -1.421875 
Q 18.84375 -1.421875 12.171875 6.21875 
Q 5.515625 13.875 5.515625 27.296875 
Q 5.515625 40.765625 12.171875 48.375 
Q 18.84375 56 30.609375 56 
z
" id="DejaVuSans-6f"/>
     <path d="M 54.890625 33.015625 
L 54.890625 0 
L 45.90625 0 
L 45.90625 32.71875 
Q 45.90625 40.484375 42.875 44.328125 
Q 39.84375 48.1875 33.796875 48.1875 
Q 26.515625 48.1875 22.3125 43.546875 
Q 18.109375 38.921875 18.109375 30.90625 
L 18.109375 0 
L 9.078125 0 
L 9.078125 54.6875 
L 18.109375 54.6875 
L 18.109375 46.1875 
Q 21.34375 51.125 25.703125 53.5625 
Q 30.078125 56 35.796875 56 
Q 45.21875 56 50.046875 50.171875 
Q 54.890625 44.34375 54.890625 33.015625 
z
" id="DejaVuSans-6e"/>
     <path id="DejaVuSans-20"/>
     <path d="M 19.671875 64.796875 
L 19.671875 37.40625 
L 32.078125 37.40625 
Q 38.96875 37.40625 42.71875 40.96875 
Q 46.484375 44.53125 46.484375 51.125 
Q 46.484375 57.671875 42.71875 61.234375 
Q 38.96875 64.796875 32.078125 64.796875 
z
M 9.8125 72.90625 
L 32.078125 72.90625 
Q 44.34375 72.90625 50.609375 67.359375 
Q 56.890625 61.8125 56.890625 51.125 
Q 56.890625 40.328125 50.609375 34.8125 
Q 44.34375 29.296875 32.078125 29.296875 
L 19.671875 29.296875 
L 19.671875 0 
L 9.8125 0 
z
" id="DejaVuSans-50"/>
     <path d="M 54.890625 33.015625 
L 54.890625 0 
L 45.90625 0 
L 45.90625 32.71875 
Q 45.90625 40.484375 42.875 44.328125 
Q 39.84375 48.1875 33.796875 48.1875 
Q 26.515625 48.1875 22.3125 43.546875 
Q 18.109375 38.921875 18.109375 30.90625 
L 18.109375 0 
L 9.078125 0 
L 9.078125 75.984375 
L 18.109375 75.984375 
L 18.109375 46.1875 
Q 21.34375 51.125 25.703125 53.5625 
Q 30.078125 56 35.796875 56 
Q 45.21875 56 50.046875 50.171875 
Q 54.890625 44.34375 54.890625 33.015625 
z
" id="DejaVuSans-68"/>
    </defs>
    <g transform="translate(137.725 16.318125)scale(0.12 -0.12)">
     <use xlink:href="#DejaVuSans-52"/>
     <use x="69.419922" xlink:href="#DejaVuSans-65"/>
     <use x="130.943359" xlink:href="#DejaVuSans-67"/>
     <use x="194.419922" xlink:href="#DejaVuSans-75"/>
     <use x="257.798828" xlink:href="#DejaVuSans-6c"/>
     <use x="285.582031" xlink:href="#DejaVuSans-61"/>
     <use x="346.861328" xlink:href="#DejaVuSans-72"/>
     <use x="387.974609" xlink:href="#DejaVuSans-69"/>
     <use x="415.757812" xlink:href="#DejaVuSans-7a"/>
     <use x="468.248047" xlink:href="#DejaVuSans-61"/>
     <use x="529.527344" xlink:href="#DejaVuSans-74"/>
     <use x="568.736328" xlink:href="#DejaVuSans-69"/>
     <use x="596.519531" xlink:href="#DejaVuSans-6f"/>
     <use x="657.701172" xlink:href="#DejaVuSans-6e"/>
     <use x="721.080078" xlink:href="#DejaVuSans-20"/>
     <use x="752.867188" xlink:href="#DejaVuSans-50"/>
     <use x="813.107422" xlink:href="#DejaVuSans-61"/>
     <use x="874.386719" xlink:href="#DejaVuSans-74"/>
     <use x="913.595703" xlink:href="#DejaVuSans-68"/>
    </g>
   </g>
  </g>
 </g>
 <defs>
  <clipPath id="pcf7d8abe7f">
   <rect height="217.44" width="334.8" x="28.942188" y="22.318125"/>
  </clipPath>
 </defs>
</svg>
