<?xml version="1.0" encoding="utf-8" standalone="no"?>
<!DOCTYPE svg PUBLIC "-//W3C//DTD SVG 1.1//EN"
  "http://www.w3.org/Graphics/SVG/1.1/DTD/svg11.dtd">
<!-- Created with matplotlib (http://matplotlib.org/) -->
<svg height="271.503125pt" version="1.1" viewBox="0 0 381.965625 271.503125" width="381.965625pt" xmlns="http://www.w3.org/2000/svg" xmlns:xlink="http://www.w3.org/1999/xlink">
 <defs>
  <style type="text/css">
*{stroke-linecap:butt;stroke-linejoin:round;}
  </style>
 </defs>
 <g id="figure_1">
  <g id="patch_1">
   <path d="M 0 271.503125 
L 381.965625 271.503125 
L 381.965625 0 
L 0 0 
z
" style="fill:none;"/>
  </g>
  <g id="axes_1">
   <g id="patch_2">
    <path d="M 36.465625 228.14 
L 371.265625 228.14 
L 371.265625 10.7 
L 36.465625 10.7 
z
" style="fill:#ffffff;"/>
   </g>
   <g id="matplotlib.axis_1">
    <g id="xtick_1">
     <g id="line2d_1">
      <defs>
       <path d="M 0 0 
L 0 3.5 
" id="mbfca81890f" style="stroke:#000000;stroke-width:0.8;"/>
      </defs>
      <g>
       <use style="stroke:#000000;stroke-width:0.8;" x="51.683807" xlink:href="#mbfca81890f" y="228.14"/>
      </g>
     </g>
     <g id="text_1">
      <!-- $\mathdefault{10^{-2}}$ -->
      <defs>
       <path d="M 12.40625 8.296875 
L 28.515625 8.296875 
L 28.515625 63.921875 
L 10.984375 60.40625 
L 10.984375 69.390625 
L 28.421875 72.90625 
L 38.28125 72.90625 
L 38.28125 8.296875 
L 54.390625 8.296875 
L 54.390625 0 
L 12.40625 0 
z
" id="DejaVuSans-31"/>
       <path d="M 31.78125 66.40625 
Q 24.171875 66.40625 20.328125 58.90625 
Q 16.5 51.421875 16.5 36.375 
Q 16.5 21.390625 20.328125 13.890625 
Q 24.171875 6.390625 31.78125 6.390625 
Q 39.453125 6.390625 43.28125 13.890625 
Q 47.125 21.390625 47.125 36.375 
Q 47.125 51.421875 43.28125 58.90625 
Q 39.453125 66.40625 31.78125 66.40625 
z
M 31.78125 74.21875 
Q 44.046875 74.21875 50.515625 64.515625 
Q 56.984375 54.828125 56.984375 36.375 
Q 56.984375 17.96875 50.515625 8.265625 
Q 44.046875 -1.421875 31.78125 -1.421875 
Q 19.53125 -1.421875 13.0625 8.265625 
Q 6.59375 17.96875 6.59375 36.375 
Q 6.59375 54.828125 13.0625 64.515625 
Q 19.53125 74.21875 31.78125 74.21875 
z
" id="DejaVuSans-30"/>
       <path d="M 10.59375 35.5 
L 73.1875 35.5 
L 73.1875 27.203125 
L 10.59375 27.203125 
z
" id="DejaVuSans-2212"/>
       <path d="M 19.1875 8.296875 
L 53.609375 8.296875 
L 53.609375 0 
L 7.328125 0 
L 7.328125 8.296875 
Q 12.9375 14.109375 22.625 23.890625 
Q 32.328125 33.6875 34.8125 36.53125 
Q 39.546875 41.84375 41.421875 45.53125 
Q 43.3125 49.21875 43.3125 52.78125 
Q 43.3125 58.59375 39.234375 62.25 
Q 35.15625 65.921875 28.609375 65.921875 
Q 23.96875 65.921875 18.8125 64.3125 
Q 13.671875 62.703125 7.8125 59.421875 
L 7.8125 69.390625 
Q 13.765625 71.78125 18.9375 73 
Q 24.125 74.21875 28.421875 74.21875 
Q 39.75 74.21875 46.484375 68.546875 
Q 53.21875 62.890625 53.21875 53.421875 
Q 53.21875 48.921875 51.53125 44.890625 
Q 49.859375 40.875 45.40625 35.40625 
Q 44.1875 33.984375 37.640625 27.21875 
Q 31.109375 20.453125 19.1875 8.296875 
z
" id="DejaVuSans-32"/>
      </defs>
      <g transform="translate(39.933807 242.738437)scale(0.1 -0.1)">
       <use transform="translate(0 0.765625)" xlink:href="#DejaVuSans-31"/>
       <use transform="translate(63.623047 0.765625)" xlink:href="#DejaVuSans-30"/>
       <use transform="translate(128.203125 39.046875)scale(0.7)" xlink:href="#DejaVuSans-2212"/>
       <use transform="translate(186.855469 39.046875)scale(0.7)" xlink:href="#DejaVuSans-32"/>
      </g>
     </g>
    </g>
    <g id="xtick_2">
     <g id="line2d_2">
      <g>
       <use style="stroke:#000000;stroke-width:0.8;" x="203.865625" xlink:href="#mbfca81890f" y="228.14"/>
      </g>
     </g>
     <g id="text_2">
      <!-- $\mathdefault{10^{-1}}$ -->
      <g transform="translate(192.115625 242.738437)scale(0.1 -0.1)">
       <use transform="translate(0 0.684375)" xlink:href="#DejaVuSans-31"/>
       <use transform="translate(63.623047 0.684375)" xlink:href="#DejaVuSans-30"/>
       <use transform="translate(128.203125 38.965625)scale(0.7)" xlink:href="#DejaVuSans-2212"/>
       <use transform="translate(186.855469 38.965625)scale(0.7)" xlink:href="#DejaVuSans-31"/>
      </g>
     </g>
    </g>
    <g id="xtick_3">
     <g id="line2d_3">
      <g>
       <use style="stroke:#000000;stroke-width:0.8;" x="356.047443" xlink:href="#mbfca81890f" y="228.14"/>
      </g>
     </g>
     <g id="text_3">
      <!-- $\mathdefault{10^{0}}$ -->
      <g transform="translate(347.247443 242.738437)scale(0.1 -0.1)">
       <use transform="translate(0 0.765625)" xlink:href="#DejaVuSans-31"/>
       <use transform="translate(63.623047 0.765625)" xlink:href="#DejaVuSans-30"/>
       <use transform="translate(128.203125 39.046875)scale(0.7)" xlink:href="#DejaVuSans-30"/>
      </g>
     </g>
    </g>
    <g id="xtick_4">
     <g id="line2d_4">
      <defs>
       <path d="M 0 0 
L 0 2 
" id="m51a906f787" style="stroke:#000000;stroke-width:0.6;"/>
      </defs>
      <g>
       <use style="stroke:#000000;stroke-width:0.6;" x="36.935865" xlink:href="#m51a906f787" y="228.14"/>
      </g>
     </g>
    </g>
    <g id="xtick_5">
     <g id="line2d_5">
      <g>
       <use style="stroke:#000000;stroke-width:0.6;" x="44.720349" xlink:href="#m51a906f787" y="228.14"/>
      </g>
     </g>
    </g>
    <g id="xtick_6">
     <g id="line2d_6">
      <g>
       <use style="stroke:#000000;stroke-width:0.6;" x="97.495099" xlink:href="#m51a906f787" y="228.14"/>
      </g>
     </g>
    </g>
    <g id="xtick_7">
     <g id="line2d_7">
      <g>
       <use style="stroke:#000000;stroke-width:0.6;" x="124.292987" xlink:href="#m51a906f787" y="228.14"/>
      </g>
     </g>
    </g>
    <g id="xtick_8">
     <g id="line2d_8">
      <g>
       <use style="stroke:#000000;stroke-width:0.6;" x="143.306391" xlink:href="#m51a906f787" y="228.14"/>
      </g>
     </g>
    </g>
    <g id="xtick_9">
     <g id="line2d_9">
      <g>
       <use style="stroke:#000000;stroke-width:0.6;" x="158.054333" xlink:href="#m51a906f787" y="228.14"/>
      </g>
     </g>
    </g>
    <g id="xtick_10">
     <g id="line2d_10">
      <g>
       <use style="stroke:#000000;stroke-width:0.6;" x="170.104279" xlink:href="#m51a906f787" y="228.14"/>
      </g>
     </g>
    </g>
    <g id="xtick_11">
     <g id="line2d_11">
      <g>
       <use style="stroke:#000000;stroke-width:0.6;" x="180.292363" xlink:href="#m51a906f787" y="228.14"/>
      </g>
     </g>
    </g>
    <g id="xtick_12">
     <g id="line2d_12">
      <g>
       <use style="stroke:#000000;stroke-width:0.6;" x="189.117683" xlink:href="#m51a906f787" y="228.14"/>
      </g>
     </g>
    </g>
    <g id="xtick_13">
     <g id="line2d_13">
      <g>
       <use style="stroke:#000000;stroke-width:0.6;" x="196.902167" xlink:href="#m51a906f787" y="228.14"/>
      </g>
     </g>
    </g>
    <g id="xtick_14">
     <g id="line2d_14">
      <g>
       <use style="stroke:#000000;stroke-width:0.6;" x="249.676917" xlink:href="#m51a906f787" y="228.14"/>
      </g>
     </g>
    </g>
    <g id="xtick_15">
     <g id="line2d_15">
      <g>
       <use style="stroke:#000000;stroke-width:0.6;" x="276.474805" xlink:href="#m51a906f787" y="228.14"/>
      </g>
     </g>
    </g>
    <g id="xtick_16">
     <g id="line2d_16">
      <g>
       <use style="stroke:#000000;stroke-width:0.6;" x="295.488209" xlink:href="#m51a906f787" y="228.14"/>
      </g>
     </g>
    </g>
    <g id="xtick_17">
     <g id="line2d_17">
      <g>
       <use style="stroke:#000000;stroke-width:0.6;" x="310.236151" xlink:href="#m51a906f787" y="228.14"/>
      </g>
     </g>
    </g>
    <g id="xtick_18">
     <g id="line2d_18">
      <g>
       <use style="stroke:#000000;stroke-width:0.6;" x="322.286097" xlink:href="#m51a906f787" y="228.14"/>
      </g>
     </g>
    </g>
    <g id="xtick_19">
     <g id="line2d_19">
      <g>
       <use style="stroke:#000000;stroke-width:0.6;" x="332.474181" xlink:href="#m51a906f787" y="228.14"/>
      </g>
     </g>
    </g>
    <g id="xtick_20">
     <g id="line2d_20">
      <g>
       <use style="stroke:#000000;stroke-width:0.6;" x="341.299501" xlink:href="#m51a906f787" y="228.14"/>
      </g>
     </g>
    </g>
    <g id="xtick_21">
     <g id="line2d_21">
      <g>
       <use style="stroke:#000000;stroke-width:0.6;" x="349.083985" xlink:href="#m51a906f787" y="228.14"/>
      </g>
     </g>
    </g>
    <g id="text_4">
     <!-- $\lambda$ -->
     <defs>
      <path d="M 36.71875 67.4375 
L 48.828125 0 
L 39.3125 0 
L 31.84375 40.4375 
L 5.125 0 
L -4.390625 0 
L 29.734375 52.4375 
L 28.03125 62.109375 
Q 26.953125 68.265625 21.734375 68.265625 
L 17.046875 68.265625 
L 18.5 75.984375 
L 24.21875 75.875 
Q 35.203125 75.734375 36.71875 67.4375 
z
" id="DejaVuSans-Oblique-3bb"/>
     </defs>
     <g transform="translate(199.065625 260.975625)scale(0.16 -0.16)">
      <use transform="translate(0 0.015625)" xlink:href="#DejaVuSans-Oblique-3bb"/>
     </g>
    </g>
   </g>
   <g id="matplotlib.axis_2">
    <g id="ytick_1">
     <g id="line2d_22">
      <defs>
       <path d="M 0 0 
L -3.5 0 
" id="m76228a0483" style="stroke:#000000;stroke-width:0.8;"/>
      </defs>
      <g>
       <use style="stroke:#000000;stroke-width:0.8;" x="36.465625" xlink:href="#m76228a0483" y="201.668442"/>
      </g>
     </g>
     <g id="text_5">
      <!-- 0.10 -->
      <defs>
       <path d="M 10.6875 12.40625 
L 21 12.40625 
L 21 0 
L 10.6875 0 
z
" id="DejaVuSans-2e"/>
      </defs>
      <g transform="translate(7.2 205.467661)scale(0.1 -0.1)">
       <use xlink:href="#DejaVuSans-30"/>
       <use x="63.623047" xlink:href="#DejaVuSans-2e"/>
       <use x="95.410156" xlink:href="#DejaVuSans-31"/>
       <use x="159.033203" xlink:href="#DejaVuSans-30"/>
      </g>
     </g>
    </g>
    <g id="ytick_2">
     <g id="line2d_23">
      <g>
       <use style="stroke:#000000;stroke-width:0.8;" x="36.465625" xlink:href="#m76228a0483" y="174.021907"/>
      </g>
     </g>
     <g id="text_6">
      <!-- 0.12 -->
      <g transform="translate(7.2 177.821126)scale(0.1 -0.1)">
       <use xlink:href="#DejaVuSans-30"/>
       <use x="63.623047" xlink:href="#DejaVuSans-2e"/>
       <use x="95.410156" xlink:href="#DejaVuSans-31"/>
       <use x="159.033203" xlink:href="#DejaVuSans-32"/>
      </g>
     </g>
    </g>
    <g id="ytick_3">
     <g id="line2d_24">
      <g>
       <use style="stroke:#000000;stroke-width:0.8;" x="36.465625" xlink:href="#m76228a0483" y="146.375372"/>
      </g>
     </g>
     <g id="text_7">
      <!-- 0.14 -->
      <defs>
       <path d="M 37.796875 64.3125 
L 12.890625 25.390625 
L 37.796875 25.390625 
z
M 35.203125 72.90625 
L 47.609375 72.90625 
L 47.609375 25.390625 
L 58.015625 25.390625 
L 58.015625 17.1875 
L 47.609375 17.1875 
L 47.609375 0 
L 37.796875 0 
L 37.796875 17.1875 
L 4.890625 17.1875 
L 4.890625 26.703125 
z
" id="DejaVuSans-34"/>
      </defs>
      <g transform="translate(7.2 150.174591)scale(0.1 -0.1)">
       <use xlink:href="#DejaVuSans-30"/>
       <use x="63.623047" xlink:href="#DejaVuSans-2e"/>
       <use x="95.410156" xlink:href="#DejaVuSans-31"/>
       <use x="159.033203" xlink:href="#DejaVuSans-34"/>
      </g>
     </g>
    </g>
    <g id="ytick_4">
     <g id="line2d_25">
      <g>
       <use style="stroke:#000000;stroke-width:0.8;" x="36.465625" xlink:href="#m76228a0483" y="118.728837"/>
      </g>
     </g>
     <g id="text_8">
      <!-- 0.16 -->
      <defs>
       <path d="M 33.015625 40.375 
Q 26.375 40.375 22.484375 35.828125 
Q 18.609375 31.296875 18.609375 23.390625 
Q 18.609375 15.53125 22.484375 10.953125 
Q 26.375 6.390625 33.015625 6.390625 
Q 39.65625 6.390625 43.53125 10.953125 
Q 47.40625 15.53125 47.40625 23.390625 
Q 47.40625 31.296875 43.53125 35.828125 
Q 39.65625 40.375 33.015625 40.375 
z
M 52.59375 71.296875 
L 52.59375 62.3125 
Q 48.875 64.0625 45.09375 64.984375 
Q 41.3125 65.921875 37.59375 65.921875 
Q 27.828125 65.921875 22.671875 59.328125 
Q 17.53125 52.734375 16.796875 39.40625 
Q 19.671875 43.65625 24.015625 45.921875 
Q 28.375 48.1875 33.59375 48.1875 
Q 44.578125 48.1875 50.953125 41.515625 
Q 57.328125 34.859375 57.328125 23.390625 
Q 57.328125 12.15625 50.6875 5.359375 
Q 44.046875 -1.421875 33.015625 -1.421875 
Q 20.359375 -1.421875 13.671875 8.265625 
Q 6.984375 17.96875 6.984375 36.375 
Q 6.984375 53.65625 15.1875 63.9375 
Q 23.390625 74.21875 37.203125 74.21875 
Q 40.921875 74.21875 44.703125 73.484375 
Q 48.484375 72.75 52.59375 71.296875 
z
" id="DejaVuSans-36"/>
      </defs>
      <g transform="translate(7.2 122.528055)scale(0.1 -0.1)">
       <use xlink:href="#DejaVuSans-30"/>
       <use x="63.623047" xlink:href="#DejaVuSans-2e"/>
       <use x="95.410156" xlink:href="#DejaVuSans-31"/>
       <use x="159.033203" xlink:href="#DejaVuSans-36"/>
      </g>
     </g>
    </g>
    <g id="ytick_5">
     <g id="line2d_26">
      <g>
       <use style="stroke:#000000;stroke-width:0.8;" x="36.465625" xlink:href="#m76228a0483" y="91.082301"/>
      </g>
     </g>
     <g id="text_9">
      <!-- 0.18 -->
      <defs>
       <path d="M 31.78125 34.625 
Q 24.75 34.625 20.71875 30.859375 
Q 16.703125 27.09375 16.703125 20.515625 
Q 16.703125 13.921875 20.71875 10.15625 
Q 24.75 6.390625 31.78125 6.390625 
Q 38.8125 6.390625 42.859375 10.171875 
Q 46.921875 13.96875 46.921875 20.515625 
Q 46.921875 27.09375 42.890625 30.859375 
Q 38.875 34.625 31.78125 34.625 
z
M 21.921875 38.8125 
Q 15.578125 40.375 12.03125 44.71875 
Q 8.5 49.078125 8.5 55.328125 
Q 8.5 64.0625 14.71875 69.140625 
Q 20.953125 74.21875 31.78125 74.21875 
Q 42.671875 74.21875 48.875 69.140625 
Q 55.078125 64.0625 55.078125 55.328125 
Q 55.078125 49.078125 51.53125 44.71875 
Q 48 40.375 41.703125 38.8125 
Q 48.828125 37.15625 52.796875 32.3125 
Q 56.78125 27.484375 56.78125 20.515625 
Q 56.78125 9.90625 50.3125 4.234375 
Q 43.84375 -1.421875 31.78125 -1.421875 
Q 19.734375 -1.421875 13.25 4.234375 
Q 6.78125 9.90625 6.78125 20.515625 
Q 6.78125 27.484375 10.78125 32.3125 
Q 14.796875 37.15625 21.921875 38.8125 
z
M 18.3125 54.390625 
Q 18.3125 48.734375 21.84375 45.5625 
Q 25.390625 42.390625 31.78125 42.390625 
Q 38.140625 42.390625 41.71875 45.5625 
Q 45.3125 48.734375 45.3125 54.390625 
Q 45.3125 60.0625 41.71875 63.234375 
Q 38.140625 66.40625 31.78125 66.40625 
Q 25.390625 66.40625 21.84375 63.234375 
Q 18.3125 60.0625 18.3125 54.390625 
z
" id="DejaVuSans-38"/>
      </defs>
      <g transform="translate(7.2 94.88152)scale(0.1 -0.1)">
       <use xlink:href="#DejaVuSans-30"/>
       <use x="63.623047" xlink:href="#DejaVuSans-2e"/>
       <use x="95.410156" xlink:href="#DejaVuSans-31"/>
       <use x="159.033203" xlink:href="#DejaVuSans-38"/>
      </g>
     </g>
    </g>
    <g id="ytick_6">
     <g id="line2d_27">
      <g>
       <use style="stroke:#000000;stroke-width:0.8;" x="36.465625" xlink:href="#m76228a0483" y="63.435766"/>
      </g>
     </g>
     <g id="text_10">
      <!-- 0.20 -->
      <g transform="translate(7.2 67.234985)scale(0.1 -0.1)">
       <use xlink:href="#DejaVuSans-30"/>
       <use x="63.623047" xlink:href="#DejaVuSans-2e"/>
       <use x="95.410156" xlink:href="#DejaVuSans-32"/>
       <use x="159.033203" xlink:href="#DejaVuSans-30"/>
      </g>
     </g>
    </g>
    <g id="ytick_7">
     <g id="line2d_28">
      <g>
       <use style="stroke:#000000;stroke-width:0.8;" x="36.465625" xlink:href="#m76228a0483" y="35.789231"/>
      </g>
     </g>
     <g id="text_11">
      <!-- 0.22 -->
      <g transform="translate(7.2 39.58845)scale(0.1 -0.1)">
       <use xlink:href="#DejaVuSans-30"/>
       <use x="63.623047" xlink:href="#DejaVuSans-2e"/>
       <use x="95.410156" xlink:href="#DejaVuSans-32"/>
       <use x="159.033203" xlink:href="#DejaVuSans-32"/>
      </g>
     </g>
    </g>
   </g>
   <g id="line2d_29">
    <path clip-path="url(#p814c3b9b37)" d="M 51.683807 138.081411 
L 54.758187 136.699085 
L 57.832567 132.552104 
L 60.906947 135.316758 
L 63.981327 132.552104 
L 67.055708 136.699085 
L 70.130088 133.934431 
L 73.204468 138.081411 
L 76.278848 136.699085 
L 79.353228 138.081411 
L 82.427608 136.699085 
L 85.501989 135.316758 
L 88.576369 135.316758 
L 91.650749 136.699085 
L 94.725129 133.934431 
L 97.799509 136.699085 
L 100.873889 135.316758 
L 103.94827 136.699085 
L 107.02265 135.316758 
L 110.09703 138.081411 
L 113.17141 133.934431 
L 116.24579 139.463738 
L 119.32017 136.699085 
L 122.394551 136.699085 
L 125.468931 143.610718 
L 128.543311 149.140025 
L 131.617691 147.757699 
L 134.692071 146.375372 
L 137.766451 151.904679 
L 140.840832 147.757699 
L 143.915212 147.757699 
L 146.989592 143.610718 
L 150.063972 144.993045 
L 153.138352 147.757699 
L 156.212732 151.904679 
L 159.287113 157.433986 
L 162.361493 156.051659 
L 165.435873 158.816313 
L 168.510253 162.963293 
L 171.584633 164.34562 
L 174.659013 162.963293 
L 177.733394 161.580966 
L 180.807774 162.963293 
L 183.882154 165.727947 
L 186.956534 176.786561 
L 190.030914 179.551214 
L 193.105294 176.786561 
L 196.179675 186.462848 
L 199.254055 180.933541 
L 202.328435 175.404234 
L 205.402815 178.168887 
L 208.477195 176.786561 
L 211.551575 187.845175 
L 214.625956 190.609828 
L 217.700336 197.521462 
L 220.774716 197.521462 
L 223.849096 201.668442 
L 226.923476 200.286116 
L 229.997856 200.286116 
L 233.072237 204.433096 
L 236.146617 214.109383 
L 239.220997 212.727057 
L 242.295377 208.580076 
L 245.369757 211.34473 
L 248.444137 212.727057 
L 251.518518 211.34473 
L 254.592898 208.580076 
L 257.667278 211.34473 
L 260.741658 209.962403 
L 263.816038 211.34473 
L 266.890418 209.962403 
L 269.964799 203.050769 
L 273.039179 211.34473 
L 276.113559 208.580076 
L 279.187939 212.727057 
L 282.262319 187.845175 
L 285.336699 176.786561 
L 288.41108 178.168887 
L 291.48546 143.610718 
L 294.55984 142.228392 
L 297.63422 143.610718 
L 300.7086 127.022797 
L 303.78298 97.993935 
L 306.857361 88.317648 
L 309.931741 74.49438 
L 313.006121 80.023687 
L 316.080501 77.259034 
L 319.154881 78.64136 
L 322.229261 68.965073 
L 325.303642 37.171558 
L 328.378022 34.406904 
L 331.452402 38.553884 
L 334.526782 35.789231 
L 337.601162 44.083191 
L 340.675542 60.671113 
L 343.749923 56.524132 
L 346.824303 49.612498 
L 349.898683 31.64225 
L 352.973063 26.112943 
L 356.047443 20.583636 
" style="fill:none;stroke:#1f77b4;stroke-linecap:square;stroke-width:1.5;"/>
   </g>
   <g id="line2d_30">
    <path clip-path="url(#p814c3b9b37)" d="M 51.683807 117.34651 
L 54.758187 118.728837 
L 57.832567 122.875817 
L 60.906947 118.728837 
L 63.981327 124.258144 
L 67.055708 122.875817 
L 70.130088 124.258144 
L 73.204468 131.169777 
L 76.278848 127.022797 
L 79.353228 132.552104 
L 82.427608 131.169777 
L 85.501989 129.787451 
L 88.576369 131.169777 
L 91.650749 131.169777 
L 94.725129 129.787451 
L 97.799509 131.169777 
L 100.873889 131.169777 
L 103.94827 131.169777 
L 107.02265 131.169777 
L 110.09703 131.169777 
L 113.17141 131.169777 
L 116.24579 129.787451 
L 119.32017 131.169777 
L 122.394551 133.934431 
L 125.468931 139.463738 
L 128.543311 136.699085 
L 131.617691 135.316758 
L 134.692071 142.228392 
L 137.766451 144.993045 
L 140.840832 140.846065 
L 143.915212 142.228392 
L 146.989592 146.375372 
L 150.063972 150.522352 
L 153.138352 153.287006 
L 156.212732 151.904679 
L 159.287113 150.522352 
L 162.361493 156.051659 
L 165.435873 157.433986 
L 168.510253 158.816313 
L 171.584633 158.816313 
L 174.659013 158.816313 
L 177.733394 158.816313 
L 180.807774 160.19864 
L 183.882154 167.110273 
L 186.956534 160.19864 
L 190.030914 161.580966 
L 193.105294 158.816313 
L 196.179675 165.727947 
L 199.254055 164.34562 
L 202.328435 161.580966 
L 205.402815 161.580966 
L 208.477195 168.4926 
L 211.551575 179.551214 
L 214.625956 178.168887 
L 217.700336 180.933541 
L 220.774716 183.698195 
L 223.849096 180.933541 
L 226.923476 185.080521 
L 229.997856 187.845175 
L 233.072237 191.992155 
L 236.146617 208.580076 
L 239.220997 208.580076 
L 242.295377 207.19775 
L 245.369757 214.109383 
L 248.444137 212.727057 
L 251.518518 218.256364 
L 254.592898 211.34473 
L 257.667278 212.727057 
L 260.741658 214.109383 
L 263.816038 212.727057 
L 266.890418 211.34473 
L 269.964799 212.727057 
L 273.039179 208.580076 
L 276.113559 214.109383 
L 279.187939 215.49171 
L 282.262319 198.903789 
L 285.336699 191.992155 
L 288.41108 183.698195 
L 291.48546 165.727947 
L 294.55984 161.580966 
L 297.63422 160.19864 
L 300.7086 150.522352 
L 303.78298 125.64047 
L 306.857361 124.258144 
L 309.931741 110.434876 
L 313.006121 107.670223 
L 316.080501 107.670223 
L 319.154881 107.670223 
L 322.229261 104.905569 
L 325.303642 81.406014 
L 328.378022 80.023687 
L 331.452402 74.49438 
L 334.526782 77.259034 
L 337.601162 78.64136 
L 340.675542 85.552994 
L 343.749923 77.259034 
L 346.824303 78.64136 
L 349.898683 59.288786 
L 352.973063 42.700865 
L 356.047443 24.730617 
" style="fill:none;stroke:#ff7f0e;stroke-linecap:square;stroke-width:1.5;"/>
   </g>
   <g id="patch_3">
    <path d="M 36.465625 228.14 
L 36.465625 10.7 
" style="fill:none;stroke:#000000;stroke-linecap:square;stroke-linejoin:miter;stroke-width:0.8;"/>
   </g>
   <g id="patch_4">
    <path d="M 371.265625 228.14 
L 371.265625 10.7 
" style="fill:none;stroke:#000000;stroke-linecap:square;stroke-linejoin:miter;stroke-width:0.8;"/>
   </g>
   <g id="patch_5">
    <path d="M 36.465625 228.14 
L 371.265625 228.14 
" style="fill:none;stroke:#000000;stroke-linecap:square;stroke-linejoin:miter;stroke-width:0.8;"/>
   </g>
   <g id="patch_6">
    <path d="M 36.465625 10.7 
L 371.265625 10.7 
" style="fill:none;stroke:#000000;stroke-linecap:square;stroke-linejoin:miter;stroke-width:0.8;"/>
   </g>
   <g id="legend_1">
    <g id="patch_7">
     <path d="M 43.465625 48.05625 
L 128.684375 48.05625 
Q 130.684375 48.05625 130.684375 46.05625 
L 130.684375 17.7 
Q 130.684375 15.7 128.684375 15.7 
L 43.465625 15.7 
Q 41.465625 15.7 41.465625 17.7 
L 41.465625 46.05625 
Q 41.465625 48.05625 43.465625 48.05625 
z
" style="fill:#ffffff;opacity:0.8;stroke:#cccccc;stroke-linejoin:miter;"/>
    </g>
    <g id="line2d_31">
     <path d="M 45.465625 23.798437 
L 65.465625 23.798437 
" style="fill:none;stroke:#1f77b4;stroke-linecap:square;stroke-width:1.5;"/>
    </g>
    <g id="line2d_32"/>
    <g id="text_12">
     <!-- Train error -->
     <defs>
      <path d="M -0.296875 72.90625 
L 61.375 72.90625 
L 61.375 64.59375 
L 35.5 64.59375 
L 35.5 0 
L 25.59375 0 
L 25.59375 64.59375 
L -0.296875 64.59375 
z
" id="DejaVuSans-54"/>
      <path d="M 41.109375 46.296875 
Q 39.59375 47.171875 37.8125 47.578125 
Q 36.03125 48 33.890625 48 
Q 26.265625 48 22.1875 43.046875 
Q 18.109375 38.09375 18.109375 28.8125 
L 18.109375 0 
L 9.078125 0 
L 9.078125 54.6875 
L 18.109375 54.6875 
L 18.109375 46.1875 
Q 20.953125 51.171875 25.484375 53.578125 
Q 30.03125 56 36.53125 56 
Q 37.453125 56 38.578125 55.875 
Q 39.703125 55.765625 41.0625 55.515625 
z
" id="DejaVuSans-72"/>
      <path d="M 34.28125 27.484375 
Q 23.390625 27.484375 19.1875 25 
Q 14.984375 22.515625 14.984375 16.5 
Q 14.984375 11.71875 18.140625 8.90625 
Q 21.296875 6.109375 26.703125 6.109375 
Q 34.1875 6.109375 38.703125 11.40625 
Q 43.21875 16.703125 43.21875 25.484375 
L 43.21875 27.484375 
z
M 52.203125 31.203125 
L 52.203125 0 
L 43.21875 0 
L 43.21875 8.296875 
Q 40.140625 3.328125 35.546875 0.953125 
Q 30.953125 -1.421875 24.3125 -1.421875 
Q 15.921875 -1.421875 10.953125 3.296875 
Q 6 8.015625 6 15.921875 
Q 6 25.140625 12.171875 29.828125 
Q 18.359375 34.515625 30.609375 34.515625 
L 43.21875 34.515625 
L 43.21875 35.40625 
Q 43.21875 41.609375 39.140625 45 
Q 35.0625 48.390625 27.6875 48.390625 
Q 23 48.390625 18.546875 47.265625 
Q 14.109375 46.140625 10.015625 43.890625 
L 10.015625 52.203125 
Q 14.9375 54.109375 19.578125 55.046875 
Q 24.21875 56 28.609375 56 
Q 40.484375 56 46.34375 49.84375 
Q 52.203125 43.703125 52.203125 31.203125 
z
" id="DejaVuSans-61"/>
      <path d="M 9.421875 54.6875 
L 18.40625 54.6875 
L 18.40625 0 
L 9.421875 0 
z
M 9.421875 75.984375 
L 18.40625 75.984375 
L 18.40625 64.59375 
L 9.421875 64.59375 
z
" id="DejaVuSans-69"/>
      <path d="M 54.890625 33.015625 
L 54.890625 0 
L 45.90625 0 
L 45.90625 32.71875 
Q 45.90625 40.484375 42.875 44.328125 
Q 39.84375 48.1875 33.796875 48.1875 
Q 26.515625 48.1875 22.3125 43.546875 
Q 18.109375 38.921875 18.109375 30.90625 
L 18.109375 0 
L 9.078125 0 
L 9.078125 54.6875 
L 18.109375 54.6875 
L 18.109375 46.1875 
Q 21.34375 51.125 25.703125 53.5625 
Q 30.078125 56 35.796875 56 
Q 45.21875 56 50.046875 50.171875 
Q 54.890625 44.34375 54.890625 33.015625 
z
" id="DejaVuSans-6e"/>
      <path id="DejaVuSans-20"/>
      <path d="M 56.203125 29.59375 
L 56.203125 25.203125 
L 14.890625 25.203125 
Q 15.484375 15.921875 20.484375 11.0625 
Q 25.484375 6.203125 34.421875 6.203125 
Q 39.59375 6.203125 44.453125 7.46875 
Q 49.3125 8.734375 54.109375 11.28125 
L 54.109375 2.78125 
Q 49.265625 0.734375 44.1875 -0.34375 
Q 39.109375 -1.421875 33.890625 -1.421875 
Q 20.796875 -1.421875 13.15625 6.1875 
Q 5.515625 13.8125 5.515625 26.8125 
Q 5.515625 40.234375 12.765625 48.109375 
Q 20.015625 56 32.328125 56 
Q 43.359375 56 49.78125 48.890625 
Q 56.203125 41.796875 56.203125 29.59375 
z
M 47.21875 32.234375 
Q 47.125 39.59375 43.09375 43.984375 
Q 39.0625 48.390625 32.421875 48.390625 
Q 24.90625 48.390625 20.390625 44.140625 
Q 15.875 39.890625 15.1875 32.171875 
z
" id="DejaVuSans-65"/>
      <path d="M 30.609375 48.390625 
Q 23.390625 48.390625 19.1875 42.75 
Q 14.984375 37.109375 14.984375 27.296875 
Q 14.984375 17.484375 19.15625 11.84375 
Q 23.34375 6.203125 30.609375 6.203125 
Q 37.796875 6.203125 41.984375 11.859375 
Q 46.1875 17.53125 46.1875 27.296875 
Q 46.1875 37.015625 41.984375 42.703125 
Q 37.796875 48.390625 30.609375 48.390625 
z
M 30.609375 56 
Q 42.328125 56 49.015625 48.375 
Q 55.71875 40.765625 55.71875 27.296875 
Q 55.71875 13.875 49.015625 6.21875 
Q 42.328125 -1.421875 30.609375 -1.421875 
Q 18.84375 -1.421875 12.171875 6.21875 
Q 5.515625 13.875 5.515625 27.296875 
Q 5.515625 40.765625 12.171875 48.375 
Q 18.84375 56 30.609375 56 
z
" id="DejaVuSans-6f"/>
     </defs>
     <g transform="translate(73.465625 27.298437)scale(0.1 -0.1)">
      <use xlink:href="#DejaVuSans-54"/>
      <use x="60.865234" xlink:href="#DejaVuSans-72"/>
      <use x="101.978516" xlink:href="#DejaVuSans-61"/>
      <use x="163.257812" xlink:href="#DejaVuSans-69"/>
      <use x="191.041016" xlink:href="#DejaVuSans-6e"/>
      <use x="254.419922" xlink:href="#DejaVuSans-20"/>
      <use x="286.207031" xlink:href="#DejaVuSans-65"/>
      <use x="347.730469" xlink:href="#DejaVuSans-72"/>
      <use x="388.828125" xlink:href="#DejaVuSans-72"/>
      <use x="429.910156" xlink:href="#DejaVuSans-6f"/>
      <use x="491.091797" xlink:href="#DejaVuSans-72"/>
     </g>
    </g>
    <g id="line2d_33">
     <path d="M 45.465625 38.476562 
L 65.465625 38.476562 
" style="fill:none;stroke:#ff7f0e;stroke-linecap:square;stroke-width:1.5;"/>
    </g>
    <g id="line2d_34"/>
    <g id="text_13">
     <!-- Test error -->
     <defs>
      <path d="M 44.28125 53.078125 
L 44.28125 44.578125 
Q 40.484375 46.53125 36.375 47.5 
Q 32.28125 48.484375 27.875 48.484375 
Q 21.1875 48.484375 17.84375 46.4375 
Q 14.5 44.390625 14.5 40.28125 
Q 14.5 37.15625 16.890625 35.375 
Q 19.28125 33.59375 26.515625 31.984375 
L 29.59375 31.296875 
Q 39.15625 29.25 43.1875 25.515625 
Q 47.21875 21.78125 47.21875 15.09375 
Q 47.21875 7.46875 41.1875 3.015625 
Q 35.15625 -1.421875 24.609375 -1.421875 
Q 20.21875 -1.421875 15.453125 -0.5625 
Q 10.6875 0.296875 5.421875 2 
L 5.421875 11.28125 
Q 10.40625 8.6875 15.234375 7.390625 
Q 20.0625 6.109375 24.8125 6.109375 
Q 31.15625 6.109375 34.5625 8.28125 
Q 37.984375 10.453125 37.984375 14.40625 
Q 37.984375 18.0625 35.515625 20.015625 
Q 33.0625 21.96875 24.703125 23.78125 
L 21.578125 24.515625 
Q 13.234375 26.265625 9.515625 29.90625 
Q 5.8125 33.546875 5.8125 39.890625 
Q 5.8125 47.609375 11.28125 51.796875 
Q 16.75 56 26.8125 56 
Q 31.78125 56 36.171875 55.265625 
Q 40.578125 54.546875 44.28125 53.078125 
z
" id="DejaVuSans-73"/>
      <path d="M 18.3125 70.21875 
L 18.3125 54.6875 
L 36.8125 54.6875 
L 36.8125 47.703125 
L 18.3125 47.703125 
L 18.3125 18.015625 
Q 18.3125 11.328125 20.140625 9.421875 
Q 21.96875 7.515625 27.59375 7.515625 
L 36.8125 7.515625 
L 36.8125 0 
L 27.59375 0 
Q 17.1875 0 13.234375 3.875 
Q 9.28125 7.765625 9.28125 18.015625 
L 9.28125 47.703125 
L 2.6875 47.703125 
L 2.6875 54.6875 
L 9.28125 54.6875 
L 9.28125 70.21875 
z
" id="DejaVuSans-74"/>
     </defs>
     <g transform="translate(73.465625 41.976562)scale(0.1 -0.1)">
      <use xlink:href="#DejaVuSans-54"/>
      <use x="60.818359" xlink:href="#DejaVuSans-65"/>
      <use x="122.341797" xlink:href="#DejaVuSans-73"/>
      <use x="174.441406" xlink:href="#DejaVuSans-74"/>
      <use x="213.650391" xlink:href="#DejaVuSans-20"/>
      <use x="245.4375" xlink:href="#DejaVuSans-65"/>
      <use x="306.960938" xlink:href="#DejaVuSans-72"/>
      <use x="348.058594" xlink:href="#DejaVuSans-72"/>
      <use x="389.140625" xlink:href="#DejaVuSans-6f"/>
      <use x="450.322266" xlink:href="#DejaVuSans-72"/>
     </g>
    </g>
   </g>
  </g>
 </g>
 <defs>
  <clipPath id="p814c3b9b37">
   <rect height="217.44" width="334.8" x="36.465625" y="10.7"/>
  </clipPath>
 </defs>
</svg>
