<?xml version="1.0" encoding="utf-8" standalone="no"?>
<!DOCTYPE svg PUBLIC "-//W3C//DTD SVG 1.1//EN"
  "http://www.w3.org/Graphics/SVG/1.1/DTD/svg11.dtd">
<!-- Created with matplotlib (http://matplotlib.org/) -->
<svg height="277pt" version="1.1" viewBox="0 0 384 277" width="384pt" xmlns="http://www.w3.org/2000/svg" xmlns:xlink="http://www.w3.org/1999/xlink">
 <defs>
  <style type="text/css">
*{stroke-linecap:butt;stroke-linejoin:round;stroke-miterlimit:100000;}
  </style>
 </defs>
 <g id="figure_1">
  <g id="patch_1">
   <path d="M 0 277.124063 
L 384.765625 277.124063 
L 384.765625 0 
L 0 0 
L 0 277.124063 
z
" style="fill:none;"/>
  </g>
  <g id="axes_1">
   <g id="patch_2">
    <path d="M 33.465625 235.239063 
L 368.265625 235.239063 
L 368.265625 12.039063 
L 33.465625 12.039063 
z
" style="fill:#ffffff;"/>
   </g>
   <g id="line2d_1">
    <path clip-path="url(#p3978a0d785)" d="M 33.465625 235.239063 
L 36.847443 235.239063 
L 40.229261 235.239063 
L 43.61108 235.239063 
L 46.992898 235.239063 
L 50.374716 235.239063 
L 53.756534 235.239063 
L 57.138352 235.239063 
L 60.52017 235.239063 
L 63.901989 235.239063 
L 67.283807 235.239063 
L 70.665625 235.239063 
L 74.047443 235.239063 
L 77.429261 235.239063 
L 80.81108 235.239063 
L 84.192898 235.239063 
L 87.574716 235.239063 
L 90.956534 235.239063 
L 94.338352 235.239063 
L 97.72017 235.239063 
L 101.101989 235.239063 
L 104.483807 235.239063 
L 107.865625 235.239063 
L 111.247443 235.239063 
L 114.629261 235.239063 
L 118.01108 235.239063 
L 121.392898 235.239063 
L 124.774716 235.239063 
L 128.156534 235.239063 
L 131.538352 235.239063 
L 134.92017 235.239063 
L 138.301989 235.239063 
L 141.683807 235.239063 
L 145.065625 235.239063 
L 148.447443 235.239063 
L 151.829261 235.239063 
L 155.21108 235.239063 
L 158.592898 235.239063 
L 161.974716 235.239063 
L 165.356534 235.239063 
L 168.738352 235.239063 
L 172.12017 235.239063 
L 175.501989 235.239063 
L 178.883807 235.239063 
L 182.265625 235.239063 
L 185.647443 235.239063 
L 189.029261 235.239063 
L 192.41108 235.239063 
L 195.792898 235.239063 
L 199.174716 235.239063 
L 202.556534 235.239063 
L 205.938352 235.239063 
L 209.32017 235.239063 
L 212.701989 235.239063 
L 216.083807 235.239063 
L 219.465625 210.439063 
L 222.847443 210.439063 
L 226.229261 210.439063 
L 229.61108 210.439063 
L 232.992898 210.439063 
L 236.374716 210.439063 
L 239.756534 210.439063 
L 243.138352 185.639063 
L 246.52017 185.639063 
L 249.901989 185.639063 
L 253.283807 185.639063 
L 256.665625 185.639063 
L 260.047443 160.839063 
L 263.429261 160.839063 
L 266.81108 136.039063 
L 270.192898 136.039063 
L 273.574716 136.039063 
L 276.956534 136.039063 
L 280.338352 136.039063 
L 283.72017 111.239063 
L 287.101989 86.439063 
L 290.483807 86.439063 
L 293.865625 86.439063 
L 297.247443 61.639063 
L 300.629261 61.639063 
L 304.01108 61.639063 
L 307.392898 36.839063 
L 310.774716 36.839063 
L 314.156534 36.839063 
L 317.538352 36.839063 
L 320.92017 36.839063 
L 324.301989 36.839063 
L 327.683807 36.839063 
L 331.065625 36.839063 
L 334.447443 36.839063 
L 337.829261 36.839063 
L 341.21108 36.839063 
L 344.592898 36.839063 
L 347.974716 36.839063 
L 351.356534 36.839063 
L 354.738352 36.839063 
L 358.12017 36.839063 
L 361.501989 36.839063 
L 364.883807 36.839063 
L 368.265625 36.839063 
" style="fill:none;stroke:#0000ff;stroke-linecap:square;"/>
   </g>
   <g id="line2d_2">
    <path clip-path="url(#p3978a0d785)" d="M 33.465625 185.639063 
L 36.847443 185.639063 
L 40.229261 185.639063 
L 43.61108 185.639063 
L 46.992898 185.639063 
L 50.374716 185.639063 
L 53.756534 185.639063 
L 57.138352 185.639063 
L 60.52017 185.639063 
L 63.901989 185.639063 
L 67.283807 185.639063 
L 70.665625 185.639063 
L 74.047443 185.639063 
L 77.429261 185.639063 
L 80.81108 185.639063 
L 84.192898 185.639063 
L 87.574716 185.639063 
L 90.956534 185.639063 
L 94.338352 185.639063 
L 97.72017 185.639063 
L 101.101989 185.639063 
L 104.483807 185.639063 
L 107.865625 185.639063 
L 111.247443 185.639063 
L 114.629261 185.639063 
L 118.01108 185.639063 
L 121.392898 185.639063 
L 124.774716 185.639063 
L 128.156534 185.639063 
L 131.538352 185.639063 
L 134.92017 185.639063 
L 138.301989 185.639063 
L 141.683807 185.639063 
L 145.065625 185.639063 
L 148.447443 185.639063 
L 151.829261 185.639063 
L 155.21108 185.639063 
L 158.592898 185.639063 
L 161.974716 185.639063 
L 165.356534 185.639063 
L 168.738352 198.039063 
L 172.12017 198.039063 
L 175.501989 185.639063 
L 178.883807 185.639063 
L 182.265625 185.639063 
L 185.647443 185.639063 
L 189.029261 185.639063 
L 192.41108 185.639063 
L 195.792898 173.239063 
L 199.174716 173.239063 
L 202.556534 173.239063 
L 205.938352 173.239063 
L 209.32017 173.239063 
L 212.701989 173.239063 
L 216.083807 173.239063 
L 219.465625 173.239063 
L 222.847443 173.239063 
L 226.229261 173.239063 
L 229.61108 173.239063 
L 232.992898 160.839063 
L 236.374716 160.839063 
L 239.756534 148.439063 
L 243.138352 148.439063 
L 246.52017 148.439063 
L 249.901989 148.439063 
L 253.283807 148.439063 
L 256.665625 148.439063 
L 260.047443 136.039063 
L 263.429261 136.039063 
L 266.81108 136.039063 
L 270.192898 136.039063 
L 273.574716 136.039063 
L 276.956534 123.639063 
L 280.338352 123.639063 
L 283.72017 123.639063 
L 287.101989 111.239063 
L 290.483807 111.239063 
L 293.865625 111.239063 
L 297.247443 86.439063 
L 300.629261 86.439063 
L 304.01108 86.439063 
L 307.392898 86.439063 
L 310.774716 86.439063 
L 314.156534 74.039063 
L 317.538352 61.639063 
L 320.92017 61.639063 
L 324.301989 61.639063 
L 327.683807 61.639063 
L 331.065625 61.639063 
L 334.447443 61.639063 
L 337.829261 61.639063 
L 341.21108 61.639063 
L 344.592898 61.639063 
L 347.974716 61.639063 
L 351.356534 61.639063 
L 354.738352 61.639063 
L 358.12017 61.639063 
L 361.501989 61.639063 
L 364.883807 61.639063 
L 368.265625 61.639063 
" style="fill:none;stroke:#008000;stroke-linecap:square;"/>
   </g>
   <g id="patch_3">
    <path d="M 33.465625 235.239063 
L 33.465625 12.039063 
" style="fill:none;stroke:#000000;stroke-linecap:square;stroke-linejoin:miter;"/>
   </g>
   <g id="patch_4">
    <path d="M 33.465625 235.239063 
L 368.265625 235.239063 
" style="fill:none;stroke:#000000;stroke-linecap:square;stroke-linejoin:miter;"/>
   </g>
   <g id="patch_5">
    <path d="M 368.265625 235.239063 
L 368.265625 12.039063 
" style="fill:none;stroke:#000000;stroke-linecap:square;stroke-linejoin:miter;"/>
   </g>
   <g id="patch_6">
    <path d="M 33.465625 12.039063 
L 368.265625 12.039063 
" style="fill:none;stroke:#000000;stroke-linecap:square;stroke-linejoin:miter;"/>
   </g>
   <g id="matplotlib.axis_1">
    <g id="xtick_1">
     <g id="line2d_3">
      <defs>
       <path d="M 0 0 
L 0 -4 
" id="m097a9d22f4" style="stroke:#000000;stroke-width:0.5;"/>
      </defs>
      <g>
       <use style="stroke:#000000;stroke-width:0.5;" x="33.46562500000002" xlink:href="#m097a9d22f4" y="235.23906250000005"/>
      </g>
     </g>
     <g id="line2d_4">
      <defs>
       <path d="M 0 0 
L 0 4 
" id="m60bad830c4" style="stroke:#000000;stroke-width:0.5;"/>
      </defs>
      <g>
       <use style="stroke:#000000;stroke-width:0.5;" x="33.46562500000002" xlink:href="#m60bad830c4" y="12.039062500000057"/>
      </g>
     </g>
     <g id="text_1">
      <!-- $\mathdefault{10^{-2}}$ -->
      <defs>
       <path d="M 12.40625 8.296875 
L 28.515625 8.296875 
L 28.515625 63.921875 
L 10.984375 60.40625 
L 10.984375 69.390625 
L 28.421875 72.90625 
L 38.28125 72.90625 
L 38.28125 8.296875 
L 54.390625 8.296875 
L 54.390625 0 
L 12.40625 0 
z
" id="BitstreamVeraSans-Roman-31"/>
       <path d="M 4.890625 31.390625 
L 31.203125 31.390625 
L 31.203125 23.390625 
L 4.890625 23.390625 
z
" id="BitstreamVeraSans-Roman-2d"/>
       <path d="M 31.78125 66.40625 
Q 24.171875 66.40625 20.328125 58.90625 
Q 16.5 51.421875 16.5 36.375 
Q 16.5 21.390625 20.328125 13.890625 
Q 24.171875 6.390625 31.78125 6.390625 
Q 39.453125 6.390625 43.28125 13.890625 
Q 47.125 21.390625 47.125 36.375 
Q 47.125 51.421875 43.28125 58.90625 
Q 39.453125 66.40625 31.78125 66.40625 
M 31.78125 74.21875 
Q 44.046875 74.21875 50.515625 64.515625 
Q 56.984375 54.828125 56.984375 36.375 
Q 56.984375 17.96875 50.515625 8.265625 
Q 44.046875 -1.421875 31.78125 -1.421875 
Q 19.53125 -1.421875 13.0625 8.265625 
Q 6.59375 17.96875 6.59375 36.375 
Q 6.59375 54.828125 13.0625 64.515625 
Q 19.53125 74.21875 31.78125 74.21875 
" id="BitstreamVeraSans-Roman-30"/>
       <path d="M 19.1875 8.296875 
L 53.609375 8.296875 
L 53.609375 0 
L 7.328125 0 
L 7.328125 8.296875 
Q 12.9375 14.109375 22.625 23.890625 
Q 32.328125 33.6875 34.8125 36.53125 
Q 39.546875 41.84375 41.421875 45.53125 
Q 43.3125 49.21875 43.3125 52.78125 
Q 43.3125 58.59375 39.234375 62.25 
Q 35.15625 65.921875 28.609375 65.921875 
Q 23.96875 65.921875 18.8125 64.3125 
Q 13.671875 62.703125 7.8125 59.421875 
L 7.8125 69.390625 
Q 13.765625 71.78125 18.9375 73 
Q 24.125 74.21875 28.421875 74.21875 
Q 39.75 74.21875 46.484375 68.546875 
Q 53.21875 62.890625 53.21875 53.421875 
Q 53.21875 48.921875 51.53125 44.890625 
Q 49.859375 40.875 45.40625 35.40625 
Q 44.1875 33.984375 37.640625 27.21875 
Q 31.109375 20.453125 19.1875 8.296875 
" id="BitstreamVeraSans-Roman-32"/>
      </defs>
      <g transform="translate(22.915625000000016 247.35937500000003)scale(0.1 -0.1)">
       <use transform="translate(0.0 0.796875)" xlink:href="#BitstreamVeraSans-Roman-31"/>
       <use transform="translate(63.623046875 0.796875)" xlink:href="#BitstreamVeraSans-Roman-30"/>
       <use transform="translate(132.75859375 48.046875)scale(0.7)" xlink:href="#BitstreamVeraSans-Roman-2d"/>
       <use transform="translate(158.0173828125 48.046875)scale(0.7)" xlink:href="#BitstreamVeraSans-Roman-32"/>
      </g>
     </g>
    </g>
    <g id="xtick_2">
     <g id="line2d_5">
      <g>
       <use style="stroke:#000000;stroke-width:0.5;" x="200.86562500000002" xlink:href="#m097a9d22f4" y="235.23906250000005"/>
      </g>
     </g>
     <g id="line2d_6">
      <g>
       <use style="stroke:#000000;stroke-width:0.5;" x="200.86562500000002" xlink:href="#m60bad830c4" y="12.039062500000057"/>
      </g>
     </g>
     <g id="text_2">
      <!-- $\mathdefault{10^{-1}}$ -->
      <g transform="translate(190.315625 247.25937500000003)scale(0.1 -0.1)">
       <use transform="translate(0.0 0.7156250000000028)" xlink:href="#BitstreamVeraSans-Roman-31"/>
       <use transform="translate(63.623046875 0.7156250000000028)" xlink:href="#BitstreamVeraSans-Roman-30"/>
       <use transform="translate(132.75859375 47.965625)scale(0.7)" xlink:href="#BitstreamVeraSans-Roman-2d"/>
       <use transform="translate(158.0173828125 47.965625)scale(0.7)" xlink:href="#BitstreamVeraSans-Roman-31"/>
      </g>
     </g>
    </g>
    <g id="xtick_3">
     <g id="line2d_7">
      <g>
       <use style="stroke:#000000;stroke-width:0.5;" x="368.265625" xlink:href="#m097a9d22f4" y="235.23906250000005"/>
      </g>
     </g>
     <g id="line2d_8">
      <g>
       <use style="stroke:#000000;stroke-width:0.5;" x="368.265625" xlink:href="#m60bad830c4" y="12.039062500000057"/>
      </g>
     </g>
     <g id="text_3">
      <!-- $\mathdefault{10^{0}}$ -->
      <g transform="translate(358.965625 247.35937500000003)scale(0.1 -0.1)">
       <use transform="translate(0.0 0.796875)" xlink:href="#BitstreamVeraSans-Roman-31"/>
       <use transform="translate(63.623046875 0.796875)" xlink:href="#BitstreamVeraSans-Roman-30"/>
       <use transform="translate(132.75859375 48.046875)scale(0.7)" xlink:href="#BitstreamVeraSans-Roman-30"/>
      </g>
     </g>
    </g>
    <g id="xtick_4">
     <g id="line2d_9">
      <defs>
       <path d="M 0 0 
L 0 -2 
" id="m48803f6eca" style="stroke:#000000;stroke-width:0.5;"/>
      </defs>
      <g>
       <use style="stroke:#000000;stroke-width:0.5;" x="83.85804627415048" xlink:href="#m48803f6eca" y="235.23906250000005"/>
      </g>
     </g>
     <g id="line2d_10">
      <defs>
       <path d="M 0 0 
L 0 2 
" id="me0b0785af7" style="stroke:#000000;stroke-width:0.5;"/>
      </defs>
      <g>
       <use style="stroke:#000000;stroke-width:0.5;" x="83.85804627415048" xlink:href="#me0b0785af7" y="12.039062500000057"/>
      </g>
     </g>
    </g>
    <g id="xtick_5">
     <g id="line2d_11">
      <g>
       <use style="stroke:#000000;stroke-width:0.5;" x="113.3357230400715" xlink:href="#m48803f6eca" y="235.23906250000005"/>
      </g>
     </g>
     <g id="line2d_12">
      <g>
       <use style="stroke:#000000;stroke-width:0.5;" x="113.3357230400715" xlink:href="#me0b0785af7" y="12.039062500000057"/>
      </g>
     </g>
    </g>
    <g id="xtick_6">
     <g id="line2d_13">
      <g>
       <use style="stroke:#000000;stroke-width:0.5;" x="134.25046754830095" xlink:href="#m48803f6eca" y="235.23906250000005"/>
      </g>
     </g>
     <g id="line2d_14">
      <g>
       <use style="stroke:#000000;stroke-width:0.5;" x="134.25046754830095" xlink:href="#me0b0785af7" y="12.039062500000057"/>
      </g>
     </g>
    </g>
    <g id="xtick_7">
     <g id="line2d_15">
      <g>
       <use style="stroke:#000000;stroke-width:0.5;" x="150.47320372584957" xlink:href="#m48803f6eca" y="235.23906250000005"/>
      </g>
     </g>
     <g id="line2d_16">
      <g>
       <use style="stroke:#000000;stroke-width:0.5;" x="150.47320372584957" xlink:href="#me0b0785af7" y="12.039062500000057"/>
      </g>
     </g>
    </g>
    <g id="xtick_8">
     <g id="line2d_17">
      <g>
       <use style="stroke:#000000;stroke-width:0.5;" x="163.72814431422196" xlink:href="#m48803f6eca" y="235.23906250000005"/>
      </g>
     </g>
     <g id="line2d_18">
      <g>
       <use style="stroke:#000000;stroke-width:0.5;" x="163.72814431422196" xlink:href="#me0b0785af7" y="12.039062500000057"/>
      </g>
     </g>
    </g>
    <g id="xtick_9">
     <g id="line2d_19">
      <g>
       <use style="stroke:#000000;stroke-width:0.5;" x="174.9350368983866" xlink:href="#m48803f6eca" y="235.23906250000005"/>
      </g>
     </g>
     <g id="line2d_20">
      <g>
       <use style="stroke:#000000;stroke-width:0.5;" x="174.9350368983866" xlink:href="#me0b0785af7" y="12.039062500000057"/>
      </g>
     </g>
    </g>
    <g id="xtick_10">
     <g id="line2d_21">
      <g>
       <use style="stroke:#000000;stroke-width:0.5;" x="184.64288882245137" xlink:href="#m48803f6eca" y="235.23906250000005"/>
      </g>
     </g>
     <g id="line2d_22">
      <g>
       <use style="stroke:#000000;stroke-width:0.5;" x="184.64288882245137" xlink:href="#me0b0785af7" y="12.039062500000057"/>
      </g>
     </g>
    </g>
    <g id="xtick_11">
     <g id="line2d_23">
      <g>
       <use style="stroke:#000000;stroke-width:0.5;" x="193.205821080143" xlink:href="#m48803f6eca" y="235.23906250000005"/>
      </g>
     </g>
     <g id="line2d_24">
      <g>
       <use style="stroke:#000000;stroke-width:0.5;" x="193.205821080143" xlink:href="#me0b0785af7" y="12.039062500000057"/>
      </g>
     </g>
    </g>
    <g id="xtick_12">
     <g id="line2d_25">
      <g>
       <use style="stroke:#000000;stroke-width:0.5;" x="251.25804627415047" xlink:href="#m48803f6eca" y="235.23906250000005"/>
      </g>
     </g>
     <g id="line2d_26">
      <g>
       <use style="stroke:#000000;stroke-width:0.5;" x="251.25804627415047" xlink:href="#me0b0785af7" y="12.039062500000057"/>
      </g>
     </g>
    </g>
    <g id="xtick_13">
     <g id="line2d_27">
      <g>
       <use style="stroke:#000000;stroke-width:0.5;" x="280.73572304007155" xlink:href="#m48803f6eca" y="235.23906250000005"/>
      </g>
     </g>
     <g id="line2d_28">
      <g>
       <use style="stroke:#000000;stroke-width:0.5;" x="280.73572304007155" xlink:href="#me0b0785af7" y="12.039062500000057"/>
      </g>
     </g>
    </g>
    <g id="xtick_14">
     <g id="line2d_29">
      <g>
       <use style="stroke:#000000;stroke-width:0.5;" x="301.6504675483009" xlink:href="#m48803f6eca" y="235.23906250000005"/>
      </g>
     </g>
     <g id="line2d_30">
      <g>
       <use style="stroke:#000000;stroke-width:0.5;" x="301.6504675483009" xlink:href="#me0b0785af7" y="12.039062500000057"/>
      </g>
     </g>
    </g>
    <g id="xtick_15">
     <g id="line2d_31">
      <g>
       <use style="stroke:#000000;stroke-width:0.5;" x="317.8732037258496" xlink:href="#m48803f6eca" y="235.23906250000005"/>
      </g>
     </g>
     <g id="line2d_32">
      <g>
       <use style="stroke:#000000;stroke-width:0.5;" x="317.8732037258496" xlink:href="#me0b0785af7" y="12.039062500000057"/>
      </g>
     </g>
    </g>
    <g id="xtick_16">
     <g id="line2d_33">
      <g>
       <use style="stroke:#000000;stroke-width:0.5;" x="331.128144314222" xlink:href="#m48803f6eca" y="235.23906250000005"/>
      </g>
     </g>
     <g id="line2d_34">
      <g>
       <use style="stroke:#000000;stroke-width:0.5;" x="331.128144314222" xlink:href="#me0b0785af7" y="12.039062500000057"/>
      </g>
     </g>
    </g>
    <g id="xtick_17">
     <g id="line2d_35">
      <g>
       <use style="stroke:#000000;stroke-width:0.5;" x="342.33503689838665" xlink:href="#m48803f6eca" y="235.23906250000005"/>
      </g>
     </g>
     <g id="line2d_36">
      <g>
       <use style="stroke:#000000;stroke-width:0.5;" x="342.33503689838665" xlink:href="#me0b0785af7" y="12.039062500000057"/>
      </g>
     </g>
    </g>
    <g id="xtick_18">
     <g id="line2d_37">
      <g>
       <use style="stroke:#000000;stroke-width:0.5;" x="352.04288882245135" xlink:href="#m48803f6eca" y="235.23906250000005"/>
      </g>
     </g>
     <g id="line2d_38">
      <g>
       <use style="stroke:#000000;stroke-width:0.5;" x="352.04288882245135" xlink:href="#me0b0785af7" y="12.039062500000057"/>
      </g>
     </g>
    </g>
    <g id="xtick_19">
     <g id="line2d_39">
      <g>
       <use style="stroke:#000000;stroke-width:0.5;" x="360.605821080143" xlink:href="#m48803f6eca" y="235.23906250000005"/>
      </g>
     </g>
     <g id="line2d_40">
      <g>
       <use style="stroke:#000000;stroke-width:0.5;" x="360.605821080143" xlink:href="#me0b0785af7" y="12.039062500000057"/>
      </g>
     </g>
    </g>
    <g id="text_4">
     <!-- $\lambda$ -->
     <defs>
      <path d="M 5.078125 1.703125 
Q 5.078125 3.171875 6.390625 4.5 
L 34.515625 32.078125 
L 24.609375 59.90625 
Q 23.4375 63.09375 22.140625 64.9375 
Q 20.84375 66.796875 18.40625 66.796875 
Q 17.28125 66.796875 17.28125 68.109375 
Q 17.390625 68.703125 17.78125 69.046875 
Q 18.171875 69.390625 18.796875 69.390625 
Q 29.296875 69.390625 31.5 63.1875 
L 51.8125 6.5 
Q 53.125 2.25 54.5 0.78125 
Q 54.984375 0.046875 54.984375 -0.203125 
Q 54.984375 -1.125 54.203125 -1.125 
L 48.78125 -1.125 
Q 46.296875 -0.390625 44.828125 3.21875 
L 35.6875 28.8125 
L 11.53125 0.390625 
Q 9.71875 -1.3125 8.296875 -1.3125 
Q 7.03125 -1.3125 6.046875 -0.4375 
Q 5.078125 0.4375 5.078125 1.703125 
" id="Cmmi10-b8"/>
     </defs>
     <g transform="translate(196.14562500000002 266.59656250000006)scale(0.16 -0.16)">
      <use transform="translate(0.0 0.609375)" xlink:href="#Cmmi10-b8"/>
     </g>
    </g>
   </g>
   <g id="matplotlib.axis_2">
    <g id="ytick_1">
     <g id="line2d_41">
      <defs>
       <path d="M 0 0 
L 4 0 
" id="m5fd0967357" style="stroke:#000000;stroke-width:0.5;"/>
      </defs>
      <g>
       <use style="stroke:#000000;stroke-width:0.5;" x="33.465625" xlink:href="#m5fd0967357" y="235.23906250000005"/>
      </g>
     </g>
     <g id="line2d_42">
      <defs>
       <path d="M 0 0 
L -4 0 
" id="m00eec245ee" style="stroke:#000000;stroke-width:0.5;"/>
      </defs>
      <g>
       <use style="stroke:#000000;stroke-width:0.5;" x="368.265625" xlink:href="#m00eec245ee" y="235.23906250000005"/>
      </g>
     </g>
     <g id="text_5">
      <!-- 0.00 -->
      <defs>
       <path d="M 10.6875 12.40625 
L 21 12.40625 
L 21 0 
L 10.6875 0 
z
" id="BitstreamVeraSans-Roman-2e"/>
      </defs>
      <g transform="translate(7.200000000000003 237.99843750000002)scale(0.1 -0.1)">
       <use xlink:href="#BitstreamVeraSans-Roman-30"/>
       <use x="63.623046875" xlink:href="#BitstreamVeraSans-Roman-2e"/>
       <use x="95.41015625" xlink:href="#BitstreamVeraSans-Roman-30"/>
       <use x="159.033203125" xlink:href="#BitstreamVeraSans-Roman-30"/>
      </g>
     </g>
    </g>
    <g id="ytick_2">
     <g id="line2d_43">
      <g>
       <use style="stroke:#000000;stroke-width:0.5;" x="33.465625" xlink:href="#m5fd0967357" y="210.43906250000003"/>
      </g>
     </g>
     <g id="line2d_44">
      <g>
       <use style="stroke:#000000;stroke-width:0.5;" x="368.265625" xlink:href="#m00eec245ee" y="210.43906250000003"/>
      </g>
     </g>
     <g id="text_6">
      <!-- 0.02 -->
      <g transform="translate(7.200000000000003 213.19843750000004)scale(0.1 -0.1)">
       <use xlink:href="#BitstreamVeraSans-Roman-30"/>
       <use x="63.623046875" xlink:href="#BitstreamVeraSans-Roman-2e"/>
       <use x="95.41015625" xlink:href="#BitstreamVeraSans-Roman-30"/>
       <use x="159.033203125" xlink:href="#BitstreamVeraSans-Roman-32"/>
      </g>
     </g>
    </g>
    <g id="ytick_3">
     <g id="line2d_45">
      <g>
       <use style="stroke:#000000;stroke-width:0.5;" x="33.465625" xlink:href="#m5fd0967357" y="185.63906250000005"/>
      </g>
     </g>
     <g id="line2d_46">
      <g>
       <use style="stroke:#000000;stroke-width:0.5;" x="368.265625" xlink:href="#m00eec245ee" y="185.63906250000005"/>
      </g>
     </g>
     <g id="text_7">
      <!-- 0.04 -->
      <defs>
       <path d="M 37.796875 64.3125 
L 12.890625 25.390625 
L 37.796875 25.390625 
z
M 35.203125 72.90625 
L 47.609375 72.90625 
L 47.609375 25.390625 
L 58.015625 25.390625 
L 58.015625 17.1875 
L 47.609375 17.1875 
L 47.609375 0 
L 37.796875 0 
L 37.796875 17.1875 
L 4.890625 17.1875 
L 4.890625 26.703125 
z
" id="BitstreamVeraSans-Roman-34"/>
      </defs>
      <g transform="translate(7.200000000000003 188.39843750000003)scale(0.1 -0.1)">
       <use xlink:href="#BitstreamVeraSans-Roman-30"/>
       <use x="63.623046875" xlink:href="#BitstreamVeraSans-Roman-2e"/>
       <use x="95.41015625" xlink:href="#BitstreamVeraSans-Roman-30"/>
       <use x="159.033203125" xlink:href="#BitstreamVeraSans-Roman-34"/>
      </g>
     </g>
    </g>
    <g id="ytick_4">
     <g id="line2d_47">
      <g>
       <use style="stroke:#000000;stroke-width:0.5;" x="33.465625" xlink:href="#m5fd0967357" y="160.83906250000007"/>
      </g>
     </g>
     <g id="line2d_48">
      <g>
       <use style="stroke:#000000;stroke-width:0.5;" x="368.265625" xlink:href="#m00eec245ee" y="160.83906250000007"/>
      </g>
     </g>
     <g id="text_8">
      <!-- 0.06 -->
      <defs>
       <path d="M 33.015625 40.375 
Q 26.375 40.375 22.484375 35.828125 
Q 18.609375 31.296875 18.609375 23.390625 
Q 18.609375 15.53125 22.484375 10.953125 
Q 26.375 6.390625 33.015625 6.390625 
Q 39.65625 6.390625 43.53125 10.953125 
Q 47.40625 15.53125 47.40625 23.390625 
Q 47.40625 31.296875 43.53125 35.828125 
Q 39.65625 40.375 33.015625 40.375 
M 52.59375 71.296875 
L 52.59375 62.3125 
Q 48.875 64.0625 45.09375 64.984375 
Q 41.3125 65.921875 37.59375 65.921875 
Q 27.828125 65.921875 22.671875 59.328125 
Q 17.53125 52.734375 16.796875 39.40625 
Q 19.671875 43.65625 24.015625 45.921875 
Q 28.375 48.1875 33.59375 48.1875 
Q 44.578125 48.1875 50.953125 41.515625 
Q 57.328125 34.859375 57.328125 23.390625 
Q 57.328125 12.15625 50.6875 5.359375 
Q 44.046875 -1.421875 33.015625 -1.421875 
Q 20.359375 -1.421875 13.671875 8.265625 
Q 6.984375 17.96875 6.984375 36.375 
Q 6.984375 53.65625 15.1875 63.9375 
Q 23.390625 74.21875 37.203125 74.21875 
Q 40.921875 74.21875 44.703125 73.484375 
Q 48.484375 72.75 52.59375 71.296875 
" id="BitstreamVeraSans-Roman-36"/>
      </defs>
      <g transform="translate(7.200000000000003 163.59843750000005)scale(0.1 -0.1)">
       <use xlink:href="#BitstreamVeraSans-Roman-30"/>
       <use x="63.623046875" xlink:href="#BitstreamVeraSans-Roman-2e"/>
       <use x="95.41015625" xlink:href="#BitstreamVeraSans-Roman-30"/>
       <use x="159.033203125" xlink:href="#BitstreamVeraSans-Roman-36"/>
      </g>
     </g>
    </g>
    <g id="ytick_5">
     <g id="line2d_49">
      <g>
       <use style="stroke:#000000;stroke-width:0.5;" x="33.465625" xlink:href="#m5fd0967357" y="136.03906250000006"/>
      </g>
     </g>
     <g id="line2d_50">
      <g>
       <use style="stroke:#000000;stroke-width:0.5;" x="368.265625" xlink:href="#m00eec245ee" y="136.03906250000006"/>
      </g>
     </g>
     <g id="text_9">
      <!-- 0.08 -->
      <defs>
       <path d="M 31.78125 34.625 
Q 24.75 34.625 20.71875 30.859375 
Q 16.703125 27.09375 16.703125 20.515625 
Q 16.703125 13.921875 20.71875 10.15625 
Q 24.75 6.390625 31.78125 6.390625 
Q 38.8125 6.390625 42.859375 10.171875 
Q 46.921875 13.96875 46.921875 20.515625 
Q 46.921875 27.09375 42.890625 30.859375 
Q 38.875 34.625 31.78125 34.625 
M 21.921875 38.8125 
Q 15.578125 40.375 12.03125 44.71875 
Q 8.5 49.078125 8.5 55.328125 
Q 8.5 64.0625 14.71875 69.140625 
Q 20.953125 74.21875 31.78125 74.21875 
Q 42.671875 74.21875 48.875 69.140625 
Q 55.078125 64.0625 55.078125 55.328125 
Q 55.078125 49.078125 51.53125 44.71875 
Q 48 40.375 41.703125 38.8125 
Q 48.828125 37.15625 52.796875 32.3125 
Q 56.78125 27.484375 56.78125 20.515625 
Q 56.78125 9.90625 50.3125 4.234375 
Q 43.84375 -1.421875 31.78125 -1.421875 
Q 19.734375 -1.421875 13.25 4.234375 
Q 6.78125 9.90625 6.78125 20.515625 
Q 6.78125 27.484375 10.78125 32.3125 
Q 14.796875 37.15625 21.921875 38.8125 
M 18.3125 54.390625 
Q 18.3125 48.734375 21.84375 45.5625 
Q 25.390625 42.390625 31.78125 42.390625 
Q 38.140625 42.390625 41.71875 45.5625 
Q 45.3125 48.734375 45.3125 54.390625 
Q 45.3125 60.0625 41.71875 63.234375 
Q 38.140625 66.40625 31.78125 66.40625 
Q 25.390625 66.40625 21.84375 63.234375 
Q 18.3125 60.0625 18.3125 54.390625 
" id="BitstreamVeraSans-Roman-38"/>
      </defs>
      <g transform="translate(7.200000000000003 138.79843750000003)scale(0.1 -0.1)">
       <use xlink:href="#BitstreamVeraSans-Roman-30"/>
       <use x="63.623046875" xlink:href="#BitstreamVeraSans-Roman-2e"/>
       <use x="95.41015625" xlink:href="#BitstreamVeraSans-Roman-30"/>
       <use x="159.033203125" xlink:href="#BitstreamVeraSans-Roman-38"/>
      </g>
     </g>
    </g>
    <g id="ytick_6">
     <g id="line2d_51">
      <g>
       <use style="stroke:#000000;stroke-width:0.5;" x="33.465625" xlink:href="#m5fd0967357" y="111.23906250000005"/>
      </g>
     </g>
     <g id="line2d_52">
      <g>
       <use style="stroke:#000000;stroke-width:0.5;" x="368.265625" xlink:href="#m00eec245ee" y="111.23906250000005"/>
      </g>
     </g>
     <g id="text_10">
      <!-- 0.10 -->
      <g transform="translate(7.200000000000003 113.99843750000005)scale(0.1 -0.1)">
       <use xlink:href="#BitstreamVeraSans-Roman-30"/>
       <use x="63.623046875" xlink:href="#BitstreamVeraSans-Roman-2e"/>
       <use x="95.41015625" xlink:href="#BitstreamVeraSans-Roman-31"/>
       <use x="159.033203125" xlink:href="#BitstreamVeraSans-Roman-30"/>
      </g>
     </g>
    </g>
    <g id="ytick_7">
     <g id="line2d_53">
      <g>
       <use style="stroke:#000000;stroke-width:0.5;" x="33.465625" xlink:href="#m5fd0967357" y="86.43906250000006"/>
      </g>
     </g>
     <g id="line2d_54">
      <g>
       <use style="stroke:#000000;stroke-width:0.5;" x="368.265625" xlink:href="#m00eec245ee" y="86.43906250000006"/>
      </g>
     </g>
     <g id="text_11">
      <!-- 0.12 -->
      <g transform="translate(7.200000000000003 89.19843750000004)scale(0.1 -0.1)">
       <use xlink:href="#BitstreamVeraSans-Roman-30"/>
       <use x="63.623046875" xlink:href="#BitstreamVeraSans-Roman-2e"/>
       <use x="95.41015625" xlink:href="#BitstreamVeraSans-Roman-31"/>
       <use x="159.033203125" xlink:href="#BitstreamVeraSans-Roman-32"/>
      </g>
     </g>
    </g>
    <g id="ytick_8">
     <g id="line2d_55">
      <g>
       <use style="stroke:#000000;stroke-width:0.5;" x="33.465625" xlink:href="#m5fd0967357" y="61.63906250000002"/>
      </g>
     </g>
     <g id="line2d_56">
      <g>
       <use style="stroke:#000000;stroke-width:0.5;" x="368.265625" xlink:href="#m00eec245ee" y="61.63906250000002"/>
      </g>
     </g>
     <g id="text_12">
      <!-- 0.14 -->
      <g transform="translate(7.200000000000003 64.39843750000003)scale(0.1 -0.1)">
       <use xlink:href="#BitstreamVeraSans-Roman-30"/>
       <use x="63.623046875" xlink:href="#BitstreamVeraSans-Roman-2e"/>
       <use x="95.41015625" xlink:href="#BitstreamVeraSans-Roman-31"/>
       <use x="159.033203125" xlink:href="#BitstreamVeraSans-Roman-34"/>
      </g>
     </g>
    </g>
    <g id="ytick_9">
     <g id="line2d_57">
      <g>
       <use style="stroke:#000000;stroke-width:0.5;" x="33.465625" xlink:href="#m5fd0967357" y="36.83906250000004"/>
      </g>
     </g>
     <g id="line2d_58">
      <g>
       <use style="stroke:#000000;stroke-width:0.5;" x="368.265625" xlink:href="#m00eec245ee" y="36.83906250000004"/>
      </g>
     </g>
     <g id="text_13">
      <!-- 0.16 -->
      <g transform="translate(7.200000000000003 39.59843750000002)scale(0.1 -0.1)">
       <use xlink:href="#BitstreamVeraSans-Roman-30"/>
       <use x="63.623046875" xlink:href="#BitstreamVeraSans-Roman-2e"/>
       <use x="95.41015625" xlink:href="#BitstreamVeraSans-Roman-31"/>
       <use x="159.033203125" xlink:href="#BitstreamVeraSans-Roman-36"/>
      </g>
     </g>
    </g>
    <g id="ytick_10">
     <g id="line2d_59">
      <g>
       <use style="stroke:#000000;stroke-width:0.5;" x="33.465625" xlink:href="#m5fd0967357" y="12.039062500000057"/>
      </g>
     </g>
     <g id="line2d_60">
      <g>
       <use style="stroke:#000000;stroke-width:0.5;" x="368.265625" xlink:href="#m00eec245ee" y="12.039062500000057"/>
      </g>
     </g>
     <g id="text_14">
      <!-- 0.18 -->
      <g transform="translate(7.200000000000003 14.798437500000034)scale(0.1 -0.1)">
       <use xlink:href="#BitstreamVeraSans-Roman-30"/>
       <use x="63.623046875" xlink:href="#BitstreamVeraSans-Roman-2e"/>
       <use x="95.41015625" xlink:href="#BitstreamVeraSans-Roman-31"/>
       <use x="159.033203125" xlink:href="#BitstreamVeraSans-Roman-38"/>
      </g>
     </g>
    </g>
   </g>
   <g id="legend_1">
    <g id="patch_7">
     <path d="M 39.465625 56.866563 
L 146.528125 56.866563 
L 146.528125 18.039063 
L 39.465625 18.039063 
z
" style="fill:#ffffff;stroke:#000000;stroke-linejoin:miter;"/>
    </g>
    <g id="line2d_61">
     <path d="M 47.865625 27.757188 
L 64.665625 27.757188 
" style="fill:none;stroke:#0000ff;stroke-linecap:square;"/>
    </g>
    <g id="line2d_62"/>
    <g id="text_15">
     <!-- Train error -->
     <defs>
      <path d="M 41.109375 46.296875 
Q 39.59375 47.171875 37.8125 47.578125 
Q 36.03125 48 33.890625 48 
Q 26.265625 48 22.1875 43.046875 
Q 18.109375 38.09375 18.109375 28.8125 
L 18.109375 0 
L 9.078125 0 
L 9.078125 54.6875 
L 18.109375 54.6875 
L 18.109375 46.1875 
Q 20.953125 51.171875 25.484375 53.578125 
Q 30.03125 56 36.53125 56 
Q 37.453125 56 38.578125 55.875 
Q 39.703125 55.765625 41.0625 55.515625 
z
" id="BitstreamVeraSans-Roman-72"/>
      <path d="M 30.609375 48.390625 
Q 23.390625 48.390625 19.1875 42.75 
Q 14.984375 37.109375 14.984375 27.296875 
Q 14.984375 17.484375 19.15625 11.84375 
Q 23.34375 6.203125 30.609375 6.203125 
Q 37.796875 6.203125 41.984375 11.859375 
Q 46.1875 17.53125 46.1875 27.296875 
Q 46.1875 37.015625 41.984375 42.703125 
Q 37.796875 48.390625 30.609375 48.390625 
M 30.609375 56 
Q 42.328125 56 49.015625 48.375 
Q 55.71875 40.765625 55.71875 27.296875 
Q 55.71875 13.875 49.015625 6.21875 
Q 42.328125 -1.421875 30.609375 -1.421875 
Q 18.84375 -1.421875 12.171875 6.21875 
Q 5.515625 13.875 5.515625 27.296875 
Q 5.515625 40.765625 12.171875 48.375 
Q 18.84375 56 30.609375 56 
" id="BitstreamVeraSans-Roman-6f"/>
      <path id="BitstreamVeraSans-Roman-20"/>
      <path d="M 9.421875 54.6875 
L 18.40625 54.6875 
L 18.40625 0 
L 9.421875 0 
z
M 9.421875 75.984375 
L 18.40625 75.984375 
L 18.40625 64.59375 
L 9.421875 64.59375 
z
" id="BitstreamVeraSans-Roman-69"/>
      <path d="M 54.890625 33.015625 
L 54.890625 0 
L 45.90625 0 
L 45.90625 32.71875 
Q 45.90625 40.484375 42.875 44.328125 
Q 39.84375 48.1875 33.796875 48.1875 
Q 26.515625 48.1875 22.3125 43.546875 
Q 18.109375 38.921875 18.109375 30.90625 
L 18.109375 0 
L 9.078125 0 
L 9.078125 54.6875 
L 18.109375 54.6875 
L 18.109375 46.1875 
Q 21.34375 51.125 25.703125 53.5625 
Q 30.078125 56 35.796875 56 
Q 45.21875 56 50.046875 50.171875 
Q 54.890625 44.34375 54.890625 33.015625 
" id="BitstreamVeraSans-Roman-6e"/>
      <path d="M -0.296875 72.90625 
L 61.375 72.90625 
L 61.375 64.59375 
L 35.5 64.59375 
L 35.5 0 
L 25.59375 0 
L 25.59375 64.59375 
L -0.296875 64.59375 
z
" id="BitstreamVeraSans-Roman-54"/>
      <path d="M 56.203125 29.59375 
L 56.203125 25.203125 
L 14.890625 25.203125 
Q 15.484375 15.921875 20.484375 11.0625 
Q 25.484375 6.203125 34.421875 6.203125 
Q 39.59375 6.203125 44.453125 7.46875 
Q 49.3125 8.734375 54.109375 11.28125 
L 54.109375 2.78125 
Q 49.265625 0.734375 44.1875 -0.34375 
Q 39.109375 -1.421875 33.890625 -1.421875 
Q 20.796875 -1.421875 13.15625 6.1875 
Q 5.515625 13.8125 5.515625 26.8125 
Q 5.515625 40.234375 12.765625 48.109375 
Q 20.015625 56 32.328125 56 
Q 43.359375 56 49.78125 48.890625 
Q 56.203125 41.796875 56.203125 29.59375 
M 47.21875 32.234375 
Q 47.125 39.59375 43.09375 43.984375 
Q 39.0625 48.390625 32.421875 48.390625 
Q 24.90625 48.390625 20.390625 44.140625 
Q 15.875 39.890625 15.1875 32.171875 
z
" id="BitstreamVeraSans-Roman-65"/>
      <path d="M 34.28125 27.484375 
Q 23.390625 27.484375 19.1875 25 
Q 14.984375 22.515625 14.984375 16.5 
Q 14.984375 11.71875 18.140625 8.90625 
Q 21.296875 6.109375 26.703125 6.109375 
Q 34.1875 6.109375 38.703125 11.40625 
Q 43.21875 16.703125 43.21875 25.484375 
L 43.21875 27.484375 
z
M 52.203125 31.203125 
L 52.203125 0 
L 43.21875 0 
L 43.21875 8.296875 
Q 40.140625 3.328125 35.546875 0.953125 
Q 30.953125 -1.421875 24.3125 -1.421875 
Q 15.921875 -1.421875 10.953125 3.296875 
Q 6 8.015625 6 15.921875 
Q 6 25.140625 12.171875 29.828125 
Q 18.359375 34.515625 30.609375 34.515625 
L 43.21875 34.515625 
L 43.21875 35.40625 
Q 43.21875 41.609375 39.140625 45 
Q 35.0625 48.390625 27.6875 48.390625 
Q 23 48.390625 18.546875 47.265625 
Q 14.109375 46.140625 10.015625 43.890625 
L 10.015625 52.203125 
Q 14.9375 54.109375 19.578125 55.046875 
Q 24.21875 56 28.609375 56 
Q 40.484375 56 46.34375 49.84375 
Q 52.203125 43.703125 52.203125 31.203125 
" id="BitstreamVeraSans-Roman-61"/>
     </defs>
     <g transform="translate(77.865625 31.957187500000032)scale(0.12 -0.12)">
      <use xlink:href="#BitstreamVeraSans-Roman-54"/>
      <use x="60.865234375" xlink:href="#BitstreamVeraSans-Roman-72"/>
      <use x="101.978515625" xlink:href="#BitstreamVeraSans-Roman-61"/>
      <use x="163.2578125" xlink:href="#BitstreamVeraSans-Roman-69"/>
      <use x="191.041015625" xlink:href="#BitstreamVeraSans-Roman-6e"/>
      <use x="254.419921875" xlink:href="#BitstreamVeraSans-Roman-20"/>
      <use x="286.20703125" xlink:href="#BitstreamVeraSans-Roman-65"/>
      <use x="347.73046875" xlink:href="#BitstreamVeraSans-Roman-72"/>
      <use x="388.828125" xlink:href="#BitstreamVeraSans-Roman-72"/>
      <use x="429.91015625" xlink:href="#BitstreamVeraSans-Roman-6f"/>
      <use x="491.091796875" xlink:href="#BitstreamVeraSans-Roman-72"/>
     </g>
    </g>
    <g id="line2d_63">
     <path d="M 47.865625 45.370938 
L 64.665625 45.370938 
" style="fill:none;stroke:#008000;stroke-linecap:square;"/>
    </g>
    <g id="line2d_64"/>
    <g id="text_16">
     <!-- Test error -->
     <defs>
      <path d="M 18.3125 70.21875 
L 18.3125 54.6875 
L 36.8125 54.6875 
L 36.8125 47.703125 
L 18.3125 47.703125 
L 18.3125 18.015625 
Q 18.3125 11.328125 20.140625 9.421875 
Q 21.96875 7.515625 27.59375 7.515625 
L 36.8125 7.515625 
L 36.8125 0 
L 27.59375 0 
Q 17.1875 0 13.234375 3.875 
Q 9.28125 7.765625 9.28125 18.015625 
L 9.28125 47.703125 
L 2.6875 47.703125 
L 2.6875 54.6875 
L 9.28125 54.6875 
L 9.28125 70.21875 
z
" id="BitstreamVeraSans-Roman-74"/>
      <path d="M 44.28125 53.078125 
L 44.28125 44.578125 
Q 40.484375 46.53125 36.375 47.5 
Q 32.28125 48.484375 27.875 48.484375 
Q 21.1875 48.484375 17.84375 46.4375 
Q 14.5 44.390625 14.5 40.28125 
Q 14.5 37.15625 16.890625 35.375 
Q 19.28125 33.59375 26.515625 31.984375 
L 29.59375 31.296875 
Q 39.15625 29.25 43.1875 25.515625 
Q 47.21875 21.78125 47.21875 15.09375 
Q 47.21875 7.46875 41.1875 3.015625 
Q 35.15625 -1.421875 24.609375 -1.421875 
Q 20.21875 -1.421875 15.453125 -0.5625 
Q 10.6875 0.296875 5.421875 2 
L 5.421875 11.28125 
Q 10.40625 8.6875 15.234375 7.390625 
Q 20.0625 6.109375 24.8125 6.109375 
Q 31.15625 6.109375 34.5625 8.28125 
Q 37.984375 10.453125 37.984375 14.40625 
Q 37.984375 18.0625 35.515625 20.015625 
Q 33.0625 21.96875 24.703125 23.78125 
L 21.578125 24.515625 
Q 13.234375 26.265625 9.515625 29.90625 
Q 5.8125 33.546875 5.8125 39.890625 
Q 5.8125 47.609375 11.28125 51.796875 
Q 16.75 56 26.8125 56 
Q 31.78125 56 36.171875 55.265625 
Q 40.578125 54.546875 44.28125 53.078125 
" id="BitstreamVeraSans-Roman-73"/>
     </defs>
     <g transform="translate(77.865625 49.57093750000004)scale(0.12 -0.12)">
      <use xlink:href="#BitstreamVeraSans-Roman-54"/>
      <use x="60.818359375" xlink:href="#BitstreamVeraSans-Roman-65"/>
      <use x="122.341796875" xlink:href="#BitstreamVeraSans-Roman-73"/>
      <use x="174.44140625" xlink:href="#BitstreamVeraSans-Roman-74"/>
      <use x="213.650390625" xlink:href="#BitstreamVeraSans-Roman-20"/>
      <use x="245.4375" xlink:href="#BitstreamVeraSans-Roman-65"/>
      <use x="306.9609375" xlink:href="#BitstreamVeraSans-Roman-72"/>
      <use x="348.05859375" xlink:href="#BitstreamVeraSans-Roman-72"/>
      <use x="389.140625" xlink:href="#BitstreamVeraSans-Roman-6f"/>
      <use x="450.322265625" xlink:href="#BitstreamVeraSans-Roman-72"/>
     </g>
    </g>
   </g>
  </g>
 </g>
 <defs>
  <clipPath id="p3978a0d785">
   <rect height="223.2" width="334.8" x="33.465625" y="12.039062500000057"/>
  </clipPath>
 </defs>
</svg>
