<?xml version="1.0" encoding="utf-8" standalone="no"?>
<!DOCTYPE svg PUBLIC "-//W3C//DTD SVG 1.1//EN"
  "http://www.w3.org/Graphics/SVG/1.1/DTD/svg11.dtd">
<!-- Created with matplotlib (https://matplotlib.org/) -->
<svg height="271.503125pt" version="1.1" viewBox="0 0 390.345312 271.503125" width="390.345312pt" xmlns="http://www.w3.org/2000/svg" xmlns:xlink="http://www.w3.org/1999/xlink">
 <defs>
  <style type="text/css">
*{stroke-linecap:butt;stroke-linejoin:round;}
  </style>
 </defs>
 <g id="figure_1">
  <g id="patch_1">
   <path d="M 0 271.503125 
L 390.345312 271.503125 
L 390.345312 0 
L 0 0 
z
" style="fill:none;"/>
  </g>
  <g id="axes_1">
   <g id="patch_2">
    <path d="M 44.845313 228.14 
L 379.645313 228.14 
L 379.645313 10.7 
L 44.845313 10.7 
z
" style="fill:#ffffff;"/>
   </g>
   <g id="matplotlib.axis_1">
    <g id="xtick_1">
     <g id="line2d_1">
      <defs>
       <path d="M 0 0 
L 0 3.5 
" id="m53c2636cd5" style="stroke:#000000;stroke-width:0.8;"/>
      </defs>
      <g>
       <use style="stroke:#000000;stroke-width:0.8;" x="60.063494" xlink:href="#m53c2636cd5" y="228.14"/>
      </g>
     </g>
     <g id="text_1">
      <!-- $\mathdefault{10^{-2}}$ -->
      <defs>
       <path d="M 12.40625 8.296875 
L 28.515625 8.296875 
L 28.515625 63.921875 
L 10.984375 60.40625 
L 10.984375 69.390625 
L 28.421875 72.90625 
L 38.28125 72.90625 
L 38.28125 8.296875 
L 54.390625 8.296875 
L 54.390625 0 
L 12.40625 0 
z
" id="DejaVuSans-49"/>
       <path d="M 31.78125 66.40625 
Q 24.171875 66.40625 20.328125 58.90625 
Q 16.5 51.421875 16.5 36.375 
Q 16.5 21.390625 20.328125 13.890625 
Q 24.171875 6.390625 31.78125 6.390625 
Q 39.453125 6.390625 43.28125 13.890625 
Q 47.125 21.390625 47.125 36.375 
Q 47.125 51.421875 43.28125 58.90625 
Q 39.453125 66.40625 31.78125 66.40625 
z
M 31.78125 74.21875 
Q 44.046875 74.21875 50.515625 64.515625 
Q 56.984375 54.828125 56.984375 36.375 
Q 56.984375 17.96875 50.515625 8.265625 
Q 44.046875 -1.421875 31.78125 -1.421875 
Q 19.53125 -1.421875 13.0625 8.265625 
Q 6.59375 17.96875 6.59375 36.375 
Q 6.59375 54.828125 13.0625 64.515625 
Q 19.53125 74.21875 31.78125 74.21875 
z
" id="DejaVuSans-48"/>
       <path d="M 10.59375 35.5 
L 73.1875 35.5 
L 73.1875 27.203125 
L 10.59375 27.203125 
z
" id="DejaVuSans-8722"/>
       <path d="M 19.1875 8.296875 
L 53.609375 8.296875 
L 53.609375 0 
L 7.328125 0 
L 7.328125 8.296875 
Q 12.9375 14.109375 22.625 23.890625 
Q 32.328125 33.6875 34.8125 36.53125 
Q 39.546875 41.84375 41.421875 45.53125 
Q 43.3125 49.21875 43.3125 52.78125 
Q 43.3125 58.59375 39.234375 62.25 
Q 35.15625 65.921875 28.609375 65.921875 
Q 23.96875 65.921875 18.8125 64.3125 
Q 13.671875 62.703125 7.8125 59.421875 
L 7.8125 69.390625 
Q 13.765625 71.78125 18.9375 73 
Q 24.125 74.21875 28.421875 74.21875 
Q 39.75 74.21875 46.484375 68.546875 
Q 53.21875 62.890625 53.21875 53.421875 
Q 53.21875 48.921875 51.53125 44.890625 
Q 49.859375 40.875 45.40625 35.40625 
Q 44.1875 33.984375 37.640625 27.21875 
Q 31.109375 20.453125 19.1875 8.296875 
z
" id="DejaVuSans-50"/>
      </defs>
      <g transform="translate(48.313494 242.738437)scale(0.1 -0.1)">
       <use transform="translate(0 0.765625)" xlink:href="#DejaVuSans-49"/>
       <use transform="translate(63.623047 0.765625)" xlink:href="#DejaVuSans-48"/>
       <use transform="translate(128.203125 39.046875)scale(0.7)" xlink:href="#DejaVuSans-8722"/>
       <use transform="translate(186.855469 39.046875)scale(0.7)" xlink:href="#DejaVuSans-50"/>
      </g>
     </g>
    </g>
    <g id="xtick_2">
     <g id="line2d_2">
      <g>
       <use style="stroke:#000000;stroke-width:0.8;" x="212.245313" xlink:href="#m53c2636cd5" y="228.14"/>
      </g>
     </g>
     <g id="text_2">
      <!-- $\mathdefault{10^{-1}}$ -->
      <g transform="translate(200.495313 242.738437)scale(0.1 -0.1)">
       <use transform="translate(0 0.684375)" xlink:href="#DejaVuSans-49"/>
       <use transform="translate(63.623047 0.684375)" xlink:href="#DejaVuSans-48"/>
       <use transform="translate(128.203125 38.965625)scale(0.7)" xlink:href="#DejaVuSans-8722"/>
       <use transform="translate(186.855469 38.965625)scale(0.7)" xlink:href="#DejaVuSans-49"/>
      </g>
     </g>
    </g>
    <g id="xtick_3">
     <g id="line2d_3">
      <g>
       <use style="stroke:#000000;stroke-width:0.8;" x="364.427131" xlink:href="#m53c2636cd5" y="228.14"/>
      </g>
     </g>
     <g id="text_3">
      <!-- $\mathdefault{10^{0}}$ -->
      <g transform="translate(355.627131 242.738437)scale(0.1 -0.1)">
       <use transform="translate(0 0.765625)" xlink:href="#DejaVuSans-49"/>
       <use transform="translate(63.623047 0.765625)" xlink:href="#DejaVuSans-48"/>
       <use transform="translate(128.203125 39.046875)scale(0.7)" xlink:href="#DejaVuSans-48"/>
      </g>
     </g>
    </g>
    <g id="xtick_4">
     <g id="line2d_4">
      <defs>
       <path d="M 0 0 
L 0 2 
" id="m9e4403a3af" style="stroke:#000000;stroke-width:0.6;"/>
      </defs>
      <g>
       <use style="stroke:#000000;stroke-width:0.6;" x="45.315552" xlink:href="#m9e4403a3af" y="228.14"/>
      </g>
     </g>
    </g>
    <g id="xtick_5">
     <g id="line2d_5">
      <g>
       <use style="stroke:#000000;stroke-width:0.6;" x="53.100036" xlink:href="#m9e4403a3af" y="228.14"/>
      </g>
     </g>
    </g>
    <g id="xtick_6">
     <g id="line2d_6">
      <g>
       <use style="stroke:#000000;stroke-width:0.6;" x="105.874786" xlink:href="#m9e4403a3af" y="228.14"/>
      </g>
     </g>
    </g>
    <g id="xtick_7">
     <g id="line2d_7">
      <g>
       <use style="stroke:#000000;stroke-width:0.6;" x="132.672674" xlink:href="#m9e4403a3af" y="228.14"/>
      </g>
     </g>
    </g>
    <g id="xtick_8">
     <g id="line2d_8">
      <g>
       <use style="stroke:#000000;stroke-width:0.6;" x="151.686078" xlink:href="#m9e4403a3af" y="228.14"/>
      </g>
     </g>
    </g>
    <g id="xtick_9">
     <g id="line2d_9">
      <g>
       <use style="stroke:#000000;stroke-width:0.6;" x="166.43402" xlink:href="#m9e4403a3af" y="228.14"/>
      </g>
     </g>
    </g>
    <g id="xtick_10">
     <g id="line2d_10">
      <g>
       <use style="stroke:#000000;stroke-width:0.6;" x="178.483966" xlink:href="#m9e4403a3af" y="228.14"/>
      </g>
     </g>
    </g>
    <g id="xtick_11">
     <g id="line2d_11">
      <g>
       <use style="stroke:#000000;stroke-width:0.6;" x="188.672051" xlink:href="#m9e4403a3af" y="228.14"/>
      </g>
     </g>
    </g>
    <g id="xtick_12">
     <g id="line2d_12">
      <g>
       <use style="stroke:#000000;stroke-width:0.6;" x="197.497371" xlink:href="#m9e4403a3af" y="228.14"/>
      </g>
     </g>
    </g>
    <g id="xtick_13">
     <g id="line2d_13">
      <g>
       <use style="stroke:#000000;stroke-width:0.6;" x="205.281854" xlink:href="#m9e4403a3af" y="228.14"/>
      </g>
     </g>
    </g>
    <g id="xtick_14">
     <g id="line2d_14">
      <g>
       <use style="stroke:#000000;stroke-width:0.6;" x="258.056605" xlink:href="#m9e4403a3af" y="228.14"/>
      </g>
     </g>
    </g>
    <g id="xtick_15">
     <g id="line2d_15">
      <g>
       <use style="stroke:#000000;stroke-width:0.6;" x="284.854493" xlink:href="#m9e4403a3af" y="228.14"/>
      </g>
     </g>
    </g>
    <g id="xtick_16">
     <g id="line2d_16">
      <g>
       <use style="stroke:#000000;stroke-width:0.6;" x="303.867897" xlink:href="#m9e4403a3af" y="228.14"/>
      </g>
     </g>
    </g>
    <g id="xtick_17">
     <g id="line2d_17">
      <g>
       <use style="stroke:#000000;stroke-width:0.6;" x="318.615839" xlink:href="#m9e4403a3af" y="228.14"/>
      </g>
     </g>
    </g>
    <g id="xtick_18">
     <g id="line2d_18">
      <g>
       <use style="stroke:#000000;stroke-width:0.6;" x="330.665785" xlink:href="#m9e4403a3af" y="228.14"/>
      </g>
     </g>
    </g>
    <g id="xtick_19">
     <g id="line2d_19">
      <g>
       <use style="stroke:#000000;stroke-width:0.6;" x="340.853869" xlink:href="#m9e4403a3af" y="228.14"/>
      </g>
     </g>
    </g>
    <g id="xtick_20">
     <g id="line2d_20">
      <g>
       <use style="stroke:#000000;stroke-width:0.6;" x="349.679189" xlink:href="#m9e4403a3af" y="228.14"/>
      </g>
     </g>
    </g>
    <g id="xtick_21">
     <g id="line2d_21">
      <g>
       <use style="stroke:#000000;stroke-width:0.6;" x="357.463673" xlink:href="#m9e4403a3af" y="228.14"/>
      </g>
     </g>
    </g>
    <g id="text_4">
     <!-- $\lambda$ -->
     <defs>
      <path d="M 36.71875 67.4375 
L 48.828125 0 
L 39.3125 0 
L 31.84375 40.4375 
L 5.125 0 
L -4.390625 0 
L 29.734375 52.4375 
L 28.03125 62.109375 
Q 26.953125 68.265625 21.734375 68.265625 
L 17.046875 68.265625 
L 18.5 75.984375 
L 24.21875 75.875 
Q 35.203125 75.734375 36.71875 67.4375 
z
" id="DejaVuSans-Oblique-955"/>
     </defs>
     <g transform="translate(207.445313 260.975625)scale(0.16 -0.16)">
      <use transform="translate(0 0.015625)" xlink:href="#DejaVuSans-Oblique-955"/>
     </g>
    </g>
   </g>
   <g id="matplotlib.axis_2">
    <g id="ytick_1">
     <g id="line2d_22">
      <defs>
       <path d="M 0 0 
L -3.5 0 
" id="m72eb2fa3af" style="stroke:#000000;stroke-width:0.8;"/>
      </defs>
      <g>
       <use style="stroke:#000000;stroke-width:0.8;" x="44.845313" xlink:href="#m72eb2fa3af" y="213.491407"/>
      </g>
     </g>
     <g id="text_5">
      <!-- −0.08 -->
      <defs>
       <path d="M 10.6875 12.40625 
L 21 12.40625 
L 21 0 
L 10.6875 0 
z
" id="DejaVuSans-46"/>
       <path d="M 31.78125 34.625 
Q 24.75 34.625 20.71875 30.859375 
Q 16.703125 27.09375 16.703125 20.515625 
Q 16.703125 13.921875 20.71875 10.15625 
Q 24.75 6.390625 31.78125 6.390625 
Q 38.8125 6.390625 42.859375 10.171875 
Q 46.921875 13.96875 46.921875 20.515625 
Q 46.921875 27.09375 42.890625 30.859375 
Q 38.875 34.625 31.78125 34.625 
z
M 21.921875 38.8125 
Q 15.578125 40.375 12.03125 44.71875 
Q 8.5 49.078125 8.5 55.328125 
Q 8.5 64.0625 14.71875 69.140625 
Q 20.953125 74.21875 31.78125 74.21875 
Q 42.671875 74.21875 48.875 69.140625 
Q 55.078125 64.0625 55.078125 55.328125 
Q 55.078125 49.078125 51.53125 44.71875 
Q 48 40.375 41.703125 38.8125 
Q 48.828125 37.15625 52.796875 32.3125 
Q 56.78125 27.484375 56.78125 20.515625 
Q 56.78125 9.90625 50.3125 4.234375 
Q 43.84375 -1.421875 31.78125 -1.421875 
Q 19.734375 -1.421875 13.25 4.234375 
Q 6.78125 9.90625 6.78125 20.515625 
Q 6.78125 27.484375 10.78125 32.3125 
Q 14.796875 37.15625 21.921875 38.8125 
z
M 18.3125 54.390625 
Q 18.3125 48.734375 21.84375 45.5625 
Q 25.390625 42.390625 31.78125 42.390625 
Q 38.140625 42.390625 41.71875 45.5625 
Q 45.3125 48.734375 45.3125 54.390625 
Q 45.3125 60.0625 41.71875 63.234375 
Q 38.140625 66.40625 31.78125 66.40625 
Q 25.390625 66.40625 21.84375 63.234375 
Q 18.3125 60.0625 18.3125 54.390625 
z
" id="DejaVuSans-56"/>
      </defs>
      <g transform="translate(7.2 217.290626)scale(0.1 -0.1)">
       <use xlink:href="#DejaVuSans-8722"/>
       <use x="83.789062" xlink:href="#DejaVuSans-48"/>
       <use x="147.412109" xlink:href="#DejaVuSans-46"/>
       <use x="179.199219" xlink:href="#DejaVuSans-48"/>
       <use x="242.822266" xlink:href="#DejaVuSans-56"/>
      </g>
     </g>
    </g>
    <g id="ytick_2">
     <g id="line2d_23">
      <g>
       <use style="stroke:#000000;stroke-width:0.8;" x="44.845313" xlink:href="#m72eb2fa3af" y="178.227807"/>
      </g>
     </g>
     <g id="text_6">
      <!-- −0.06 -->
      <defs>
       <path d="M 33.015625 40.375 
Q 26.375 40.375 22.484375 35.828125 
Q 18.609375 31.296875 18.609375 23.390625 
Q 18.609375 15.53125 22.484375 10.953125 
Q 26.375 6.390625 33.015625 6.390625 
Q 39.65625 6.390625 43.53125 10.953125 
Q 47.40625 15.53125 47.40625 23.390625 
Q 47.40625 31.296875 43.53125 35.828125 
Q 39.65625 40.375 33.015625 40.375 
z
M 52.59375 71.296875 
L 52.59375 62.3125 
Q 48.875 64.0625 45.09375 64.984375 
Q 41.3125 65.921875 37.59375 65.921875 
Q 27.828125 65.921875 22.671875 59.328125 
Q 17.53125 52.734375 16.796875 39.40625 
Q 19.671875 43.65625 24.015625 45.921875 
Q 28.375 48.1875 33.59375 48.1875 
Q 44.578125 48.1875 50.953125 41.515625 
Q 57.328125 34.859375 57.328125 23.390625 
Q 57.328125 12.15625 50.6875 5.359375 
Q 44.046875 -1.421875 33.015625 -1.421875 
Q 20.359375 -1.421875 13.671875 8.265625 
Q 6.984375 17.96875 6.984375 36.375 
Q 6.984375 53.65625 15.1875 63.9375 
Q 23.390625 74.21875 37.203125 74.21875 
Q 40.921875 74.21875 44.703125 73.484375 
Q 48.484375 72.75 52.59375 71.296875 
z
" id="DejaVuSans-54"/>
      </defs>
      <g transform="translate(7.2 182.027026)scale(0.1 -0.1)">
       <use xlink:href="#DejaVuSans-8722"/>
       <use x="83.789062" xlink:href="#DejaVuSans-48"/>
       <use x="147.412109" xlink:href="#DejaVuSans-46"/>
       <use x="179.199219" xlink:href="#DejaVuSans-48"/>
       <use x="242.822266" xlink:href="#DejaVuSans-54"/>
      </g>
     </g>
    </g>
    <g id="ytick_3">
     <g id="line2d_24">
      <g>
       <use style="stroke:#000000;stroke-width:0.8;" x="44.845313" xlink:href="#m72eb2fa3af" y="142.964207"/>
      </g>
     </g>
     <g id="text_7">
      <!-- −0.04 -->
      <defs>
       <path d="M 37.796875 64.3125 
L 12.890625 25.390625 
L 37.796875 25.390625 
z
M 35.203125 72.90625 
L 47.609375 72.90625 
L 47.609375 25.390625 
L 58.015625 25.390625 
L 58.015625 17.1875 
L 47.609375 17.1875 
L 47.609375 0 
L 37.796875 0 
L 37.796875 17.1875 
L 4.890625 17.1875 
L 4.890625 26.703125 
z
" id="DejaVuSans-52"/>
      </defs>
      <g transform="translate(7.2 146.763426)scale(0.1 -0.1)">
       <use xlink:href="#DejaVuSans-8722"/>
       <use x="83.789062" xlink:href="#DejaVuSans-48"/>
       <use x="147.412109" xlink:href="#DejaVuSans-46"/>
       <use x="179.199219" xlink:href="#DejaVuSans-48"/>
       <use x="242.822266" xlink:href="#DejaVuSans-52"/>
      </g>
     </g>
    </g>
    <g id="ytick_4">
     <g id="line2d_25">
      <g>
       <use style="stroke:#000000;stroke-width:0.8;" x="44.845313" xlink:href="#m72eb2fa3af" y="107.700607"/>
      </g>
     </g>
     <g id="text_8">
      <!-- −0.02 -->
      <g transform="translate(7.2 111.499825)scale(0.1 -0.1)">
       <use xlink:href="#DejaVuSans-8722"/>
       <use x="83.789062" xlink:href="#DejaVuSans-48"/>
       <use x="147.412109" xlink:href="#DejaVuSans-46"/>
       <use x="179.199219" xlink:href="#DejaVuSans-48"/>
       <use x="242.822266" xlink:href="#DejaVuSans-50"/>
      </g>
     </g>
    </g>
    <g id="ytick_5">
     <g id="line2d_26">
      <g>
       <use style="stroke:#000000;stroke-width:0.8;" x="44.845313" xlink:href="#m72eb2fa3af" y="72.437007"/>
      </g>
     </g>
     <g id="text_9">
      <!-- 0.00 -->
      <g transform="translate(15.579688 76.236225)scale(0.1 -0.1)">
       <use xlink:href="#DejaVuSans-48"/>
       <use x="63.623047" xlink:href="#DejaVuSans-46"/>
       <use x="95.410156" xlink:href="#DejaVuSans-48"/>
       <use x="159.033203" xlink:href="#DejaVuSans-48"/>
      </g>
     </g>
    </g>
    <g id="ytick_6">
     <g id="line2d_27">
      <g>
       <use style="stroke:#000000;stroke-width:0.8;" x="44.845313" xlink:href="#m72eb2fa3af" y="37.173406"/>
      </g>
     </g>
     <g id="text_10">
      <!-- 0.02 -->
      <g transform="translate(15.579688 40.972625)scale(0.1 -0.1)">
       <use xlink:href="#DejaVuSans-48"/>
       <use x="63.623047" xlink:href="#DejaVuSans-46"/>
       <use x="95.410156" xlink:href="#DejaVuSans-48"/>
       <use x="159.033203" xlink:href="#DejaVuSans-50"/>
      </g>
     </g>
    </g>
   </g>
   <g id="line2d_28">
    <path clip-path="url(#pb943502cd0)" d="M 60.063494 147.477098 
L 63.137874 147.458596 
L 66.212255 147.439401 
L 69.286635 147.41948 
L 72.361015 147.398836 
L 75.435395 147.377373 
L 78.509775 147.355263 
L 81.584155 147.33234 
L 84.658536 147.308625 
L 87.732916 147.284118 
L 90.807296 147.258816 
L 93.881676 147.232717 
L 96.956056 147.205825 
L 100.030436 147.178137 
L 103.104817 147.149666 
L 106.179197 147.122207 
L 109.253577 147.107874 
L 112.327957 147.093606 
L 115.402337 147.116791 
L 118.476717 147.142096 
L 121.551098 147.1712 
L 124.625478 147.227264 
L 127.699858 147.286721 
L 130.774238 147.350539 
L 133.848618 147.451522 
L 136.922998 147.558137 
L 139.997379 147.670719 
L 143.071759 147.789647 
L 146.146139 147.936427 
L 149.220519 148.095678 
L 152.294899 148.263759 
L 155.369279 148.359592 
L 158.44366 148.428029 
L 161.51804 148.409078 
L 164.59242 148.349185 
L 167.6668 148.371879 
L 170.74118 148.488635 
L 173.81556 148.612239 
L 176.889941 148.728736 
L 179.964321 148.771717 
L 183.038701 148.814715 
L 186.113081 148.861914 
L 189.187461 148.913719 
L 192.261841 148.970566 
L 195.336222 149.032913 
L 198.410602 149.101272 
L 201.484982 149.17618 
L 204.559362 149.258272 
L 207.633742 149.348197 
L 210.708122 149.446683 
L 213.782503 149.554513 
L 216.856883 149.672534 
L 219.931263 149.814313 
L 223.005643 150.047129 
L 226.080023 150.295539 
L 229.154403 150.560711 
L 232.228784 150.931065 
L 235.303164 151.459787 
L 238.377544 152.017611 
L 241.451924 152.606379 
L 244.526304 153.228212 
L 247.600684 153.885209 
L 250.675065 154.579802 
L 253.749445 155.31467 
L 256.823825 156.092635 
L 259.898205 156.711635 
L 262.972585 156.654721 
L 266.046965 156.601521 
L 269.121346 156.552782 
L 272.195726 156.509284 
L 275.270106 156.47194 
L 278.344486 156.515178 
L 281.418866 156.927933 
L 284.493246 157.366503 
L 287.567627 157.832645 
L 290.642007 158.328259 
L 293.716387 158.855379 
L 296.790767 159.416156 
L 299.865147 160.012955 
L 302.939527 160.648256 
L 306.013908 161.324738 
L 309.088288 162.045362 
L 312.162668 162.813121 
L 315.237048 163.631434 
L 318.311428 164.143006 
L 321.385808 164.143073 
L 324.460189 164.14304 
L 327.534569 164.14301 
L 330.608949 164.143176 
L 333.683329 164.143156 
L 336.757709 164.143061 
L 339.832089 164.143045 
L 342.90647 164.143013 
L 345.98085 164.143028 
L 349.05523 164.142996 
L 352.12961 164.143041 
L 355.20399 164.143006 
L 358.27837 164.143045 
L 361.352751 164.143092 
L 364.427131 164.143101 
" style="fill:none;stroke:#1f77b4;stroke-linecap:square;stroke-width:1.5;"/>
   </g>
   <g id="line2d_29">
    <path clip-path="url(#pb943502cd0)" d="M 60.063494 62.345874 
L 63.137874 62.501793 
L 66.212255 62.665039 
L 69.286635 62.835952 
L 72.361015 63.01489 
L 75.435395 63.202223 
L 78.509775 63.398342 
L 81.584155 63.603653 
L 84.658536 63.81858 
L 87.732916 64.043568 
L 90.807296 64.279082 
L 93.881676 64.525608 
L 96.956056 64.783653 
L 100.030436 65.053747 
L 103.104817 65.336446 
L 106.179197 65.634258 
L 109.253577 65.961043 
L 112.327957 66.302994 
L 115.402337 66.656165 
L 118.476717 67.025715 
L 121.551098 67.41198 
L 124.625478 67.81034 
L 127.699858 68.2272 
L 130.774238 68.663083 
L 133.848618 69.105096 
L 136.922998 69.567567 
L 139.997379 70.051432 
L 143.071759 70.557668 
L 146.146139 71.098854 
L 149.220519 71.667423 
L 152.294899 72.262242 
L 155.369279 72.437005 
L 158.44366 72.437005 
L 161.51804 72.437006 
L 164.59242 72.437006 
L 167.6668 72.437006 
L 170.74118 72.437006 
L 173.81556 72.437006 
L 176.889941 72.437006 
L 179.964321 72.437006 
L 183.038701 72.437006 
L 186.113081 72.437006 
L 189.187461 72.437006 
L 192.261841 72.437007 
L 195.336222 72.437006 
L 198.410602 72.437006 
L 201.484982 72.437006 
L 204.559362 72.437007 
L 207.633742 72.437006 
L 210.708122 72.437006 
L 213.782503 72.437007 
L 216.856883 72.437007 
L 219.931263 72.437006 
L 223.005643 72.437007 
L 226.080023 72.437007 
L 229.154403 72.437007 
L 232.228784 72.437006 
L 235.303164 72.437007 
L 238.377544 72.437006 
L 241.451924 72.437007 
L 244.526304 72.437006 
L 247.600684 72.437007 
L 250.675065 72.437007 
L 253.749445 72.437007 
L 256.823825 72.437007 
L 259.898205 72.437007 
L 262.972585 72.437007 
L 266.046965 72.437007 
L 269.121346 72.437007 
L 272.195726 72.437007 
L 275.270106 72.437007 
L 278.344486 72.437007 
L 281.418866 72.437007 
L 284.493246 72.437007 
L 287.567627 72.437007 
L 290.642007 72.437007 
L 293.716387 72.437007 
L 296.790767 72.437007 
L 299.865147 72.437006 
L 302.939527 72.437006 
L 306.013908 72.437007 
L 309.088288 72.437007 
L 312.162668 72.437007 
L 315.237048 72.437006 
L 318.311428 72.437006 
L 321.385808 72.437006 
L 324.460189 72.437007 
L 327.534569 72.437007 
L 330.608949 72.437006 
L 333.683329 72.437007 
L 336.757709 72.437007 
L 339.832089 72.437007 
L 342.90647 72.437007 
L 345.98085 72.437007 
L 349.05523 72.437007 
L 352.12961 72.437007 
L 355.20399 72.437007 
L 358.27837 72.437007 
L 361.352751 72.437007 
L 364.427131 72.437007 
" style="fill:none;stroke:#ff7f0e;stroke-linecap:square;stroke-width:1.5;"/>
   </g>
   <g id="line2d_30">
    <path clip-path="url(#pb943502cd0)" d="M 60.063494 82.691682 
L 63.137874 82.559679 
L 66.212255 82.421466 
L 69.286635 82.276755 
L 72.361015 82.125244 
L 75.435395 81.966618 
L 78.509775 81.800542 
L 81.584155 81.626675 
L 84.658536 81.444657 
L 87.732916 81.254108 
L 90.807296 81.054635 
L 93.881676 80.845826 
L 96.956056 80.627248 
L 100.030436 80.398453 
L 103.104817 80.158969 
L 106.179197 79.908283 
L 109.253577 79.645728 
L 112.327957 79.370833 
L 115.402337 79.068572 
L 118.476717 78.752089 
L 121.551098 78.419956 
L 124.625478 78.060829 
L 127.699858 77.685025 
L 130.774238 77.291595 
L 133.848618 76.871882 
L 136.922998 76.4327 
L 139.997379 75.973169 
L 143.071759 75.492358 
L 146.146139 74.965614 
L 149.220519 74.40966 
L 152.294899 73.828053 
L 155.369279 73.238533 
L 158.44366 72.629562 
L 161.51804 72.437008 
L 164.59242 72.437007 
L 167.6668 72.437007 
L 170.74118 72.437007 
L 173.81556 72.437007 
L 176.889941 72.437007 
L 179.964321 72.437007 
L 183.038701 72.437007 
L 186.113081 72.437007 
L 189.187461 72.437007 
L 192.261841 72.437007 
L 195.336222 72.437007 
L 198.410602 72.437007 
L 201.484982 72.437007 
L 204.559362 72.437007 
L 207.633742 72.437007 
L 210.708122 72.437007 
L 213.782503 72.437007 
L 216.856883 72.437007 
L 219.931263 72.437007 
L 223.005643 72.437006 
L 226.080023 72.437007 
L 229.154403 72.437007 
L 232.228784 72.437007 
L 235.303164 72.437007 
L 238.377544 72.437007 
L 241.451924 72.437006 
L 244.526304 72.437007 
L 247.600684 72.437006 
L 250.675065 72.437007 
L 253.749445 72.437007 
L 256.823825 72.437007 
L 259.898205 72.437006 
L 262.972585 72.437006 
L 266.046965 72.437006 
L 269.121346 72.437006 
L 272.195726 72.437007 
L 275.270106 72.437006 
L 278.344486 72.437007 
L 281.418866 72.437007 
L 284.493246 72.437007 
L 287.567627 72.437006 
L 290.642007 72.437007 
L 293.716387 72.437006 
L 296.790767 72.437006 
L 299.865147 72.437007 
L 302.939527 72.437007 
L 306.013908 72.437007 
L 309.088288 72.437007 
L 312.162668 72.437007 
L 315.237048 72.437007 
L 318.311428 72.437007 
L 321.385808 72.437007 
L 324.460189 72.437006 
L 327.534569 72.437006 
L 330.608949 72.437006 
L 333.683329 72.437006 
L 336.757709 72.437006 
L 339.832089 72.437006 
L 342.90647 72.437006 
L 345.98085 72.437006 
L 349.05523 72.437007 
L 352.12961 72.437007 
L 355.20399 72.437007 
L 358.27837 72.437007 
L 361.352751 72.437006 
L 364.427131 72.437006 
" style="fill:none;stroke:#2ca02c;stroke-linecap:square;stroke-width:1.5;"/>
   </g>
   <g id="line2d_31">
    <path clip-path="url(#pb943502cd0)" d="M 60.063494 77.75271 
L 63.137874 77.584308 
L 66.212255 77.407987 
L 69.286635 77.223377 
L 72.361015 77.030092 
L 75.435395 76.827733 
L 78.509775 76.615874 
L 81.584155 76.394076 
L 84.658536 76.161881 
L 87.732916 75.918806 
L 90.807296 75.664348 
L 93.881676 75.397981 
L 96.956056 75.119155 
L 100.030436 74.827295 
L 103.104817 74.521802 
L 106.179197 74.20228 
L 109.253577 73.8697 
L 112.327957 73.521819 
L 115.402337 73.16682 
L 118.476717 72.795287 
L 121.551098 72.437036 
L 124.625478 72.43701 
L 127.699858 72.437008 
L 130.774238 72.437007 
L 133.848618 72.437007 
L 136.922998 72.437007 
L 139.997379 72.437007 
L 143.071759 72.437007 
L 146.146139 72.437007 
L 149.220519 72.437007 
L 152.294899 72.437007 
L 155.369279 72.437007 
L 158.44366 72.437007 
L 161.51804 72.437007 
L 164.59242 72.437007 
L 167.6668 72.437007 
L 170.74118 72.437007 
L 173.81556 72.437007 
L 176.889941 72.437007 
L 179.964321 72.437007 
L 183.038701 72.437007 
L 186.113081 72.437007 
L 189.187461 72.437007 
L 192.261841 72.437007 
L 195.336222 72.437007 
L 198.410602 72.437007 
L 201.484982 72.437007 
L 204.559362 72.437007 
L 207.633742 72.437007 
L 210.708122 72.437007 
L 213.782503 72.437007 
L 216.856883 72.437007 
L 219.931263 72.437007 
L 223.005643 72.437006 
L 226.080023 72.437007 
L 229.154403 72.437007 
L 232.228784 72.437007 
L 235.303164 72.437007 
L 238.377544 72.437007 
L 241.451924 72.437007 
L 244.526304 72.437007 
L 247.600684 72.437006 
L 250.675065 72.437007 
L 253.749445 72.437007 
L 256.823825 72.437007 
L 259.898205 72.437007 
L 262.972585 72.437007 
L 266.046965 72.437007 
L 269.121346 72.437007 
L 272.195726 72.437007 
L 275.270106 72.437007 
L 278.344486 72.437007 
L 281.418866 72.437007 
L 284.493246 72.437007 
L 287.567627 72.437007 
L 290.642007 72.437007 
L 293.716387 72.437007 
L 296.790767 72.437007 
L 299.865147 72.437007 
L 302.939527 72.437006 
L 306.013908 72.437007 
L 309.088288 72.437007 
L 312.162668 72.437007 
L 315.237048 72.437006 
L 318.311428 72.437006 
L 321.385808 72.437006 
L 324.460189 72.437007 
L 327.534569 72.437007 
L 330.608949 72.437007 
L 333.683329 72.437007 
L 336.757709 72.437007 
L 339.832089 72.437007 
L 342.90647 72.437007 
L 345.98085 72.437007 
L 349.05523 72.437007 
L 352.12961 72.437007 
L 355.20399 72.437007 
L 358.27837 72.437007 
L 361.352751 72.437007 
L 364.427131 72.437007 
" style="fill:none;stroke:#d62728;stroke-linecap:square;stroke-width:1.5;"/>
   </g>
   <g id="line2d_32">
    <path clip-path="url(#pb943502cd0)" d="M 60.063494 20.583636 
L 63.137874 20.717658 
L 66.212255 20.857896 
L 69.286635 21.004629 
L 72.361015 21.158153 
L 75.435395 21.318767 
L 78.509775 21.486801 
L 81.584155 21.662576 
L 84.658536 21.84644 
L 87.732916 22.038753 
L 90.807296 22.239891 
L 93.881676 22.450243 
L 96.956056 22.670217 
L 100.030436 22.900234 
L 103.104817 23.140736 
L 106.179197 23.392479 
L 109.253577 23.657996 
L 112.327957 23.93568 
L 115.402337 24.232083 
L 118.476717 24.541961 
L 121.551098 24.866198 
L 124.625478 25.208794 
L 127.699858 25.566957 
L 130.774238 25.941847 
L 133.848618 26.354274 
L 136.922998 26.785414 
L 139.997379 27.236061 
L 143.071759 27.707061 
L 146.146139 28.196283 
L 149.220519 28.706908 
L 152.294899 29.240481 
L 155.369279 29.77039 
L 158.44366 30.31278 
L 161.51804 30.887593 
L 164.59242 31.491799 
L 167.6668 32.106859 
L 170.74118 32.731719 
L 173.81556 33.384423 
L 176.889941 34.075685 
L 179.964321 34.840201 
L 183.038701 35.637344 
L 186.113081 36.470048 
L 189.187461 37.339838 
L 192.261841 38.248304 
L 195.336222 39.197104 
L 198.410602 40.187967 
L 201.484982 41.222703 
L 204.559362 42.3032 
L 207.633742 43.431433 
L 210.708122 44.60947 
L 213.782503 45.839479 
L 216.856883 47.123734 
L 219.931263 48.455325 
L 223.005643 49.838691 
L 226.080023 51.283269 
L 229.154403 52.791769 
L 232.228784 54.407783 
L 235.303164 56.159384 
L 238.377544 57.989009 
L 241.451924 59.900207 
L 244.526304 61.896728 
L 247.600684 63.982547 
L 250.675065 66.161873 
L 253.749445 68.439192 
L 256.823825 70.819285 
L 259.898205 72.437005 
L 262.972585 72.437006 
L 266.046965 72.437006 
L 269.121346 72.437007 
L 272.195726 72.437006 
L 275.270106 72.437007 
L 278.344486 72.437006 
L 281.418866 72.437007 
L 284.493246 72.437006 
L 287.567627 72.437007 
L 290.642007 72.437006 
L 293.716387 72.437007 
L 296.790767 72.437007 
L 299.865147 72.437006 
L 302.939527 72.437007 
L 306.013908 72.437006 
L 309.088288 72.437007 
L 312.162668 72.437006 
L 315.237048 72.437007 
L 318.311428 72.437007 
L 321.385808 72.437007 
L 324.460189 72.437007 
L 327.534569 72.437007 
L 330.608949 72.437007 
L 333.683329 72.437007 
L 336.757709 72.437007 
L 339.832089 72.437007 
L 342.90647 72.437006 
L 345.98085 72.437006 
L 349.05523 72.437007 
L 352.12961 72.437007 
L 355.20399 72.437006 
L 358.27837 72.437007 
L 361.352751 72.437007 
L 364.427131 72.437007 
" style="fill:none;stroke:#9467bd;stroke-linecap:square;stroke-width:1.5;"/>
   </g>
   <g id="line2d_33">
    <path clip-path="url(#pb943502cd0)" d="M 60.063494 109.21965 
L 63.137874 109.058822 
L 66.212255 108.890504 
L 69.286635 108.714357 
L 72.361015 108.530025 
L 75.435395 108.337138 
L 78.509775 108.135301 
L 81.584155 107.924117 
L 84.658536 107.703163 
L 87.732916 107.471999 
L 90.807296 107.230166 
L 93.881676 106.977186 
L 96.956056 106.71256 
L 100.030436 106.435769 
L 103.104817 106.146272 
L 106.179197 105.843923 
L 109.253577 105.531013 
L 112.327957 105.203861 
L 115.402337 104.841409 
L 118.476717 104.461943 
L 121.551098 104.066455 
L 124.625478 103.668847 
L 127.699858 103.253137 
L 130.774238 102.818706 
L 133.848618 102.371991 
L 136.922998 101.905047 
L 139.997379 101.416988 
L 143.071759 100.906899 
L 146.146139 100.37315 
L 149.220519 99.815221 
L 152.294899 99.232204 
L 155.369279 98.623 
L 158.44366 97.986488 
L 161.51804 97.339936 
L 164.59242 96.672822 
L 167.6668 95.964954 
L 170.74118 95.213392 
L 173.81556 94.428206 
L 176.889941 93.611094 
L 179.964321 92.783266 
L 183.038701 91.922478 
L 186.113081 91.023255 
L 189.187461 90.083937 
L 192.261841 89.102795 
L 195.336222 88.078021 
L 198.410602 87.007725 
L 201.484982 85.889934 
L 204.559362 84.722577 
L 207.633742 83.503488 
L 210.708122 82.23039 
L 213.782503 80.900895 
L 216.856883 79.512488 
L 219.931263 78.080971 
L 223.005643 76.603609 
L 226.080023 75.060114 
L 229.154403 73.447476 
L 232.228784 72.437008 
L 235.303164 72.437007 
L 238.377544 72.437007 
L 241.451924 72.437007 
L 244.526304 72.437007 
L 247.600684 72.437006 
L 250.675065 72.437007 
L 253.749445 72.437007 
L 256.823825 72.437007 
L 259.898205 72.437006 
L 262.972585 72.437006 
L 266.046965 72.437006 
L 269.121346 72.437006 
L 272.195726 72.437007 
L 275.270106 72.437006 
L 278.344486 72.437006 
L 281.418866 72.437006 
L 284.493246 72.437007 
L 287.567627 72.437006 
L 290.642007 72.437007 
L 293.716387 72.437006 
L 296.790767 72.437006 
L 299.865147 72.437007 
L 302.939527 72.437007 
L 306.013908 72.437007 
L 309.088288 72.437007 
L 312.162668 72.437007 
L 315.237048 72.437007 
L 318.311428 72.437007 
L 321.385808 72.437007 
L 324.460189 72.437007 
L 327.534569 72.437006 
L 330.608949 72.437007 
L 333.683329 72.437007 
L 336.757709 72.437006 
L 339.832089 72.437006 
L 342.90647 72.437006 
L 345.98085 72.437006 
L 349.05523 72.437007 
L 352.12961 72.437007 
L 355.20399 72.437007 
L 358.27837 72.437007 
L 361.352751 72.437006 
L 364.427131 72.437006 
" style="fill:none;stroke:#8c564b;stroke-linecap:square;stroke-width:1.5;"/>
   </g>
   <g id="line2d_34">
    <path clip-path="url(#pb943502cd0)" d="M 60.063494 69.180031 
L 63.137874 69.336219 
L 66.212255 69.499746 
L 69.286635 69.670954 
L 72.361015 69.850199 
L 75.435395 70.037852 
L 78.509775 70.234304 
L 81.584155 70.439962 
L 84.658536 70.655251 
L 87.732916 70.880615 
L 90.807296 71.116519 
L 93.881676 71.363449 
L 96.956056 71.621914 
L 100.030436 71.892442 
L 103.104817 72.175589 
L 106.179197 72.436973 
L 109.253577 72.437004 
L 112.327957 72.437005 
L 115.402337 72.437006 
L 118.476717 72.437006 
L 121.551098 72.437006 
L 124.625478 72.437006 
L 127.699858 72.437006 
L 130.774238 72.437006 
L 133.848618 72.437006 
L 136.922998 72.437006 
L 139.997379 72.437006 
L 143.071759 72.437006 
L 146.146139 72.437006 
L 149.220519 72.437006 
L 152.294899 72.437006 
L 155.369279 72.437007 
L 158.44366 72.437006 
L 161.51804 72.437006 
L 164.59242 72.437006 
L 167.6668 72.437006 
L 170.74118 72.437007 
L 173.81556 72.437007 
L 176.889941 72.437007 
L 179.964321 72.437007 
L 183.038701 72.437007 
L 186.113081 72.437007 
L 189.187461 72.437006 
L 192.261841 72.437007 
L 195.336222 72.437007 
L 198.410602 72.437007 
L 201.484982 72.437006 
L 204.559362 72.437007 
L 207.633742 72.437007 
L 210.708122 72.437007 
L 213.782503 72.437007 
L 216.856883 72.437007 
L 219.931263 72.437007 
L 223.005643 72.437007 
L 226.080023 72.437007 
L 229.154403 72.437007 
L 232.228784 72.437006 
L 235.303164 72.437007 
L 238.377544 72.437007 
L 241.451924 72.437007 
L 244.526304 72.437007 
L 247.600684 72.437007 
L 250.675065 72.437007 
L 253.749445 72.437007 
L 256.823825 72.437007 
L 259.898205 72.437007 
L 262.972585 72.437007 
L 266.046965 72.437007 
L 269.121346 72.437007 
L 272.195726 72.437007 
L 275.270106 72.437007 
L 278.344486 72.437007 
L 281.418866 72.437007 
L 284.493246 72.437007 
L 287.567627 72.437007 
L 290.642007 72.437007 
L 293.716387 72.437007 
L 296.790767 72.437007 
L 299.865147 72.437007 
L 302.939527 72.437007 
L 306.013908 72.437007 
L 309.088288 72.437007 
L 312.162668 72.437007 
L 315.237048 72.437007 
L 318.311428 72.437007 
L 321.385808 72.437007 
L 324.460189 72.437007 
L 327.534569 72.437007 
L 330.608949 72.437006 
L 333.683329 72.437006 
L 336.757709 72.437006 
L 339.832089 72.437007 
L 342.90647 72.437007 
L 345.98085 72.437007 
L 349.05523 72.437007 
L 352.12961 72.437007 
L 355.20399 72.437007 
L 358.27837 72.437007 
L 361.352751 72.437007 
L 364.427131 72.437007 
" style="fill:none;stroke:#e377c2;stroke-linecap:square;stroke-width:1.5;"/>
   </g>
   <g id="line2d_35">
    <path clip-path="url(#pb943502cd0)" d="M 60.063494 77.853898 
L 63.137874 77.711757 
L 66.212255 77.562944 
L 69.286635 77.40715 
L 72.361015 77.244049 
L 75.435395 77.073309 
L 78.509775 76.89457 
L 81.584155 76.707467 
L 84.658536 76.511613 
L 87.732916 76.306606 
L 90.807296 76.092025 
L 93.881676 75.867428 
L 96.956056 75.632356 
L 100.030436 75.386328 
L 103.104817 75.128842 
L 106.179197 74.859895 
L 109.253577 74.582513 
L 112.327957 74.292214 
L 115.402337 74.009828 
L 118.476717 73.714719 
L 121.551098 73.406787 
L 124.625478 73.095602 
L 127.699858 72.76994 
L 130.774238 72.437232 
L 133.848618 72.437011 
L 136.922998 72.437007 
L 139.997379 72.437007 
L 143.071759 72.437007 
L 146.146139 72.437007 
L 149.220519 72.437007 
L 152.294899 72.437007 
L 155.369279 72.437007 
L 158.44366 72.437007 
L 161.51804 72.437007 
L 164.59242 72.437007 
L 167.6668 72.437007 
L 170.74118 72.437007 
L 173.81556 72.437007 
L 176.889941 72.437007 
L 179.964321 72.437007 
L 183.038701 72.437007 
L 186.113081 72.437007 
L 189.187461 72.437007 
L 192.261841 72.437007 
L 195.336222 72.437007 
L 198.410602 72.437007 
L 201.484982 72.437007 
L 204.559362 72.437007 
L 207.633742 72.437007 
L 210.708122 72.437007 
L 213.782503 72.437007 
L 216.856883 72.437007 
L 219.931263 72.437007 
L 223.005643 72.437006 
L 226.080023 72.437007 
L 229.154403 72.437007 
L 232.228784 72.437007 
L 235.303164 72.437007 
L 238.377544 72.437007 
L 241.451924 72.437006 
L 244.526304 72.437007 
L 247.600684 72.437006 
L 250.675065 72.437007 
L 253.749445 72.437007 
L 256.823825 72.437007 
L 259.898205 72.437006 
L 262.972585 72.437006 
L 266.046965 72.437006 
L 269.121346 72.437006 
L 272.195726 72.437007 
L 275.270106 72.437006 
L 278.344486 72.437007 
L 281.418866 72.437007 
L 284.493246 72.437007 
L 287.567627 72.437006 
L 290.642007 72.437007 
L 293.716387 72.437006 
L 296.790767 72.437006 
L 299.865147 72.437007 
L 302.939527 72.437007 
L 306.013908 72.437007 
L 309.088288 72.437007 
L 312.162668 72.437007 
L 315.237048 72.437006 
L 318.311428 72.437006 
L 321.385808 72.437006 
L 324.460189 72.437007 
L 327.534569 72.437006 
L 330.608949 72.437007 
L 333.683329 72.437007 
L 336.757709 72.437007 
L 339.832089 72.437006 
L 342.90647 72.437007 
L 345.98085 72.437007 
L 349.05523 72.437007 
L 352.12961 72.437007 
L 355.20399 72.437007 
L 358.27837 72.437007 
L 361.352751 72.437007 
L 364.427131 72.437007 
" style="fill:none;stroke:#7f7f7f;stroke-linecap:square;stroke-width:1.5;"/>
   </g>
   <g id="line2d_36">
    <path clip-path="url(#pb943502cd0)" d="M 60.063494 72.437008 
L 63.137874 72.437009 
L 66.212255 72.437008 
L 69.286635 72.43701 
L 72.361015 72.437007 
L 75.435395 72.437008 
L 78.509775 72.437008 
L 81.584155 72.437007 
L 84.658536 72.437007 
L 87.732916 72.437007 
L 90.807296 72.437007 
L 93.881676 72.437007 
L 96.956056 72.437007 
L 100.030436 72.437007 
L 103.104817 72.437007 
L 106.179197 72.437007 
L 109.253577 72.437007 
L 112.327957 72.437007 
L 115.402337 72.437007 
L 118.476717 72.437007 
L 121.551098 72.437007 
L 124.625478 72.437007 
L 127.699858 72.437007 
L 130.774238 72.437007 
L 133.848618 72.437007 
L 136.922998 72.437007 
L 139.997379 72.437007 
L 143.071759 72.437007 
L 146.146139 72.437007 
L 149.220519 72.437007 
L 152.294899 72.437007 
L 155.369279 72.437006 
L 158.44366 72.437007 
L 161.51804 72.437007 
L 164.59242 72.437007 
L 167.6668 72.437007 
L 170.74118 72.437007 
L 173.81556 72.437007 
L 176.889941 72.437007 
L 179.964321 72.437007 
L 183.038701 72.437007 
L 186.113081 72.437007 
L 189.187461 72.437007 
L 192.261841 72.437007 
L 195.336222 72.437007 
L 198.410602 72.437007 
L 201.484982 72.437007 
L 204.559362 72.437007 
L 207.633742 72.437007 
L 210.708122 72.437007 
L 213.782503 72.437007 
L 216.856883 72.437007 
L 219.931263 72.437007 
L 223.005643 72.437006 
L 226.080023 72.437007 
L 229.154403 72.437007 
L 232.228784 72.437007 
L 235.303164 72.437007 
L 238.377544 72.437007 
L 241.451924 72.437007 
L 244.526304 72.437007 
L 247.600684 72.437006 
L 250.675065 72.437007 
L 253.749445 72.437007 
L 256.823825 72.437007 
L 259.898205 72.437007 
L 262.972585 72.437007 
L 266.046965 72.437007 
L 269.121346 72.437007 
L 272.195726 72.437007 
L 275.270106 72.437007 
L 278.344486 72.437007 
L 281.418866 72.437007 
L 284.493246 72.437007 
L 287.567627 72.437006 
L 290.642007 72.437007 
L 293.716387 72.437006 
L 296.790767 72.437007 
L 299.865147 72.437007 
L 302.939527 72.437007 
L 306.013908 72.437007 
L 309.088288 72.437007 
L 312.162668 72.437007 
L 315.237048 72.437007 
L 318.311428 72.437007 
L 321.385808 72.437007 
L 324.460189 72.437007 
L 327.534569 72.437007 
L 330.608949 72.437007 
L 333.683329 72.437007 
L 336.757709 72.437006 
L 339.832089 72.437006 
L 342.90647 72.437006 
L 345.98085 72.437006 
L 349.05523 72.437007 
L 352.12961 72.437007 
L 355.20399 72.437007 
L 358.27837 72.437006 
L 361.352751 72.437007 
L 364.427131 72.437006 
" style="fill:none;stroke:#bcbd22;stroke-linecap:square;stroke-width:1.5;"/>
   </g>
   <g id="line2d_37">
    <path clip-path="url(#pb943502cd0)" d="M 60.063494 132.437889 
L 63.137874 132.284284 
L 66.212255 132.123534 
L 69.286635 131.955315 
L 72.361015 131.779289 
L 75.435395 131.595106 
L 78.509775 131.402387 
L 81.584155 131.200758 
L 84.658536 130.989816 
L 87.732916 130.769143 
L 90.807296 130.538305 
L 93.881676 130.296848 
L 96.956056 130.0443 
L 100.030436 129.780169 
L 103.104817 129.503943 
L 106.179197 129.214468 
L 109.253577 128.906911 
L 112.327957 128.585381 
L 115.402337 128.248657 
L 118.476717 127.896509 
L 121.551098 127.52845 
L 124.625478 127.14519 
L 127.699858 126.744532 
L 130.774238 126.325533 
L 133.848618 125.879483 
L 136.922998 125.413264 
L 139.997379 124.926009 
L 143.071759 124.416812 
L 146.146139 123.878446 
L 149.220519 123.314605 
L 152.294899 122.72549 
L 155.369279 122.117395 
L 158.44366 121.485182 
L 161.51804 120.814597 
L 164.59242 120.109502 
L 167.6668 119.372892 
L 170.74118 118.603299 
L 173.81556 117.799434 
L 176.889941 116.964814 
L 179.964321 116.076927 
L 183.038701 115.133999 
L 186.113081 114.149311 
L 189.187461 113.121099 
L 192.261841 112.047524 
L 195.336222 110.926671 
L 198.410602 109.756542 
L 201.484982 108.535055 
L 204.559362 107.260032 
L 207.633742 105.9292 
L 210.708122 104.54018 
L 213.782503 103.09048 
L 216.856883 101.577486 
L 219.931263 99.998674 
L 223.005643 98.348688 
L 226.080023 96.626125 
L 229.154403 94.827795 
L 232.228784 92.952678 
L 235.303164 90.998398 
L 238.377544 88.957639 
L 241.451924 86.826506 
L 244.526304 84.600885 
L 247.600684 82.276413 
L 250.675065 79.848468 
L 253.749445 77.312123 
L 256.823825 74.662125 
L 259.898205 72.437009 
L 262.972585 72.437007 
L 266.046965 72.437007 
L 269.121346 72.437007 
L 272.195726 72.437007 
L 275.270106 72.437006 
L 278.344486 72.437007 
L 281.418866 72.437007 
L 284.493246 72.437007 
L 287.567627 72.437006 
L 290.642007 72.437007 
L 293.716387 72.437006 
L 296.790767 72.437006 
L 299.865147 72.437007 
L 302.939527 72.437007 
L 306.013908 72.437007 
L 309.088288 72.437007 
L 312.162668 72.437007 
L 315.237048 72.437006 
L 318.311428 72.437006 
L 321.385808 72.437006 
L 324.460189 72.437007 
L 327.534569 72.437006 
L 330.608949 72.437007 
L 333.683329 72.437007 
L 336.757709 72.437006 
L 339.832089 72.437006 
L 342.90647 72.437007 
L 345.98085 72.437007 
L 349.05523 72.437007 
L 352.12961 72.437007 
L 355.20399 72.437007 
L 358.27837 72.437007 
L 361.352751 72.437006 
L 364.427131 72.437006 
" style="fill:none;stroke:#17becf;stroke-linecap:square;stroke-width:1.5;"/>
   </g>
   <g id="line2d_38">
    <path clip-path="url(#pb943502cd0)" d="M 60.063494 86.121276 
L 63.137874 85.982676 
L 66.212255 85.837575 
L 69.286635 85.685674 
L 72.361015 85.526659 
L 75.435395 85.360202 
L 78.509775 85.185957 
L 81.584155 85.003569 
L 84.658536 84.812664 
L 87.732916 84.612849 
L 90.807296 84.403716 
L 93.881676 84.18484 
L 96.956056 83.955774 
L 100.030436 83.716053 
L 103.104817 83.465191 
L 106.179197 83.203494 
L 109.253577 82.936012 
L 112.327957 82.656014 
L 115.402337 82.359291 
L 118.476717 82.048861 
L 121.551098 81.724763 
L 124.625478 81.394375 
L 127.699858 81.048712 
L 130.774238 80.687099 
L 133.848618 80.309511 
L 136.922998 79.914468 
L 139.997379 79.501181 
L 143.071759 79.068826 
L 146.146139 78.602596 
L 149.220519 78.112023 
L 152.294899 77.598885 
L 155.369279 77.044794 
L 158.44366 76.458208 
L 161.51804 75.857467 
L 164.59242 75.235017 
L 167.6668 74.564667 
L 170.74118 73.842397 
L 173.81556 73.087183 
L 176.889941 72.43701 
L 179.964321 72.437009 
L 183.038701 72.437007 
L 186.113081 72.437007 
L 189.187461 72.437007 
L 192.261841 72.437007 
L 195.336222 72.437007 
L 198.410602 72.437007 
L 201.484982 72.437007 
L 204.559362 72.437007 
L 207.633742 72.437007 
L 210.708122 72.437007 
L 213.782503 72.437007 
L 216.856883 72.437007 
L 219.931263 72.437007 
L 223.005643 72.437006 
L 226.080023 72.437007 
L 229.154403 72.437007 
L 232.228784 72.437007 
L 235.303164 72.437007 
L 238.377544 72.437007 
L 241.451924 72.437006 
L 244.526304 72.437007 
L 247.600684 72.437006 
L 250.675065 72.437006 
L 253.749445 72.437007 
L 256.823825 72.437007 
L 259.898205 72.437006 
L 262.972585 72.437006 
L 266.046965 72.437006 
L 269.121346 72.437006 
L 272.195726 72.437007 
L 275.270106 72.437006 
L 278.344486 72.437007 
L 281.418866 72.437006 
L 284.493246 72.437007 
L 287.567627 72.437006 
L 290.642007 72.437007 
L 293.716387 72.437006 
L 296.790767 72.437006 
L 299.865147 72.437007 
L 302.939527 72.437007 
L 306.013908 72.437007 
L 309.088288 72.437007 
L 312.162668 72.437007 
L 315.237048 72.437006 
L 318.311428 72.437006 
L 321.385808 72.437006 
L 324.460189 72.437007 
L 327.534569 72.437006 
L 330.608949 72.437007 
L 333.683329 72.437007 
L 336.757709 72.437007 
L 339.832089 72.437006 
L 342.90647 72.437007 
L 345.98085 72.437007 
L 349.05523 72.437007 
L 352.12961 72.437007 
L 355.20399 72.437007 
L 358.27837 72.437007 
L 361.352751 72.437007 
L 364.427131 72.437007 
" style="fill:none;stroke:#1f77b4;stroke-linecap:square;stroke-width:1.5;"/>
   </g>
   <g id="line2d_39">
    <path clip-path="url(#pb943502cd0)" d="M 60.063494 218.256364 
L 63.137874 218.111338 
L 66.212255 217.959704 
L 69.286635 217.80118 
L 72.361015 217.635464 
L 75.435395 217.462261 
L 78.509775 217.281219 
L 81.584155 217.092033 
L 84.658536 216.894352 
L 87.732916 216.687817 
L 90.807296 216.472058 
L 93.881676 216.246692 
L 96.956056 216.011323 
L 100.030436 215.765542 
L 103.104817 215.508925 
L 106.179197 215.240609 
L 109.253577 214.957205 
L 112.327957 214.661171 
L 115.402337 214.335757 
L 118.476717 213.995937 
L 121.551098 213.64094 
L 124.625478 213.267266 
L 127.699858 212.877216 
L 130.774238 212.46994 
L 133.848618 212.036365 
L 136.922998 211.583915 
L 139.997379 211.111852 
L 143.071759 210.619407 
L 146.146139 210.097014 
L 149.220519 209.550271 
L 152.294899 208.980017 
L 155.369279 208.37257 
L 158.44366 207.733951 
L 161.51804 207.04787 
L 164.59242 206.323368 
L 167.6668 205.554856 
L 170.74118 204.739195 
L 173.81556 203.888928 
L 176.889941 202.997096 
L 179.964321 202.038742 
L 183.038701 201.039111 
L 186.113081 199.997089 
L 189.187461 198.911067 
L 192.261841 197.779382 
L 195.336222 196.600323 
L 198.410602 195.372126 
L 201.484982 194.092969 
L 204.559362 192.760972 
L 207.633742 191.374198 
L 210.708122 189.930645 
L 213.782503 188.428241 
L 216.856883 186.86485 
L 219.931263 185.233933 
L 223.005643 183.525251 
L 226.080023 181.745551 
L 229.154403 179.892126 
L 232.228784 177.946396 
L 235.303164 175.894752 
L 238.377544 173.757088 
L 241.451924 171.529978 
L 244.526304 169.209847 
L 247.600684 166.792933 
L 250.675065 164.275294 
L 253.749445 161.65278 
L 256.823825 158.920999 
L 259.898205 156.050669 
L 262.972585 153.00913 
L 266.046965 149.835326 
L 269.121346 146.523412 
L 272.195726 143.067203 
L 275.270106 139.460138 
L 278.344486 135.71094 
L 281.418866 131.872426 
L 284.493246 127.862242 
L 287.567627 123.672463 
L 290.642007 119.294687 
L 293.716387 114.720005 
L 296.790767 109.938923 
L 299.865147 104.941312 
L 302.939527 99.716333 
L 306.013908 94.252344 
L 309.088288 88.536809 
L 312.162668 82.556168 
L 315.237048 76.295713 
L 318.311428 72.437008 
L 321.385808 72.437007 
L 324.460189 72.437007 
L 327.534569 72.437006 
L 330.608949 72.437007 
L 333.683329 72.437007 
L 336.757709 72.437006 
L 339.832089 72.437006 
L 342.90647 72.437007 
L 345.98085 72.437007 
L 349.05523 72.437007 
L 352.12961 72.437007 
L 355.20399 72.437007 
L 358.27837 72.437007 
L 361.352751 72.437006 
L 364.427131 72.437006 
" style="fill:none;stroke:#ff7f0e;stroke-linecap:square;stroke-width:1.5;"/>
   </g>
   <g id="line2d_40">
    <path clip-path="url(#pb943502cd0)" d="M 60.063494 100.855893 
L 63.137874 100.714275 
L 66.212255 100.566037 
L 69.286635 100.410876 
L 72.361015 100.248474 
L 75.435395 100.078502 
L 78.509775 99.900608 
L 81.584155 99.714437 
L 84.658536 99.51961 
L 87.732916 99.315733 
L 90.807296 99.102395 
L 93.881676 98.879168 
L 96.956056 98.645605 
L 100.030436 98.401239 
L 103.104817 98.145584 
L 106.179197 97.877918 
L 109.253577 97.596233 
L 112.327957 97.301564 
L 115.402337 96.986938 
L 118.476717 96.657744 
L 121.551098 96.314121 
L 124.625478 95.963068 
L 127.699858 95.59593 
L 130.774238 95.211389 
L 133.848618 94.783408 
L 136.922998 94.335867 
L 139.997379 93.867919 
L 143.071759 93.378665 
L 146.146139 92.890981 
L 149.220519 92.386061 
L 152.294899 91.858246 
L 155.369279 91.308637 
L 158.44366 90.735002 
L 161.51804 90.143108 
L 164.59242 89.527988 
L 167.6668 88.893757 
L 170.74118 88.240323 
L 173.81556 87.557422 
L 176.889941 86.840204 
L 179.964321 86.07306 
L 183.038701 85.271281 
L 186.113081 84.433473 
L 189.187461 83.558063 
L 192.261841 82.643412 
L 195.336222 81.687808 
L 198.410602 80.689459 
L 201.484982 79.646492 
L 204.559362 78.556945 
L 207.633742 77.418763 
L 210.708122 76.229788 
L 213.782503 74.987755 
L 216.856883 73.690282 
L 219.931263 72.437033 
L 223.005643 72.437007 
L 226.080023 72.437007 
L 229.154403 72.437007 
L 232.228784 72.437007 
L 235.303164 72.437007 
L 238.377544 72.437007 
L 241.451924 72.437006 
L 244.526304 72.437007 
L 247.600684 72.437006 
L 250.675065 72.437007 
L 253.749445 72.437007 
L 256.823825 72.437007 
L 259.898205 72.437006 
L 262.972585 72.437006 
L 266.046965 72.437006 
L 269.121346 72.437006 
L 272.195726 72.437007 
L 275.270106 72.437006 
L 278.344486 72.437007 
L 281.418866 72.437006 
L 284.493246 72.437007 
L 287.567627 72.437006 
L 290.642007 72.437007 
L 293.716387 72.437006 
L 296.790767 72.437006 
L 299.865147 72.437007 
L 302.939527 72.437007 
L 306.013908 72.437007 
L 309.088288 72.437007 
L 312.162668 72.437007 
L 315.237048 72.437006 
L 318.311428 72.437006 
L 321.385808 72.437006 
L 324.460189 72.437007 
L 327.534569 72.437006 
L 330.608949 72.437007 
L 333.683329 72.437007 
L 336.757709 72.437006 
L 339.832089 72.437006 
L 342.90647 72.437007 
L 345.98085 72.437007 
L 349.05523 72.437007 
L 352.12961 72.437007 
L 355.20399 72.437007 
L 358.27837 72.437007 
L 361.352751 72.437006 
L 364.427131 72.437007 
" style="fill:none;stroke:#2ca02c;stroke-linecap:square;stroke-width:1.5;"/>
   </g>
   <g id="line2d_41">
    <path clip-path="url(#pb943502cd0)" d="M 60.063494 41.754163 
L 63.137874 41.905748 
L 66.212255 42.064418 
L 69.286635 42.230499 
L 72.361015 42.40433 
L 75.435395 42.586265 
L 78.509775 42.776679 
L 81.584155 42.975954 
L 84.658536 43.184496 
L 87.732916 43.402725 
L 90.807296 43.631082 
L 93.881676 43.870026 
L 96.956056 44.120036 
L 100.030436 44.381612 
L 103.104817 44.655276 
L 106.179197 44.939803 
L 109.253577 45.223599 
L 112.327957 45.520629 
L 115.402337 45.851172 
L 118.476717 46.197009 
L 121.551098 46.559758 
L 124.625478 46.952444 
L 127.699858 47.363052 
L 130.774238 47.792419 
L 133.848618 48.243451 
L 136.922998 48.714966 
L 139.997379 49.207854 
L 143.071759 49.723051 
L 146.146139 50.261828 
L 149.220519 50.825057 
L 152.294899 51.413751 
L 155.369279 52.032645 
L 158.44366 52.681006 
L 161.51804 53.354473 
L 164.59242 54.056436 
L 167.6668 54.772698 
L 170.74118 55.502214 
L 173.81556 56.264513 
L 176.889941 57.06406 
L 179.964321 57.902857 
L 183.038701 58.774985 
L 186.113081 59.686345 
L 189.187461 60.638654 
L 192.261841 61.633708 
L 195.336222 62.673383 
L 198.410602 63.759642 
L 201.484982 64.894543 
L 204.559362 66.080242 
L 207.633742 67.318997 
L 210.708122 68.613186 
L 213.782503 69.965306 
L 216.856883 71.377988 
L 219.931263 72.437001 
L 223.005643 72.437006 
L 226.080023 72.437006 
L 229.154403 72.437006 
L 232.228784 72.437006 
L 235.303164 72.437006 
L 238.377544 72.437006 
L 241.451924 72.437007 
L 244.526304 72.437006 
L 247.600684 72.437007 
L 250.675065 72.437007 
L 253.749445 72.437007 
L 256.823825 72.437007 
L 259.898205 72.437007 
L 262.972585 72.437007 
L 266.046965 72.437007 
L 269.121346 72.437007 
L 272.195726 72.437006 
L 275.270106 72.437007 
L 278.344486 72.437007 
L 281.418866 72.437007 
L 284.493246 72.437007 
L 287.567627 72.437007 
L 290.642007 72.437007 
L 293.716387 72.437007 
L 296.790767 72.437007 
L 299.865147 72.437006 
L 302.939527 72.437007 
L 306.013908 72.437007 
L 309.088288 72.437007 
L 312.162668 72.437007 
L 315.237048 72.437006 
L 318.311428 72.437006 
L 321.385808 72.437007 
L 324.460189 72.437007 
L 327.534569 72.437007 
L 330.608949 72.437007 
L 333.683329 72.437007 
L 336.757709 72.437007 
L 339.832089 72.437007 
L 342.90647 72.437007 
L 345.98085 72.437007 
L 349.05523 72.437007 
L 352.12961 72.437007 
L 355.20399 72.437006 
L 358.27837 72.437007 
L 361.352751 72.437007 
L 364.427131 72.437007 
" style="fill:none;stroke:#d62728;stroke-linecap:square;stroke-width:1.5;"/>
   </g>
   <g id="line2d_42">
    <path clip-path="url(#pb943502cd0)" d="M 60.063494 75.538275 
L 63.137874 75.414355 
L 66.212255 75.284623 
L 69.286635 75.148812 
L 72.361015 75.00664 
L 75.435395 74.857815 
L 78.509775 74.702028 
L 81.584155 74.538961 
L 84.658536 74.368278 
L 87.732916 74.189631 
L 90.807296 74.002654 
L 93.881676 73.806965 
L 96.956056 73.602165 
L 100.030436 73.387839 
L 103.104817 73.163552 
L 106.179197 72.929237 
L 109.253577 72.687046 
L 112.327957 72.4374 
L 115.402337 72.43701 
L 118.476717 72.437008 
L 121.551098 72.437007 
L 124.625478 72.437007 
L 127.699858 72.437007 
L 130.774238 72.437007 
L 133.848618 72.437007 
L 136.922998 72.437007 
L 139.997379 72.437007 
L 143.071759 72.437007 
L 146.146139 72.437007 
L 149.220519 72.437007 
L 152.294899 72.437007 
L 155.369279 72.437007 
L 158.44366 72.437007 
L 161.51804 72.437007 
L 164.59242 72.437007 
L 167.6668 72.437007 
L 170.74118 72.437007 
L 173.81556 72.437007 
L 176.889941 72.437007 
L 179.964321 72.437007 
L 183.038701 72.437007 
L 186.113081 72.437007 
L 189.187461 72.437007 
L 192.261841 72.437007 
L 195.336222 72.437007 
L 198.410602 72.437007 
L 201.484982 72.437007 
L 204.559362 72.437007 
L 207.633742 72.437007 
L 210.708122 72.437007 
L 213.782503 72.437007 
L 216.856883 72.437007 
L 219.931263 72.437007 
L 223.005643 72.437006 
L 226.080023 72.437007 
L 229.154403 72.437007 
L 232.228784 72.437007 
L 235.303164 72.437007 
L 238.377544 72.437007 
L 241.451924 72.437006 
L 244.526304 72.437007 
L 247.600684 72.437006 
L 250.675065 72.437007 
L 253.749445 72.437007 
L 256.823825 72.437007 
L 259.898205 72.437007 
L 262.972585 72.437007 
L 266.046965 72.437006 
L 269.121346 72.437007 
L 272.195726 72.437007 
L 275.270106 72.437006 
L 278.344486 72.437007 
L 281.418866 72.437007 
L 284.493246 72.437007 
L 287.567627 72.437006 
L 290.642007 72.437007 
L 293.716387 72.437006 
L 296.790767 72.437006 
L 299.865147 72.437007 
L 302.939527 72.437007 
L 306.013908 72.437007 
L 309.088288 72.437007 
L 312.162668 72.437007 
L 315.237048 72.437007 
L 318.311428 72.437007 
L 321.385808 72.437006 
L 324.460189 72.437007 
L 327.534569 72.437006 
L 330.608949 72.437007 
L 333.683329 72.437007 
L 336.757709 72.437006 
L 339.832089 72.437006 
L 342.90647 72.437007 
L 345.98085 72.437007 
L 349.05523 72.437007 
L 352.12961 72.437007 
L 355.20399 72.437007 
L 358.27837 72.437007 
L 361.352751 72.437007 
L 364.427131 72.437007 
" style="fill:none;stroke:#9467bd;stroke-linecap:square;stroke-width:1.5;"/>
   </g>
   <g id="line2d_43">
    <path clip-path="url(#pb943502cd0)" d="M 60.063494 86.164073 
L 63.137874 86.033875 
L 66.212255 85.897573 
L 69.286635 85.754885 
L 72.361015 85.605516 
L 75.435395 85.44916 
L 78.509775 85.285491 
L 81.584155 85.114177 
L 84.658536 84.934865 
L 87.732916 84.747189 
L 90.807296 84.550765 
L 93.881676 84.345194 
L 96.956056 84.130056 
L 100.030436 83.904916 
L 103.104817 83.669319 
L 106.179197 83.42396 
L 109.253577 83.176385 
L 112.327957 82.917215 
L 115.402337 82.635201 
L 118.476717 82.340096 
L 121.551098 82.030201 
L 124.625478 81.691984 
L 127.699858 81.338168 
L 130.774238 80.968235 
L 133.848618 80.58922 
L 136.922998 80.192797 
L 139.997379 79.778183 
L 143.071759 79.34456 
L 146.146139 78.872814 
L 149.220519 78.375697 
L 152.294899 77.855834 
L 155.369279 77.311576 
L 158.44366 76.742199 
L 161.51804 76.138333 
L 164.59242 75.503116 
L 167.6668 74.836865 
L 170.74118 74.13797 
L 173.81556 73.407311 
L 176.889941 72.647039 
L 179.964321 72.43701 
L 183.038701 72.437007 
L 186.113081 72.437007 
L 189.187461 72.437007 
L 192.261841 72.437007 
L 195.336222 72.437007 
L 198.410602 72.437007 
L 201.484982 72.437007 
L 204.559362 72.437007 
L 207.633742 72.437007 
L 210.708122 72.437007 
L 213.782503 72.437007 
L 216.856883 72.437007 
L 219.931263 72.437007 
L 223.005643 72.437006 
L 226.080023 72.437007 
L 229.154403 72.437007 
L 232.228784 72.437007 
L 235.303164 72.437007 
L 238.377544 72.437007 
L 241.451924 72.437006 
L 244.526304 72.437007 
L 247.600684 72.437006 
L 250.675065 72.437006 
L 253.749445 72.437007 
L 256.823825 72.437007 
L 259.898205 72.437006 
L 262.972585 72.437006 
L 266.046965 72.437006 
L 269.121346 72.437006 
L 272.195726 72.437007 
L 275.270106 72.437006 
L 278.344486 72.437007 
L 281.418866 72.437007 
L 284.493246 72.437007 
L 287.567627 72.437006 
L 290.642007 72.437007 
L 293.716387 72.437006 
L 296.790767 72.437006 
L 299.865147 72.437007 
L 302.939527 72.437006 
L 306.013908 72.437007 
L 309.088288 72.437007 
L 312.162668 72.437007 
L 315.237048 72.437006 
L 318.311428 72.437006 
L 321.385808 72.437006 
L 324.460189 72.437007 
L 327.534569 72.437006 
L 330.608949 72.437007 
L 333.683329 72.437007 
L 336.757709 72.437006 
L 339.832089 72.437006 
L 342.90647 72.437007 
L 345.98085 72.437007 
L 349.05523 72.437007 
L 352.12961 72.437007 
L 355.20399 72.437007 
L 358.27837 72.437007 
L 361.352751 72.437007 
L 364.427131 72.437007 
" style="fill:none;stroke:#8c564b;stroke-linecap:square;stroke-width:1.5;"/>
   </g>
   <g id="line2d_44">
    <path clip-path="url(#pb943502cd0)" d="M 60.063494 79.749979 
L 63.137874 79.602661 
L 66.212255 79.448436 
L 69.286635 79.286985 
L 72.361015 79.117975 
L 75.435395 78.941058 
L 78.509775 78.755868 
L 81.584155 78.562026 
L 84.658536 78.359136 
L 87.732916 78.14678 
L 90.807296 77.924526 
L 93.881676 77.691921 
L 96.956056 77.448491 
L 100.030436 77.193743 
L 103.104817 76.927161 
L 106.179197 76.648768 
L 109.253577 76.361876 
L 112.327957 76.061731 
L 115.402337 75.759804 
L 118.476717 75.444107 
L 121.551098 75.1156 
L 124.625478 74.793779 
L 127.699858 74.4571 
L 130.774238 74.104802 
L 133.848618 73.732666 
L 136.922998 73.343399 
L 139.997379 72.936237 
L 143.071759 72.510401 
L 146.146139 72.437011 
L 149.220519 72.437009 
L 152.294899 72.437007 
L 155.369279 72.437007 
L 158.44366 72.437007 
L 161.51804 72.437007 
L 164.59242 72.437007 
L 167.6668 72.437007 
L 170.74118 72.437007 
L 173.81556 72.437007 
L 176.889941 72.437007 
L 179.964321 72.437007 
L 183.038701 72.437007 
L 186.113081 72.437007 
L 189.187461 72.437007 
L 192.261841 72.437007 
L 195.336222 72.437007 
L 198.410602 72.437007 
L 201.484982 72.437007 
L 204.559362 72.437007 
L 207.633742 72.437007 
L 210.708122 72.437007 
L 213.782503 72.437007 
L 216.856883 72.437007 
L 219.931263 72.437007 
L 223.005643 72.437006 
L 226.080023 72.437007 
L 229.154403 72.437007 
L 232.228784 72.437007 
L 235.303164 72.437007 
L 238.377544 72.437007 
L 241.451924 72.437006 
L 244.526304 72.437007 
L 247.600684 72.437006 
L 250.675065 72.437007 
L 253.749445 72.437007 
L 256.823825 72.437007 
L 259.898205 72.437007 
L 262.972585 72.437007 
L 266.046965 72.437006 
L 269.121346 72.437007 
L 272.195726 72.437007 
L 275.270106 72.437006 
L 278.344486 72.437007 
L 281.418866 72.437007 
L 284.493246 72.437007 
L 287.567627 72.437006 
L 290.642007 72.437007 
L 293.716387 72.437006 
L 296.790767 72.437006 
L 299.865147 72.437007 
L 302.939527 72.437006 
L 306.013908 72.437007 
L 309.088288 72.437007 
L 312.162668 72.437007 
L 315.237048 72.437006 
L 318.311428 72.437006 
L 321.385808 72.437006 
L 324.460189 72.437007 
L 327.534569 72.437006 
L 330.608949 72.437007 
L 333.683329 72.437007 
L 336.757709 72.437007 
L 339.832089 72.437007 
L 342.90647 72.437007 
L 345.98085 72.437007 
L 349.05523 72.437007 
L 352.12961 72.437007 
L 355.20399 72.437007 
L 358.27837 72.437007 
L 361.352751 72.437007 
L 364.427131 72.437007 
" style="fill:none;stroke:#e377c2;stroke-linecap:square;stroke-width:1.5;"/>
   </g>
   <g id="line2d_45">
    <path clip-path="url(#pb943502cd0)" d="M 60.063494 153.030556 
L 63.137874 152.854675 
L 66.212255 152.670639 
L 69.286635 152.47808 
L 72.361015 152.276614 
L 75.435395 152.065848 
L 78.509775 151.845349 
L 81.584155 151.614697 
L 84.658536 151.373436 
L 87.732916 151.121095 
L 90.807296 150.857182 
L 93.881676 150.581188 
L 96.956056 150.292579 
L 100.030436 149.990804 
L 103.104817 149.675287 
L 106.179197 149.346359 
L 109.253577 149.009772 
L 112.327957 148.657935 
L 115.402337 148.288549 
L 118.476717 147.902463 
L 121.551098 147.500253 
L 124.625478 147.095714 
L 127.699858 146.672956 
L 130.774238 146.23127 
L 133.848618 145.772925 
L 136.922998 145.294028 
L 139.997379 144.793707 
L 143.071759 144.271055 
L 146.146139 143.732182 
L 149.220519 143.17078 
L 152.294899 142.58445 
L 155.369279 141.979744 
L 158.44366 141.351369 
L 161.51804 140.683935 
L 164.59242 139.981906 
L 167.6668 139.250101 
L 170.74118 138.487374 
L 173.81556 137.69116 
L 176.889941 136.859427 
L 179.964321 135.975875 
L 183.038701 135.048601 
L 186.113081 134.080445 
L 189.187461 133.069703 
L 192.261841 132.014598 
L 195.336222 130.913286 
L 198.410602 129.763847 
L 201.484982 128.564279 
L 204.559362 127.312499 
L 207.633742 126.006331 
L 210.708122 124.643507 
L 213.782503 123.221657 
L 216.856883 121.738301 
L 219.931263 120.169501 
L 223.005643 118.44105 
L 226.080023 116.636967 
L 229.154403 114.753992 
L 232.228784 112.803577 
L 235.303164 110.790866 
L 238.377544 108.689688 
L 241.451924 106.496121 
L 244.526304 104.206034 
L 247.600684 101.815049 
L 250.675065 99.318537 
L 253.749445 96.711578 
L 256.823825 93.988931 
L 259.898205 91.16561 
L 262.972585 88.283423 
L 266.046965 85.271972 
L 269.121346 82.125136 
L 272.195726 78.836403 
L 275.270106 75.398824 
L 278.344486 72.437011 
L 281.418866 72.437007 
L 284.493246 72.437007 
L 287.567627 72.437007 
L 290.642007 72.437007 
L 293.716387 72.437006 
L 296.790767 72.437007 
L 299.865147 72.437007 
L 302.939527 72.437007 
L 306.013908 72.437007 
L 309.088288 72.437007 
L 312.162668 72.437007 
L 315.237048 72.437006 
L 318.311428 72.437006 
L 321.385808 72.437006 
L 324.460189 72.437007 
L 327.534569 72.437006 
L 330.608949 72.437007 
L 333.683329 72.437007 
L 336.757709 72.437006 
L 339.832089 72.437006 
L 342.90647 72.437007 
L 345.98085 72.437007 
L 349.05523 72.437007 
L 352.12961 72.437007 
L 355.20399 72.437007 
L 358.27837 72.437007 
L 361.352751 72.437006 
L 364.427131 72.437007 
" style="fill:none;stroke:#7f7f7f;stroke-linecap:square;stroke-width:1.5;"/>
   </g>
   <g id="line2d_46">
    <path clip-path="url(#pb943502cd0)" d="M 60.063494 61.914636 
L 63.137874 62.029102 
L 66.212255 62.148928 
L 69.286635 62.274361 
L 72.361015 62.405659 
L 75.435395 62.543091 
L 78.509775 62.686942 
L 81.584155 62.837504 
L 84.658536 62.995083 
L 87.732916 63.160003 
L 90.807296 63.332597 
L 93.881676 63.513217 
L 96.956056 63.702228 
L 100.030436 63.900011 
L 103.104817 64.106966 
L 106.179197 64.325303 
L 109.253577 64.56779 
L 112.327957 64.821438 
L 115.402337 65.0855 
L 118.476717 65.361848 
L 121.551098 65.652758 
L 124.625478 65.978934 
L 127.699858 66.320168 
L 130.774238 66.677512 
L 133.848618 67.067468 
L 136.922998 67.47539 
L 139.997379 67.902074 
L 143.071759 68.348363 
L 146.146139 68.806455 
L 149.220519 69.283788 
L 152.294899 69.783018 
L 155.369279 70.315505 
L 158.44366 70.876569 
L 161.51804 71.473015 
L 164.59242 72.101077 
L 167.6668 72.437005 
L 170.74118 72.437006 
L 173.81556 72.437006 
L 176.889941 72.437006 
L 179.964321 72.437006 
L 183.038701 72.437006 
L 186.113081 72.437006 
L 189.187461 72.437006 
L 192.261841 72.437007 
L 195.336222 72.437006 
L 198.410602 72.437006 
L 201.484982 72.437006 
L 204.559362 72.437006 
L 207.633742 72.437006 
L 210.708122 72.437006 
L 213.782503 72.437006 
L 216.856883 72.437006 
L 219.931263 72.437006 
L 223.005643 72.437007 
L 226.080023 72.437007 
L 229.154403 72.437006 
L 232.228784 72.437006 
L 235.303164 72.437007 
L 238.377544 72.437006 
L 241.451924 72.437007 
L 244.526304 72.437006 
L 247.600684 72.437007 
L 250.675065 72.437007 
L 253.749445 72.437007 
L 256.823825 72.437007 
L 259.898205 72.437007 
L 262.972585 72.437007 
L 266.046965 72.437007 
L 269.121346 72.437007 
L 272.195726 72.437006 
L 275.270106 72.437007 
L 278.344486 72.437007 
L 281.418866 72.437007 
L 284.493246 72.437007 
L 287.567627 72.437007 
L 290.642007 72.437007 
L 293.716387 72.437007 
L 296.790767 72.437007 
L 299.865147 72.437006 
L 302.939527 72.437006 
L 306.013908 72.437007 
L 309.088288 72.437007 
L 312.162668 72.437006 
L 315.237048 72.437006 
L 318.311428 72.437006 
L 321.385808 72.437006 
L 324.460189 72.437006 
L 327.534569 72.437007 
L 330.608949 72.437006 
L 333.683329 72.437007 
L 336.757709 72.437007 
L 339.832089 72.437007 
L 342.90647 72.437007 
L 345.98085 72.437007 
L 349.05523 72.437007 
L 352.12961 72.437007 
L 355.20399 72.437007 
L 358.27837 72.437007 
L 361.352751 72.437007 
L 364.427131 72.437007 
" style="fill:none;stroke:#bcbd22;stroke-linecap:square;stroke-width:1.5;"/>
   </g>
   <g id="line2d_47">
    <path clip-path="url(#pb943502cd0)" d="M 60.063494 69.116385 
L 63.137874 69.248541 
L 66.212255 69.386902 
L 69.286635 69.531757 
L 72.361015 69.683406 
L 75.435395 69.842161 
L 78.509775 70.008356 
L 81.584155 70.182331 
L 84.658536 70.364445 
L 87.732916 70.555071 
L 90.807296 70.754605 
L 93.881676 70.963453 
L 96.956056 71.182046 
L 100.030436 71.410828 
L 103.104817 71.650268 
L 106.179197 71.900595 
L 109.253577 72.160527 
L 112.327957 72.432251 
L 115.402337 72.437003 
L 118.476717 72.437006 
L 121.551098 72.437006 
L 124.625478 72.437006 
L 127.699858 72.437006 
L 130.774238 72.437006 
L 133.848618 72.437006 
L 136.922998 72.437006 
L 139.997379 72.437006 
L 143.071759 72.437006 
L 146.146139 72.437006 
L 149.220519 72.437006 
L 152.294899 72.437006 
L 155.369279 72.437007 
L 158.44366 72.437006 
L 161.51804 72.437006 
L 164.59242 72.437006 
L 167.6668 72.437006 
L 170.74118 72.437006 
L 173.81556 72.437007 
L 176.889941 72.437006 
L 179.964321 72.437006 
L 183.038701 72.437006 
L 186.113081 72.437006 
L 189.187461 72.437006 
L 192.261841 72.437007 
L 195.336222 72.437006 
L 198.410602 72.437006 
L 201.484982 72.437006 
L 204.559362 72.437007 
L 207.633742 72.437006 
L 210.708122 72.437006 
L 213.782503 72.437007 
L 216.856883 72.437007 
L 219.931263 72.437006 
L 223.005643 72.437007 
L 226.080023 72.437007 
L 229.154403 72.437007 
L 232.228784 72.437006 
L 235.303164 72.437007 
L 238.377544 72.437006 
L 241.451924 72.437007 
L 244.526304 72.437006 
L 247.600684 72.437007 
L 250.675065 72.437007 
L 253.749445 72.437007 
L 256.823825 72.437007 
L 259.898205 72.437007 
L 262.972585 72.437007 
L 266.046965 72.437007 
L 269.121346 72.437007 
L 272.195726 72.437006 
L 275.270106 72.437007 
L 278.344486 72.437007 
L 281.418866 72.437007 
L 284.493246 72.437007 
L 287.567627 72.437007 
L 290.642007 72.437007 
L 293.716387 72.437007 
L 296.790767 72.437007 
L 299.865147 72.437006 
L 302.939527 72.437007 
L 306.013908 72.437007 
L 309.088288 72.437007 
L 312.162668 72.437007 
L 315.237048 72.437007 
L 318.311428 72.437007 
L 321.385808 72.437007 
L 324.460189 72.437007 
L 327.534569 72.437007 
L 330.608949 72.437006 
L 333.683329 72.437006 
L 336.757709 72.437006 
L 339.832089 72.437007 
L 342.90647 72.437006 
L 345.98085 72.437006 
L 349.05523 72.437007 
L 352.12961 72.437007 
L 355.20399 72.437006 
L 358.27837 72.437006 
L 361.352751 72.437007 
L 364.427131 72.437007 
" style="fill:none;stroke:#17becf;stroke-linecap:square;stroke-width:1.5;"/>
   </g>
   <g id="patch_3">
    <path d="M 44.845313 228.14 
L 44.845313 10.7 
" style="fill:none;stroke:#000000;stroke-linecap:square;stroke-linejoin:miter;stroke-width:0.8;"/>
   </g>
   <g id="patch_4">
    <path d="M 379.645313 228.14 
L 379.645313 10.7 
" style="fill:none;stroke:#000000;stroke-linecap:square;stroke-linejoin:miter;stroke-width:0.8;"/>
   </g>
   <g id="patch_5">
    <path d="M 44.845312 228.14 
L 379.645312 228.14 
" style="fill:none;stroke:#000000;stroke-linecap:square;stroke-linejoin:miter;stroke-width:0.8;"/>
   </g>
   <g id="patch_6">
    <path d="M 44.845312 10.7 
L 379.645312 10.7 
" style="fill:none;stroke:#000000;stroke-linecap:square;stroke-linejoin:miter;stroke-width:0.8;"/>
   </g>
  </g>
 </g>
 <defs>
  <clipPath id="pb943502cd0">
   <rect height="217.44" width="334.8" x="44.845313" y="10.7"/>
  </clipPath>
 </defs>
</svg>
