<?xml version="1.0" encoding="utf-8" standalone="no"?>
<!DOCTYPE svg PUBLIC "-//W3C//DTD SVG 1.1//EN"
  "http://www.w3.org/Graphics/SVG/1.1/DTD/svg11.dtd">
<!-- Created with matplotlib (http://matplotlib.org/) -->
<svg height="283pt" version="1.1" viewBox="0 0 374 283" width="374pt" xmlns="http://www.w3.org/2000/svg" xmlns:xlink="http://www.w3.org/1999/xlink">
 <defs>
  <style type="text/css">
*{stroke-linecap:butt;stroke-linejoin:round;}
  </style>
 </defs>
 <g id="figure_1">
  <g id="patch_1">
   <path d="M 0 283.12125 
L 374.442187 283.12125 
L 374.442187 0 
L 0 0 
z
" style="fill:none;"/>
  </g>
  <g id="axes_1">
   <g id="patch_2">
    <path d="M 28.942188 239.758125 
L 363.742188 239.758125 
L 363.742188 22.318125 
L 28.942188 22.318125 
z
" style="fill:#ffffff;"/>
   </g>
   <g id="matplotlib.axis_1">
    <g id="xtick_1">
     <g id="line2d_1">
      <defs>
       <path d="M 0 0 
L 0 3.5 
" id="m91732ded85" style="stroke:#000000;stroke-width:0.8;"/>
      </defs>
      <g>
       <use style="stroke:#000000;stroke-width:0.8;" x="44.160369" xlink:href="#m91732ded85" y="239.758125"/>
      </g>
     </g>
     <g id="text_1">
      <!-- $\mathdefault{10^{-2}}$ -->
      <defs>
       <path d="M 12.40625 8.296875 
L 28.515625 8.296875 
L 28.515625 63.921875 
L 10.984375 60.40625 
L 10.984375 69.390625 
L 28.421875 72.90625 
L 38.28125 72.90625 
L 38.28125 8.296875 
L 54.390625 8.296875 
L 54.390625 0 
L 12.40625 0 
z
" id="DejaVuSans-31"/>
       <path d="M 31.78125 66.40625 
Q 24.171875 66.40625 20.328125 58.90625 
Q 16.5 51.421875 16.5 36.375 
Q 16.5 21.390625 20.328125 13.890625 
Q 24.171875 6.390625 31.78125 6.390625 
Q 39.453125 6.390625 43.28125 13.890625 
Q 47.125 21.390625 47.125 36.375 
Q 47.125 51.421875 43.28125 58.90625 
Q 39.453125 66.40625 31.78125 66.40625 
z
M 31.78125 74.21875 
Q 44.046875 74.21875 50.515625 64.515625 
Q 56.984375 54.828125 56.984375 36.375 
Q 56.984375 17.96875 50.515625 8.265625 
Q 44.046875 -1.421875 31.78125 -1.421875 
Q 19.53125 -1.421875 13.0625 8.265625 
Q 6.59375 17.96875 6.59375 36.375 
Q 6.59375 54.828125 13.0625 64.515625 
Q 19.53125 74.21875 31.78125 74.21875 
z
" id="DejaVuSans-30"/>
       <path d="M 10.59375 35.5 
L 73.1875 35.5 
L 73.1875 27.203125 
L 10.59375 27.203125 
z
" id="DejaVuSans-2212"/>
       <path d="M 19.1875 8.296875 
L 53.609375 8.296875 
L 53.609375 0 
L 7.328125 0 
L 7.328125 8.296875 
Q 12.9375 14.109375 22.625 23.890625 
Q 32.328125 33.6875 34.8125 36.53125 
Q 39.546875 41.84375 41.421875 45.53125 
Q 43.3125 49.21875 43.3125 52.78125 
Q 43.3125 58.59375 39.234375 62.25 
Q 35.15625 65.921875 28.609375 65.921875 
Q 23.96875 65.921875 18.8125 64.3125 
Q 13.671875 62.703125 7.8125 59.421875 
L 7.8125 69.390625 
Q 13.765625 71.78125 18.9375 73 
Q 24.125 74.21875 28.421875 74.21875 
Q 39.75 74.21875 46.484375 68.546875 
Q 53.21875 62.890625 53.21875 53.421875 
Q 53.21875 48.921875 51.53125 44.890625 
Q 49.859375 40.875 45.40625 35.40625 
Q 44.1875 33.984375 37.640625 27.21875 
Q 31.109375 20.453125 19.1875 8.296875 
z
" id="DejaVuSans-32"/>
      </defs>
      <g transform="translate(32.410369 254.356562)scale(0.1 -0.1)">
       <use transform="translate(0 0.765625)" xlink:href="#DejaVuSans-31"/>
       <use transform="translate(63.623047 0.765625)" xlink:href="#DejaVuSans-30"/>
       <use transform="translate(128.203125 39.046875)scale(0.7)" xlink:href="#DejaVuSans-2212"/>
       <use transform="translate(186.855469 39.046875)scale(0.7)" xlink:href="#DejaVuSans-32"/>
      </g>
     </g>
    </g>
    <g id="xtick_2">
     <g id="line2d_2">
      <g>
       <use style="stroke:#000000;stroke-width:0.8;" x="120.251278" xlink:href="#m91732ded85" y="239.758125"/>
      </g>
     </g>
     <g id="text_2">
      <!-- $\mathdefault{10^{-1}}$ -->
      <g transform="translate(108.501278 254.356562)scale(0.1 -0.1)">
       <use transform="translate(0 0.684375)" xlink:href="#DejaVuSans-31"/>
       <use transform="translate(63.623047 0.684375)" xlink:href="#DejaVuSans-30"/>
       <use transform="translate(128.203125 38.965625)scale(0.7)" xlink:href="#DejaVuSans-2212"/>
       <use transform="translate(186.855469 38.965625)scale(0.7)" xlink:href="#DejaVuSans-31"/>
      </g>
     </g>
    </g>
    <g id="xtick_3">
     <g id="line2d_3">
      <g>
       <use style="stroke:#000000;stroke-width:0.8;" x="196.342188" xlink:href="#m91732ded85" y="239.758125"/>
      </g>
     </g>
     <g id="text_3">
      <!-- $\mathdefault{10^{0}}$ -->
      <g transform="translate(187.542188 254.356562)scale(0.1 -0.1)">
       <use transform="translate(0 0.765625)" xlink:href="#DejaVuSans-31"/>
       <use transform="translate(63.623047 0.765625)" xlink:href="#DejaVuSans-30"/>
       <use transform="translate(128.203125 39.046875)scale(0.7)" xlink:href="#DejaVuSans-30"/>
      </g>
     </g>
    </g>
    <g id="xtick_4">
     <g id="line2d_4">
      <g>
       <use style="stroke:#000000;stroke-width:0.8;" x="272.433097" xlink:href="#m91732ded85" y="239.758125"/>
      </g>
     </g>
     <g id="text_4">
      <!-- $\mathdefault{10^{1}}$ -->
      <g transform="translate(263.633097 254.356562)scale(0.1 -0.1)">
       <use transform="translate(0 0.684375)" xlink:href="#DejaVuSans-31"/>
       <use transform="translate(63.623047 0.684375)" xlink:href="#DejaVuSans-30"/>
       <use transform="translate(128.203125 38.965625)scale(0.7)" xlink:href="#DejaVuSans-31"/>
      </g>
     </g>
    </g>
    <g id="xtick_5">
     <g id="line2d_5">
      <g>
       <use style="stroke:#000000;stroke-width:0.8;" x="348.524006" xlink:href="#m91732ded85" y="239.758125"/>
      </g>
     </g>
     <g id="text_5">
      <!-- $\mathdefault{10^{2}}$ -->
      <g transform="translate(339.724006 254.356562)scale(0.1 -0.1)">
       <use transform="translate(0 0.765625)" xlink:href="#DejaVuSans-31"/>
       <use transform="translate(63.623047 0.765625)" xlink:href="#DejaVuSans-30"/>
       <use transform="translate(128.203125 39.046875)scale(0.7)" xlink:href="#DejaVuSans-32"/>
      </g>
     </g>
    </g>
    <g id="xtick_6">
     <g id="line2d_6">
      <defs>
       <path d="M 0 0 
L 0 2 
" id="mbdb9e0d4ae" style="stroke:#000000;stroke-width:0.6;"/>
      </defs>
      <g>
       <use style="stroke:#000000;stroke-width:0.6;" x="32.373738" xlink:href="#mbdb9e0d4ae" y="239.758125"/>
      </g>
     </g>
    </g>
    <g id="xtick_7">
     <g id="line2d_7">
      <g>
       <use style="stroke:#000000;stroke-width:0.6;" x="36.786398" xlink:href="#mbdb9e0d4ae" y="239.758125"/>
      </g>
     </g>
    </g>
    <g id="xtick_8">
     <g id="line2d_8">
      <g>
       <use style="stroke:#000000;stroke-width:0.6;" x="40.67864" xlink:href="#mbdb9e0d4ae" y="239.758125"/>
      </g>
     </g>
    </g>
    <g id="xtick_9">
     <g id="line2d_9">
      <g>
       <use style="stroke:#000000;stroke-width:0.6;" x="67.066015" xlink:href="#mbdb9e0d4ae" y="239.758125"/>
      </g>
     </g>
    </g>
    <g id="xtick_10">
     <g id="line2d_10">
      <g>
       <use style="stroke:#000000;stroke-width:0.6;" x="80.464959" xlink:href="#mbdb9e0d4ae" y="239.758125"/>
      </g>
     </g>
    </g>
    <g id="xtick_11">
     <g id="line2d_11">
      <g>
       <use style="stroke:#000000;stroke-width:0.6;" x="89.971661" xlink:href="#mbdb9e0d4ae" y="239.758125"/>
      </g>
     </g>
    </g>
    <g id="xtick_12">
     <g id="line2d_12">
      <g>
       <use style="stroke:#000000;stroke-width:0.6;" x="97.345632" xlink:href="#mbdb9e0d4ae" y="239.758125"/>
      </g>
     </g>
    </g>
    <g id="xtick_13">
     <g id="line2d_13">
      <g>
       <use style="stroke:#000000;stroke-width:0.6;" x="103.370605" xlink:href="#mbdb9e0d4ae" y="239.758125"/>
      </g>
     </g>
    </g>
    <g id="xtick_14">
     <g id="line2d_14">
      <g>
       <use style="stroke:#000000;stroke-width:0.6;" x="108.464647" xlink:href="#mbdb9e0d4ae" y="239.758125"/>
      </g>
     </g>
    </g>
    <g id="xtick_15">
     <g id="line2d_15">
      <g>
       <use style="stroke:#000000;stroke-width:0.6;" x="112.877307" xlink:href="#mbdb9e0d4ae" y="239.758125"/>
      </g>
     </g>
    </g>
    <g id="xtick_16">
     <g id="line2d_16">
      <g>
       <use style="stroke:#000000;stroke-width:0.6;" x="116.769549" xlink:href="#mbdb9e0d4ae" y="239.758125"/>
      </g>
     </g>
    </g>
    <g id="xtick_17">
     <g id="line2d_17">
      <g>
       <use style="stroke:#000000;stroke-width:0.6;" x="143.156924" xlink:href="#mbdb9e0d4ae" y="239.758125"/>
      </g>
     </g>
    </g>
    <g id="xtick_18">
     <g id="line2d_18">
      <g>
       <use style="stroke:#000000;stroke-width:0.6;" x="156.555868" xlink:href="#mbdb9e0d4ae" y="239.758125"/>
      </g>
     </g>
    </g>
    <g id="xtick_19">
     <g id="line2d_19">
      <g>
       <use style="stroke:#000000;stroke-width:0.6;" x="166.06257" xlink:href="#mbdb9e0d4ae" y="239.758125"/>
      </g>
     </g>
    </g>
    <g id="xtick_20">
     <g id="line2d_20">
      <g>
       <use style="stroke:#000000;stroke-width:0.6;" x="173.436541" xlink:href="#mbdb9e0d4ae" y="239.758125"/>
      </g>
     </g>
    </g>
    <g id="xtick_21">
     <g id="line2d_21">
      <g>
       <use style="stroke:#000000;stroke-width:0.6;" x="179.461514" xlink:href="#mbdb9e0d4ae" y="239.758125"/>
      </g>
     </g>
    </g>
    <g id="xtick_22">
     <g id="line2d_22">
      <g>
       <use style="stroke:#000000;stroke-width:0.6;" x="184.555557" xlink:href="#mbdb9e0d4ae" y="239.758125"/>
      </g>
     </g>
    </g>
    <g id="xtick_23">
     <g id="line2d_23">
      <g>
       <use style="stroke:#000000;stroke-width:0.6;" x="188.968217" xlink:href="#mbdb9e0d4ae" y="239.758125"/>
      </g>
     </g>
    </g>
    <g id="xtick_24">
     <g id="line2d_24">
      <g>
       <use style="stroke:#000000;stroke-width:0.6;" x="192.860458" xlink:href="#mbdb9e0d4ae" y="239.758125"/>
      </g>
     </g>
    </g>
    <g id="xtick_25">
     <g id="line2d_25">
      <g>
       <use style="stroke:#000000;stroke-width:0.6;" x="219.247834" xlink:href="#mbdb9e0d4ae" y="239.758125"/>
      </g>
     </g>
    </g>
    <g id="xtick_26">
     <g id="line2d_26">
      <g>
       <use style="stroke:#000000;stroke-width:0.6;" x="232.646778" xlink:href="#mbdb9e0d4ae" y="239.758125"/>
      </g>
     </g>
    </g>
    <g id="xtick_27">
     <g id="line2d_27">
      <g>
       <use style="stroke:#000000;stroke-width:0.6;" x="242.15348" xlink:href="#mbdb9e0d4ae" y="239.758125"/>
      </g>
     </g>
    </g>
    <g id="xtick_28">
     <g id="line2d_28">
      <g>
       <use style="stroke:#000000;stroke-width:0.6;" x="249.527451" xlink:href="#mbdb9e0d4ae" y="239.758125"/>
      </g>
     </g>
    </g>
    <g id="xtick_29">
     <g id="line2d_29">
      <g>
       <use style="stroke:#000000;stroke-width:0.6;" x="255.552424" xlink:href="#mbdb9e0d4ae" y="239.758125"/>
      </g>
     </g>
    </g>
    <g id="xtick_30">
     <g id="line2d_30">
      <g>
       <use style="stroke:#000000;stroke-width:0.6;" x="260.646466" xlink:href="#mbdb9e0d4ae" y="239.758125"/>
      </g>
     </g>
    </g>
    <g id="xtick_31">
     <g id="line2d_31">
      <g>
       <use style="stroke:#000000;stroke-width:0.6;" x="265.059126" xlink:href="#mbdb9e0d4ae" y="239.758125"/>
      </g>
     </g>
    </g>
    <g id="xtick_32">
     <g id="line2d_32">
      <g>
       <use style="stroke:#000000;stroke-width:0.6;" x="268.951368" xlink:href="#mbdb9e0d4ae" y="239.758125"/>
      </g>
     </g>
    </g>
    <g id="xtick_33">
     <g id="line2d_33">
      <g>
       <use style="stroke:#000000;stroke-width:0.6;" x="295.338743" xlink:href="#mbdb9e0d4ae" y="239.758125"/>
      </g>
     </g>
    </g>
    <g id="xtick_34">
     <g id="line2d_34">
      <g>
       <use style="stroke:#000000;stroke-width:0.6;" x="308.737687" xlink:href="#mbdb9e0d4ae" y="239.758125"/>
      </g>
     </g>
    </g>
    <g id="xtick_35">
     <g id="line2d_35">
      <g>
       <use style="stroke:#000000;stroke-width:0.6;" x="318.244389" xlink:href="#mbdb9e0d4ae" y="239.758125"/>
      </g>
     </g>
    </g>
    <g id="xtick_36">
     <g id="line2d_36">
      <g>
       <use style="stroke:#000000;stroke-width:0.6;" x="325.61836" xlink:href="#mbdb9e0d4ae" y="239.758125"/>
      </g>
     </g>
    </g>
    <g id="xtick_37">
     <g id="line2d_37">
      <g>
       <use style="stroke:#000000;stroke-width:0.6;" x="331.643333" xlink:href="#mbdb9e0d4ae" y="239.758125"/>
      </g>
     </g>
    </g>
    <g id="xtick_38">
     <g id="line2d_38">
      <g>
       <use style="stroke:#000000;stroke-width:0.6;" x="336.737375" xlink:href="#mbdb9e0d4ae" y="239.758125"/>
      </g>
     </g>
    </g>
    <g id="xtick_39">
     <g id="line2d_39">
      <g>
       <use style="stroke:#000000;stroke-width:0.6;" x="341.150035" xlink:href="#mbdb9e0d4ae" y="239.758125"/>
      </g>
     </g>
    </g>
    <g id="xtick_40">
     <g id="line2d_40">
      <g>
       <use style="stroke:#000000;stroke-width:0.6;" x="345.042277" xlink:href="#mbdb9e0d4ae" y="239.758125"/>
      </g>
     </g>
    </g>
    <g id="text_6">
     <!-- $\lambda$ -->
     <defs>
      <path d="M 36.71875 67.4375 
L 48.828125 0 
L 39.3125 0 
L 31.84375 40.4375 
L 5.125 0 
L -4.390625 0 
L 29.734375 52.4375 
L 28.03125 62.109375 
Q 26.953125 68.265625 21.734375 68.265625 
L 17.046875 68.265625 
L 18.5 75.984375 
L 24.21875 75.875 
Q 35.203125 75.734375 36.71875 67.4375 
z
" id="DejaVuSans-Oblique-3bb"/>
     </defs>
     <g transform="translate(191.542188 272.59375)scale(0.16 -0.16)">
      <use transform="translate(0 0.015625)" xlink:href="#DejaVuSans-Oblique-3bb"/>
     </g>
    </g>
   </g>
   <g id="matplotlib.axis_2">
    <g id="ytick_1">
     <g id="line2d_41">
      <defs>
       <path d="M 0 0 
L -3.5 0 
" id="m107ac2d5cb" style="stroke:#000000;stroke-width:0.8;"/>
      </defs>
      <g>
       <use style="stroke:#000000;stroke-width:0.8;" x="28.942188" xlink:href="#m107ac2d5cb" y="216.852106"/>
      </g>
     </g>
     <g id="text_7">
      <!-- −3 -->
      <defs>
       <path d="M 40.578125 39.3125 
Q 47.65625 37.796875 51.625 33 
Q 55.609375 28.21875 55.609375 21.1875 
Q 55.609375 10.40625 48.1875 4.484375 
Q 40.765625 -1.421875 27.09375 -1.421875 
Q 22.515625 -1.421875 17.65625 -0.515625 
Q 12.796875 0.390625 7.625 2.203125 
L 7.625 11.71875 
Q 11.71875 9.328125 16.59375 8.109375 
Q 21.484375 6.890625 26.8125 6.890625 
Q 36.078125 6.890625 40.9375 10.546875 
Q 45.796875 14.203125 45.796875 21.1875 
Q 45.796875 27.640625 41.28125 31.265625 
Q 36.765625 34.90625 28.71875 34.90625 
L 20.21875 34.90625 
L 20.21875 43.015625 
L 29.109375 43.015625 
Q 36.375 43.015625 40.234375 45.921875 
Q 44.09375 48.828125 44.09375 54.296875 
Q 44.09375 59.90625 40.109375 62.90625 
Q 36.140625 65.921875 28.71875 65.921875 
Q 24.65625 65.921875 20.015625 65.03125 
Q 15.375 64.15625 9.8125 62.3125 
L 9.8125 71.09375 
Q 15.4375 72.65625 20.34375 73.4375 
Q 25.25 74.21875 29.59375 74.21875 
Q 40.828125 74.21875 47.359375 69.109375 
Q 53.90625 64.015625 53.90625 55.328125 
Q 53.90625 49.265625 50.4375 45.09375 
Q 46.96875 40.921875 40.578125 39.3125 
z
" id="DejaVuSans-33"/>
      </defs>
      <g transform="translate(7.2 220.651325)scale(0.1 -0.1)">
       <use xlink:href="#DejaVuSans-2212"/>
       <use x="83.789062" xlink:href="#DejaVuSans-33"/>
      </g>
     </g>
    </g>
    <g id="ytick_2">
     <g id="line2d_42">
      <g>
       <use style="stroke:#000000;stroke-width:0.8;" x="28.942188" xlink:href="#m107ac2d5cb" y="179.177831"/>
      </g>
     </g>
     <g id="text_8">
      <!-- −2 -->
      <g transform="translate(7.2 182.97705)scale(0.1 -0.1)">
       <use xlink:href="#DejaVuSans-2212"/>
       <use x="83.789062" xlink:href="#DejaVuSans-32"/>
      </g>
     </g>
    </g>
    <g id="ytick_3">
     <g id="line2d_43">
      <g>
       <use style="stroke:#000000;stroke-width:0.8;" x="28.942188" xlink:href="#m107ac2d5cb" y="141.503556"/>
      </g>
     </g>
     <g id="text_9">
      <!-- −1 -->
      <g transform="translate(7.2 145.302775)scale(0.1 -0.1)">
       <use xlink:href="#DejaVuSans-2212"/>
       <use x="83.789062" xlink:href="#DejaVuSans-31"/>
      </g>
     </g>
    </g>
    <g id="ytick_4">
     <g id="line2d_44">
      <g>
       <use style="stroke:#000000;stroke-width:0.8;" x="28.942188" xlink:href="#m107ac2d5cb" y="103.829281"/>
      </g>
     </g>
     <g id="text_10">
      <!-- 0 -->
      <g transform="translate(15.579688 107.6285)scale(0.1 -0.1)">
       <use xlink:href="#DejaVuSans-30"/>
      </g>
     </g>
    </g>
    <g id="ytick_5">
     <g id="line2d_45">
      <g>
       <use style="stroke:#000000;stroke-width:0.8;" x="28.942188" xlink:href="#m107ac2d5cb" y="66.155006"/>
      </g>
     </g>
     <g id="text_11">
      <!-- 1 -->
      <g transform="translate(15.579688 69.954225)scale(0.1 -0.1)">
       <use xlink:href="#DejaVuSans-31"/>
      </g>
     </g>
    </g>
    <g id="ytick_6">
     <g id="line2d_46">
      <g>
       <use style="stroke:#000000;stroke-width:0.8;" x="28.942188" xlink:href="#m107ac2d5cb" y="28.480731"/>
      </g>
     </g>
     <g id="text_12">
      <!-- 2 -->
      <g transform="translate(15.579688 32.27995)scale(0.1 -0.1)">
       <use xlink:href="#DejaVuSans-32"/>
      </g>
     </g>
    </g>
   </g>
   <g id="line2d_47">
    <path clip-path="url(#peea7620025)" d="M 44.160369 111.409348 
L 50.371872 111.409255 
L 56.583375 111.409497 
L 62.794878 111.409304 
L 69.00638 111.409591 
L 75.217883 111.408974 
L 81.429386 111.408701 
L 87.640889 111.408028 
L 93.852392 111.405798 
L 100.063894 111.404515 
L 106.275397 111.402215 
L 112.4869 111.397177 
L 118.698403 111.386173 
L 124.909905 111.382855 
L 131.121408 111.364292 
L 137.332911 111.357621 
L 143.544414 111.318685 
L 149.755917 111.279822 
L 155.967419 111.226804 
L 162.178922 111.160282 
L 168.390425 111.056562 
L 174.601928 110.926645 
L 180.813431 110.754536 
L 187.024933 110.532919 
L 193.236436 110.237344 
L 199.447939 109.918119 
L 205.659442 109.457532 
L 211.870944 108.93391 
L 218.082447 108.28681 
L 224.29395 107.52991 
L 230.505453 106.707742 
L 236.716956 105.680078 
L 242.928458 104.568188 
L 249.139961 103.321081 
L 255.351464 102.024781 
L 261.562967 100.572671 
L 267.77447 99.040886 
L 273.985972 97.507717 
L 280.197475 96.015975 
L 286.408978 94.488502 
L 292.620481 93.062191 
L 298.831983 91.758506 
L 305.043486 90.61689 
L 311.254989 89.671616 
L 317.466492 88.94763 
L 323.677995 88.455517 
L 329.889497 88.216097 
L 336.101 88.203961 
L 342.312503 88.411271 
L 348.524006 88.804256 
" style="fill:none;stroke:#1f77b4;stroke-linecap:square;stroke-width:1.5;"/>
   </g>
   <g id="line2d_48">
    <path clip-path="url(#peea7620025)" d="M 44.160369 79.411743 
L 50.371872 79.417117 
L 56.583375 79.438268 
L 62.794878 79.450629 
L 69.00638 79.476436 
L 75.217883 79.500356 
L 81.429386 79.529922 
L 87.640889 79.555805 
L 93.852392 79.597735 
L 100.063894 79.653416 
L 106.275397 79.711678 
L 112.4869 79.77714 
L 118.698403 79.837881 
L 124.909905 79.958907 
L 131.121408 80.038014 
L 137.332911 80.180568 
L 143.544414 80.291458 
L 149.755917 80.435447 
L 155.967419 80.594723 
L 162.178922 80.777915 
L 168.390425 80.944981 
L 174.601928 81.128088 
L 180.813431 81.312673 
L 187.024933 81.49213 
L 193.236436 81.676114 
L 199.447939 81.81144 
L 205.659442 81.974539 
L 211.870944 82.085013 
L 218.082447 82.211087 
L 224.29395 82.332259 
L 230.505453 82.452759 
L 236.716956 82.615675 
L 242.928458 82.807555 
L 249.139961 83.054235 
L 255.351464 83.355684 
L 261.562967 83.734893 
L 267.77447 84.201611 
L 273.985972 84.713739 
L 280.197475 85.262452 
L 286.408978 85.881157 
L 292.620481 86.511645 
L 298.831983 87.141604 
L 305.043486 87.75482 
L 311.254989 88.333266 
L 317.466492 88.869768 
L 323.677995 89.359208 
L 329.889497 89.794525 
L 336.101 90.194905 
L 342.312503 90.560649 
L 348.524006 90.906275 
" style="fill:none;stroke:#ff7f0e;stroke-linecap:square;stroke-width:1.5;"/>
   </g>
   <g id="line2d_49">
    <path clip-path="url(#peea7620025)" d="M 44.160369 122.911239 
L 50.371872 122.870564 
L 56.583375 122.715378 
L 62.794878 122.620649 
L 69.00638 122.431751 
L 75.217883 122.252242 
L 81.429386 122.032139 
L 87.640889 121.836905 
L 93.852392 121.515275 
L 100.063894 121.09474 
L 106.275397 120.654267 
L 112.4869 120.139894 
L 118.698403 119.636354 
L 124.909905 118.708928 
L 131.121408 118.038382 
L 137.332911 116.94885 
L 143.544414 115.933931 
L 149.755917 114.677977 
L 155.967419 113.245087 
L 162.178922 111.572993 
L 168.390425 109.864848 
L 174.601928 107.93396 
L 180.813431 105.841438 
L 187.024933 103.606104 
L 193.236436 101.125821 
L 199.447939 99.101598 
L 205.659442 96.348263 
L 211.870944 94.01181 
L 218.082447 91.655804 
L 224.29395 89.360005 
L 230.505453 87.208568 
L 236.716956 85.120062 
L 242.928458 83.286148 
L 249.139961 81.655847 
L 255.351464 80.371779 
L 261.562967 79.247204 
L 267.77447 78.469137 
L 273.985972 77.963105 
L 280.197475 77.672754 
L 286.408978 77.803988 
L 292.620481 78.126159 
L 298.831983 78.683834 
L 305.043486 79.455765 
L 311.254989 80.40043 
L 317.466492 81.498945 
L 323.677995 82.71377 
L 329.889497 83.972039 
L 336.101 85.293648 
L 342.312503 86.618658 
L 348.524006 87.919757 
" style="fill:none;stroke:#2ca02c;stroke-linecap:square;stroke-width:1.5;"/>
   </g>
   <g id="line2d_50">
    <path clip-path="url(#peea7620025)" d="M 44.160369 91.759872 
L 50.371872 91.78076 
L 56.583375 91.861438 
L 62.794878 91.910007 
L 69.00638 92.008276 
L 75.217883 92.100642 
L 81.429386 92.214362 
L 87.640889 92.314656 
L 93.852392 92.478751 
L 100.063894 92.69486 
L 106.275397 92.920756 
L 112.4869 93.180817 
L 118.698403 93.429316 
L 124.909905 93.903918 
L 131.121408 94.231288 
L 137.332911 94.788044 
L 143.544414 95.269515 
L 149.755917 95.876548 
L 155.967419 96.560096 
L 162.178922 97.352972 
L 168.390425 98.126508 
L 174.601928 98.989502 
L 180.813431 99.896684 
L 187.024933 100.830806 
L 193.236436 101.829796 
L 199.447939 102.597395 
L 205.659442 103.604473 
L 211.870944 104.372308 
L 218.082447 105.114011 
L 224.29395 105.780259 
L 230.505453 106.35958 
L 236.716956 106.887472 
L 242.928458 107.314603 
L 249.139961 107.674261 
L 255.351464 107.959982 
L 261.562967 108.218063 
L 267.77447 108.441266 
L 273.985972 108.640102 
L 280.197475 108.853692 
L 286.408978 109.009984 
L 292.620481 109.199774 
L 298.831983 109.392577 
L 305.043486 109.583552 
L 311.254989 109.764139 
L 317.466492 109.924119 
L 323.677995 110.051753 
L 329.889497 110.116852 
L 336.101 110.119864 
L 342.312503 110.041783 
L 348.524006 109.878194 
" style="fill:none;stroke:#d62728;stroke-linecap:square;stroke-width:1.5;"/>
   </g>
   <g id="line2d_51">
    <path clip-path="url(#peea7620025)" d="M 44.160369 116.809569 
L 50.371872 116.784407 
L 56.583375 116.688321 
L 62.794878 116.629836 
L 69.00638 116.512829 
L 75.217883 116.401364 
L 81.429386 116.264919 
L 87.640889 116.143771 
L 93.852392 115.943858 
L 100.063894 115.683155 
L 106.275397 115.409259 
L 112.4869 115.089547 
L 118.698403 114.77389 
L 124.909905 114.20003 
L 131.121408 113.777673 
L 137.332911 113.100467 
L 143.544414 112.459071 
L 149.755917 111.667712 
L 155.967419 110.761216 
L 162.178922 109.701327 
L 168.390425 108.603072 
L 174.601928 107.354653 
L 180.813431 105.984586 
L 187.024933 104.501068 
L 193.236436 102.821953 
L 199.447939 101.390542 
L 205.659442 99.437675 
L 211.870944 97.678643 
L 218.082447 95.779636 
L 224.29395 93.810372 
L 230.505453 91.858599 
L 236.716956 89.691866 
L 242.928458 87.553967 
L 249.139961 85.34255 
L 255.351464 83.205791 
L 261.562967 80.933818 
L 267.77447 78.674906 
L 273.985972 76.505171 
L 280.197475 74.433701 
L 286.408978 72.465617 
L 292.620481 70.644689 
L 298.831983 69.023008 
L 305.043486 67.639242 
L 311.254989 66.523659 
L 317.466492 65.701608 
L 323.677995 65.180963 
L 329.889497 65.000741 
L 336.101 65.135596 
L 342.312503 65.589847 
L 348.524006 66.344844 
" style="fill:none;stroke:#9467bd;stroke-linecap:square;stroke-width:1.5;"/>
   </g>
   <g id="line2d_52">
    <path clip-path="url(#peea7620025)" d="M 44.160369 229.874489 
L 50.371872 229.823819 
L 56.583375 229.629465 
L 62.794878 229.511454 
L 69.00638 229.274782 
L 75.217883 229.050396 
L 81.429386 228.775117 
L 87.640889 228.531275 
L 93.852392 228.13014 
L 100.063894 227.605078 
L 106.275397 227.054642 
L 112.4869 226.414978 
L 118.698403 225.790878 
L 124.909905 224.635163 
L 131.121408 223.805133 
L 137.332911 222.444659 
L 143.544414 221.197644 
L 149.755917 219.64688 
L 155.967419 217.881146 
L 162.178922 215.821964 
L 168.390425 213.731726 
L 174.601928 211.370187 
L 180.813431 208.815529 
L 187.024933 206.093366 
L 193.236436 203.06956 
L 199.447939 200.571462 
L 205.659442 197.204801 
L 211.870944 194.306986 
L 218.082447 191.275248 
L 224.29395 188.23709 
L 230.505453 185.331125 
L 236.716956 182.189727 
L 242.928458 179.210757 
L 249.139961 176.218516 
L 255.351464 173.387121 
L 261.562967 170.391755 
L 267.77447 167.398361 
L 273.985972 164.499556 
L 280.197475 161.589551 
L 286.408978 158.783898 
L 292.620481 155.92911 
L 298.831983 153.115583 
L 305.043486 150.347938 
L 311.254989 147.653784 
L 317.466492 145.025697 
L 323.677995 142.474017 
L 329.889497 140.059068 
L 336.101 137.69881 
L 342.312503 135.437104 
L 348.524006 133.267496 
" style="fill:none;stroke:#8c564b;stroke-linecap:square;stroke-width:1.5;"/>
   </g>
   <g id="line2d_53">
    <path clip-path="url(#peea7620025)" d="M 44.160369 64.658465 
L 50.371872 64.699972 
L 56.583375 64.85849 
L 62.794878 64.955311 
L 69.00638 65.148259 
L 75.217883 65.331602 
L 81.429386 65.556423 
L 87.640889 65.755869 
L 93.852392 66.084362 
L 100.063894 66.513958 
L 106.275397 66.963898 
L 112.4869 67.48933 
L 118.698403 68.00368 
L 124.909905 68.951405 
L 131.121408 69.636188 
L 137.332911 70.749739 
L 143.544414 71.78601 
L 149.755917 73.06912 
L 155.967419 74.532954 
L 162.178922 76.241409 
L 168.390425 77.986539 
L 174.601928 79.959656 
L 180.813431 82.098009 
L 187.024933 84.382566 
L 193.236436 86.916768 
L 199.447939 88.988182 
L 205.659442 91.800335 
L 211.870944 94.188926 
L 218.082447 96.601097 
L 224.29395 98.95395 
L 230.505453 101.1463 
L 236.716956 103.317831 
L 242.928458 105.224167 
L 249.139961 106.939247 
L 255.351464 108.330438 
L 261.562967 109.598763 
L 267.77447 110.581152 
L 273.985972 111.333126 
L 280.197475 111.95348 
L 286.408978 112.224906 
L 292.620481 112.432537 
L 298.831983 112.525301 
L 305.043486 112.535218 
L 311.254989 112.495429 
L 317.466492 112.429858 
L 323.677995 112.359158 
L 329.889497 112.297086 
L 336.101 112.244709 
L 342.312503 112.20441 
L 348.524006 112.165926 
" style="fill:none;stroke:#e377c2;stroke-linecap:square;stroke-width:1.5;"/>
   </g>
   <g id="line2d_54">
    <path clip-path="url(#peea7620025)" d="M 44.160369 215.372534 
L 50.371872 215.359065 
L 56.583375 215.306877 
L 62.794878 215.275492 
L 69.00638 215.211901 
L 75.217883 215.151997 
L 81.429386 215.078343 
L 87.640889 215.013371 
L 93.852392 214.906849 
L 100.063894 214.766908 
L 106.275397 214.620208 
L 112.4869 214.451506 
L 118.698403 214.289072 
L 124.909905 213.981997 
L 131.121408 213.767314 
L 137.332911 213.405334 
L 143.544414 213.089068 
L 149.755917 212.690467 
L 155.967419 212.240008 
L 162.178922 211.716245 
L 168.390425 211.198055 
L 174.601928 210.615886 
L 180.813431 209.994968 
L 187.024933 209.344618 
L 193.236436 208.631792 
L 199.447939 208.045872 
L 205.659442 207.277427 
L 211.870944 206.626246 
L 218.082447 205.920416 
L 224.29395 205.202519 
L 230.505453 204.515957 
L 236.716956 203.673205 
L 242.928458 202.826639 
L 249.139961 201.889413 
L 255.351464 200.886517 
L 261.562967 199.707241 
L 267.77447 198.349048 
L 273.985972 196.90288 
L 280.197475 195.303551 
L 286.408978 193.542048 
L 292.620481 191.590728 
L 298.831983 189.483218 
L 305.043486 187.21594 
L 311.254989 184.818274 
L 317.466492 182.277183 
L 323.677995 179.611312 
L 329.889497 176.877879 
L 336.101 173.999433 
L 342.312503 171.031703 
L 348.524006 167.977368 
" style="fill:none;stroke:#7f7f7f;stroke-linecap:square;stroke-width:1.5;"/>
   </g>
   <g id="line2d_55">
    <path clip-path="url(#peea7620025)" d="M 44.160369 65.754172 
L 50.371872 65.787412 
L 56.583375 65.915866 
L 62.794878 65.993078 
L 69.00638 66.149529 
L 75.217883 66.296264 
L 81.429386 66.477102 
L 87.640889 66.636454 
L 93.852392 66.896707 
L 100.063894 67.240113 
L 106.275397 67.59859 
L 112.4869 68.010617 
L 118.698403 68.40184 
L 124.909905 69.155942 
L 131.121408 69.669692 
L 137.332911 70.552738 
L 143.544414 71.304443 
L 149.755917 72.255494 
L 155.967419 73.322808 
L 162.178922 74.558724 
L 168.390425 75.74911 
L 174.601928 77.070989 
L 180.813431 78.445605 
L 187.024933 79.842519 
L 193.236436 81.310868 
L 199.447939 82.393841 
L 205.659442 83.803387 
L 211.870944 84.797858 
L 218.082447 85.680865 
L 224.29395 86.386044 
L 230.505453 86.925702 
L 236.716956 87.234523 
L 242.928458 87.331292 
L 249.139961 87.222428 
L 255.351464 86.923488 
L 261.562967 86.456271 
L 267.77447 85.812159 
L 273.985972 85.071276 
L 280.197475 84.298759 
L 286.408978 83.328008 
L 292.620481 82.364642 
L 298.831983 81.381615 
L 305.043486 80.403209 
L 311.254989 79.459348 
L 317.466492 78.568648 
L 323.677995 77.752385 
L 329.889497 77.071696 
L 336.101 76.510303 
L 342.312503 76.106675 
L 348.524006 75.884098 
" style="fill:none;stroke:#bcbd22;stroke-linecap:square;stroke-width:1.5;"/>
   </g>
   <g id="line2d_56">
    <path clip-path="url(#peea7620025)" d="M 44.160369 37.666431 
L 50.371872 37.658223 
L 56.583375 37.626099 
L 62.794878 37.607142 
L 69.00638 37.567987 
L 75.217883 37.531809 
L 81.429386 37.486965 
L 87.640889 37.447762 
L 93.852392 37.384325 
L 100.063894 37.299762 
L 106.275397 37.211839 
L 112.4869 37.112626 
L 118.698403 37.021942 
L 124.909905 36.837327 
L 131.121408 36.720235 
L 137.332911 36.505045 
L 143.544414 36.34141 
L 149.755917 36.128388 
L 155.967419 35.894737 
L 162.178922 35.627346 
L 168.390425 35.392411 
L 174.601928 35.139831 
L 180.813431 34.897141 
L 187.024933 34.676433 
L 193.236436 34.475028 
L 199.447939 34.374871 
L 205.659442 34.270737 
L 211.870944 34.294282 
L 218.082447 34.384897 
L 224.29395 34.561649 
L 230.505453 34.788748 
L 236.716956 35.152062 
L 242.928458 35.570087 
L 249.139961 36.063236 
L 255.351464 36.589343 
L 261.562967 37.200008 
L 267.77447 37.858362 
L 273.985972 38.524333 
L 280.197475 39.207975 
L 286.408978 39.942641 
L 292.620481 40.710156 
L 298.831983 41.518606 
L 305.043486 42.384142 
L 311.254989 43.311184 
L 317.466492 44.32276 
L 323.677995 45.426932 
L 329.889497 46.626744 
L 336.101 47.961229 
L 342.312503 49.41943 
L 348.524006 51.009991 
" style="fill:none;stroke:#17becf;stroke-linecap:square;stroke-width:1.5;"/>
   </g>
   <g id="line2d_57">
    <path clip-path="url(#peea7620025)" d="M 44.160369 142.865459 
L 50.371872 142.83922 
L 56.583375 142.738988 
L 62.794878 142.67774 
L 69.00638 142.555714 
L 75.217883 142.439553 
L 81.429386 142.297246 
L 87.640889 142.170944 
L 93.852392 141.962564 
L 100.063894 141.690546 
L 106.275397 141.405203 
L 112.4869 141.071801 
L 118.698403 140.743689 
L 124.909905 140.14381 
L 131.121408 139.705826 
L 137.332911 138.999434 
L 143.544414 138.334772 
L 149.755917 137.513419 
L 155.967419 136.574047 
L 162.178922 135.476294 
L 168.390425 134.34505 
L 174.601928 133.061734 
L 180.813431 131.660829 
L 187.024933 130.152231 
L 193.236436 128.460732 
L 199.447939 127.043394 
L 205.659442 125.118488 
L 211.870944 123.428172 
L 218.082447 121.654922 
L 224.29395 119.863615 
L 230.505453 118.145005 
L 236.716956 116.288154 
L 242.928458 114.538335 
L 249.139961 112.800341 
L 255.351464 111.180456 
L 261.562967 109.496186 
L 267.77447 107.849716 
L 273.985972 106.277553 
L 280.197475 104.715857 
L 286.408978 103.244704 
L 292.620481 101.749905 
L 298.831983 100.283533 
L 305.043486 98.850871 
L 311.254989 97.470556 
L 317.466492 96.150365 
L 323.677995 94.908722 
L 329.889497 93.819118 
L 336.101 92.849715 
L 342.312503 92.052552 
L 348.524006 91.445718 
" style="fill:none;stroke:#1f77b4;stroke-linecap:square;stroke-width:1.5;"/>
   </g>
   <g id="line2d_58">
    <path clip-path="url(#peea7620025)" d="M 44.160369 154.273969 
L 50.371872 154.272806 
L 56.583375 154.268989 
L 62.794878 154.26617 
L 69.00638 154.261519 
L 75.217883 154.255874 
L 81.429386 154.249617 
L 87.640889 154.243456 
L 93.852392 154.231813 
L 100.063894 154.218807 
L 106.275397 154.203776 
L 112.4869 154.183137 
L 118.698403 154.154371 
L 124.909905 154.124887 
L 131.121408 154.081236 
L 137.332911 154.042116 
L 143.544414 153.961492 
L 149.755917 153.873642 
L 155.967419 153.761246 
L 162.178922 153.623207 
L 168.390425 153.431906 
L 174.601928 153.196933 
L 180.813431 152.897233 
L 187.024933 152.522553 
L 193.236436 152.035182 
L 199.447939 151.518073 
L 205.659442 150.783854 
L 211.870944 149.960674 
L 218.082447 148.94461 
L 224.29395 147.75954 
L 230.505453 146.493911 
L 236.716956 144.854267 
L 242.928458 143.092629 
L 249.139961 141.10035 
L 255.351464 138.994423 
L 261.562967 136.594511 
L 267.77447 133.984967 
L 273.985972 131.315584 
L 280.197475 128.59654 
L 286.408978 125.718405 
L 292.620481 122.824909 
L 298.831983 119.952573 
L 305.043486 117.142143 
L 311.254989 114.452159 
L 317.466492 111.906977 
L 323.677995 109.539048 
L 329.889497 107.44889 
L 336.101 105.565598 
L 342.312503 103.949669 
L 348.524006 102.601115 
" style="fill:none;stroke:#ff7f0e;stroke-linecap:square;stroke-width:1.5;"/>
   </g>
   <g id="line2d_59">
    <path clip-path="url(#peea7620025)" d="M 44.160369 179.765653 
L 50.371872 179.711709 
L 56.583375 179.504754 
L 62.794878 179.379227 
L 69.00638 179.127233 
L 75.217883 178.888843 
L 81.429386 178.596076 
L 87.640889 178.336946 
L 93.852392 177.911396 
L 100.063894 177.353305 
L 106.275397 176.769115 
L 112.4869 176.091053 
L 118.698403 175.433501 
L 124.909905 174.205052 
L 131.121408 173.333019 
L 137.332911 171.890055 
L 143.544414 170.58523 
L 149.755917 168.958378 
L 155.967419 167.111548 
L 162.178922 164.96119 
L 168.390425 162.801755 
L 174.601928 160.371826 
L 180.813431 157.766015 
L 187.024933 155.016804 
L 193.236436 152.00128 
L 199.447939 149.580829 
L 205.659442 146.326956 
L 211.870944 143.640125 
L 218.082447 140.94366 
L 224.29395 138.353399 
L 230.505453 135.954342 
L 236.716956 133.610325 
L 242.928458 131.546082 
L 249.139961 129.673012 
L 255.351464 128.124244 
L 261.562967 126.678032 
L 267.77447 125.501277 
L 273.985972 124.55127 
L 280.197475 123.740896 
L 286.408978 123.288985 
L 292.620481 122.94202 
L 298.831983 122.765482 
L 305.043486 122.740574 
L 311.254989 122.840112 
L 317.466492 123.04325 
L 323.677995 123.321241 
L 329.889497 123.621 
L 336.101 123.932508 
L 342.312503 124.214614 
L 348.524006 124.429487 
" style="fill:none;stroke:#2ca02c;stroke-linecap:square;stroke-width:1.5;"/>
   </g>
   <g id="line2d_60">
    <path clip-path="url(#peea7620025)" d="M 44.160369 55.506484 
L 50.371872 55.501119 
L 56.583375 55.480829 
L 62.794878 55.468414 
L 69.00638 55.443728 
L 75.217883 55.420299 
L 81.429386 55.39154 
L 87.640889 55.366027 
L 93.852392 55.324044 
L 100.063894 55.269054 
L 106.275397 55.211667 
L 112.4869 55.144405 
L 118.698403 55.079012 
L 124.909905 54.957613 
L 131.121408 54.870741 
L 137.332911 54.729146 
L 143.544414 54.597293 
L 149.755917 54.434761 
L 155.967419 54.249851 
L 162.178922 54.03465 
L 168.390425 53.817198 
L 174.601928 53.573227 
L 180.813431 53.312435 
L 187.024933 53.038107 
L 193.236436 52.740841 
L 199.447939 52.517143 
L 205.659442 52.207444 
L 211.870944 51.973316 
L 218.082447 51.776611 
L 224.29395 51.621154 
L 230.505453 51.49323 
L 236.716956 51.49445 
L 242.928458 51.566082 
L 249.139961 51.745606 
L 255.351464 52.046862 
L 261.562967 52.489677 
L 267.77447 53.11501 
L 273.985972 53.850838 
L 280.197475 54.723978 
L 286.408978 55.792199 
L 292.620481 57.021926 
L 298.831983 58.410238 
L 305.043486 59.960234 
L 311.254989 61.649189 
L 317.466492 63.484371 
L 323.677995 65.446109 
L 329.889497 67.471033 
L 336.101 69.607715 
L 342.312503 71.795216 
L 348.524006 74.005241 
" style="fill:none;stroke:#d62728;stroke-linecap:square;stroke-width:1.5;"/>
   </g>
   <g id="line2d_61">
    <path clip-path="url(#peea7620025)" d="M 44.160369 90.996643 
L 50.371872 91.002715 
L 56.583375 91.026634 
L 62.794878 91.040597 
L 69.00638 91.069764 
L 75.217883 91.096645 
L 81.429386 91.129973 
L 87.640889 91.159071 
L 93.852392 91.206023 
L 100.063894 91.268689 
L 106.275397 91.333994 
L 112.4869 91.407091 
L 118.698403 91.47367 
L 124.909905 91.609949 
L 131.121408 91.695772 
L 137.332911 91.85536 
L 143.544414 91.973665 
L 149.755917 92.129108 
L 155.967419 92.299118 
L 162.178922 92.493523 
L 168.390425 92.662431 
L 174.601928 92.844068 
L 180.813431 93.018459 
L 187.024933 93.176737 
L 193.236436 93.323426 
L 199.447939 93.40514 
L 205.659442 93.490456 
L 211.870944 93.496984 
L 218.082447 93.480768 
L 224.29395 93.425712 
L 230.505453 93.349847 
L 236.716956 93.241106 
L 242.928458 93.128323 
L 249.139961 93.016219 
L 255.351464 92.922984 
L 261.562967 92.8405 
L 267.77447 92.787873 
L 273.985972 92.756843 
L 280.197475 92.744406 
L 286.408978 92.754468 
L 292.620481 92.770637 
L 298.831983 92.789007 
L 305.043486 92.80548 
L 311.254989 92.817484 
L 317.466492 92.82531 
L 323.677995 92.832163 
L 329.889497 92.852184 
L 336.101 92.889427 
L 342.312503 92.955966 
L 348.524006 93.06326 
" style="fill:none;stroke:#9467bd;stroke-linecap:square;stroke-width:1.5;"/>
   </g>
   <g id="line2d_62">
    <path clip-path="url(#peea7620025)" d="M 44.160369 120.818066 
L 50.371872 120.783538 
L 56.583375 120.65048 
L 62.794878 120.570233 
L 69.00638 120.408168 
L 75.217883 120.255417 
L 81.429386 120.067589 
L 87.640889 119.90166 
L 93.852392 119.629807 
L 100.063894 119.272457 
L 106.275397 118.898533 
L 112.4869 118.466783 
L 118.698403 118.051329 
L 124.909905 117.266217 
L 131.121408 116.716989 
L 137.332911 115.794778 
L 143.544414 114.981157 
L 149.755917 113.960396 
L 155.967419 112.806503 
L 162.178922 111.46564 
L 168.390425 110.138985 
L 174.601928 108.652281 
L 180.813431 107.072784 
L 187.024933 105.425412 
L 193.236436 103.636687 
L 199.447939 102.222241 
L 205.659442 100.343278 
L 211.870944 98.832952 
L 218.082447 97.31695 
L 224.29395 95.879049 
L 230.505453 94.555742 
L 236.716956 93.247906 
L 242.928458 92.077475 
L 249.139961 90.976735 
L 255.351464 90.002541 
L 261.562967 89.032951 
L 267.77447 88.130429 
L 273.985972 87.300512 
L 280.197475 86.504053 
L 286.408978 85.835336 
L 292.620481 85.201759 
L 298.831983 84.655038 
L 305.043486 84.210184 
L 311.254989 83.878984 
L 317.466492 83.674067 
L 323.677995 83.599773 
L 329.889497 83.669405 
L 336.101 83.87696 
L 342.312503 84.220332 
L 348.524006 84.689003 
" style="fill:none;stroke:#8c564b;stroke-linecap:square;stroke-width:1.5;"/>
   </g>
   <g id="line2d_63">
    <path clip-path="url(#peea7620025)" d="M 44.160369 141.966782 
L 50.371872 141.964759 
L 56.583375 141.957296 
L 62.794878 141.952452 
L 69.00638 141.943389 
L 75.217883 141.934456 
L 81.429386 141.923633 
L 87.640889 141.913842 
L 93.852392 141.897361 
L 100.063894 141.876272 
L 106.275397 141.854082 
L 112.4869 141.826909 
L 118.698403 141.798422 
L 124.909905 141.750973 
L 131.121408 141.712076 
L 137.332911 141.656194 
L 143.544414 141.592817 
L 149.755917 141.517632 
L 155.967419 141.429081 
L 162.178922 141.324133 
L 168.390425 141.205727 
L 174.601928 141.068235 
L 180.813431 140.910874 
L 187.024933 140.732152 
L 193.236436 140.523782 
L 199.447939 140.339636 
L 205.659442 140.080587 
L 211.870944 139.836984 
L 218.082447 139.586168 
L 224.29395 139.329169 
L 230.505453 139.0856 
L 236.716956 138.832841 
L 242.928458 138.611894 
L 249.139961 138.415387 
L 255.351464 138.261509 
L 261.562967 138.121309 
L 267.77447 138.015774 
L 273.985972 137.935114 
L 280.197475 137.851945 
L 286.408978 137.799722 
L 292.620481 137.716964 
L 298.831983 137.607286 
L 305.043486 137.456243 
L 311.254989 137.256201 
L 317.466492 136.995292 
L 323.677995 136.670155 
L 329.889497 136.275008 
L 336.101 135.797591 
L 342.312503 135.240411 
L 348.524006 134.595203 
" style="fill:none;stroke:#e377c2;stroke-linecap:square;stroke-width:1.5;"/>
   </g>
   <g id="line2d_64">
    <path clip-path="url(#peea7620025)" d="M 44.160369 104.906206 
L 50.371872 104.951097 
L 56.583375 105.124346 
L 62.794878 105.228676 
L 69.00638 105.439651 
L 75.217883 105.637642 
L 81.429386 105.881626 
L 87.640889 106.096755 
L 93.852392 106.44814 
L 100.063894 106.911746 
L 106.275397 107.395513 
L 112.4869 107.952459 
L 118.698403 108.481805 
L 124.909905 109.500621 
L 131.121408 110.195998 
L 137.332911 111.388178 
L 143.544414 112.408354 
L 149.755917 113.696982 
L 155.967419 115.144148 
L 162.178922 116.820375 
L 168.390425 118.438677 
L 174.601928 120.236223 
L 180.813431 122.106867 
L 187.024933 124.010128 
L 193.236436 126.009438 
L 199.447939 127.474727 
L 205.659442 129.390655 
L 211.870944 130.729053 
L 218.082447 131.880023 
L 224.29395 132.762935 
L 230.505453 133.401893 
L 236.716956 133.634366 
L 242.928458 133.52584 
L 249.139961 133.052442 
L 255.351464 132.24004 
L 261.562967 131.082597 
L 267.77447 129.557157 
L 273.985972 127.830969 
L 280.197475 125.98738 
L 286.408978 123.752995 
L 292.620481 121.462343 
L 298.831983 119.088609 
L 305.043486 116.672273 
L 311.254989 114.273185 
L 317.466492 111.913105 
L 323.677995 109.626209 
L 329.889497 107.501761 
L 336.101 105.478245 
L 342.312503 103.613631 
L 348.524006 101.924 
" style="fill:none;stroke:#7f7f7f;stroke-linecap:square;stroke-width:1.5;"/>
   </g>
   <g id="line2d_65">
    <path clip-path="url(#peea7620025)" d="M 44.160369 73.867383 
L 50.371872 73.855952 
L 56.583375 73.812554 
L 62.794878 73.785916 
L 69.00638 73.733111 
L 75.217883 73.682734 
L 81.429386 73.621051 
L 87.640889 73.566172 
L 93.852392 73.475636 
L 100.063894 73.357501 
L 106.275397 73.233719 
L 112.4869 73.088309 
L 118.698403 72.944746 
L 124.909905 72.683762 
L 131.121408 72.491848 
L 137.332911 72.185284 
L 143.544414 71.891621 
L 149.755917 71.530788 
L 155.967419 71.117236 
L 162.178922 70.633704 
L 168.390425 70.132267 
L 174.601928 69.563309 
L 180.813431 68.94131 
L 187.024933 68.269971 
L 193.236436 67.518435 
L 199.447939 66.899332 
L 205.659442 66.046539 
L 211.870944 65.310254 
L 218.082447 64.571289 
L 224.29395 63.847761 
L 230.505453 63.164477 
L 236.716956 62.528179 
L 242.928458 61.982402 
L 249.139961 61.527878 
L 255.351464 61.218153 
L 261.562967 61.007472 
L 267.77447 60.972426 
L 273.985972 61.064899 
L 280.197475 61.284244 
L 286.408978 61.705001 
L 292.620481 62.254212 
L 298.831983 62.940383 
L 305.043486 63.760421 
L 311.254989 64.695187 
L 317.466492 65.747294 
L 323.677995 66.903887 
L 329.889497 68.140929 
L 336.101 69.488209 
L 342.312503 70.919982 
L 348.524006 72.429033 
" style="fill:none;stroke:#bcbd22;stroke-linecap:square;stroke-width:1.5;"/>
   </g>
   <g id="line2d_66">
    <path clip-path="url(#peea7620025)" d="M 44.160369 119.375844 
L 50.371872 119.383369 
L 56.583375 119.413045 
L 62.794878 119.430415 
L 69.00638 119.466578 
L 75.217883 119.499647 
L 81.429386 119.540829 
L 87.640889 119.576657 
L 93.852392 119.634167 
L 100.063894 119.711507 
L 106.275397 119.791535 
L 112.4869 119.88085 
L 118.698403 119.959925 
L 124.909905 120.128592 
L 131.121408 120.228873 
L 137.332911 120.42442 
L 143.544414 120.559306 
L 149.755917 120.739811 
L 155.967419 120.933623 
L 162.178922 121.153138 
L 168.390425 121.327857 
L 174.601928 121.508464 
L 180.813431 121.663254 
L 187.024933 121.77833 
L 193.236436 121.846325 
L 199.447939 121.812429 
L 205.659442 121.726853 
L 211.870944 121.500757 
L 218.082447 121.164109 
L 224.29395 120.70744 
L 230.505453 120.177877 
L 236.716956 119.449198 
L 242.928458 118.636885 
L 249.139961 117.704276 
L 255.351464 116.720279 
L 261.562967 115.604479 
L 267.77447 114.414114 
L 273.985972 113.212763 
L 280.197475 112.019205 
L 286.408978 110.767545 
L 292.620481 109.543885 
L 298.831983 108.355947 
L 305.043486 107.221217 
L 311.254989 106.162576 
L 317.466492 105.190252 
L 323.677995 104.315508 
L 329.889497 103.5712 
L 336.101 102.928113 
L 342.312503 102.40175 
L 348.524006 101.981219 
" style="fill:none;stroke:#17becf;stroke-linecap:square;stroke-width:1.5;"/>
   </g>
   <g id="line2d_67">
    <path clip-path="url(#peea7620025)" d="M 44.160369 73.255152 
L 50.371872 73.262413 
L 56.583375 73.29034 
L 62.794878 73.307343 
L 69.00638 73.341335 
L 75.217883 73.373441 
L 81.429386 73.41292 
L 87.640889 73.447832 
L 93.852392 73.505119 
L 100.063894 73.580383 
L 106.275397 73.659029 
L 112.4869 73.750293 
L 118.698403 73.838343 
L 124.909905 74.004364 
L 131.121408 74.120667 
L 137.332911 74.31535 
L 143.544414 74.488735 
L 149.755917 74.705921 
L 155.967419 74.951794 
L 162.178922 75.237891 
L 168.390425 75.522391 
L 174.601928 75.841684 
L 180.813431 76.181293 
L 187.024933 76.536431 
L 193.236436 76.920162 
L 199.447939 77.221123 
L 205.659442 77.620205 
L 211.870944 77.935556 
L 218.082447 78.23631 
L 224.29395 78.509185 
L 230.505453 78.735453 
L 236.716956 78.953257 
L 242.928458 79.110942 
L 249.139961 79.227871 
L 255.351464 79.303994 
L 261.562967 79.365785 
L 267.77447 79.415435 
L 273.985972 79.458742 
L 280.197475 79.548106 
L 286.408978 79.630803 
L 292.620481 79.808265 
L 298.831983 80.072925 
L 305.043486 80.447367 
L 311.254989 80.940315 
L 317.466492 81.570064 
L 323.677995 82.33656 
L 329.889497 83.223888 
L 336.101 84.247295 
L 342.312503 85.378988 
L 348.524006 86.591301 
" style="fill:none;stroke:#1f77b4;stroke-linecap:square;stroke-width:1.5;"/>
   </g>
   <g id="line2d_68">
    <path clip-path="url(#peea7620025)" d="M 44.160369 83.862286 
L 50.371872 83.831539 
L 56.583375 83.712537 
L 62.794878 83.641203 
L 69.00638 83.496247 
L 75.217883 83.360567 
L 81.429386 83.19323 
L 87.640889 83.045915 
L 93.852392 82.805643 
L 100.063894 82.488169 
L 106.275397 82.15693 
L 112.4869 81.777117 
L 118.698403 81.418207 
L 124.909905 80.721675 
L 131.121408 80.251266 
L 137.332911 79.436152 
L 143.544414 78.751562 
L 149.755917 77.8827 
L 155.967419 76.910242 
L 162.178922 75.785782 
L 168.390425 74.713746 
L 174.601928 73.527473 
L 180.813431 72.303645 
L 187.024933 71.072715 
L 193.236436 69.793584 
L 199.447939 68.874897 
L 205.659442 67.69032 
L 211.870944 66.902891 
L 218.082447 66.239073 
L 224.29395 65.761452 
L 230.505453 65.437664 
L 236.716956 65.380737 
L 242.928458 65.520238 
L 249.139961 65.868371 
L 255.351464 66.394977 
L 261.562967 67.114973 
L 267.77447 68.024089 
L 273.985972 69.03027 
L 280.197475 70.102259 
L 286.408978 71.387339 
L 292.620481 72.729397 
L 298.831983 74.153391 
L 305.043486 75.655359 
L 311.254989 77.214011 
L 317.466492 78.834098 
L 323.677995 80.502274 
L 329.889497 82.168255 
L 336.101 83.876613 
L 342.312503 85.582278 
L 348.524006 87.266237 
" style="fill:none;stroke:#ff7f0e;stroke-linecap:square;stroke-width:1.5;"/>
   </g>
   <g id="line2d_69">
    <path clip-path="url(#peea7620025)" d="M 44.160369 99.797311 
L 50.371872 99.807217 
L 56.583375 99.845037 
L 62.794878 99.868095 
L 69.00638 99.914136 
L 75.217883 99.95797 
L 81.429386 100.011656 
L 87.640889 100.059336 
L 93.852392 100.137935 
L 100.063894 100.240544 
L 106.275397 100.348227 
L 112.4869 100.474017 
L 118.698403 100.59794 
L 124.909905 100.824041 
L 131.121408 100.9896 
L 137.332911 101.256034 
L 143.544414 101.50743 
L 149.755917 101.81784 
L 155.967419 102.17308 
L 162.178922 102.588288 
L 168.390425 103.017054 
L 174.601928 103.503791 
L 180.813431 104.036192 
L 187.024933 104.610809 
L 193.236436 105.257332 
L 199.447939 105.801369 
L 205.659442 106.543985 
L 211.870944 107.202145 
L 218.082447 107.89689 
L 224.29395 108.605153 
L 230.505453 109.294039 
L 236.716956 110.034949 
L 242.928458 110.741915 
L 249.139961 111.446127 
L 255.351464 112.096679 
L 261.562967 112.763538 
L 267.77447 113.391429 
L 273.985972 113.968699 
L 280.197475 114.503178 
L 286.408978 114.971076 
L 292.620481 115.39381 
L 298.831983 115.756785 
L 305.043486 116.057177 
L 311.254989 116.294475 
L 317.466492 116.467414 
L 323.677995 116.577877 
L 329.889497 116.615395 
L 336.101 116.585215 
L 342.312503 116.482637 
L 348.524006 116.305823 
" style="fill:none;stroke:#2ca02c;stroke-linecap:square;stroke-width:1.5;"/>
   </g>
   <g id="line2d_70">
    <path clip-path="url(#peea7620025)" d="M 44.160369 220.740439 
L 50.371872 220.679751 
L 56.583375 220.446573 
L 62.794878 220.305319 
L 69.00638 220.02135 
L 75.217883 219.752639 
L 81.429386 219.422737 
L 87.640889 219.130783 
L 93.852392 218.651116 
L 100.063894 218.022412 
L 106.275397 217.363681 
L 112.4869 216.599854 
L 118.698403 215.857878 
L 124.909905 214.474925 
L 131.121408 213.490002 
L 137.332911 211.862906 
L 143.544414 210.390038 
L 149.755917 208.552979 
L 155.967419 206.466018 
L 162.178922 204.034865 
L 168.390425 201.586508 
L 174.601928 198.826965 
L 180.813431 195.857567 
L 187.024933 192.713117 
L 193.236436 189.242354 
L 199.447939 186.406846 
L 205.659442 182.602576 
L 211.870944 179.382515 
L 218.082447 176.041193 
L 224.29395 172.730765 
L 230.505453 169.592156 
L 236.716956 166.237254 
L 242.928458 163.083956 
L 249.139961 159.938703 
L 255.351464 156.975513 
L 261.562967 153.851576 
L 267.77447 150.73218 
L 273.985972 147.713207 
L 280.197475 144.676289 
L 286.408978 141.760993 
L 292.620481 138.788192 
L 298.831983 135.860144 
L 305.043486 132.984043 
L 311.254989 130.190032 
L 317.466492 127.47322 
L 323.677995 124.846528 
L 329.889497 122.384952 
L 336.101 120.008096 
L 342.312503 117.770672 
L 348.524006 115.682047 
" style="fill:none;stroke:#d62728;stroke-linecap:square;stroke-width:1.5;"/>
   </g>
   <g id="line2d_71">
    <path clip-path="url(#peea7620025)" d="M 44.160369 46.000953 
L 50.371872 45.98352 
L 56.583375 45.915192 
L 62.794878 45.87475 
L 69.00638 45.791499 
L 75.217883 45.714654 
L 81.429386 45.61932 
L 87.640889 45.535951 
L 93.852392 45.401283 
L 100.063894 45.221441 
L 106.275397 45.03474 
L 112.4869 44.823942 
L 118.698403 44.632014 
L 124.909905 44.238604 
L 131.121408 43.991667 
L 137.332911 43.533809 
L 143.544414 43.189479 
L 149.755917 42.739539 
L 155.967419 42.247148 
L 162.178922 41.683948 
L 168.390425 41.194165 
L 174.601928 40.669461 
L 180.813431 40.171369 
L 187.024933 39.726015 
L 193.236436 39.334662 
L 199.447939 39.166556 
L 205.659442 39.010543 
L 211.870944 39.141406 
L 218.082447 39.453441 
L 224.29395 39.976861 
L 230.505453 40.644849 
L 236.716956 41.635577 
L 242.928458 42.793526 
L 249.139961 44.162852 
L 255.351464 45.629756 
L 261.562967 47.312154 
L 267.77447 49.107664 
L 273.985972 50.912348 
L 280.197475 52.677541 
L 286.408978 54.531378 
L 292.620481 56.298173 
L 298.831983 57.982022 
L 305.043486 59.565878 
L 311.254989 61.029947 
L 317.466492 62.377739 
L 323.677995 63.614251 
L 329.889497 64.742389 
L 336.101 65.816101 
L 342.312503 66.845206 
L 348.524006 67.871183 
" style="fill:none;stroke:#9467bd;stroke-linecap:square;stroke-width:1.5;"/>
   </g>
   <g id="line2d_72">
    <path clip-path="url(#peea7620025)" d="M 44.160369 108.357469 
L 50.371872 108.32587 
L 56.583375 108.204137 
L 62.794878 108.130661 
L 69.00638 107.982417 
L 75.217883 107.842814 
L 81.429386 107.671052 
L 87.640889 107.519375 
L 93.852392 107.271014 
L 100.063894 106.944251 
L 106.275397 106.602665 
L 112.4869 106.208269 
L 118.698403 105.829889 
L 124.909905 105.111589 
L 131.121408 104.612258 
L 137.332911 103.769689 
L 143.544414 103.031123 
L 149.755917 102.103271 
L 155.967419 101.056008 
L 162.178922 99.83993 
L 168.390425 98.64356 
L 174.601928 97.305775 
L 180.813431 95.891866 
L 187.024933 94.425884 
L 193.236436 92.848334 
L 199.447939 91.626349 
L 205.659442 90.007154 
L 211.870944 88.749132 
L 218.082447 87.536814 
L 224.29395 86.437099 
L 230.505453 85.473128 
L 236.716956 84.616877 
L 242.928458 83.940538 
L 249.139961 83.40826 
L 255.351464 83.048736 
L 261.562967 82.787698 
L 267.77447 82.670062 
L 273.985972 82.653144 
L 280.197475 82.677668 
L 286.408978 82.881445 
L 292.620481 83.093465 
L 298.831983 83.347969 
L 305.043486 83.63242 
L 311.254989 83.931941 
L 317.466492 84.23968 
L 323.677995 84.548132 
L 329.889497 84.846645 
L 336.101 85.145996 
L 342.312503 85.439768 
L 348.524006 85.736487 
" style="fill:none;stroke:#8c564b;stroke-linecap:square;stroke-width:1.5;"/>
   </g>
   <g id="line2d_73">
    <path clip-path="url(#peea7620025)" d="M 44.160369 32.201761 
L 50.371872 32.209094 
L 56.583375 32.236693 
L 62.794878 32.253849 
L 69.00638 32.287452 
L 75.217883 32.320205 
L 81.429386 32.359915 
L 87.640889 32.395524 
L 93.852392 32.455217 
L 100.063894 32.531749 
L 106.275397 32.612908 
L 112.4869 32.709616 
L 118.698403 32.810048 
L 124.909905 32.979289 
L 131.121408 33.116585 
L 137.332911 33.318659 
L 143.544414 33.535879 
L 149.755917 33.797042 
L 155.967419 34.103122 
L 162.178922 34.464969 
L 168.390425 34.868299 
L 174.601928 35.337064 
L 180.813431 35.875734 
L 187.024933 36.488247 
L 193.236436 37.217192 
L 199.447939 37.896404 
L 205.659442 38.83901 
L 211.870944 39.779586 
L 218.082447 40.862781 
L 224.29395 42.058374 
L 230.505453 43.288028 
L 236.716956 44.789554 
L 242.928458 46.343975 
L 249.139961 48.043845 
L 255.351464 49.785508 
L 261.562967 51.735872 
L 267.77447 53.81049 
L 273.985972 55.902847 
L 280.197475 58.026997 
L 286.408978 60.231308 
L 292.620481 62.456612 
L 298.831983 64.669968 
L 305.043486 66.85369 
L 311.254989 68.974281 
L 317.466492 71.028749 
L 323.677995 73.003877 
L 329.889497 74.85113 
L 336.101 76.634879 
L 342.312503 78.324106 
L 348.524006 79.930988 
" style="fill:none;stroke:#e377c2;stroke-linecap:square;stroke-width:1.5;"/>
   </g>
   <g id="line2d_74">
    <path clip-path="url(#peea7620025)" d="M 44.160369 195.745989 
L 50.371872 195.698042 
L 56.583375 195.514112 
L 62.794878 195.402427 
L 69.00638 195.178473 
L 75.217883 194.966346 
L 81.429386 194.705972 
L 87.640889 194.47542 
L 93.852392 194.096411 
L 100.063894 193.599867 
L 106.275397 193.079738 
L 112.4869 192.475515 
L 118.698403 191.887648 
L 124.909905 190.794437 
L 131.121408 190.01373 
L 137.332911 188.72822 
L 143.544414 187.557341 
L 149.755917 186.099365 
L 155.967419 184.441575 
L 162.178922 182.509569 
L 168.390425 180.558066 
L 174.601928 178.357227 
L 180.813431 175.986065 
L 187.024933 173.470853 
L 193.236436 170.694055 
L 199.447939 168.430128 
L 205.659442 165.384113 
L 211.870944 162.811651 
L 218.082447 160.17262 
L 224.29395 157.578208 
L 230.505453 155.141841 
L 236.716956 152.599329 
L 242.928458 150.268005 
L 249.139961 148.014849 
L 255.351464 145.975149 
L 261.562967 143.892177 
L 267.77447 141.906101 
L 273.985972 140.049095 
L 280.197475 138.207134 
L 286.408978 136.541269 
L 292.620481 134.829379 
L 298.831983 133.143223 
L 305.043486 131.465473 
L 311.254989 129.796018 
L 317.466492 128.114172 
L 323.677995 126.416668 
L 329.889497 124.734588 
L 336.101 123.016893 
L 342.312503 121.295233 
L 348.524006 119.585413 
" style="fill:none;stroke:#7f7f7f;stroke-linecap:square;stroke-width:1.5;"/>
   </g>
   <g id="line2d_75">
    <path clip-path="url(#peea7620025)" d="M 44.160369 112.360848 
L 50.371872 112.375345 
L 56.583375 112.431804 
L 62.794878 112.465488 
L 69.00638 112.534288 
L 75.217883 112.598463 
L 81.429386 112.677706 
L 87.640889 112.747303 
L 93.852392 112.860648 
L 100.063894 113.01069 
L 106.275397 113.167256 
L 112.4869 113.345739 
L 118.698403 113.513182 
L 124.909905 113.841813 
L 131.121408 114.060552 
L 137.332911 114.445507 
L 143.544414 114.760008 
L 149.755917 115.162461 
L 155.967419 115.610851 
L 162.178922 116.128363 
L 168.390425 116.613458 
L 174.601928 117.147996 
L 180.813431 117.693362 
L 187.024933 118.233648 
L 193.236436 118.787231 
L 199.447939 119.179731 
L 205.659442 119.668691 
L 211.870944 119.975272 
L 218.082447 120.240198 
L 224.29395 120.424677 
L 230.505453 120.537572 
L 236.716956 120.595386 
L 242.928458 120.591101 
L 249.139961 120.549995 
L 255.351464 120.505608 
L 261.562967 120.46012 
L 267.77447 120.458439 
L 273.985972 120.497838 
L 280.197475 120.612754 
L 286.408978 120.765295 
L 292.620481 121.01141 
L 298.831983 121.32514 
L 305.043486 121.694853 
L 311.254989 122.099615 
L 317.466492 122.521194 
L 323.677995 122.935186 
L 329.889497 123.284846 
L 336.101 123.570371 
L 342.312503 123.752502 
L 348.524006 123.806646 
" style="fill:none;stroke:#bcbd22;stroke-linecap:square;stroke-width:1.5;"/>
   </g>
   <g id="line2d_76">
    <path clip-path="url(#peea7620025)" d="M 44.160369 49.106252 
L 50.371872 49.113368 
L 56.583375 49.1404 
L 62.794878 49.15712 
L 69.00638 49.190013 
L 75.217883 49.221546 
L 81.429386 49.260089 
L 87.640889 49.294408 
L 93.852392 49.351302 
L 100.063894 49.425245 
L 106.275397 49.502888 
L 112.4869 49.594429 
L 118.698403 49.685794 
L 124.909905 49.849543 
L 131.121408 49.972096 
L 137.332911 50.165127 
L 143.544414 50.353973 
L 149.755917 50.585432 
L 155.967419 50.851971 
L 162.178922 51.164591 
L 168.390425 51.494142 
L 174.601928 51.870537 
L 180.813431 52.287008 
L 187.024933 52.742564 
L 193.236436 53.25986 
L 199.447939 53.703752 
L 205.659442 54.310496 
L 211.870944 54.859642 
L 218.082447 55.439787 
L 224.29395 56.03469 
L 230.505453 56.602794 
L 236.716956 57.240216 
L 242.928458 57.838029 
L 249.139961 58.435572 
L 255.351464 58.998637 
L 261.562967 59.59852 
L 267.77447 60.206476 
L 273.985972 60.803997 
L 280.197475 61.440192 
L 286.408978 62.078146 
L 292.620481 62.795666 
L 298.831983 63.577578 
L 305.043486 64.438989 
L 311.254989 65.379172 
L 317.466492 66.412288 
L 323.677995 67.533597 
L 329.889497 68.715817 
L 336.101 69.988143 
L 342.312503 71.317239 
L 348.524006 72.689231 
" style="fill:none;stroke:#17becf;stroke-linecap:square;stroke-width:1.5;"/>
   </g>
   <g id="patch_3">
    <path d="M 28.942188 239.758125 
L 28.942188 22.318125 
" style="fill:none;stroke:#000000;stroke-linecap:square;stroke-linejoin:miter;stroke-width:0.8;"/>
   </g>
   <g id="patch_4">
    <path d="M 363.742188 239.758125 
L 363.742188 22.318125 
" style="fill:none;stroke:#000000;stroke-linecap:square;stroke-linejoin:miter;stroke-width:0.8;"/>
   </g>
   <g id="patch_5">
    <path d="M 28.942188 239.758125 
L 363.742188 239.758125 
" style="fill:none;stroke:#000000;stroke-linecap:square;stroke-linejoin:miter;stroke-width:0.8;"/>
   </g>
   <g id="patch_6">
    <path d="M 28.942188 22.318125 
L 363.742188 22.318125 
" style="fill:none;stroke:#000000;stroke-linecap:square;stroke-linejoin:miter;stroke-width:0.8;"/>
   </g>
   <g id="text_13">
    <!-- Regularization Path -->
    <defs>
     <path d="M 44.390625 34.1875 
Q 47.5625 33.109375 50.5625 29.59375 
Q 53.5625 26.078125 56.59375 19.921875 
L 66.609375 0 
L 56 0 
L 46.6875 18.703125 
Q 43.0625 26.03125 39.671875 28.421875 
Q 36.28125 30.8125 30.421875 30.8125 
L 19.671875 30.8125 
L 19.671875 0 
L 9.8125 0 
L 9.8125 72.90625 
L 32.078125 72.90625 
Q 44.578125 72.90625 50.734375 67.671875 
Q 56.890625 62.453125 56.890625 51.90625 
Q 56.890625 45.015625 53.6875 40.46875 
Q 50.484375 35.9375 44.390625 34.1875 
z
M 19.671875 64.796875 
L 19.671875 38.921875 
L 32.078125 38.921875 
Q 39.203125 38.921875 42.84375 42.21875 
Q 46.484375 45.515625 46.484375 51.90625 
Q 46.484375 58.296875 42.84375 61.546875 
Q 39.203125 64.796875 32.078125 64.796875 
z
" id="DejaVuSans-52"/>
     <path d="M 56.203125 29.59375 
L 56.203125 25.203125 
L 14.890625 25.203125 
Q 15.484375 15.921875 20.484375 11.0625 
Q 25.484375 6.203125 34.421875 6.203125 
Q 39.59375 6.203125 44.453125 7.46875 
Q 49.3125 8.734375 54.109375 11.28125 
L 54.109375 2.78125 
Q 49.265625 0.734375 44.1875 -0.34375 
Q 39.109375 -1.421875 33.890625 -1.421875 
Q 20.796875 -1.421875 13.15625 6.1875 
Q 5.515625 13.8125 5.515625 26.8125 
Q 5.515625 40.234375 12.765625 48.109375 
Q 20.015625 56 32.328125 56 
Q 43.359375 56 49.78125 48.890625 
Q 56.203125 41.796875 56.203125 29.59375 
z
M 47.21875 32.234375 
Q 47.125 39.59375 43.09375 43.984375 
Q 39.0625 48.390625 32.421875 48.390625 
Q 24.90625 48.390625 20.390625 44.140625 
Q 15.875 39.890625 15.1875 32.171875 
z
" id="DejaVuSans-65"/>
     <path d="M 45.40625 27.984375 
Q 45.40625 37.75 41.375 43.109375 
Q 37.359375 48.484375 30.078125 48.484375 
Q 22.859375 48.484375 18.828125 43.109375 
Q 14.796875 37.75 14.796875 27.984375 
Q 14.796875 18.265625 18.828125 12.890625 
Q 22.859375 7.515625 30.078125 7.515625 
Q 37.359375 7.515625 41.375 12.890625 
Q 45.40625 18.265625 45.40625 27.984375 
z
M 54.390625 6.78125 
Q 54.390625 -7.171875 48.1875 -13.984375 
Q 42 -20.796875 29.203125 -20.796875 
Q 24.46875 -20.796875 20.265625 -20.09375 
Q 16.0625 -19.390625 12.109375 -17.921875 
L 12.109375 -9.1875 
Q 16.0625 -11.328125 19.921875 -12.34375 
Q 23.78125 -13.375 27.78125 -13.375 
Q 36.625 -13.375 41.015625 -8.765625 
Q 45.40625 -4.15625 45.40625 5.171875 
L 45.40625 9.625 
Q 42.625 4.78125 38.28125 2.390625 
Q 33.9375 0 27.875 0 
Q 17.828125 0 11.671875 7.65625 
Q 5.515625 15.328125 5.515625 27.984375 
Q 5.515625 40.671875 11.671875 48.328125 
Q 17.828125 56 27.875 56 
Q 33.9375 56 38.28125 53.609375 
Q 42.625 51.21875 45.40625 46.390625 
L 45.40625 54.6875 
L 54.390625 54.6875 
z
" id="DejaVuSans-67"/>
     <path d="M 8.5 21.578125 
L 8.5 54.6875 
L 17.484375 54.6875 
L 17.484375 21.921875 
Q 17.484375 14.15625 20.5 10.265625 
Q 23.53125 6.390625 29.59375 6.390625 
Q 36.859375 6.390625 41.078125 11.03125 
Q 45.3125 15.671875 45.3125 23.6875 
L 45.3125 54.6875 
L 54.296875 54.6875 
L 54.296875 0 
L 45.3125 0 
L 45.3125 8.40625 
Q 42.046875 3.421875 37.71875 1 
Q 33.40625 -1.421875 27.6875 -1.421875 
Q 18.265625 -1.421875 13.375 4.4375 
Q 8.5 10.296875 8.5 21.578125 
z
M 31.109375 56 
z
" id="DejaVuSans-75"/>
     <path d="M 9.421875 75.984375 
L 18.40625 75.984375 
L 18.40625 0 
L 9.421875 0 
z
" id="DejaVuSans-6c"/>
     <path d="M 34.28125 27.484375 
Q 23.390625 27.484375 19.1875 25 
Q 14.984375 22.515625 14.984375 16.5 
Q 14.984375 11.71875 18.140625 8.90625 
Q 21.296875 6.109375 26.703125 6.109375 
Q 34.1875 6.109375 38.703125 11.40625 
Q 43.21875 16.703125 43.21875 25.484375 
L 43.21875 27.484375 
z
M 52.203125 31.203125 
L 52.203125 0 
L 43.21875 0 
L 43.21875 8.296875 
Q 40.140625 3.328125 35.546875 0.953125 
Q 30.953125 -1.421875 24.3125 -1.421875 
Q 15.921875 -1.421875 10.953125 3.296875 
Q 6 8.015625 6 15.921875 
Q 6 25.140625 12.171875 29.828125 
Q 18.359375 34.515625 30.609375 34.515625 
L 43.21875 34.515625 
L 43.21875 35.40625 
Q 43.21875 41.609375 39.140625 45 
Q 35.0625 48.390625 27.6875 48.390625 
Q 23 48.390625 18.546875 47.265625 
Q 14.109375 46.140625 10.015625 43.890625 
L 10.015625 52.203125 
Q 14.9375 54.109375 19.578125 55.046875 
Q 24.21875 56 28.609375 56 
Q 40.484375 56 46.34375 49.84375 
Q 52.203125 43.703125 52.203125 31.203125 
z
" id="DejaVuSans-61"/>
     <path d="M 41.109375 46.296875 
Q 39.59375 47.171875 37.8125 47.578125 
Q 36.03125 48 33.890625 48 
Q 26.265625 48 22.1875 43.046875 
Q 18.109375 38.09375 18.109375 28.8125 
L 18.109375 0 
L 9.078125 0 
L 9.078125 54.6875 
L 18.109375 54.6875 
L 18.109375 46.1875 
Q 20.953125 51.171875 25.484375 53.578125 
Q 30.03125 56 36.53125 56 
Q 37.453125 56 38.578125 55.875 
Q 39.703125 55.765625 41.0625 55.515625 
z
" id="DejaVuSans-72"/>
     <path d="M 9.421875 54.6875 
L 18.40625 54.6875 
L 18.40625 0 
L 9.421875 0 
z
M 9.421875 75.984375 
L 18.40625 75.984375 
L 18.40625 64.59375 
L 9.421875 64.59375 
z
" id="DejaVuSans-69"/>
     <path d="M 5.515625 54.6875 
L 48.1875 54.6875 
L 48.1875 46.484375 
L 14.40625 7.171875 
L 48.1875 7.171875 
L 48.1875 0 
L 4.296875 0 
L 4.296875 8.203125 
L 38.09375 47.515625 
L 5.515625 47.515625 
z
" id="DejaVuSans-7a"/>
     <path d="M 18.3125 70.21875 
L 18.3125 54.6875 
L 36.8125 54.6875 
L 36.8125 47.703125 
L 18.3125 47.703125 
L 18.3125 18.015625 
Q 18.3125 11.328125 20.140625 9.421875 
Q 21.96875 7.515625 27.59375 7.515625 
L 36.8125 7.515625 
L 36.8125 0 
L 27.59375 0 
Q 17.1875 0 13.234375 3.875 
Q 9.28125 7.765625 9.28125 18.015625 
L 9.28125 47.703125 
L 2.6875 47.703125 
L 2.6875 54.6875 
L 9.28125 54.6875 
L 9.28125 70.21875 
z
" id="DejaVuSans-74"/>
     <path d="M 30.609375 48.390625 
Q 23.390625 48.390625 19.1875 42.75 
Q 14.984375 37.109375 14.984375 27.296875 
Q 14.984375 17.484375 19.15625 11.84375 
Q 23.34375 6.203125 30.609375 6.203125 
Q 37.796875 6.203125 41.984375 11.859375 
Q 46.1875 17.53125 46.1875 27.296875 
Q 46.1875 37.015625 41.984375 42.703125 
Q 37.796875 48.390625 30.609375 48.390625 
z
M 30.609375 56 
Q 42.328125 56 49.015625 48.375 
Q 55.71875 40.765625 55.71875 27.296875 
Q 55.71875 13.875 49.015625 6.21875 
Q 42.328125 -1.421875 30.609375 -1.421875 
Q 18.84375 -1.421875 12.171875 6.21875 
Q 5.515625 13.875 5.515625 27.296875 
Q 5.515625 40.765625 12.171875 48.375 
Q 18.84375 56 30.609375 56 
z
" id="DejaVuSans-6f"/>
     <path d="M 54.890625 33.015625 
L 54.890625 0 
L 45.90625 0 
L 45.90625 32.71875 
Q 45.90625 40.484375 42.875 44.328125 
Q 39.84375 48.1875 33.796875 48.1875 
Q 26.515625 48.1875 22.3125 43.546875 
Q 18.109375 38.921875 18.109375 30.90625 
L 18.109375 0 
L 9.078125 0 
L 9.078125 54.6875 
L 18.109375 54.6875 
L 18.109375 46.1875 
Q 21.34375 51.125 25.703125 53.5625 
Q 30.078125 56 35.796875 56 
Q 45.21875 56 50.046875 50.171875 
Q 54.890625 44.34375 54.890625 33.015625 
z
" id="DejaVuSans-6e"/>
     <path id="DejaVuSans-20"/>
     <path d="M 19.671875 64.796875 
L 19.671875 37.40625 
L 32.078125 37.40625 
Q 38.96875 37.40625 42.71875 40.96875 
Q 46.484375 44.53125 46.484375 51.125 
Q 46.484375 57.671875 42.71875 61.234375 
Q 38.96875 64.796875 32.078125 64.796875 
z
M 9.8125 72.90625 
L 32.078125 72.90625 
Q 44.34375 72.90625 50.609375 67.359375 
Q 56.890625 61.8125 56.890625 51.125 
Q 56.890625 40.328125 50.609375 34.8125 
Q 44.34375 29.296875 32.078125 29.296875 
L 19.671875 29.296875 
L 19.671875 0 
L 9.8125 0 
z
" id="DejaVuSans-50"/>
     <path d="M 54.890625 33.015625 
L 54.890625 0 
L 45.90625 0 
L 45.90625 32.71875 
Q 45.90625 40.484375 42.875 44.328125 
Q 39.84375 48.1875 33.796875 48.1875 
Q 26.515625 48.1875 22.3125 43.546875 
Q 18.109375 38.921875 18.109375 30.90625 
L 18.109375 0 
L 9.078125 0 
L 9.078125 75.984375 
L 18.109375 75.984375 
L 18.109375 46.1875 
Q 21.34375 51.125 25.703125 53.5625 
Q 30.078125 56 35.796875 56 
Q 45.21875 56 50.046875 50.171875 
Q 54.890625 44.34375 54.890625 33.015625 
z
" id="DejaVuSans-68"/>
    </defs>
    <g transform="translate(137.725 16.318125)scale(0.12 -0.12)">
     <use xlink:href="#DejaVuSans-52"/>
     <use x="69.419922" xlink:href="#DejaVuSans-65"/>
     <use x="130.943359" xlink:href="#DejaVuSans-67"/>
     <use x="194.419922" xlink:href="#DejaVuSans-75"/>
     <use x="257.798828" xlink:href="#DejaVuSans-6c"/>
     <use x="285.582031" xlink:href="#DejaVuSans-61"/>
     <use x="346.861328" xlink:href="#DejaVuSans-72"/>
     <use x="387.974609" xlink:href="#DejaVuSans-69"/>
     <use x="415.757812" xlink:href="#DejaVuSans-7a"/>
     <use x="468.248047" xlink:href="#DejaVuSans-61"/>
     <use x="529.527344" xlink:href="#DejaVuSans-74"/>
     <use x="568.736328" xlink:href="#DejaVuSans-69"/>
     <use x="596.519531" xlink:href="#DejaVuSans-6f"/>
     <use x="657.701172" xlink:href="#DejaVuSans-6e"/>
     <use x="721.080078" xlink:href="#DejaVuSans-20"/>
     <use x="752.867188" xlink:href="#DejaVuSans-50"/>
     <use x="813.107422" xlink:href="#DejaVuSans-61"/>
     <use x="874.386719" xlink:href="#DejaVuSans-74"/>
     <use x="913.595703" xlink:href="#DejaVuSans-68"/>
    </g>
   </g>
  </g>
 </g>
 <defs>
  <clipPath id="peea7620025">
   <rect height="217.44" width="334.8" x="28.942188" y="22.318125"/>
  </clipPath>
 </defs>
</svg>
