<?xml version="1.0" encoding="utf-8" standalone="no"?>
<!DOCTYPE svg PUBLIC "-//W3C//DTD SVG 1.1//EN"
  "http://www.w3.org/Graphics/SVG/1.1/DTD/svg11.dtd">
<!-- Created with matplotlib (http://matplotlib.org/) -->
<svg height="271.503125pt" version="1.1" viewBox="0 0 390.345312 271.503125" width="390.345312pt" xmlns="http://www.w3.org/2000/svg" xmlns:xlink="http://www.w3.org/1999/xlink">
 <defs>
  <style type="text/css">
*{stroke-linecap:butt;stroke-linejoin:round;}
  </style>
 </defs>
 <g id="figure_1">
  <g id="patch_1">
   <path d="M 0 271.503125 
L 390.345312 271.503125 
L 390.345312 0 
L 0 0 
z
" style="fill:none;"/>
  </g>
  <g id="axes_1">
   <g id="patch_2">
    <path d="M 44.845313 228.14 
L 379.645313 228.14 
L 379.645313 10.7 
L 44.845313 10.7 
z
" style="fill:#ffffff;"/>
   </g>
   <g id="matplotlib.axis_1">
    <g id="xtick_1">
     <g id="line2d_1">
      <defs>
       <path d="M 0 0 
L 0 3.5 
" id="m566b40aaab" style="stroke:#000000;stroke-width:0.8;"/>
      </defs>
      <g>
       <use style="stroke:#000000;stroke-width:0.8;" x="60.063494" xlink:href="#m566b40aaab" y="228.14"/>
      </g>
     </g>
     <g id="text_1">
      <!-- $\mathdefault{10^{-2}}$ -->
      <defs>
       <path d="M 12.40625 8.296875 
L 28.515625 8.296875 
L 28.515625 63.921875 
L 10.984375 60.40625 
L 10.984375 69.390625 
L 28.421875 72.90625 
L 38.28125 72.90625 
L 38.28125 8.296875 
L 54.390625 8.296875 
L 54.390625 0 
L 12.40625 0 
z
" id="DejaVuSans-31"/>
       <path d="M 31.78125 66.40625 
Q 24.171875 66.40625 20.328125 58.90625 
Q 16.5 51.421875 16.5 36.375 
Q 16.5 21.390625 20.328125 13.890625 
Q 24.171875 6.390625 31.78125 6.390625 
Q 39.453125 6.390625 43.28125 13.890625 
Q 47.125 21.390625 47.125 36.375 
Q 47.125 51.421875 43.28125 58.90625 
Q 39.453125 66.40625 31.78125 66.40625 
z
M 31.78125 74.21875 
Q 44.046875 74.21875 50.515625 64.515625 
Q 56.984375 54.828125 56.984375 36.375 
Q 56.984375 17.96875 50.515625 8.265625 
Q 44.046875 -1.421875 31.78125 -1.421875 
Q 19.53125 -1.421875 13.0625 8.265625 
Q 6.59375 17.96875 6.59375 36.375 
Q 6.59375 54.828125 13.0625 64.515625 
Q 19.53125 74.21875 31.78125 74.21875 
z
" id="DejaVuSans-30"/>
       <path d="M 10.59375 35.5 
L 73.1875 35.5 
L 73.1875 27.203125 
L 10.59375 27.203125 
z
" id="DejaVuSans-2212"/>
       <path d="M 19.1875 8.296875 
L 53.609375 8.296875 
L 53.609375 0 
L 7.328125 0 
L 7.328125 8.296875 
Q 12.9375 14.109375 22.625 23.890625 
Q 32.328125 33.6875 34.8125 36.53125 
Q 39.546875 41.84375 41.421875 45.53125 
Q 43.3125 49.21875 43.3125 52.78125 
Q 43.3125 58.59375 39.234375 62.25 
Q 35.15625 65.921875 28.609375 65.921875 
Q 23.96875 65.921875 18.8125 64.3125 
Q 13.671875 62.703125 7.8125 59.421875 
L 7.8125 69.390625 
Q 13.765625 71.78125 18.9375 73 
Q 24.125 74.21875 28.421875 74.21875 
Q 39.75 74.21875 46.484375 68.546875 
Q 53.21875 62.890625 53.21875 53.421875 
Q 53.21875 48.921875 51.53125 44.890625 
Q 49.859375 40.875 45.40625 35.40625 
Q 44.1875 33.984375 37.640625 27.21875 
Q 31.109375 20.453125 19.1875 8.296875 
z
" id="DejaVuSans-32"/>
      </defs>
      <g transform="translate(48.313494 242.738437)scale(0.1 -0.1)">
       <use transform="translate(0 0.765625)" xlink:href="#DejaVuSans-31"/>
       <use transform="translate(63.623047 0.765625)" xlink:href="#DejaVuSans-30"/>
       <use transform="translate(128.203125 39.046875)scale(0.7)" xlink:href="#DejaVuSans-2212"/>
       <use transform="translate(186.855469 39.046875)scale(0.7)" xlink:href="#DejaVuSans-32"/>
      </g>
     </g>
    </g>
    <g id="xtick_2">
     <g id="line2d_2">
      <g>
       <use style="stroke:#000000;stroke-width:0.8;" x="212.245313" xlink:href="#m566b40aaab" y="228.14"/>
      </g>
     </g>
     <g id="text_2">
      <!-- $\mathdefault{10^{-1}}$ -->
      <g transform="translate(200.495313 242.738437)scale(0.1 -0.1)">
       <use transform="translate(0 0.684375)" xlink:href="#DejaVuSans-31"/>
       <use transform="translate(63.623047 0.684375)" xlink:href="#DejaVuSans-30"/>
       <use transform="translate(128.203125 38.965625)scale(0.7)" xlink:href="#DejaVuSans-2212"/>
       <use transform="translate(186.855469 38.965625)scale(0.7)" xlink:href="#DejaVuSans-31"/>
      </g>
     </g>
    </g>
    <g id="xtick_3">
     <g id="line2d_3">
      <g>
       <use style="stroke:#000000;stroke-width:0.8;" x="364.427131" xlink:href="#m566b40aaab" y="228.14"/>
      </g>
     </g>
     <g id="text_3">
      <!-- $\mathdefault{10^{0}}$ -->
      <g transform="translate(355.627131 242.738437)scale(0.1 -0.1)">
       <use transform="translate(0 0.765625)" xlink:href="#DejaVuSans-31"/>
       <use transform="translate(63.623047 0.765625)" xlink:href="#DejaVuSans-30"/>
       <use transform="translate(128.203125 39.046875)scale(0.7)" xlink:href="#DejaVuSans-30"/>
      </g>
     </g>
    </g>
    <g id="xtick_4">
     <g id="line2d_4">
      <defs>
       <path d="M 0 0 
L 0 2 
" id="mbb18491352" style="stroke:#000000;stroke-width:0.6;"/>
      </defs>
      <g>
       <use style="stroke:#000000;stroke-width:0.6;" x="45.315552" xlink:href="#mbb18491352" y="228.14"/>
      </g>
     </g>
    </g>
    <g id="xtick_5">
     <g id="line2d_5">
      <g>
       <use style="stroke:#000000;stroke-width:0.6;" x="53.100036" xlink:href="#mbb18491352" y="228.14"/>
      </g>
     </g>
    </g>
    <g id="xtick_6">
     <g id="line2d_6">
      <g>
       <use style="stroke:#000000;stroke-width:0.6;" x="105.874786" xlink:href="#mbb18491352" y="228.14"/>
      </g>
     </g>
    </g>
    <g id="xtick_7">
     <g id="line2d_7">
      <g>
       <use style="stroke:#000000;stroke-width:0.6;" x="132.672674" xlink:href="#mbb18491352" y="228.14"/>
      </g>
     </g>
    </g>
    <g id="xtick_8">
     <g id="line2d_8">
      <g>
       <use style="stroke:#000000;stroke-width:0.6;" x="151.686078" xlink:href="#mbb18491352" y="228.14"/>
      </g>
     </g>
    </g>
    <g id="xtick_9">
     <g id="line2d_9">
      <g>
       <use style="stroke:#000000;stroke-width:0.6;" x="166.43402" xlink:href="#mbb18491352" y="228.14"/>
      </g>
     </g>
    </g>
    <g id="xtick_10">
     <g id="line2d_10">
      <g>
       <use style="stroke:#000000;stroke-width:0.6;" x="178.483966" xlink:href="#mbb18491352" y="228.14"/>
      </g>
     </g>
    </g>
    <g id="xtick_11">
     <g id="line2d_11">
      <g>
       <use style="stroke:#000000;stroke-width:0.6;" x="188.672051" xlink:href="#mbb18491352" y="228.14"/>
      </g>
     </g>
    </g>
    <g id="xtick_12">
     <g id="line2d_12">
      <g>
       <use style="stroke:#000000;stroke-width:0.6;" x="197.497371" xlink:href="#mbb18491352" y="228.14"/>
      </g>
     </g>
    </g>
    <g id="xtick_13">
     <g id="line2d_13">
      <g>
       <use style="stroke:#000000;stroke-width:0.6;" x="205.281854" xlink:href="#mbb18491352" y="228.14"/>
      </g>
     </g>
    </g>
    <g id="xtick_14">
     <g id="line2d_14">
      <g>
       <use style="stroke:#000000;stroke-width:0.6;" x="258.056605" xlink:href="#mbb18491352" y="228.14"/>
      </g>
     </g>
    </g>
    <g id="xtick_15">
     <g id="line2d_15">
      <g>
       <use style="stroke:#000000;stroke-width:0.6;" x="284.854493" xlink:href="#mbb18491352" y="228.14"/>
      </g>
     </g>
    </g>
    <g id="xtick_16">
     <g id="line2d_16">
      <g>
       <use style="stroke:#000000;stroke-width:0.6;" x="303.867897" xlink:href="#mbb18491352" y="228.14"/>
      </g>
     </g>
    </g>
    <g id="xtick_17">
     <g id="line2d_17">
      <g>
       <use style="stroke:#000000;stroke-width:0.6;" x="318.615839" xlink:href="#mbb18491352" y="228.14"/>
      </g>
     </g>
    </g>
    <g id="xtick_18">
     <g id="line2d_18">
      <g>
       <use style="stroke:#000000;stroke-width:0.6;" x="330.665785" xlink:href="#mbb18491352" y="228.14"/>
      </g>
     </g>
    </g>
    <g id="xtick_19">
     <g id="line2d_19">
      <g>
       <use style="stroke:#000000;stroke-width:0.6;" x="340.853869" xlink:href="#mbb18491352" y="228.14"/>
      </g>
     </g>
    </g>
    <g id="xtick_20">
     <g id="line2d_20">
      <g>
       <use style="stroke:#000000;stroke-width:0.6;" x="349.679189" xlink:href="#mbb18491352" y="228.14"/>
      </g>
     </g>
    </g>
    <g id="xtick_21">
     <g id="line2d_21">
      <g>
       <use style="stroke:#000000;stroke-width:0.6;" x="357.463673" xlink:href="#mbb18491352" y="228.14"/>
      </g>
     </g>
    </g>
    <g id="text_4">
     <!-- $\lambda$ -->
     <defs>
      <path d="M 36.71875 67.4375 
L 48.828125 0 
L 39.3125 0 
L 31.84375 40.4375 
L 5.125 0 
L -4.390625 0 
L 29.734375 52.4375 
L 28.03125 62.109375 
Q 26.953125 68.265625 21.734375 68.265625 
L 17.046875 68.265625 
L 18.5 75.984375 
L 24.21875 75.875 
Q 35.203125 75.734375 36.71875 67.4375 
z
" id="DejaVuSans-Oblique-3bb"/>
     </defs>
     <g transform="translate(207.445313 260.975625)scale(0.16 -0.16)">
      <use transform="translate(0 0.015625)" xlink:href="#DejaVuSans-Oblique-3bb"/>
     </g>
    </g>
   </g>
   <g id="matplotlib.axis_2">
    <g id="ytick_1">
     <g id="line2d_22">
      <defs>
       <path d="M 0 0 
L -3.5 0 
" id="macf4e744ed" style="stroke:#000000;stroke-width:0.8;"/>
      </defs>
      <g>
       <use style="stroke:#000000;stroke-width:0.8;" x="44.845313" xlink:href="#macf4e744ed" y="223.887489"/>
      </g>
     </g>
     <g id="text_5">
      <!-- −0.12 -->
      <defs>
       <path d="M 10.6875 12.40625 
L 21 12.40625 
L 21 0 
L 10.6875 0 
z
" id="DejaVuSans-2e"/>
      </defs>
      <g transform="translate(7.2 227.686707)scale(0.1 -0.1)">
       <use xlink:href="#DejaVuSans-2212"/>
       <use x="83.789062" xlink:href="#DejaVuSans-30"/>
       <use x="147.412109" xlink:href="#DejaVuSans-2e"/>
       <use x="179.199219" xlink:href="#DejaVuSans-31"/>
       <use x="242.822266" xlink:href="#DejaVuSans-32"/>
      </g>
     </g>
    </g>
    <g id="ytick_2">
     <g id="line2d_23">
      <g>
       <use style="stroke:#000000;stroke-width:0.8;" x="44.845313" xlink:href="#macf4e744ed" y="199.645239"/>
      </g>
     </g>
     <g id="text_6">
      <!-- −0.10 -->
      <g transform="translate(7.2 203.444458)scale(0.1 -0.1)">
       <use xlink:href="#DejaVuSans-2212"/>
       <use x="83.789062" xlink:href="#DejaVuSans-30"/>
       <use x="147.412109" xlink:href="#DejaVuSans-2e"/>
       <use x="179.199219" xlink:href="#DejaVuSans-31"/>
       <use x="242.822266" xlink:href="#DejaVuSans-30"/>
      </g>
     </g>
    </g>
    <g id="ytick_3">
     <g id="line2d_24">
      <g>
       <use style="stroke:#000000;stroke-width:0.8;" x="44.845313" xlink:href="#macf4e744ed" y="175.40299"/>
      </g>
     </g>
     <g id="text_7">
      <!-- −0.08 -->
      <defs>
       <path d="M 31.78125 34.625 
Q 24.75 34.625 20.71875 30.859375 
Q 16.703125 27.09375 16.703125 20.515625 
Q 16.703125 13.921875 20.71875 10.15625 
Q 24.75 6.390625 31.78125 6.390625 
Q 38.8125 6.390625 42.859375 10.171875 
Q 46.921875 13.96875 46.921875 20.515625 
Q 46.921875 27.09375 42.890625 30.859375 
Q 38.875 34.625 31.78125 34.625 
z
M 21.921875 38.8125 
Q 15.578125 40.375 12.03125 44.71875 
Q 8.5 49.078125 8.5 55.328125 
Q 8.5 64.0625 14.71875 69.140625 
Q 20.953125 74.21875 31.78125 74.21875 
Q 42.671875 74.21875 48.875 69.140625 
Q 55.078125 64.0625 55.078125 55.328125 
Q 55.078125 49.078125 51.53125 44.71875 
Q 48 40.375 41.703125 38.8125 
Q 48.828125 37.15625 52.796875 32.3125 
Q 56.78125 27.484375 56.78125 20.515625 
Q 56.78125 9.90625 50.3125 4.234375 
Q 43.84375 -1.421875 31.78125 -1.421875 
Q 19.734375 -1.421875 13.25 4.234375 
Q 6.78125 9.90625 6.78125 20.515625 
Q 6.78125 27.484375 10.78125 32.3125 
Q 14.796875 37.15625 21.921875 38.8125 
z
M 18.3125 54.390625 
Q 18.3125 48.734375 21.84375 45.5625 
Q 25.390625 42.390625 31.78125 42.390625 
Q 38.140625 42.390625 41.71875 45.5625 
Q 45.3125 48.734375 45.3125 54.390625 
Q 45.3125 60.0625 41.71875 63.234375 
Q 38.140625 66.40625 31.78125 66.40625 
Q 25.390625 66.40625 21.84375 63.234375 
Q 18.3125 60.0625 18.3125 54.390625 
z
" id="DejaVuSans-38"/>
      </defs>
      <g transform="translate(7.2 179.202209)scale(0.1 -0.1)">
       <use xlink:href="#DejaVuSans-2212"/>
       <use x="83.789062" xlink:href="#DejaVuSans-30"/>
       <use x="147.412109" xlink:href="#DejaVuSans-2e"/>
       <use x="179.199219" xlink:href="#DejaVuSans-30"/>
       <use x="242.822266" xlink:href="#DejaVuSans-38"/>
      </g>
     </g>
    </g>
    <g id="ytick_4">
     <g id="line2d_25">
      <g>
       <use style="stroke:#000000;stroke-width:0.8;" x="44.845313" xlink:href="#macf4e744ed" y="151.160741"/>
      </g>
     </g>
     <g id="text_8">
      <!-- −0.06 -->
      <defs>
       <path d="M 33.015625 40.375 
Q 26.375 40.375 22.484375 35.828125 
Q 18.609375 31.296875 18.609375 23.390625 
Q 18.609375 15.53125 22.484375 10.953125 
Q 26.375 6.390625 33.015625 6.390625 
Q 39.65625 6.390625 43.53125 10.953125 
Q 47.40625 15.53125 47.40625 23.390625 
Q 47.40625 31.296875 43.53125 35.828125 
Q 39.65625 40.375 33.015625 40.375 
z
M 52.59375 71.296875 
L 52.59375 62.3125 
Q 48.875 64.0625 45.09375 64.984375 
Q 41.3125 65.921875 37.59375 65.921875 
Q 27.828125 65.921875 22.671875 59.328125 
Q 17.53125 52.734375 16.796875 39.40625 
Q 19.671875 43.65625 24.015625 45.921875 
Q 28.375 48.1875 33.59375 48.1875 
Q 44.578125 48.1875 50.953125 41.515625 
Q 57.328125 34.859375 57.328125 23.390625 
Q 57.328125 12.15625 50.6875 5.359375 
Q 44.046875 -1.421875 33.015625 -1.421875 
Q 20.359375 -1.421875 13.671875 8.265625 
Q 6.984375 17.96875 6.984375 36.375 
Q 6.984375 53.65625 15.1875 63.9375 
Q 23.390625 74.21875 37.203125 74.21875 
Q 40.921875 74.21875 44.703125 73.484375 
Q 48.484375 72.75 52.59375 71.296875 
z
" id="DejaVuSans-36"/>
      </defs>
      <g transform="translate(7.2 154.95996)scale(0.1 -0.1)">
       <use xlink:href="#DejaVuSans-2212"/>
       <use x="83.789062" xlink:href="#DejaVuSans-30"/>
       <use x="147.412109" xlink:href="#DejaVuSans-2e"/>
       <use x="179.199219" xlink:href="#DejaVuSans-30"/>
       <use x="242.822266" xlink:href="#DejaVuSans-36"/>
      </g>
     </g>
    </g>
    <g id="ytick_5">
     <g id="line2d_26">
      <g>
       <use style="stroke:#000000;stroke-width:0.8;" x="44.845313" xlink:href="#macf4e744ed" y="126.918492"/>
      </g>
     </g>
     <g id="text_9">
      <!-- −0.04 -->
      <defs>
       <path d="M 37.796875 64.3125 
L 12.890625 25.390625 
L 37.796875 25.390625 
z
M 35.203125 72.90625 
L 47.609375 72.90625 
L 47.609375 25.390625 
L 58.015625 25.390625 
L 58.015625 17.1875 
L 47.609375 17.1875 
L 47.609375 0 
L 37.796875 0 
L 37.796875 17.1875 
L 4.890625 17.1875 
L 4.890625 26.703125 
z
" id="DejaVuSans-34"/>
      </defs>
      <g transform="translate(7.2 130.71771)scale(0.1 -0.1)">
       <use xlink:href="#DejaVuSans-2212"/>
       <use x="83.789062" xlink:href="#DejaVuSans-30"/>
       <use x="147.412109" xlink:href="#DejaVuSans-2e"/>
       <use x="179.199219" xlink:href="#DejaVuSans-30"/>
       <use x="242.822266" xlink:href="#DejaVuSans-34"/>
      </g>
     </g>
    </g>
    <g id="ytick_6">
     <g id="line2d_27">
      <g>
       <use style="stroke:#000000;stroke-width:0.8;" x="44.845313" xlink:href="#macf4e744ed" y="102.676242"/>
      </g>
     </g>
     <g id="text_10">
      <!-- −0.02 -->
      <g transform="translate(7.2 106.475461)scale(0.1 -0.1)">
       <use xlink:href="#DejaVuSans-2212"/>
       <use x="83.789062" xlink:href="#DejaVuSans-30"/>
       <use x="147.412109" xlink:href="#DejaVuSans-2e"/>
       <use x="179.199219" xlink:href="#DejaVuSans-30"/>
       <use x="242.822266" xlink:href="#DejaVuSans-32"/>
      </g>
     </g>
    </g>
    <g id="ytick_7">
     <g id="line2d_28">
      <g>
       <use style="stroke:#000000;stroke-width:0.8;" x="44.845313" xlink:href="#macf4e744ed" y="78.433993"/>
      </g>
     </g>
     <g id="text_11">
      <!-- 0.00 -->
      <g transform="translate(15.579688 82.233212)scale(0.1 -0.1)">
       <use xlink:href="#DejaVuSans-30"/>
       <use x="63.623047" xlink:href="#DejaVuSans-2e"/>
       <use x="95.410156" xlink:href="#DejaVuSans-30"/>
       <use x="159.033203" xlink:href="#DejaVuSans-30"/>
      </g>
     </g>
    </g>
    <g id="ytick_8">
     <g id="line2d_29">
      <g>
       <use style="stroke:#000000;stroke-width:0.8;" x="44.845313" xlink:href="#macf4e744ed" y="54.191744"/>
      </g>
     </g>
     <g id="text_12">
      <!-- 0.02 -->
      <g transform="translate(15.579688 57.990962)scale(0.1 -0.1)">
       <use xlink:href="#DejaVuSans-30"/>
       <use x="63.623047" xlink:href="#DejaVuSans-2e"/>
       <use x="95.410156" xlink:href="#DejaVuSans-30"/>
       <use x="159.033203" xlink:href="#DejaVuSans-32"/>
      </g>
     </g>
    </g>
    <g id="ytick_9">
     <g id="line2d_30">
      <g>
       <use style="stroke:#000000;stroke-width:0.8;" x="44.845313" xlink:href="#macf4e744ed" y="29.949494"/>
      </g>
     </g>
     <g id="text_13">
      <!-- 0.04 -->
      <g transform="translate(15.579688 33.748713)scale(0.1 -0.1)">
       <use xlink:href="#DejaVuSans-30"/>
       <use x="63.623047" xlink:href="#DejaVuSans-2e"/>
       <use x="95.410156" xlink:href="#DejaVuSans-30"/>
       <use x="159.033203" xlink:href="#DejaVuSans-34"/>
      </g>
     </g>
    </g>
   </g>
   <g id="line2d_31">
    <path clip-path="url(#p4f3b17a488)" d="M 60.063494 50.72891 
L 63.137874 50.553531 
L 66.212255 49.66326 
L 69.286635 50.276985 
L 72.361015 50.059538 
L 75.435395 50.554541 
L 78.509775 51.38649 
L 81.584155 51.544446 
L 84.658536 51.429629 
L 87.732916 50.952571 
L 90.807296 51.556002 
L 93.881676 51.129151 
L 96.956056 51.693729 
L 100.030436 51.59062 
L 103.104817 51.336445 
L 106.179197 51.387548 
L 109.253577 51.199209 
L 112.327957 51.348856 
L 115.402337 50.6164 
L 118.476717 50.518703 
L 121.551098 50.672233 
L 124.625478 50.837334 
L 127.699858 50.39 
L 130.774238 50.858344 
L 133.848618 53.266875 
L 136.922998 52.75768 
L 139.997379 52.967337 
L 143.071759 52.345478 
L 146.146139 54.300942 
L 149.220519 53.536232 
L 152.294899 53.339079 
L 155.369279 54.121686 
L 158.44366 54.809605 
L 161.51804 54.134441 
L 164.59242 52.711701 
L 167.6668 55.748285 
L 170.74118 55.726534 
L 173.81556 55.907188 
L 176.889941 55.749781 
L 179.964321 57.398307 
L 183.038701 57.621689 
L 186.113081 58.533937 
L 189.187461 60.706415 
L 192.261841 61.380896 
L 195.336222 63.267772 
L 198.410602 64.485633 
L 201.484982 62.400102 
L 204.559362 63.471131 
L 207.633742 64.707944 
L 210.708122 65.282315 
L 213.782503 66.10401 
L 216.856883 65.845419 
L 219.931263 65.857196 
L 223.005643 67.402693 
L 226.080023 69.758702 
L 229.154403 69.107076 
L 232.228784 69.175976 
L 235.303164 69.704208 
L 238.377544 69.848839 
L 241.451924 70.782606 
L 244.526304 75.96524 
L 247.600684 76.923851 
L 250.675065 78.396697 
L 253.749445 78.227201 
L 256.823825 78.164733 
L 259.898205 77.81494 
L 262.972585 78.27033 
L 266.046965 78.227416 
L 269.121346 77.713796 
L 272.195726 77.661269 
L 275.270106 78.006038 
L 278.344486 78.195895 
L 281.418866 78.723533 
L 284.493246 76.782313 
L 287.567627 77.224593 
L 290.642007 78.076569 
L 293.716387 77.01245 
L 296.790767 76.501119 
L 299.865147 81.407446 
L 302.939527 80.198814 
L 306.013908 78.465627 
L 309.088288 76.752067 
L 312.162668 80.099504 
L 315.237048 80.946706 
L 318.311428 77.451624 
L 321.385808 77.671623 
L 324.460189 77.95405 
L 327.534569 78.268185 
L 330.608949 78.836293 
L 333.683329 78.850677 
L 336.757709 78.807574 
L 339.832089 78.511917 
L 342.90647 78.183601 
L 345.98085 77.865291 
L 349.05523 78.112052 
L 352.12961 78.303706 
L 355.20399 78.574179 
L 358.27837 78.986935 
L 361.352751 79.162317 
L 364.427131 79.358162 
" style="fill:none;stroke:#1f77b4;stroke-linecap:square;stroke-width:1.5;"/>
   </g>
   <g id="line2d_32">
    <path clip-path="url(#p4f3b17a488)" d="M 60.063494 55.894146 
L 63.137874 56.450725 
L 66.212255 58.053241 
L 69.286635 56.844385 
L 72.361015 58.469447 
L 75.435395 58.953794 
L 78.509775 59.854321 
L 81.584155 60.076357 
L 84.658536 60.327818 
L 87.732916 60.26813 
L 90.807296 60.804554 
L 93.881676 60.605953 
L 96.956056 61.307352 
L 100.030436 61.82626 
L 103.104817 61.220535 
L 106.179197 61.351855 
L 109.253577 61.652665 
L 112.327957 61.3388 
L 115.402337 61.446242 
L 118.476717 61.418821 
L 121.551098 61.754494 
L 124.625478 60.872284 
L 127.699858 60.484922 
L 130.774238 62.235714 
L 133.848618 62.402603 
L 136.922998 62.625348 
L 139.997379 62.352033 
L 143.071759 62.371361 
L 146.146139 61.471176 
L 149.220519 60.926795 
L 152.294899 60.479685 
L 155.369279 61.311733 
L 158.44366 62.139791 
L 161.51804 63.977434 
L 164.59242 65.431434 
L 167.6668 66.589252 
L 170.74118 66.201498 
L 173.81556 68.099671 
L 176.889941 68.701958 
L 179.964321 71.270187 
L 183.038701 71.783266 
L 186.113081 72.455475 
L 189.187461 76.663223 
L 192.261841 78.023933 
L 195.336222 78.603473 
L 198.410602 78.9546 
L 201.484982 77.413657 
L 204.559362 77.729773 
L 207.633742 78.308699 
L 210.708122 78.181986 
L 213.782503 78.39631 
L 216.856883 78.757115 
L 219.931263 78.714206 
L 223.005643 80.060274 
L 226.080023 79.220984 
L 229.154403 78.872642 
L 232.228784 79.16023 
L 235.303164 78.618396 
L 238.377544 78.083113 
L 241.451924 77.180215 
L 244.526304 77.994024 
L 247.600684 78.312945 
L 250.675065 78.461557 
L 253.749445 78.201363 
L 256.823825 78.497006 
L 259.898205 78.748954 
L 262.972585 77.687767 
L 266.046965 77.646538 
L 269.121346 77.507787 
L 272.195726 77.90545 
L 275.270106 79.25723 
L 278.344486 80.65009 
L 281.418866 77.460141 
L 284.493246 79.053035 
L 287.567627 79.214902 
L 290.642007 79.751814 
L 293.716387 77.538308 
L 296.790767 77.186484 
L 299.865147 79.296972 
L 302.939527 78.905913 
L 306.013908 77.904604 
L 309.088288 77.074861 
L 312.162668 79.103443 
L 315.237048 78.028645 
L 318.311428 78.386106 
L 321.385808 78.452336 
L 324.460189 78.536606 
L 327.534569 78.608935 
L 330.608949 78.508384 
L 333.683329 78.46436 
L 336.757709 78.455182 
L 339.832089 78.751953 
L 342.90647 78.951969 
L 345.98085 78.731492 
L 349.05523 78.215475 
L 352.12961 78.12139 
L 355.20399 78.154884 
L 358.27837 78.723825 
L 361.352751 79.042805 
L 364.427131 79.03421 
" style="fill:none;stroke:#ff7f0e;stroke-linecap:square;stroke-width:1.5;"/>
   </g>
   <g id="line2d_33">
    <path clip-path="url(#p4f3b17a488)" d="M 60.063494 98.383951 
L 63.137874 98.301326 
L 66.212255 97.676241 
L 69.286635 97.267742 
L 72.361015 96.722658 
L 75.435395 96.960973 
L 78.509775 98.066493 
L 81.584155 98.104878 
L 84.658536 98.152633 
L 87.732916 98.514161 
L 90.807296 98.994693 
L 93.881676 98.082852 
L 96.956056 97.318717 
L 100.030436 97.292806 
L 103.104817 97.349294 
L 106.179197 97.751159 
L 109.253577 97.307045 
L 112.327957 97.315785 
L 115.402337 97.303075 
L 118.476717 97.144079 
L 121.551098 96.417133 
L 124.625478 96.547205 
L 127.699858 96.962502 
L 130.774238 97.760967 
L 133.848618 96.279675 
L 136.922998 96.592104 
L 139.997379 96.384418 
L 143.071759 96.796199 
L 146.146139 98.116945 
L 149.220519 96.921775 
L 152.294899 95.734537 
L 155.369279 95.859887 
L 158.44366 95.543377 
L 161.51804 95.453692 
L 164.59242 94.539443 
L 167.6668 94.103417 
L 170.74118 93.345986 
L 173.81556 92.714784 
L 176.889941 91.829063 
L 179.964321 92.562284 
L 183.038701 92.142388 
L 186.113081 92.058654 
L 189.187461 90.891983 
L 192.261841 90.694133 
L 195.336222 87.857808 
L 198.410602 85.921412 
L 201.484982 84.510488 
L 204.559362 82.731086 
L 207.633742 81.724576 
L 210.708122 81.687394 
L 213.782503 81.979183 
L 216.856883 81.722037 
L 219.931263 82.063589 
L 223.005643 81.066835 
L 226.080023 80.018352 
L 229.154403 80.173457 
L 232.228784 80.327549 
L 235.303164 80.221791 
L 238.377544 79.979569 
L 241.451924 79.143531 
L 244.526304 79.17208 
L 247.600684 79.844087 
L 250.675065 79.423179 
L 253.749445 78.968249 
L 256.823825 78.274741 
L 259.898205 78.258291 
L 262.972585 78.320873 
L 266.046965 77.872611 
L 269.121346 78.739518 
L 272.195726 78.706896 
L 275.270106 78.827337 
L 278.344486 78.049152 
L 281.418866 77.611896 
L 284.493246 79.338774 
L 287.567627 79.555768 
L 290.642007 78.757343 
L 293.716387 76.445721 
L 296.790767 77.740486 
L 299.865147 77.455386 
L 302.939527 77.63757 
L 306.013908 79.347258 
L 309.088288 80.191044 
L 312.162668 77.318359 
L 315.237048 75.883989 
L 318.311428 80.000263 
L 321.385808 79.355514 
L 324.460189 78.586015 
L 327.534569 77.872985 
L 330.608949 76.516857 
L 333.683329 78.59047 
L 336.757709 79.063911 
L 339.832089 79.655652 
L 342.90647 79.571325 
L 345.98085 79.141834 
L 349.05523 78.407276 
L 352.12961 78.276767 
L 355.20399 78.187217 
L 358.27837 78.261273 
L 361.352751 78.194085 
L 364.427131 78.153711 
" style="fill:none;stroke:#2ca02c;stroke-linecap:square;stroke-width:1.5;"/>
   </g>
   <g id="line2d_34">
    <path clip-path="url(#p4f3b17a488)" d="M 60.063494 89.920662 
L 63.137874 89.032772 
L 66.212255 88.368163 
L 69.286635 89.570427 
L 72.361015 89.290611 
L 75.435395 89.630978 
L 78.509775 89.739135 
L 81.584155 88.892591 
L 84.658536 88.197156 
L 87.732916 86.861049 
L 90.807296 87.344537 
L 93.881676 87.253414 
L 96.956056 85.877554 
L 100.030436 86.112479 
L 103.104817 86.22046 
L 106.179197 86.316482 
L 109.253577 85.680593 
L 112.327957 85.915735 
L 115.402337 86.059594 
L 118.476717 85.732699 
L 121.551098 85.872717 
L 124.625478 84.569247 
L 127.699858 84.843941 
L 130.774238 82.78549 
L 133.848618 83.067918 
L 136.922998 80.961515 
L 139.997379 80.593049 
L 143.071759 80.967986 
L 146.146139 80.325158 
L 149.220519 79.803111 
L 152.294899 79.007495 
L 155.369279 78.332052 
L 158.44366 78.760462 
L 161.51804 78.879374 
L 164.59242 78.395555 
L 167.6668 78.723573 
L 170.74118 78.392249 
L 173.81556 78.714882 
L 176.889941 78.715202 
L 179.964321 77.590259 
L 183.038701 78.189095 
L 186.113081 77.860796 
L 189.187461 77.988487 
L 192.261841 77.930555 
L 195.336222 79.635541 
L 198.410602 78.528189 
L 201.484982 78.08997 
L 204.559362 79.251809 
L 207.633742 79.421272 
L 210.708122 79.263485 
L 213.782503 78.031324 
L 216.856883 79.098132 
L 219.931263 77.851793 
L 223.005643 78.579014 
L 226.080023 77.797657 
L 229.154403 78.73168 
L 232.228784 78.450975 
L 235.303164 77.989964 
L 238.377544 77.402047 
L 241.451924 77.854987 
L 244.526304 78.69554 
L 247.600684 78.943529 
L 250.675065 79.27621 
L 253.749445 79.82216 
L 256.823825 79.96575 
L 259.898205 78.302789 
L 262.972585 77.826639 
L 266.046965 78.200562 
L 269.121346 78.057897 
L 272.195726 77.112595 
L 275.270106 78.432567 
L 278.344486 80.360143 
L 281.418866 79.17355 
L 284.493246 77.459762 
L 287.567627 78.440091 
L 290.642007 80.302006 
L 293.716387 79.527538 
L 296.790767 79.839465 
L 299.865147 76.426933 
L 302.939527 79.978143 
L 306.013908 79.762618 
L 309.088288 78.484578 
L 312.162668 77.618068 
L 315.237048 80.675059 
L 318.311428 76.414507 
L 321.385808 77.085231 
L 324.460189 77.922838 
L 327.534569 78.777479 
L 330.608949 80.229501 
L 333.683329 77.767613 
L 336.757709 77.245198 
L 339.832089 76.581552 
L 342.90647 76.887651 
L 345.98085 77.856133 
L 349.05523 79.496883 
L 352.12961 79.843214 
L 355.20399 80.229249 
L 358.27837 80.352205 
L 361.352751 79.376318 
L 364.427131 77.881478 
" style="fill:none;stroke:#d62728;stroke-linecap:square;stroke-width:1.5;"/>
   </g>
   <g id="line2d_35">
    <path clip-path="url(#p4f3b17a488)" d="M 60.063494 20.708405 
L 63.137874 21.923176 
L 66.212255 22.703956 
L 69.286635 21.841235 
L 72.361015 20.583636 
L 75.435395 20.642477 
L 78.509775 20.672181 
L 81.584155 21.006194 
L 84.658536 21.860131 
L 87.732916 22.668204 
L 90.807296 22.22821 
L 93.881676 22.118675 
L 96.956056 22.844914 
L 100.030436 23.051636 
L 103.104817 22.656436 
L 106.179197 22.731022 
L 109.253577 22.943762 
L 112.327957 22.980971 
L 115.402337 22.606972 
L 118.476717 22.569311 
L 121.551098 22.694291 
L 124.625478 23.11245 
L 127.699858 23.478911 
L 130.774238 25.695365 
L 133.848618 26.096894 
L 136.922998 26.666064 
L 139.997379 26.419787 
L 143.071759 25.208611 
L 146.146139 25.70257 
L 149.220519 26.348237 
L 152.294899 26.66037 
L 155.369279 27.639469 
L 158.44366 28.297859 
L 161.51804 30.765145 
L 164.59242 29.864336 
L 167.6668 30.255247 
L 170.74118 29.706805 
L 173.81556 29.528276 
L 176.889941 29.283523 
L 179.964321 29.330975 
L 183.038701 29.718029 
L 186.113081 29.33255 
L 189.187461 29.649537 
L 192.261841 29.266806 
L 195.336222 27.076572 
L 198.410602 26.593507 
L 201.484982 25.979951 
L 204.559362 25.513969 
L 207.633742 25.229685 
L 210.708122 25.122388 
L 213.782503 25.595612 
L 216.856883 25.333205 
L 219.931263 26.047872 
L 223.005643 27.020918 
L 226.080023 25.6569 
L 229.154403 25.929192 
L 232.228784 26.111326 
L 235.303164 25.836941 
L 238.377544 26.401188 
L 241.451924 27.652584 
L 244.526304 31.615542 
L 247.600684 32.572838 
L 250.675065 33.595743 
L 253.749445 34.32841 
L 256.823825 34.795918 
L 259.898205 36.979019 
L 262.972585 41.539593 
L 266.046965 42.27247 
L 269.121346 44.499036 
L 272.195726 45.538227 
L 275.270106 46.855705 
L 278.344486 48.243827 
L 281.418866 49.79657 
L 284.493246 50.986147 
L 287.567627 51.832 
L 290.642007 56.764321 
L 293.716387 60.237016 
L 296.790767 62.528523 
L 299.865147 70.479704 
L 302.939527 70.735407 
L 306.013908 72.055748 
L 309.088288 74.989634 
L 312.162668 80.151461 
L 315.237048 77.532469 
L 318.311428 80.030146 
L 321.385808 79.469199 
L 324.460189 78.729822 
L 327.534569 77.920888 
L 330.608949 76.30367 
L 333.683329 79.423296 
L 336.757709 79.959023 
L 339.832089 80.293255 
L 342.90647 79.616686 
L 345.98085 78.183511 
L 349.05523 76.683527 
L 352.12961 76.73884 
L 355.20399 76.994852 
L 358.27837 78.613485 
L 361.352751 80.001806 
L 364.427131 80.382355 
" style="fill:none;stroke:#9467bd;stroke-linecap:square;stroke-width:1.5;"/>
   </g>
   <g id="line2d_36">
    <path clip-path="url(#p4f3b17a488)" d="M 60.063494 113.628876 
L 63.137874 113.929212 
L 66.212255 112.102573 
L 69.286635 112.524958 
L 72.361015 109.525376 
L 75.435395 109.489359 
L 78.509775 108.672073 
L 81.584155 108.238773 
L 84.658536 108.373668 
L 87.732916 108.234866 
L 90.807296 107.807374 
L 93.881676 107.885412 
L 96.956056 107.67264 
L 100.030436 107.269928 
L 103.104817 107.24525 
L 106.179197 107.483451 
L 109.253577 107.125235 
L 112.327957 107.68853 
L 115.402337 107.31723 
L 118.476717 107.394786 
L 121.551098 107.373957 
L 124.625478 107.11166 
L 127.699858 107.390091 
L 130.774238 107.31045 
L 133.848618 107.665796 
L 136.922998 107.821929 
L 139.997379 107.950753 
L 143.071759 107.76398 
L 146.146139 109.12935 
L 149.220519 108.764853 
L 152.294899 107.897985 
L 155.369279 107.23663 
L 158.44366 106.383331 
L 161.51804 107.253273 
L 164.59242 107.664553 
L 167.6668 109.231643 
L 170.74118 108.962157 
L 173.81556 107.502494 
L 176.889941 106.845912 
L 179.964321 105.266584 
L 183.038701 104.92568 
L 186.113081 105.467428 
L 189.187461 103.622623 
L 192.261841 103.534477 
L 195.336222 103.342076 
L 198.410602 101.21234 
L 201.484982 97.222908 
L 204.559362 97.71572 
L 207.633742 97.22176 
L 210.708122 97.457582 
L 213.782503 97.230732 
L 216.856883 95.666955 
L 219.931263 93.217164 
L 223.005643 93.983829 
L 226.080023 96.045886 
L 229.154403 95.941517 
L 232.228784 95.500438 
L 235.303164 94.314061 
L 238.377544 92.252409 
L 241.451924 88.947983 
L 244.526304 82.77357 
L 247.600684 82.412271 
L 250.675065 81.300669 
L 253.749445 80.262586 
L 256.823825 80.14061 
L 259.898205 79.579851 
L 262.972585 78.771152 
L 266.046965 78.48741 
L 269.121346 77.999557 
L 272.195726 78.331676 
L 275.270106 78.568132 
L 278.344486 78.529608 
L 281.418866 78.54151 
L 284.493246 78.444351 
L 287.567627 78.316645 
L 290.642007 79.039434 
L 293.716387 77.839011 
L 296.790767 78.28742 
L 299.865147 77.814248 
L 302.939527 78.856227 
L 306.013908 79.71244 
L 309.088288 80.507 
L 312.162668 77.539907 
L 315.237048 76.805424 
L 318.311428 77.751271 
L 321.385808 78.053378 
L 324.460189 78.393304 
L 327.534569 78.73929 
L 330.608949 79.348986 
L 333.683329 78.504149 
L 336.757709 78.285483 
L 339.832089 78.067545 
L 342.90647 78.022657 
L 345.98085 78.054815 
L 349.05523 78.315649 
L 352.12961 78.509705 
L 355.20399 78.620092 
L 358.27837 78.759767 
L 361.352751 78.823378 
L 364.427131 78.819066 
" style="fill:none;stroke:#8c564b;stroke-linecap:square;stroke-width:1.5;"/>
   </g>
   <g id="line2d_37">
    <path clip-path="url(#p4f3b17a488)" d="M 60.063494 68.837975 
L 63.137874 69.993007 
L 66.212255 70.08944 
L 69.286635 69.051233 
L 72.361015 70.936184 
L 75.435395 71.578767 
L 78.509775 72.286722 
L 81.584155 72.653604 
L 84.658536 73.478911 
L 87.732916 74.693648 
L 90.807296 74.392923 
L 93.881676 73.437628 
L 96.956056 74.899714 
L 100.030436 75.136746 
L 103.104817 74.924065 
L 106.179197 75.225721 
L 109.253577 74.560895 
L 112.327957 74.791407 
L 115.402337 74.750831 
L 118.476717 74.438897 
L 121.551098 74.059487 
L 124.625478 73.831613 
L 127.699858 74.629079 
L 130.774238 79.325806 
L 133.848618 78.920566 
L 136.922998 78.179199 
L 139.997379 78.018669 
L 143.071759 77.293263 
L 146.146139 78.859269 
L 149.220519 78.848897 
L 152.294899 78.503642 
L 155.369279 78.313538 
L 158.44366 77.904724 
L 161.51804 78.583426 
L 164.59242 77.902869 
L 167.6668 78.778903 
L 170.74118 77.988979 
L 173.81556 77.780143 
L 176.889941 78.029986 
L 179.964321 78.699845 
L 183.038701 76.817233 
L 186.113081 77.820625 
L 189.187461 78.316709 
L 192.261841 77.732697 
L 195.336222 78.030286 
L 198.410602 78.218713 
L 201.484982 79.682864 
L 204.559362 79.110054 
L 207.633742 79.045195 
L 210.708122 79.052832 
L 213.782503 78.08819 
L 216.856883 78.180422 
L 219.931263 77.789663 
L 223.005643 78.756873 
L 226.080023 78.722997 
L 229.154403 79.330754 
L 232.228784 78.924739 
L 235.303164 78.310976 
L 238.377544 77.98663 
L 241.451924 78.722234 
L 244.526304 78.663385 
L 247.600684 77.943404 
L 250.675065 77.865767 
L 253.749445 79.728488 
L 256.823825 79.990336 
L 259.898205 81.254405 
L 262.972585 76.700859 
L 266.046965 77.141557 
L 269.121346 78.325776 
L 272.195726 77.726294 
L 275.270106 77.507235 
L 278.344486 77.75125 
L 281.418866 80.149592 
L 284.493246 77.825053 
L 287.567627 78.177645 
L 290.642007 80.120414 
L 293.716387 78.336257 
L 296.790767 77.362553 
L 299.865147 76.982296 
L 302.939527 78.868116 
L 306.013908 78.798883 
L 309.088288 78.436969 
L 312.162668 77.964401 
L 315.237048 79.320861 
L 318.311428 76.271448 
L 321.385808 76.927691 
L 324.460189 77.741093 
L 327.534569 78.668563 
L 330.608949 80.861398 
L 333.683329 77.892918 
L 336.757709 77.031175 
L 339.832089 76.133501 
L 342.90647 76.575634 
L 345.98085 77.905243 
L 349.05523 80.227257 
L 352.12961 80.774635 
L 355.20399 81.014888 
L 358.27837 79.611193 
L 361.352751 77.932585 
L 364.427131 76.531446 
" style="fill:none;stroke:#e377c2;stroke-linecap:square;stroke-width:1.5;"/>
   </g>
   <g id="line2d_38">
    <path clip-path="url(#p4f3b17a488)" d="M 60.063494 96.154725 
L 63.137874 96.736952 
L 66.212255 95.346108 
L 69.286635 95.350765 
L 72.361015 93.599973 
L 75.435395 93.264481 
L 78.509775 91.601567 
L 81.584155 91.151285 
L 84.658536 91.845981 
L 87.732916 93.828261 
L 90.807296 92.349001 
L 93.881676 92.75708 
L 96.956056 92.812115 
L 100.030436 93.112884 
L 103.104817 92.933683 
L 106.179197 92.65191 
L 109.253577 92.872432 
L 112.327957 92.622226 
L 115.402337 92.976338 
L 118.476717 93.509997 
L 121.551098 92.841345 
L 124.625478 93.50069 
L 127.699858 93.91012 
L 130.774238 94.743653 
L 133.848618 93.620797 
L 136.922998 92.944858 
L 139.997379 93.341664 
L 143.071759 91.356711 
L 146.146139 91.170925 
L 149.220519 91.34924 
L 152.294899 90.676616 
L 155.369279 90.606797 
L 158.44366 89.326231 
L 161.51804 89.013557 
L 164.59242 86.003899 
L 167.6668 86.174481 
L 170.74118 85.639206 
L 173.81556 82.716673 
L 176.889941 81.727274 
L 179.964321 80.377953 
L 183.038701 79.719275 
L 186.113081 78.753725 
L 189.187461 77.817727 
L 192.261841 77.805204 
L 195.336222 78.418022 
L 198.410602 78.051981 
L 201.484982 77.792536 
L 204.559362 78.411948 
L 207.633742 79.64573 
L 210.708122 78.922957 
L 213.782503 78.613467 
L 216.856883 79.169829 
L 219.931263 78.713948 
L 223.005643 78.730636 
L 226.080023 77.732766 
L 229.154403 78.83534 
L 232.228784 78.827876 
L 235.303164 78.772259 
L 238.377544 78.612838 
L 241.451924 78.384957 
L 244.526304 78.749842 
L 247.600684 77.56641 
L 250.675065 78.18796 
L 253.749445 78.62608 
L 256.823825 78.965802 
L 259.898205 79.227296 
L 262.972585 78.741722 
L 266.046965 78.722194 
L 269.121346 78.111278 
L 272.195726 78.173229 
L 275.270106 78.061625 
L 278.344486 77.559492 
L 281.418866 79.570233 
L 284.493246 78.578746 
L 287.567627 77.951836 
L 290.642007 78.253325 
L 293.716387 78.458536 
L 296.790767 78.364147 
L 299.865147 77.956519 
L 302.939527 78.425646 
L 306.013908 78.465383 
L 309.088288 78.309577 
L 312.162668 80.173966 
L 315.237048 78.887047 
L 318.311428 80.236961 
L 321.385808 79.758331 
L 324.460189 79.129213 
L 327.534569 78.43416 
L 330.608949 77.060474 
L 333.683329 79.080206 
L 336.757709 79.47972 
L 339.832089 79.620004 
L 342.90647 79.135036 
L 345.98085 78.255529 
L 349.05523 77.414617 
L 352.12961 77.419472 
L 355.20399 77.507648 
L 358.27837 78.280238 
L 361.352751 78.939232 
L 364.427131 79.276807 
" style="fill:none;stroke:#7f7f7f;stroke-linecap:square;stroke-width:1.5;"/>
   </g>
   <g id="line2d_39">
    <path clip-path="url(#p4f3b17a488)" d="M 60.063494 78.866064 
L 63.137874 79.415098 
L 66.212255 78.69303 
L 69.286635 78.797443 
L 72.361015 78.190282 
L 75.435395 78.347545 
L 78.509775 79.051612 
L 81.584155 79.087284 
L 84.658536 79.374697 
L 87.732916 79.646124 
L 90.807296 78.930243 
L 93.881676 79.026534 
L 96.956056 78.324287 
L 100.030436 78.671911 
L 103.104817 78.458533 
L 106.179197 78.273626 
L 109.253577 78.086836 
L 112.327957 78.412523 
L 115.402337 78.280484 
L 118.476717 78.398016 
L 121.551098 78.153674 
L 124.625478 78.522035 
L 127.699858 78.180359 
L 130.774238 79.095969 
L 133.848618 78.295389 
L 136.922998 78.089266 
L 139.997379 78.575127 
L 143.071759 79.049164 
L 146.146139 78.457092 
L 149.220519 78.57611 
L 152.294899 79.132835 
L 155.369279 77.994291 
L 158.44366 78.669784 
L 161.51804 78.70303 
L 164.59242 78.913092 
L 167.6668 78.342223 
L 170.74118 77.256539 
L 173.81556 78.096515 
L 176.889941 78.405641 
L 179.964321 79.233386 
L 183.038701 77.932096 
L 186.113081 78.305076 
L 189.187461 78.31912 
L 192.261841 79.325733 
L 195.336222 78.775007 
L 198.410602 78.617774 
L 201.484982 78.886366 
L 204.559362 78.097326 
L 207.633742 78.576519 
L 210.708122 78.7316 
L 213.782503 79.474226 
L 216.856883 78.047485 
L 219.931263 79.201108 
L 223.005643 78.725967 
L 226.080023 77.2792 
L 229.154403 78.097061 
L 232.228784 78.600693 
L 235.303164 79.025762 
L 238.377544 79.121397 
L 241.451924 78.743893 
L 244.526304 78.360601 
L 247.600684 80.084276 
L 250.675065 79.026654 
L 253.749445 77.836611 
L 256.823825 77.543178 
L 259.898205 77.8111 
L 262.972585 78.923467 
L 266.046965 78.239034 
L 269.121346 77.33894 
L 272.195726 78.481252 
L 275.270106 79.560577 
L 278.344486 79.337898 
L 281.418866 79.275055 
L 284.493246 78.453282 
L 287.567627 78.256248 
L 290.642007 78.010126 
L 293.716387 77.828388 
L 296.790767 77.353676 
L 299.865147 80.358867 
L 302.939527 78.573198 
L 306.013908 76.90508 
L 309.088288 75.4317 
L 312.162668 80.313388 
L 315.237048 81.923051 
L 318.311428 76.693006 
L 321.385808 77.127486 
L 324.460189 77.716754 
L 327.534569 78.436414 
L 330.608949 80.446105 
L 333.683329 78.438681 
L 336.757709 77.630116 
L 339.832089 76.419319 
L 342.90647 76.26304 
L 345.98085 77.118717 
L 349.05523 79.275009 
L 352.12961 79.870503 
L 355.20399 80.271546 
L 358.27837 80.071199 
L 361.352751 78.937056 
L 364.427131 77.558991 
" style="fill:none;stroke:#bcbd22;stroke-linecap:square;stroke-width:1.5;"/>
   </g>
   <g id="line2d_40">
    <path clip-path="url(#p4f3b17a488)" d="M 60.063494 138.975491 
L 63.137874 138.838134 
L 66.212255 138.670944 
L 69.286635 139.463501 
L 72.361015 138.913171 
L 75.435395 139.008124 
L 78.509775 138.194048 
L 81.584155 137.785525 
L 84.658536 137.845231 
L 87.732916 137.306328 
L 90.807296 137.196352 
L 93.881676 137.004699 
L 96.956056 137.86707 
L 100.030436 138.156721 
L 103.104817 137.719881 
L 106.179197 137.215452 
L 109.253577 138.21391 
L 112.327957 137.663052 
L 115.402337 137.792848 
L 118.476717 137.979946 
L 121.551098 138.267705 
L 124.625478 137.767062 
L 127.699858 137.011303 
L 130.774238 136.38456 
L 133.848618 136.268945 
L 136.922998 136.801849 
L 139.997379 136.64454 
L 143.071759 136.614138 
L 146.146139 135.030413 
L 149.220519 135.757208 
L 152.294899 137.006072 
L 155.369279 137.319313 
L 158.44366 137.624691 
L 161.51804 135.162788 
L 164.59242 135.480159 
L 167.6668 133.377775 
L 170.74118 133.620238 
L 173.81556 134.094612 
L 176.889941 135.176056 
L 179.964321 135.391158 
L 183.038701 135.391573 
L 186.113081 136.376291 
L 189.187461 133.516221 
L 192.261841 132.745792 
L 195.336222 131.878129 
L 198.410602 131.306214 
L 201.484982 131.478633 
L 204.559362 131.667619 
L 207.633742 133.1353 
L 210.708122 133.580465 
L 213.782503 133.682074 
L 216.856883 133.900174 
L 219.931263 132.31308 
L 223.005643 132.238701 
L 226.080023 128.864678 
L 229.154403 127.303819 
L 232.228784 127.255762 
L 235.303164 126.970856 
L 238.377544 126.316622 
L 241.451924 125.228315 
L 244.526304 120.365728 
L 247.600684 120.43219 
L 250.675065 119.365335 
L 253.749445 117.958865 
L 256.823825 117.145117 
L 259.898205 114.23658 
L 262.972585 113.489785 
L 266.046965 111.924847 
L 269.121346 107.814543 
L 272.195726 105.185873 
L 275.270106 102.905453 
L 278.344486 101.979577 
L 281.418866 98.168384 
L 284.493246 97.58898 
L 287.567627 97.008046 
L 290.642007 92.626994 
L 293.716387 85.537901 
L 296.790767 83.961573 
L 299.865147 80.629967 
L 302.939527 82.962459 
L 306.013908 82.666214 
L 309.088288 80.171881 
L 312.162668 75.379608 
L 315.237048 78.59396 
L 318.311428 77.550598 
L 321.385808 77.708913 
L 324.460189 77.997382 
L 327.534569 78.377022 
L 330.608949 79.104096 
L 333.683329 78.047833 
L 336.757709 77.860337 
L 339.832089 77.815618 
L 342.90647 78.094536 
L 345.98085 78.678847 
L 349.05523 79.345868 
L 352.12961 79.306076 
L 355.20399 79.254493 
L 358.27837 78.612315 
L 361.352751 78.303523 
L 364.427131 78.356863 
" style="fill:none;stroke:#17becf;stroke-linecap:square;stroke-width:1.5;"/>
   </g>
   <g id="line2d_41">
    <path clip-path="url(#p4f3b17a488)" d="M 60.063494 93.987001 
L 63.137874 93.598801 
L 66.212255 93.861498 
L 69.286635 94.37936 
L 72.361015 94.560573 
L 75.435395 94.607106 
L 78.509775 95.94538 
L 81.584155 96.187858 
L 84.658536 96.510552 
L 87.732916 96.233077 
L 90.807296 96.614294 
L 93.881676 95.88441 
L 96.956056 94.297837 
L 100.030436 94.308304 
L 103.104817 94.239292 
L 106.179197 94.061376 
L 109.253577 93.689261 
L 112.327957 93.982378 
L 115.402337 93.626193 
L 118.476717 93.329374 
L 121.551098 93.663184 
L 124.625478 93.491809 
L 127.699858 92.376241 
L 130.774238 91.309618 
L 133.848618 90.478539 
L 136.922998 90.532552 
L 139.997379 90.602419 
L 143.071759 89.771504 
L 146.146139 89.12497 
L 149.220519 88.762921 
L 152.294899 88.639906 
L 155.369279 88.979812 
L 158.44366 88.352286 
L 161.51804 87.702648 
L 164.59242 87.440359 
L 167.6668 89.26037 
L 170.74118 90.153354 
L 173.81556 90.644383 
L 176.889941 89.749452 
L 179.964321 89.641905 
L 183.038701 89.748482 
L 186.113081 88.68314 
L 189.187461 87.725769 
L 192.261841 88.286508 
L 195.336222 87.35002 
L 198.410602 85.403096 
L 201.484982 84.358813 
L 204.559362 82.962179 
L 207.633742 83.667996 
L 210.708122 83.651247 
L 213.782503 84.614708 
L 216.856883 85.179735 
L 219.931263 85.350504 
L 223.005643 82.650264 
L 226.080023 78.877248 
L 229.154403 80.326428 
L 232.228784 79.883196 
L 235.303164 79.479788 
L 238.377544 79.04768 
L 241.451924 78.967229 
L 244.526304 78.589858 
L 247.600684 78.41034 
L 250.675065 78.429886 
L 253.749445 78.133118 
L 256.823825 78.032701 
L 259.898205 79.36352 
L 262.972585 79.191966 
L 266.046965 79.147121 
L 269.121346 78.510485 
L 272.195726 77.841016 
L 275.270106 78.305447 
L 278.344486 79.575433 
L 281.418866 77.04702 
L 284.493246 79.439 
L 287.567627 79.420172 
L 290.642007 78.503985 
L 293.716387 75.380683 
L 296.790767 76.957916 
L 299.865147 77.608726 
L 302.939527 77.024703 
L 306.013908 77.760987 
L 309.088288 79.197364 
L 312.162668 80.17379 
L 315.237048 78.302322 
L 318.311428 78.675095 
L 321.385808 78.593389 
L 324.460189 78.507759 
L 327.534569 78.417943 
L 330.608949 78.094505 
L 333.683329 78.974034 
L 336.757709 79.075215 
L 339.832089 79.004244 
L 342.90647 78.408461 
L 345.98085 77.658902 
L 349.05523 77.368909 
L 352.12961 77.649101 
L 355.20399 78.066206 
L 358.27837 79.297594 
L 361.352751 79.472297 
L 364.427131 79.160128 
" style="fill:none;stroke:#1f77b4;stroke-linecap:square;stroke-width:1.5;"/>
   </g>
   <g id="line2d_42">
    <path clip-path="url(#p4f3b17a488)" d="M 60.063494 216.640023 
L 63.137874 216.218187 
L 66.212255 216.82599 
L 69.286635 216.926512 
L 72.361015 216.903077 
L 75.435395 217.156382 
L 78.509775 217.401242 
L 81.584155 217.812626 
L 84.658536 217.62087 
L 87.732916 217.561964 
L 90.807296 217.680132 
L 93.881676 218.256364 
L 96.956056 216.971339 
L 100.030436 216.353805 
L 103.104817 216.793711 
L 106.179197 216.845182 
L 109.253577 216.766493 
L 112.327957 216.987057 
L 115.402337 216.605911 
L 118.476717 216.944775 
L 121.551098 217.106329 
L 124.625478 217.03733 
L 127.699858 216.09858 
L 130.774238 214.287646 
L 133.848618 215.4256 
L 136.922998 214.582667 
L 139.997379 214.475986 
L 143.071759 214.176657 
L 146.146139 213.151271 
L 149.220519 213.065702 
L 152.294899 212.895535 
L 155.369279 213.912832 
L 158.44366 214.677658 
L 161.51804 216.297405 
L 164.59242 217.150594 
L 167.6668 215.103949 
L 170.74118 214.974714 
L 173.81556 215.485265 
L 176.889941 216.478184 
L 179.964321 216.515509 
L 183.038701 216.560012 
L 186.113081 216.726528 
L 189.187461 215.474186 
L 192.261841 215.453762 
L 195.336222 211.853442 
L 198.410602 212.031795 
L 201.484982 211.595995 
L 204.559362 211.60801 
L 207.633742 210.823364 
L 210.708122 210.77376 
L 213.782503 210.282292 
L 216.856883 210.341298 
L 219.931263 211.97698 
L 223.005643 213.7501 
L 226.080023 211.866308 
L 229.154403 212.259911 
L 232.228784 212.199804 
L 235.303164 211.937931 
L 238.377544 211.532293 
L 241.451924 210.850491 
L 244.526304 210.989108 
L 247.600684 211.362635 
L 250.675065 211.116448 
L 253.749445 210.812021 
L 256.823825 211.051956 
L 259.898205 211.906629 
L 262.972585 214.394567 
L 266.046965 213.959338 
L 269.121346 214.611969 
L 272.195726 215.522193 
L 275.270106 215.218752 
L 278.344486 214.995679 
L 281.418866 215.108063 
L 284.493246 214.126407 
L 287.567627 213.538829 
L 290.642007 214.464127 
L 293.716387 216.383671 
L 296.790767 215.566349 
L 299.865147 215.700338 
L 302.939527 214.693406 
L 306.013908 212.992264 
L 309.088288 209.742009 
L 312.162668 211.455583 
L 315.237048 210.338775 
L 318.311428 206.225568 
L 321.385808 206.140787 
L 324.460189 205.738339 
L 327.534569 204.995844 
L 330.608949 202.078941 
L 333.683329 196.287448 
L 336.757709 195.344274 
L 339.832089 193.282226 
L 342.90647 190.820668 
L 345.98085 188.174882 
L 349.05523 183.782122 
L 352.12961 182.075438 
L 355.20399 180.283359 
L 358.27837 174.239376 
L 361.352751 170.433644 
L 364.427131 166.336403 
" style="fill:none;stroke:#ff7f0e;stroke-linecap:square;stroke-width:1.5;"/>
   </g>
   <g id="line2d_43">
    <path clip-path="url(#p4f3b17a488)" d="M 60.063494 107.224932 
L 63.137874 106.644539 
L 66.212255 106.592184 
L 69.286635 107.420126 
L 72.361015 107.093182 
L 75.435395 107.126837 
L 78.509775 107.362912 
L 81.584155 106.647752 
L 84.658536 106.616192 
L 87.732916 106.260244 
L 90.807296 106.309297 
L 93.881676 105.566135 
L 96.956056 105.08653 
L 100.030436 105.237579 
L 103.104817 105.176852 
L 106.179197 105.09703 
L 109.253577 104.926667 
L 112.327957 104.630315 
L 115.402337 104.832246 
L 118.476717 104.397435 
L 121.551098 104.464318 
L 124.625478 103.210611 
L 127.699858 102.832371 
L 130.774238 102.439551 
L 133.848618 101.976922 
L 136.922998 101.52953 
L 139.997379 101.223965 
L 143.071759 100.897009 
L 146.146139 98.885233 
L 149.220519 98.746205 
L 152.294899 98.660398 
L 155.369279 96.973773 
L 158.44366 96.104439 
L 161.51804 95.067184 
L 164.59242 93.925088 
L 167.6668 95.336965 
L 170.74118 94.944484 
L 173.81556 93.354026 
L 176.889941 92.994087 
L 179.964321 92.731197 
L 183.038701 93.322855 
L 186.113081 93.697533 
L 189.187461 94.270356 
L 192.261841 94.007853 
L 195.336222 92.469676 
L 198.410602 91.212689 
L 201.484982 90.827736 
L 204.559362 90.295234 
L 207.633742 88.995562 
L 210.708122 88.825201 
L 213.782503 88.303639 
L 216.856883 87.603265 
L 219.931263 88.336149 
L 223.005643 88.608342 
L 226.080023 87.20752 
L 229.154403 85.991885 
L 232.228784 86.233271 
L 235.303164 85.949201 
L 238.377544 85.451243 
L 241.451924 84.148955 
L 244.526304 82.143959 
L 247.600684 80.817631 
L 250.675065 79.929373 
L 253.749445 80.197393 
L 256.823825 80.226957 
L 259.898205 79.149943 
L 262.972585 79.207375 
L 266.046965 78.788587 
L 269.121346 79.380219 
L 272.195726 78.750417 
L 275.270106 77.828489 
L 278.344486 78.028692 
L 281.418866 77.731018 
L 284.493246 78.711646 
L 287.567627 79.088149 
L 290.642007 76.982463 
L 293.716387 78.653646 
L 296.790767 79.16359 
L 299.865147 78.870658 
L 302.939527 78.778536 
L 306.013908 78.315486 
L 309.088288 78.009077 
L 312.162668 78.073645 
L 315.237048 78.280804 
L 318.311428 77.793685 
L 321.385808 78.1281 
L 324.460189 78.485341 
L 327.534569 78.809645 
L 330.608949 79.079468 
L 333.683329 77.855447 
L 336.757709 77.922391 
L 339.832089 78.373036 
L 342.90647 78.803101 
L 345.98085 79.040933 
L 349.05523 78.721183 
L 352.12961 78.440738 
L 355.20399 78.340723 
L 358.27837 78.377089 
L 361.352751 78.759073 
L 364.427131 78.875157 
" style="fill:none;stroke:#2ca02c;stroke-linecap:square;stroke-width:1.5;"/>
   </g>
   <g id="line2d_44">
    <path clip-path="url(#p4f3b17a488)" d="M 60.063494 49.997345 
L 63.137874 50.144499 
L 66.212255 50.428563 
L 69.286635 50.67759 
L 72.361015 50.406174 
L 75.435395 50.176175 
L 78.509775 50.637849 
L 81.584155 50.707206 
L 84.658536 50.968463 
L 87.732916 51.72295 
L 90.807296 51.791659 
L 93.881676 51.635206 
L 96.956056 51.989369 
L 100.030436 52.570916 
L 103.104817 52.114407 
L 106.179197 51.954496 
L 109.253577 52.479521 
L 112.327957 51.958242 
L 115.402337 52.069201 
L 118.476717 51.801023 
L 121.551098 51.617046 
L 124.625478 52.392836 
L 127.699858 52.615548 
L 130.774238 53.730029 
L 133.848618 54.386465 
L 136.922998 54.902374 
L 139.997379 55.010743 
L 143.071759 54.352491 
L 146.146139 55.396815 
L 149.220519 54.585977 
L 152.294899 53.689382 
L 155.369279 53.716765 
L 158.44366 53.393937 
L 161.51804 53.397922 
L 164.59242 52.387223 
L 167.6668 52.739029 
L 170.74118 55.346748 
L 173.81556 56.686089 
L 176.889941 58.002835 
L 179.964321 57.29478 
L 183.038701 57.344798 
L 186.113081 56.696884 
L 189.187461 56.717707 
L 192.261841 56.649255 
L 195.336222 59.860638 
L 198.410602 60.487634 
L 201.484982 64.190334 
L 204.559362 64.918987 
L 207.633742 65.986347 
L 210.708122 65.873444 
L 213.782503 66.392781 
L 216.856883 66.616114 
L 219.931263 67.217861 
L 223.005643 67.206677 
L 226.080023 68.687946 
L 229.154403 68.760682 
L 232.228784 69.020392 
L 235.303164 69.181691 
L 238.377544 69.681856 
L 241.451924 70.410745 
L 244.526304 74.800734 
L 247.600684 74.962701 
L 250.675065 76.080299 
L 253.749445 76.425212 
L 256.823825 76.466396 
L 259.898205 77.621567 
L 262.972585 76.817741 
L 266.046965 77.111204 
L 269.121346 77.698373 
L 272.195726 78.187289 
L 275.270106 78.53922 
L 278.344486 78.431951 
L 281.418866 79.292409 
L 284.493246 78.777373 
L 287.567627 78.97738 
L 290.642007 79.920198 
L 293.716387 78.570311 
L 296.790767 78.835294 
L 299.865147 76.702672 
L 302.939527 78.823888 
L 306.013908 79.015657 
L 309.088288 78.837108 
L 312.162668 79.432543 
L 315.237048 79.333024 
L 318.311428 79.027384 
L 321.385808 78.887538 
L 324.460189 78.665462 
L 327.534569 78.434922 
L 330.608949 77.955673 
L 333.683329 78.399044 
L 336.757709 78.348582 
L 339.832089 78.363989 
L 342.90647 78.550068 
L 345.98085 78.844554 
L 349.05523 78.729999 
L 352.12961 78.468308 
L 355.20399 78.150071 
L 358.27837 77.546615 
L 361.352751 77.869198 
L 364.427131 78.249752 
" style="fill:none;stroke:#d62728;stroke-linecap:square;stroke-width:1.5;"/>
   </g>
   <g id="line2d_45">
    <path clip-path="url(#p4f3b17a488)" d="M 60.063494 92.021183 
L 63.137874 92.281203 
L 66.212255 92.231952 
L 69.286635 92.313127 
L 72.361015 90.945735 
L 75.435395 90.6195 
L 78.509775 90.56097 
L 81.584155 90.541061 
L 84.658536 91.069249 
L 87.732916 90.991436 
L 90.807296 91.136533 
L 93.881676 91.163533 
L 96.956056 90.695649 
L 100.030436 90.763217 
L 103.104817 90.559972 
L 106.179197 90.202462 
L 109.253577 91.069225 
L 112.327957 90.322085 
L 115.402337 90.482788 
L 118.476717 90.47629 
L 121.551098 90.71916 
L 124.625478 91.278336 
L 127.699858 91.065307 
L 130.774238 90.663793 
L 133.848618 91.93843 
L 136.922998 91.602836 
L 139.997379 91.141903 
L 143.071759 91.463565 
L 146.146139 90.723667 
L 149.220519 89.990458 
L 152.294899 89.219311 
L 155.369279 88.304297 
L 158.44366 87.727673 
L 161.51804 87.007165 
L 164.59242 86.713022 
L 167.6668 86.151225 
L 170.74118 85.932635 
L 173.81556 86.028081 
L 176.889941 85.834644 
L 179.964321 85.139864 
L 183.038701 84.521802 
L 186.113081 83.166321 
L 189.187461 80.011246 
L 192.261841 80.16585 
L 195.336222 78.316454 
L 198.410602 77.761471 
L 201.484982 77.966818 
L 204.559362 77.99598 
L 207.633742 77.903797 
L 210.708122 77.993938 
L 213.782503 78.621383 
L 216.856883 78.318301 
L 219.931263 78.081965 
L 223.005643 77.327092 
L 226.080023 78.059354 
L 229.154403 77.983327 
L 232.228784 78.320363 
L 235.303164 78.472168 
L 238.377544 78.793996 
L 241.451924 79.141909 
L 244.526304 77.440696 
L 247.600684 77.886686 
L 250.675065 78.565843 
L 253.749445 79.466691 
L 256.823825 79.47162 
L 259.898205 77.867584 
L 262.972585 77.565794 
L 266.046965 77.854869 
L 269.121346 78.636233 
L 272.195726 78.475834 
L 275.270106 77.827388 
L 278.344486 78.41462 
L 281.418866 79.413724 
L 284.493246 77.054391 
L 287.567627 77.827594 
L 290.642007 78.10983 
L 293.716387 78.682594 
L 296.790767 78.582225 
L 299.865147 78.324748 
L 302.939527 78.319544 
L 306.013908 77.883218 
L 309.088288 77.15175 
L 312.162668 78.661228 
L 315.237048 78.314863 
L 318.311428 79.151537 
L 321.385808 79.027482 
L 324.460189 78.883171 
L 327.534569 78.660461 
L 330.608949 77.819383 
L 333.683329 77.84685 
L 336.757709 78.242434 
L 339.832089 79.101403 
L 342.90647 79.815064 
L 345.98085 80.091691 
L 349.05523 79.163325 
L 352.12961 78.705042 
L 355.20399 78.227994 
L 358.27837 77.242931 
L 361.352751 77.19196 
L 364.427131 77.686587 
" style="fill:none;stroke:#9467bd;stroke-linecap:square;stroke-width:1.5;"/>
   </g>
   <g id="line2d_46">
    <path clip-path="url(#p4f3b17a488)" d="M 60.063494 81.546419 
L 63.137874 81.872077 
L 66.212255 82.180214 
L 69.286635 81.887704 
L 72.361015 82.80059 
L 75.435395 82.607889 
L 78.509775 82.029479 
L 81.584155 82.081298 
L 84.658536 82.243072 
L 87.732916 83.126876 
L 90.807296 82.433558 
L 93.881676 82.27936 
L 96.956056 82.979586 
L 100.030436 82.813667 
L 103.104817 83.295034 
L 106.179197 83.200846 
L 109.253577 82.934986 
L 112.327957 83.09495 
L 115.402337 82.664791 
L 118.476717 82.43234 
L 121.551098 82.742332 
L 124.625478 82.934438 
L 127.699858 82.506802 
L 130.774238 82.370172 
L 133.848618 81.749776 
L 136.922998 81.216344 
L 139.997379 81.353644 
L 143.071759 81.298594 
L 146.146139 82.364071 
L 149.220519 82.096137 
L 152.294899 82.452347 
L 155.369279 82.797191 
L 158.44366 82.963313 
L 161.51804 83.486239 
L 164.59242 83.812884 
L 167.6668 82.471414 
L 170.74118 83.033192 
L 173.81556 83.12586 
L 176.889941 82.404972 
L 179.964321 84.174615 
L 183.038701 84.73045 
L 186.113081 83.716403 
L 189.187461 82.040805 
L 192.261841 81.610869 
L 195.336222 79.890746 
L 198.410602 78.608662 
L 201.484982 78.841565 
L 204.559362 78.095953 
L 207.633742 77.914264 
L 210.708122 77.994973 
L 213.782503 78.671873 
L 216.856883 78.743922 
L 219.931263 78.913563 
L 223.005643 78.594734 
L 226.080023 78.544696 
L 229.154403 78.240098 
L 232.228784 78.124338 
L 235.303164 78.284316 
L 238.377544 78.89082 
L 241.451924 79.506918 
L 244.526304 78.914458 
L 247.600684 78.148503 
L 250.675065 78.381231 
L 253.749445 77.853715 
L 256.823825 77.961857 
L 259.898205 78.102007 
L 262.972585 78.814916 
L 266.046965 79.409632 
L 269.121346 78.100818 
L 272.195726 77.672156 
L 275.270106 77.823128 
L 278.344486 78.600167 
L 281.418866 78.021022 
L 284.493246 78.701126 
L 287.567627 79.192261 
L 290.642007 80.941792 
L 293.716387 77.682129 
L 296.790767 77.032833 
L 299.865147 77.533278 
L 302.939527 78.174099 
L 306.013908 78.835529 
L 309.088288 79.482987 
L 312.162668 76.706955 
L 315.237048 76.870526 
L 318.311428 78.932817 
L 321.385808 78.637188 
L 324.460189 78.315291 
L 327.534569 78.010519 
L 330.608949 77.596265 
L 333.683329 79.054575 
L 336.757709 79.222706 
L 339.832089 79.300987 
L 342.90647 78.830839 
L 345.98085 78.183549 
L 349.05523 77.586916 
L 352.12961 77.631269 
L 355.20399 77.829675 
L 358.27837 79.11472 
L 361.352751 79.680091 
L 364.427131 79.575209 
" style="fill:none;stroke:#8c564b;stroke-linecap:square;stroke-width:1.5;"/>
   </g>
   <g id="line2d_47">
    <path clip-path="url(#p4f3b17a488)" d="M 60.063494 81.977289 
L 63.137874 82.201121 
L 66.212255 82.179126 
L 69.286635 81.497426 
L 72.361015 81.902944 
L 75.435395 82.641435 
L 78.509775 82.331312 
L 81.584155 82.460887 
L 84.658536 82.02977 
L 87.732916 81.284865 
L 90.807296 82.05485 
L 93.881676 82.011488 
L 96.956056 83.273182 
L 100.030436 83.45948 
L 103.104817 82.887578 
L 106.179197 83.179463 
L 109.253577 83.891717 
L 112.327957 83.311033 
L 115.402337 83.355743 
L 118.476717 83.098395 
L 121.551098 83.353967 
L 124.625478 83.258796 
L 127.699858 83.913588 
L 130.774238 86.897023 
L 133.848618 86.38707 
L 136.922998 85.778474 
L 139.997379 85.361229 
L 143.071759 84.02787 
L 146.146139 82.704045 
L 149.220519 82.412424 
L 152.294899 82.376295 
L 155.369279 81.575575 
L 158.44366 80.45458 
L 161.51804 81.007494 
L 164.59242 80.720001 
L 167.6668 80.119081 
L 170.74118 80.200124 
L 173.81556 79.328618 
L 176.889941 79.802465 
L 179.964321 79.938706 
L 183.038701 79.120369 
L 186.113081 79.962117 
L 189.187461 79.358235 
L 192.261841 79.3171 
L 195.336222 78.241442 
L 198.410602 78.36293 
L 201.484982 77.728091 
L 204.559362 77.59961 
L 207.633742 78.092868 
L 210.708122 78.041961 
L 213.782503 77.930448 
L 216.856883 78.898942 
L 219.931263 77.762073 
L 223.005643 78.442644 
L 226.080023 77.974183 
L 229.154403 78.495436 
L 232.228784 77.804296 
L 235.303164 77.415002 
L 238.377544 76.81735 
L 241.451924 76.778331 
L 244.526304 78.790747 
L 247.600684 77.05613 
L 250.675065 77.924275 
L 253.749445 78.763478 
L 256.823825 79.127099 
L 259.898205 79.109773 
L 262.972585 78.12366 
L 266.046965 79.132366 
L 269.121346 79.57787 
L 272.195726 77.781705 
L 275.270106 77.123118 
L 278.344486 77.4657 
L 281.418866 79.030108 
L 284.493246 77.941597 
L 287.567627 78.09119 
L 290.642007 79.810747 
L 293.716387 78.994779 
L 296.790767 77.526295 
L 299.865147 77.349084 
L 302.939527 78.938142 
L 306.013908 79.113053 
L 309.088288 79.52011 
L 312.162668 78.206537 
L 315.237048 79.383227 
L 318.311428 77.853134 
L 321.385808 78.229025 
L 324.460189 78.711792 
L 327.534569 79.170496 
L 330.608949 79.799927 
L 333.683329 77.559788 
L 336.757709 77.374693 
L 339.832089 77.557771 
L 342.90647 78.258428 
L 345.98085 79.067192 
L 349.05523 79.806593 
L 352.12961 79.724644 
L 355.20399 79.598646 
L 358.27837 78.584161 
L 361.352751 77.682112 
L 364.427131 77.228785 
" style="fill:none;stroke:#e377c2;stroke-linecap:square;stroke-width:1.5;"/>
   </g>
   <g id="line2d_48">
    <path clip-path="url(#p4f3b17a488)" d="M 60.063494 165.395573 
L 63.137874 165.324127 
L 66.212255 164.914022 
L 69.286635 164.924999 
L 72.361015 164.065585 
L 75.435395 164.571447 
L 78.509775 164.400291 
L 81.584155 164.157106 
L 84.658536 163.95412 
L 87.732916 163.993459 
L 90.807296 164.41823 
L 93.881676 164.217494 
L 96.956056 164.369286 
L 100.030436 164.675111 
L 103.104817 164.092178 
L 106.179197 164.26658 
L 109.253577 164.429999 
L 112.327957 164.295986 
L 115.402337 164.180842 
L 118.476717 164.169547 
L 121.551098 164.264314 
L 124.625478 163.641719 
L 127.699858 163.91494 
L 130.774238 164.421854 
L 133.848618 165.742737 
L 136.922998 164.206014 
L 139.997379 164.008636 
L 143.071759 163.297906 
L 146.146139 163.395239 
L 149.220519 163.752057 
L 152.294899 163.695612 
L 155.369279 164.359631 
L 158.44366 163.296205 
L 161.51804 162.562105 
L 164.59242 162.763063 
L 167.6668 164.017467 
L 170.74118 161.233807 
L 173.81556 160.269214 
L 176.889941 159.748459 
L 179.964321 160.042545 
L 183.038701 159.413925 
L 186.113081 159.710228 
L 189.187461 159.81223 
L 192.261841 161.139372 
L 195.336222 161.484973 
L 198.410602 161.423378 
L 201.484982 158.203894 
L 204.559362 156.584811 
L 207.633742 155.817355 
L 210.708122 156.072653 
L 213.782503 156.163023 
L 216.856883 155.094241 
L 219.931263 152.557207 
L 223.005643 153.43435 
L 226.080023 153.730697 
L 229.154403 153.62612 
L 232.228784 153.881799 
L 235.303164 153.463843 
L 238.377544 152.887323 
L 241.451924 151.808887 
L 244.526304 149.942532 
L 247.600684 148.87209 
L 250.675065 147.737838 
L 253.749445 146.344266 
L 256.823825 145.489364 
L 259.898205 142.650537 
L 262.972585 143.40544 
L 266.046965 142.687541 
L 269.121346 141.416781 
L 272.195726 140.324561 
L 275.270106 136.661614 
L 278.344486 133.976641 
L 281.418866 131.218973 
L 284.493246 130.621175 
L 287.567627 129.642683 
L 290.642007 125.020818 
L 293.716387 120.865124 
L 296.790767 119.065131 
L 299.865147 112.794097 
L 302.939527 112.451402 
L 306.013908 110.496685 
L 309.088288 104.95409 
L 312.162668 94.77124 
L 315.237048 94.049162 
L 318.311428 87.257885 
L 321.385808 87.079433 
L 324.460189 86.617491 
L 327.534569 85.828666 
L 330.608949 82.519744 
L 333.683329 75.537221 
L 336.757709 75.220841 
L 339.832089 75.533406 
L 342.90647 77.278627 
L 345.98085 79.453787 
L 349.05523 81.151814 
L 352.12961 80.926057 
L 355.20399 80.435255 
L 358.27837 78.134991 
L 361.352751 76.988747 
L 364.427131 76.917419 
" style="fill:none;stroke:#7f7f7f;stroke-linecap:square;stroke-width:1.5;"/>
   </g>
   <g id="line2d_49">
    <path clip-path="url(#p4f3b17a488)" d="M 60.063494 60.187778 
L 63.137874 60.182995 
L 66.212255 59.848479 
L 69.286635 60.221842 
L 72.361015 59.861813 
L 75.435395 59.600446 
L 78.509775 60.568843 
L 81.584155 60.292486 
L 84.658536 60.672197 
L 87.732916 60.441956 
L 90.807296 61.054832 
L 93.881676 61.40255 
L 96.956056 60.961734 
L 100.030436 60.938372 
L 103.104817 61.083944 
L 106.179197 60.881883 
L 109.253577 60.806532 
L 112.327957 61.068216 
L 115.402337 60.633946 
L 118.476717 60.721494 
L 121.551098 60.819168 
L 124.625478 61.344014 
L 127.699858 61.128594 
L 130.774238 60.543239 
L 133.848618 62.698622 
L 136.922998 63.992628 
L 139.997379 64.482351 
L 143.071759 64.968751 
L 146.146139 66.927594 
L 149.220519 66.896605 
L 152.294899 66.757198 
L 155.369279 66.684444 
L 158.44366 66.177649 
L 161.51804 66.227583 
L 164.59242 66.761728 
L 167.6668 67.866985 
L 170.74118 68.878704 
L 173.81556 69.217452 
L 176.889941 69.827829 
L 179.964321 69.891918 
L 183.038701 70.11902 
L 186.113081 71.300456 
L 189.187461 74.364622 
L 192.261841 73.57694 
L 195.336222 74.815581 
L 198.410602 78.751756 
L 201.484982 78.631933 
L 204.559362 76.737686 
L 207.633742 76.633766 
L 210.708122 76.680679 
L 213.782503 78.510091 
L 216.856883 77.606885 
L 219.931263 77.504332 
L 223.005643 77.118853 
L 226.080023 78.109628 
L 229.154403 78.429803 
L 232.228784 78.596153 
L 235.303164 78.365685 
L 238.377544 77.731132 
L 241.451924 77.390333 
L 244.526304 77.979785 
L 247.600684 78.303801 
L 250.675065 78.397334 
L 253.749445 78.159409 
L 256.823825 78.404214 
L 259.898205 77.158005 
L 262.972585 76.689887 
L 266.046965 77.377011 
L 269.121346 80.349696 
L 272.195726 79.952791 
L 275.270106 79.39074 
L 278.344486 79.511185 
L 281.418866 78.846249 
L 284.493246 78.749722 
L 287.567627 78.43256 
L 290.642007 78.639913 
L 293.716387 78.488489 
L 296.790767 78.419877 
L 299.865147 80.370248 
L 302.939527 76.978404 
L 306.013908 76.815067 
L 309.088288 77.490595 
L 312.162668 79.977396 
L 315.237048 79.218278 
L 318.311428 78.440315 
L 321.385808 78.496766 
L 324.460189 78.516737 
L 327.534569 78.507024 
L 330.608949 78.468053 
L 333.683329 78.951687 
L 336.757709 78.838181 
L 339.832089 78.285447 
L 342.90647 77.658368 
L 345.98085 77.351669 
L 349.05523 77.772992 
L 352.12961 78.052913 
L 355.20399 78.342011 
L 358.27837 79.046054 
L 361.352751 79.055437 
L 364.427131 78.516571 
" style="fill:none;stroke:#bcbd22;stroke-linecap:square;stroke-width:1.5;"/>
   </g>
   <g id="line2d_50">
    <path clip-path="url(#p4f3b17a488)" d="M 60.063494 70.352485 
L 63.137874 69.915457 
L 66.212255 71.329683 
L 69.286635 71.499758 
L 72.361015 72.163915 
L 75.435395 72.855717 
L 78.509775 72.366789 
L 81.584155 72.482411 
L 84.658536 72.357135 
L 87.732916 72.19114 
L 90.807296 72.300046 
L 93.881676 72.458636 
L 96.956056 71.58808 
L 100.030436 71.158374 
L 103.104817 71.235267 
L 106.179197 71.673425 
L 109.253577 71.890788 
L 112.327957 71.811897 
L 115.402337 71.819647 
L 118.476717 72.22533 
L 121.551098 72.021883 
L 124.625478 72.252545 
L 127.699858 72.399449 
L 130.774238 73.221111 
L 133.848618 73.88222 
L 136.922998 74.153851 
L 139.997379 74.096742 
L 143.071759 75.228741 
L 146.146139 75.618988 
L 149.220519 75.485262 
L 152.294899 75.845163 
L 155.369279 76.019407 
L 158.44366 76.355364 
L 161.51804 77.575685 
L 164.59242 78.327166 
L 167.6668 78.34034 
L 170.74118 77.575329 
L 173.81556 79.02164 
L 176.889941 78.817049 
L 179.964321 78.584934 
L 183.038701 79.162303 
L 186.113081 78.657178 
L 189.187461 79.188049 
L 192.261841 79.049869 
L 195.336222 78.224058 
L 198.410602 78.799288 
L 201.484982 77.911349 
L 204.559362 77.424033 
L 207.633742 76.831751 
L 210.708122 77.006415 
L 213.782503 77.364189 
L 216.856883 77.373478 
L 219.931263 76.982803 
L 223.005643 77.820971 
L 226.080023 77.810787 
L 229.154403 77.690211 
L 232.228784 77.892781 
L 235.303164 78.243789 
L 238.377544 79.193994 
L 241.451924 79.977117 
L 244.526304 78.530681 
L 247.600684 78.202942 
L 250.675065 77.837949 
L 253.749445 76.542943 
L 256.823825 76.340602 
L 259.898205 77.92973 
L 262.972585 79.099129 
L 266.046965 78.884061 
L 269.121346 78.726269 
L 272.195726 78.729177 
L 275.270106 77.306703 
L 278.344486 76.336814 
L 281.418866 78.925843 
L 284.493246 78.543744 
L 287.567627 78.32 
L 290.642007 77.783593 
L 293.716387 76.801456 
L 296.790767 76.534591 
L 299.865147 78.141842 
L 302.939527 80.334841 
L 306.013908 80.848156 
L 309.088288 80.454851 
L 312.162668 77.153859 
L 315.237048 78.659036 
L 318.311428 79.160246 
L 321.385808 79.0262 
L 324.460189 78.818359 
L 327.534569 78.530928 
L 330.608949 77.790602 
L 333.683329 78.409797 
L 336.757709 78.668122 
L 339.832089 79.15765 
L 342.90647 79.442801 
L 345.98085 79.353895 
L 349.05523 78.409303 
L 352.12961 78.08502 
L 355.20399 77.872957 
L 358.27837 77.795344 
L 361.352751 78.043744 
L 364.427131 78.123567 
" style="fill:none;stroke:#17becf;stroke-linecap:square;stroke-width:1.5;"/>
   </g>
   <g id="patch_3">
    <path d="M 44.845313 228.14 
L 44.845313 10.7 
" style="fill:none;stroke:#000000;stroke-linecap:square;stroke-linejoin:miter;stroke-width:0.8;"/>
   </g>
   <g id="patch_4">
    <path d="M 379.645313 228.14 
L 379.645313 10.7 
" style="fill:none;stroke:#000000;stroke-linecap:square;stroke-linejoin:miter;stroke-width:0.8;"/>
   </g>
   <g id="patch_5">
    <path d="M 44.845312 228.14 
L 379.645312 228.14 
" style="fill:none;stroke:#000000;stroke-linecap:square;stroke-linejoin:miter;stroke-width:0.8;"/>
   </g>
   <g id="patch_6">
    <path d="M 44.845312 10.7 
L 379.645312 10.7 
" style="fill:none;stroke:#000000;stroke-linecap:square;stroke-linejoin:miter;stroke-width:0.8;"/>
   </g>
  </g>
 </g>
 <defs>
  <clipPath id="p4f3b17a488">
   <rect height="217.44" width="334.8" x="44.845313" y="10.7"/>
  </clipPath>
 </defs>
</svg>
