<?xml version="1.0" encoding="utf-8" standalone="no"?>
<!DOCTYPE svg PUBLIC "-//W3C//DTD SVG 1.1//EN"
  "http://www.w3.org/Graphics/SVG/1.1/DTD/svg11.dtd">
<!-- Created with matplotlib (https://matplotlib.org/) -->
<svg height="271.503125pt" version="1.1" viewBox="0 0 390.345312 271.503125" width="390.345312pt" xmlns="http://www.w3.org/2000/svg" xmlns:xlink="http://www.w3.org/1999/xlink">
 <defs>
  <style type="text/css">
*{stroke-linecap:butt;stroke-linejoin:round;}
  </style>
 </defs>
 <g id="figure_1">
  <g id="patch_1">
   <path d="M 0 271.503125 
L 390.345312 271.503125 
L 390.345312 0 
L 0 0 
z
" style="fill:none;"/>
  </g>
  <g id="axes_1">
   <g id="patch_2">
    <path d="M 44.845313 228.14 
L 379.645313 228.14 
L 379.645313 10.7 
L 44.845313 10.7 
z
" style="fill:#ffffff;"/>
   </g>
   <g id="matplotlib.axis_1">
    <g id="xtick_1">
     <g id="line2d_1">
      <defs>
       <path d="M 0 0 
L 0 3.5 
" id="m21feb8a692" style="stroke:#000000;stroke-width:0.8;"/>
      </defs>
      <g>
       <use style="stroke:#000000;stroke-width:0.8;" x="60.063494" xlink:href="#m21feb8a692" y="228.14"/>
      </g>
     </g>
     <g id="text_1">
      <!-- $\mathdefault{10^{-2}}$ -->
      <defs>
       <path d="M 12.40625 8.296875 
L 28.515625 8.296875 
L 28.515625 63.921875 
L 10.984375 60.40625 
L 10.984375 69.390625 
L 28.421875 72.90625 
L 38.28125 72.90625 
L 38.28125 8.296875 
L 54.390625 8.296875 
L 54.390625 0 
L 12.40625 0 
z
" id="DejaVuSans-49"/>
       <path d="M 31.78125 66.40625 
Q 24.171875 66.40625 20.328125 58.90625 
Q 16.5 51.421875 16.5 36.375 
Q 16.5 21.390625 20.328125 13.890625 
Q 24.171875 6.390625 31.78125 6.390625 
Q 39.453125 6.390625 43.28125 13.890625 
Q 47.125 21.390625 47.125 36.375 
Q 47.125 51.421875 43.28125 58.90625 
Q 39.453125 66.40625 31.78125 66.40625 
z
M 31.78125 74.21875 
Q 44.046875 74.21875 50.515625 64.515625 
Q 56.984375 54.828125 56.984375 36.375 
Q 56.984375 17.96875 50.515625 8.265625 
Q 44.046875 -1.421875 31.78125 -1.421875 
Q 19.53125 -1.421875 13.0625 8.265625 
Q 6.59375 17.96875 6.59375 36.375 
Q 6.59375 54.828125 13.0625 64.515625 
Q 19.53125 74.21875 31.78125 74.21875 
z
" id="DejaVuSans-48"/>
       <path d="M 10.59375 35.5 
L 73.1875 35.5 
L 73.1875 27.203125 
L 10.59375 27.203125 
z
" id="DejaVuSans-8722"/>
       <path d="M 19.1875 8.296875 
L 53.609375 8.296875 
L 53.609375 0 
L 7.328125 0 
L 7.328125 8.296875 
Q 12.9375 14.109375 22.625 23.890625 
Q 32.328125 33.6875 34.8125 36.53125 
Q 39.546875 41.84375 41.421875 45.53125 
Q 43.3125 49.21875 43.3125 52.78125 
Q 43.3125 58.59375 39.234375 62.25 
Q 35.15625 65.921875 28.609375 65.921875 
Q 23.96875 65.921875 18.8125 64.3125 
Q 13.671875 62.703125 7.8125 59.421875 
L 7.8125 69.390625 
Q 13.765625 71.78125 18.9375 73 
Q 24.125 74.21875 28.421875 74.21875 
Q 39.75 74.21875 46.484375 68.546875 
Q 53.21875 62.890625 53.21875 53.421875 
Q 53.21875 48.921875 51.53125 44.890625 
Q 49.859375 40.875 45.40625 35.40625 
Q 44.1875 33.984375 37.640625 27.21875 
Q 31.109375 20.453125 19.1875 8.296875 
z
" id="DejaVuSans-50"/>
      </defs>
      <g transform="translate(48.313494 242.738437)scale(0.1 -0.1)">
       <use transform="translate(0 0.765625)" xlink:href="#DejaVuSans-49"/>
       <use transform="translate(63.623047 0.765625)" xlink:href="#DejaVuSans-48"/>
       <use transform="translate(128.203125 39.046875)scale(0.7)" xlink:href="#DejaVuSans-8722"/>
       <use transform="translate(186.855469 39.046875)scale(0.7)" xlink:href="#DejaVuSans-50"/>
      </g>
     </g>
    </g>
    <g id="xtick_2">
     <g id="line2d_2">
      <g>
       <use style="stroke:#000000;stroke-width:0.8;" x="212.245313" xlink:href="#m21feb8a692" y="228.14"/>
      </g>
     </g>
     <g id="text_2">
      <!-- $\mathdefault{10^{-1}}$ -->
      <g transform="translate(200.495313 242.738437)scale(0.1 -0.1)">
       <use transform="translate(0 0.684375)" xlink:href="#DejaVuSans-49"/>
       <use transform="translate(63.623047 0.684375)" xlink:href="#DejaVuSans-48"/>
       <use transform="translate(128.203125 38.965625)scale(0.7)" xlink:href="#DejaVuSans-8722"/>
       <use transform="translate(186.855469 38.965625)scale(0.7)" xlink:href="#DejaVuSans-49"/>
      </g>
     </g>
    </g>
    <g id="xtick_3">
     <g id="line2d_3">
      <g>
       <use style="stroke:#000000;stroke-width:0.8;" x="364.427131" xlink:href="#m21feb8a692" y="228.14"/>
      </g>
     </g>
     <g id="text_3">
      <!-- $\mathdefault{10^{0}}$ -->
      <g transform="translate(355.627131 242.738437)scale(0.1 -0.1)">
       <use transform="translate(0 0.765625)" xlink:href="#DejaVuSans-49"/>
       <use transform="translate(63.623047 0.765625)" xlink:href="#DejaVuSans-48"/>
       <use transform="translate(128.203125 39.046875)scale(0.7)" xlink:href="#DejaVuSans-48"/>
      </g>
     </g>
    </g>
    <g id="xtick_4">
     <g id="line2d_4">
      <defs>
       <path d="M 0 0 
L 0 2 
" id="m6d4ecb39b1" style="stroke:#000000;stroke-width:0.6;"/>
      </defs>
      <g>
       <use style="stroke:#000000;stroke-width:0.6;" x="45.315552" xlink:href="#m6d4ecb39b1" y="228.14"/>
      </g>
     </g>
    </g>
    <g id="xtick_5">
     <g id="line2d_5">
      <g>
       <use style="stroke:#000000;stroke-width:0.6;" x="53.100036" xlink:href="#m6d4ecb39b1" y="228.14"/>
      </g>
     </g>
    </g>
    <g id="xtick_6">
     <g id="line2d_6">
      <g>
       <use style="stroke:#000000;stroke-width:0.6;" x="105.874786" xlink:href="#m6d4ecb39b1" y="228.14"/>
      </g>
     </g>
    </g>
    <g id="xtick_7">
     <g id="line2d_7">
      <g>
       <use style="stroke:#000000;stroke-width:0.6;" x="132.672674" xlink:href="#m6d4ecb39b1" y="228.14"/>
      </g>
     </g>
    </g>
    <g id="xtick_8">
     <g id="line2d_8">
      <g>
       <use style="stroke:#000000;stroke-width:0.6;" x="151.686078" xlink:href="#m6d4ecb39b1" y="228.14"/>
      </g>
     </g>
    </g>
    <g id="xtick_9">
     <g id="line2d_9">
      <g>
       <use style="stroke:#000000;stroke-width:0.6;" x="166.43402" xlink:href="#m6d4ecb39b1" y="228.14"/>
      </g>
     </g>
    </g>
    <g id="xtick_10">
     <g id="line2d_10">
      <g>
       <use style="stroke:#000000;stroke-width:0.6;" x="178.483966" xlink:href="#m6d4ecb39b1" y="228.14"/>
      </g>
     </g>
    </g>
    <g id="xtick_11">
     <g id="line2d_11">
      <g>
       <use style="stroke:#000000;stroke-width:0.6;" x="188.672051" xlink:href="#m6d4ecb39b1" y="228.14"/>
      </g>
     </g>
    </g>
    <g id="xtick_12">
     <g id="line2d_12">
      <g>
       <use style="stroke:#000000;stroke-width:0.6;" x="197.497371" xlink:href="#m6d4ecb39b1" y="228.14"/>
      </g>
     </g>
    </g>
    <g id="xtick_13">
     <g id="line2d_13">
      <g>
       <use style="stroke:#000000;stroke-width:0.6;" x="205.281854" xlink:href="#m6d4ecb39b1" y="228.14"/>
      </g>
     </g>
    </g>
    <g id="xtick_14">
     <g id="line2d_14">
      <g>
       <use style="stroke:#000000;stroke-width:0.6;" x="258.056605" xlink:href="#m6d4ecb39b1" y="228.14"/>
      </g>
     </g>
    </g>
    <g id="xtick_15">
     <g id="line2d_15">
      <g>
       <use style="stroke:#000000;stroke-width:0.6;" x="284.854493" xlink:href="#m6d4ecb39b1" y="228.14"/>
      </g>
     </g>
    </g>
    <g id="xtick_16">
     <g id="line2d_16">
      <g>
       <use style="stroke:#000000;stroke-width:0.6;" x="303.867897" xlink:href="#m6d4ecb39b1" y="228.14"/>
      </g>
     </g>
    </g>
    <g id="xtick_17">
     <g id="line2d_17">
      <g>
       <use style="stroke:#000000;stroke-width:0.6;" x="318.615839" xlink:href="#m6d4ecb39b1" y="228.14"/>
      </g>
     </g>
    </g>
    <g id="xtick_18">
     <g id="line2d_18">
      <g>
       <use style="stroke:#000000;stroke-width:0.6;" x="330.665785" xlink:href="#m6d4ecb39b1" y="228.14"/>
      </g>
     </g>
    </g>
    <g id="xtick_19">
     <g id="line2d_19">
      <g>
       <use style="stroke:#000000;stroke-width:0.6;" x="340.853869" xlink:href="#m6d4ecb39b1" y="228.14"/>
      </g>
     </g>
    </g>
    <g id="xtick_20">
     <g id="line2d_20">
      <g>
       <use style="stroke:#000000;stroke-width:0.6;" x="349.679189" xlink:href="#m6d4ecb39b1" y="228.14"/>
      </g>
     </g>
    </g>
    <g id="xtick_21">
     <g id="line2d_21">
      <g>
       <use style="stroke:#000000;stroke-width:0.6;" x="357.463673" xlink:href="#m6d4ecb39b1" y="228.14"/>
      </g>
     </g>
    </g>
    <g id="text_4">
     <!-- $\lambda$ -->
     <defs>
      <path d="M 36.71875 67.4375 
L 48.828125 0 
L 39.3125 0 
L 31.84375 40.4375 
L 5.125 0 
L -4.390625 0 
L 29.734375 52.4375 
L 28.03125 62.109375 
Q 26.953125 68.265625 21.734375 68.265625 
L 17.046875 68.265625 
L 18.5 75.984375 
L 24.21875 75.875 
Q 35.203125 75.734375 36.71875 67.4375 
z
" id="DejaVuSans-Oblique-955"/>
     </defs>
     <g transform="translate(207.445313 260.975625)scale(0.16 -0.16)">
      <use transform="translate(0 0.015625)" xlink:href="#DejaVuSans-Oblique-955"/>
     </g>
    </g>
   </g>
   <g id="matplotlib.axis_2">
    <g id="ytick_1">
     <g id="line2d_22">
      <defs>
       <path d="M 0 0 
L -3.5 0 
" id="m4c47e39e17" style="stroke:#000000;stroke-width:0.8;"/>
      </defs>
      <g>
       <use style="stroke:#000000;stroke-width:0.8;" x="44.845313" xlink:href="#m4c47e39e17" y="217.090031"/>
      </g>
     </g>
     <g id="text_5">
      <!-- −0.02 -->
      <defs>
       <path d="M 10.6875 12.40625 
L 21 12.40625 
L 21 0 
L 10.6875 0 
z
" id="DejaVuSans-46"/>
      </defs>
      <g transform="translate(7.2 220.88925)scale(0.1 -0.1)">
       <use xlink:href="#DejaVuSans-8722"/>
       <use x="83.789062" xlink:href="#DejaVuSans-48"/>
       <use x="147.412109" xlink:href="#DejaVuSans-46"/>
       <use x="179.199219" xlink:href="#DejaVuSans-48"/>
       <use x="242.822266" xlink:href="#DejaVuSans-50"/>
      </g>
     </g>
    </g>
    <g id="ytick_2">
     <g id="line2d_23">
      <g>
       <use style="stroke:#000000;stroke-width:0.8;" x="44.845313" xlink:href="#m4c47e39e17" y="188.842598"/>
      </g>
     </g>
     <g id="text_6">
      <!-- 0.00 -->
      <g transform="translate(15.579688 192.641817)scale(0.1 -0.1)">
       <use xlink:href="#DejaVuSans-48"/>
       <use x="63.623047" xlink:href="#DejaVuSans-46"/>
       <use x="95.410156" xlink:href="#DejaVuSans-48"/>
       <use x="159.033203" xlink:href="#DejaVuSans-48"/>
      </g>
     </g>
    </g>
    <g id="ytick_3">
     <g id="line2d_24">
      <g>
       <use style="stroke:#000000;stroke-width:0.8;" x="44.845313" xlink:href="#m4c47e39e17" y="160.595165"/>
      </g>
     </g>
     <g id="text_7">
      <!-- 0.02 -->
      <g transform="translate(15.579688 164.394384)scale(0.1 -0.1)">
       <use xlink:href="#DejaVuSans-48"/>
       <use x="63.623047" xlink:href="#DejaVuSans-46"/>
       <use x="95.410156" xlink:href="#DejaVuSans-48"/>
       <use x="159.033203" xlink:href="#DejaVuSans-50"/>
      </g>
     </g>
    </g>
    <g id="ytick_4">
     <g id="line2d_25">
      <g>
       <use style="stroke:#000000;stroke-width:0.8;" x="44.845313" xlink:href="#m4c47e39e17" y="132.347733"/>
      </g>
     </g>
     <g id="text_8">
      <!-- 0.04 -->
      <defs>
       <path d="M 37.796875 64.3125 
L 12.890625 25.390625 
L 37.796875 25.390625 
z
M 35.203125 72.90625 
L 47.609375 72.90625 
L 47.609375 25.390625 
L 58.015625 25.390625 
L 58.015625 17.1875 
L 47.609375 17.1875 
L 47.609375 0 
L 37.796875 0 
L 37.796875 17.1875 
L 4.890625 17.1875 
L 4.890625 26.703125 
z
" id="DejaVuSans-52"/>
      </defs>
      <g transform="translate(15.579688 136.146951)scale(0.1 -0.1)">
       <use xlink:href="#DejaVuSans-48"/>
       <use x="63.623047" xlink:href="#DejaVuSans-46"/>
       <use x="95.410156" xlink:href="#DejaVuSans-48"/>
       <use x="159.033203" xlink:href="#DejaVuSans-52"/>
      </g>
     </g>
    </g>
    <g id="ytick_5">
     <g id="line2d_26">
      <g>
       <use style="stroke:#000000;stroke-width:0.8;" x="44.845313" xlink:href="#m4c47e39e17" y="104.1003"/>
      </g>
     </g>
     <g id="text_9">
      <!-- 0.06 -->
      <defs>
       <path d="M 33.015625 40.375 
Q 26.375 40.375 22.484375 35.828125 
Q 18.609375 31.296875 18.609375 23.390625 
Q 18.609375 15.53125 22.484375 10.953125 
Q 26.375 6.390625 33.015625 6.390625 
Q 39.65625 6.390625 43.53125 10.953125 
Q 47.40625 15.53125 47.40625 23.390625 
Q 47.40625 31.296875 43.53125 35.828125 
Q 39.65625 40.375 33.015625 40.375 
z
M 52.59375 71.296875 
L 52.59375 62.3125 
Q 48.875 64.0625 45.09375 64.984375 
Q 41.3125 65.921875 37.59375 65.921875 
Q 27.828125 65.921875 22.671875 59.328125 
Q 17.53125 52.734375 16.796875 39.40625 
Q 19.671875 43.65625 24.015625 45.921875 
Q 28.375 48.1875 33.59375 48.1875 
Q 44.578125 48.1875 50.953125 41.515625 
Q 57.328125 34.859375 57.328125 23.390625 
Q 57.328125 12.15625 50.6875 5.359375 
Q 44.046875 -1.421875 33.015625 -1.421875 
Q 20.359375 -1.421875 13.671875 8.265625 
Q 6.984375 17.96875 6.984375 36.375 
Q 6.984375 53.65625 15.1875 63.9375 
Q 23.390625 74.21875 37.203125 74.21875 
Q 40.921875 74.21875 44.703125 73.484375 
Q 48.484375 72.75 52.59375 71.296875 
z
" id="DejaVuSans-54"/>
      </defs>
      <g transform="translate(15.579688 107.899518)scale(0.1 -0.1)">
       <use xlink:href="#DejaVuSans-48"/>
       <use x="63.623047" xlink:href="#DejaVuSans-46"/>
       <use x="95.410156" xlink:href="#DejaVuSans-48"/>
       <use x="159.033203" xlink:href="#DejaVuSans-54"/>
      </g>
     </g>
    </g>
    <g id="ytick_6">
     <g id="line2d_27">
      <g>
       <use style="stroke:#000000;stroke-width:0.8;" x="44.845313" xlink:href="#m4c47e39e17" y="75.852867"/>
      </g>
     </g>
     <g id="text_10">
      <!-- 0.08 -->
      <defs>
       <path d="M 31.78125 34.625 
Q 24.75 34.625 20.71875 30.859375 
Q 16.703125 27.09375 16.703125 20.515625 
Q 16.703125 13.921875 20.71875 10.15625 
Q 24.75 6.390625 31.78125 6.390625 
Q 38.8125 6.390625 42.859375 10.171875 
Q 46.921875 13.96875 46.921875 20.515625 
Q 46.921875 27.09375 42.890625 30.859375 
Q 38.875 34.625 31.78125 34.625 
z
M 21.921875 38.8125 
Q 15.578125 40.375 12.03125 44.71875 
Q 8.5 49.078125 8.5 55.328125 
Q 8.5 64.0625 14.71875 69.140625 
Q 20.953125 74.21875 31.78125 74.21875 
Q 42.671875 74.21875 48.875 69.140625 
Q 55.078125 64.0625 55.078125 55.328125 
Q 55.078125 49.078125 51.53125 44.71875 
Q 48 40.375 41.703125 38.8125 
Q 48.828125 37.15625 52.796875 32.3125 
Q 56.78125 27.484375 56.78125 20.515625 
Q 56.78125 9.90625 50.3125 4.234375 
Q 43.84375 -1.421875 31.78125 -1.421875 
Q 19.734375 -1.421875 13.25 4.234375 
Q 6.78125 9.90625 6.78125 20.515625 
Q 6.78125 27.484375 10.78125 32.3125 
Q 14.796875 37.15625 21.921875 38.8125 
z
M 18.3125 54.390625 
Q 18.3125 48.734375 21.84375 45.5625 
Q 25.390625 42.390625 31.78125 42.390625 
Q 38.140625 42.390625 41.71875 45.5625 
Q 45.3125 48.734375 45.3125 54.390625 
Q 45.3125 60.0625 41.71875 63.234375 
Q 38.140625 66.40625 31.78125 66.40625 
Q 25.390625 66.40625 21.84375 63.234375 
Q 18.3125 60.0625 18.3125 54.390625 
z
" id="DejaVuSans-56"/>
      </defs>
      <g transform="translate(15.579688 79.652085)scale(0.1 -0.1)">
       <use xlink:href="#DejaVuSans-48"/>
       <use x="63.623047" xlink:href="#DejaVuSans-46"/>
       <use x="95.410156" xlink:href="#DejaVuSans-48"/>
       <use x="159.033203" xlink:href="#DejaVuSans-56"/>
      </g>
     </g>
    </g>
    <g id="ytick_7">
     <g id="line2d_28">
      <g>
       <use style="stroke:#000000;stroke-width:0.8;" x="44.845313" xlink:href="#m4c47e39e17" y="47.605434"/>
      </g>
     </g>
     <g id="text_11">
      <!-- 0.10 -->
      <g transform="translate(15.579688 51.404652)scale(0.1 -0.1)">
       <use xlink:href="#DejaVuSans-48"/>
       <use x="63.623047" xlink:href="#DejaVuSans-46"/>
       <use x="95.410156" xlink:href="#DejaVuSans-49"/>
       <use x="159.033203" xlink:href="#DejaVuSans-48"/>
      </g>
     </g>
    </g>
    <g id="ytick_8">
     <g id="line2d_29">
      <g>
       <use style="stroke:#000000;stroke-width:0.8;" x="44.845313" xlink:href="#m4c47e39e17" y="19.358001"/>
      </g>
     </g>
     <g id="text_12">
      <!-- 0.12 -->
      <g transform="translate(15.579688 23.157219)scale(0.1 -0.1)">
       <use xlink:href="#DejaVuSans-48"/>
       <use x="63.623047" xlink:href="#DejaVuSans-46"/>
       <use x="95.410156" xlink:href="#DejaVuSans-49"/>
       <use x="159.033203" xlink:href="#DejaVuSans-50"/>
      </g>
     </g>
    </g>
   </g>
   <g id="line2d_30">
    <path clip-path="url(#pfa262691f6)" d="M 60.063494 20.583636 
L 63.137874 23.605114 
L 66.212255 26.767846 
L 69.286635 30.078514 
L 72.361015 33.543942 
L 75.435395 37.171225 
L 78.509775 40.967838 
L 81.584155 44.94134 
L 84.658536 49.085494 
L 87.732916 53.422651 
L 90.807296 57.96168 
L 93.881676 62.711827 
L 96.956056 67.682747 
L 100.030436 72.884531 
L 103.104817 78.327723 
L 106.179197 84.023346 
L 109.253577 89.982912 
L 112.327957 96.218437 
L 115.402337 102.742573 
L 118.476717 109.568446 
L 121.551098 116.7098 
L 124.625478 124.181048 
L 127.699858 131.997253 
L 130.774238 140.164395 
L 133.848618 148.648265 
L 136.922998 157.531119 
L 139.997379 166.820127 
L 143.071759 176.505981 
L 146.146139 186.638056 
L 149.220519 188.842589 
L 152.294899 188.842597 
L 155.369279 188.842598 
L 158.44366 188.842598 
L 161.51804 188.842598 
L 164.59242 188.842598 
L 167.6668 188.842598 
L 170.74118 188.842598 
L 173.81556 188.842598 
L 176.889941 188.842598 
L 179.964321 188.842598 
L 183.038701 188.842597 
L 186.113081 188.842598 
L 189.187461 188.842598 
L 192.261841 188.842598 
L 195.336222 188.842598 
L 198.410602 188.842598 
L 201.484982 188.842598 
L 204.559362 188.842598 
L 207.633742 188.842598 
L 210.708122 188.842598 
L 213.782503 188.842598 
L 216.856883 188.842598 
L 219.931263 188.842598 
L 223.005643 188.842598 
L 226.080023 188.842598 
L 229.154403 188.842598 
L 232.228784 188.842598 
L 235.303164 188.842598 
L 238.377544 188.842598 
L 241.451924 188.842598 
L 244.526304 188.842598 
L 247.600684 188.842598 
L 250.675065 188.842598 
L 253.749445 188.842597 
L 256.823825 188.842599 
L 259.898205 188.842599 
L 262.972585 188.842601 
L 266.046965 188.842599 
L 269.121346 188.8426 
L 272.195726 188.842599 
L 275.270106 188.8426 
L 278.344486 188.842601 
L 281.418866 188.842598 
L 284.493246 188.842598 
L 287.567627 188.842599 
L 290.642007 188.842599 
L 293.716387 188.842599 
L 296.790767 188.842599 
L 299.865147 188.842596 
L 302.939527 188.842598 
L 306.013908 188.842597 
L 309.088288 188.842596 
L 312.162668 188.842596 
L 315.237048 188.842597 
L 318.311428 188.842596 
L 321.385808 188.842597 
L 324.460189 188.842598 
L 327.534569 188.842598 
L 330.608949 188.842598 
L 333.683329 188.842598 
L 336.757709 188.842598 
L 339.832089 188.842598 
L 342.90647 188.842598 
L 345.98085 188.842598 
L 349.05523 188.842598 
L 352.12961 188.842598 
L 355.20399 188.842598 
L 358.27837 188.842598 
L 361.352751 188.842598 
L 364.427131 188.842599 
" style="fill:none;stroke:#1f77b4;stroke-linecap:square;stroke-width:1.5;"/>
   </g>
   <g id="line2d_31">
    <path clip-path="url(#pfa262691f6)" d="M 60.063494 188.836588 
L 63.137874 188.842596 
L 66.212255 188.842597 
L 69.286635 188.842598 
L 72.361015 188.842597 
L 75.435395 188.842597 
L 78.509775 188.842598 
L 81.584155 188.842598 
L 84.658536 188.842598 
L 87.732916 188.842598 
L 90.807296 188.842598 
L 93.881676 188.842598 
L 96.956056 188.842598 
L 100.030436 188.842598 
L 103.104817 188.842598 
L 106.179197 188.842598 
L 109.253577 188.842598 
L 112.327957 188.842598 
L 115.402337 188.842598 
L 118.476717 188.842598 
L 121.551098 188.842598 
L 124.625478 188.842598 
L 127.699858 188.842598 
L 130.774238 188.842598 
L 133.848618 188.842598 
L 136.922998 188.842598 
L 139.997379 188.842598 
L 143.071759 188.842598 
L 146.146139 188.842598 
L 149.220519 188.842598 
L 152.294899 188.842598 
L 155.369279 188.842598 
L 158.44366 188.842598 
L 161.51804 188.842598 
L 164.59242 188.842598 
L 167.6668 188.842598 
L 170.74118 188.842598 
L 173.81556 188.842598 
L 176.889941 188.842598 
L 179.964321 188.842598 
L 183.038701 188.842598 
L 186.113081 188.842598 
L 189.187461 188.842598 
L 192.261841 188.842598 
L 195.336222 188.842598 
L 198.410602 188.842598 
L 201.484982 188.842598 
L 204.559362 188.842598 
L 207.633742 188.842598 
L 210.708122 188.842598 
L 213.782503 188.842598 
L 216.856883 188.842598 
L 219.931263 188.842598 
L 223.005643 188.842598 
L 226.080023 188.842598 
L 229.154403 188.842598 
L 232.228784 188.842598 
L 235.303164 188.842598 
L 238.377544 188.842598 
L 241.451924 188.842598 
L 244.526304 188.842598 
L 247.600684 188.842598 
L 250.675065 188.842598 
L 253.749445 188.842598 
L 256.823825 188.842598 
L 259.898205 188.842598 
L 262.972585 188.842598 
L 266.046965 188.842598 
L 269.121346 188.842598 
L 272.195726 188.842598 
L 275.270106 188.842598 
L 278.344486 188.842598 
L 281.418866 188.842598 
L 284.493246 188.842598 
L 287.567627 188.842598 
L 290.642007 188.842598 
L 293.716387 188.842598 
L 296.790767 188.842598 
L 299.865147 188.842598 
L 302.939527 188.842598 
L 306.013908 188.842598 
L 309.088288 188.842598 
L 312.162668 188.842598 
L 315.237048 188.842598 
L 318.311428 188.842598 
L 321.385808 188.842598 
L 324.460189 188.842598 
L 327.534569 188.842598 
L 330.608949 188.842598 
L 333.683329 188.842598 
L 336.757709 188.842598 
L 339.832089 188.842598 
L 342.90647 188.842598 
L 345.98085 188.842598 
L 349.05523 188.842598 
L 352.12961 188.842598 
L 355.20399 188.842598 
L 358.27837 188.842598 
L 361.352751 188.842598 
L 364.427131 188.842598 
" style="fill:none;stroke:#ff7f0e;stroke-linecap:square;stroke-width:1.5;"/>
   </g>
   <g id="line2d_32">
    <path clip-path="url(#pfa262691f6)" d="M 60.063494 188.842599 
L 63.137874 188.842599 
L 66.212255 188.842599 
L 69.286635 188.842599 
L 72.361015 188.842599 
L 75.435395 188.842599 
L 78.509775 188.842599 
L 81.584155 188.842599 
L 84.658536 188.842599 
L 87.732916 188.842599 
L 90.807296 188.842599 
L 93.881676 188.842599 
L 96.956056 188.842599 
L 100.030436 188.842599 
L 103.104817 188.842599 
L 106.179197 188.842599 
L 109.253577 188.842599 
L 112.327957 188.842599 
L 115.402337 188.842599 
L 118.476717 188.842598 
L 121.551098 188.842598 
L 124.625478 188.842598 
L 127.699858 188.842599 
L 130.774238 188.842599 
L 133.848618 188.842598 
L 136.922998 188.842598 
L 139.997379 188.842599 
L 143.071759 188.842598 
L 146.146139 188.842598 
L 149.220519 188.842598 
L 152.294899 188.842598 
L 155.369279 188.842598 
L 158.44366 188.842598 
L 161.51804 188.842598 
L 164.59242 188.842598 
L 167.6668 188.842598 
L 170.74118 188.842598 
L 173.81556 188.842598 
L 176.889941 188.842598 
L 179.964321 188.842598 
L 183.038701 188.842598 
L 186.113081 188.842598 
L 189.187461 188.842598 
L 192.261841 188.842598 
L 195.336222 188.842598 
L 198.410602 188.842598 
L 201.484982 188.842598 
L 204.559362 188.842598 
L 207.633742 188.842598 
L 210.708122 188.842598 
L 213.782503 188.842598 
L 216.856883 188.842598 
L 219.931263 188.842598 
L 223.005643 188.842598 
L 226.080023 188.842598 
L 229.154403 188.842598 
L 232.228784 188.842598 
L 235.303164 188.842598 
L 238.377544 188.842598 
L 241.451924 188.842598 
L 244.526304 188.842598 
L 247.600684 188.842598 
L 250.675065 188.842598 
L 253.749445 188.842598 
L 256.823825 188.842598 
L 259.898205 188.842598 
L 262.972585 188.842598 
L 266.046965 188.842598 
L 269.121346 188.842598 
L 272.195726 188.842598 
L 275.270106 188.842598 
L 278.344486 188.842598 
L 281.418866 188.842598 
L 284.493246 188.842598 
L 287.567627 188.842598 
L 290.642007 188.842598 
L 293.716387 188.842598 
L 296.790767 188.842598 
L 299.865147 188.842598 
L 302.939527 188.842598 
L 306.013908 188.842598 
L 309.088288 188.842598 
L 312.162668 188.842598 
L 315.237048 188.842598 
L 318.311428 188.842598 
L 321.385808 188.842598 
L 324.460189 188.842598 
L 327.534569 188.842598 
L 330.608949 188.842598 
L 333.683329 188.842598 
L 336.757709 188.842598 
L 339.832089 188.842598 
L 342.90647 188.842598 
L 345.98085 188.842598 
L 349.05523 188.842598 
L 352.12961 188.842598 
L 355.20399 188.842598 
L 358.27837 188.842598 
L 361.352751 188.842598 
L 364.427131 188.842598 
" style="fill:none;stroke:#2ca02c;stroke-linecap:square;stroke-width:1.5;"/>
   </g>
   <g id="line2d_33">
    <path clip-path="url(#pfa262691f6)" d="M 60.063494 60.478283 
L 63.137874 60.65318 
L 66.212255 60.835751 
L 69.286635 61.026392 
L 72.361015 61.225429 
L 75.435395 61.433202 
L 78.509775 61.650059 
L 81.584155 61.876388 
L 84.658536 62.114705 
L 87.732916 62.363341 
L 90.807296 62.622684 
L 93.881676 62.893143 
L 96.956056 63.175136 
L 100.030436 63.469092 
L 103.104817 63.775451 
L 106.179197 64.094661 
L 109.253577 64.427182 
L 112.327957 64.773475 
L 115.402337 65.134029 
L 118.476717 65.509322 
L 121.551098 65.899842 
L 124.625478 66.306089 
L 127.699858 66.728565 
L 130.774238 67.168404 
L 133.848618 67.629398 
L 136.922998 68.105874 
L 139.997379 68.601416 
L 143.071759 69.122335 
L 146.146139 69.663336 
L 149.220519 70.122054 
L 152.294899 70.579011 
L 155.369279 71.055926 
L 158.44366 71.553517 
L 161.51804 72.082051 
L 164.59242 72.651811 
L 167.6668 73.245146 
L 170.74118 73.858048 
L 173.81556 74.497384 
L 176.889941 75.172903 
L 179.964321 75.879692 
L 183.038701 76.616823 
L 186.113081 77.386706 
L 189.187461 78.200776 
L 192.261841 79.049609 
L 195.336222 79.917515 
L 198.410602 80.822701 
L 201.484982 81.746701 
L 204.559362 82.709458 
L 207.633742 83.713829 
L 210.708122 84.761482 
L 213.782503 85.854148 
L 216.856883 86.980582 
L 219.931263 88.153818 
L 223.005643 89.377629 
L 226.080023 90.600473 
L 229.154403 91.873418 
L 232.228784 93.224715 
L 235.303164 94.635664 
L 238.377544 96.108768 
L 241.451924 97.646639 
L 244.526304 99.251993 
L 247.600684 100.927666 
L 250.675065 102.676614 
L 253.749445 104.501922 
L 256.823825 106.406815 
L 259.898205 108.394668 
L 262.972585 110.469013 
L 266.046965 112.633556 
L 269.121346 115.014542 
L 272.195726 117.50383 
L 275.270106 120.103648 
L 278.344486 122.818827 
L 281.418866 125.654436 
L 284.493246 128.615793 
L 287.567627 131.708493 
L 290.642007 134.938426 
L 293.716387 138.311806 
L 296.790767 141.835201 
L 299.865147 145.515569 
L 302.939527 149.360291 
L 306.013908 153.377229 
L 309.088288 157.574768 
L 312.162668 161.961884 
L 315.237048 166.548213 
L 318.311428 171.344134 
L 321.385808 176.360866 
L 324.460189 181.610583 
L 327.534569 187.106544 
L 330.608949 188.842598 
L 333.683329 188.842598 
L 336.757709 188.842599 
L 339.832089 188.842598 
L 342.90647 188.842598 
L 345.98085 188.842598 
L 349.05523 188.842598 
L 352.12961 188.842599 
L 355.20399 188.842599 
L 358.27837 188.842598 
L 361.352751 188.842598 
L 364.427131 188.842598 
" style="fill:none;stroke:#d62728;stroke-linecap:square;stroke-width:1.5;"/>
   </g>
   <g id="line2d_34">
    <path clip-path="url(#pfa262691f6)" d="M 60.063494 194.505487 
L 63.137874 194.3597 
L 66.212255 194.207216 
L 69.286635 194.04762 
L 72.361015 193.880587 
L 75.435395 193.705774 
L 78.509775 193.522827 
L 81.584155 193.331408 
L 84.658536 193.133362 
L 87.732916 192.926134 
L 90.807296 192.709295 
L 93.881676 192.482407 
L 96.956056 192.24501 
L 100.030436 191.996626 
L 103.104817 191.736754 
L 106.179197 191.46487 
L 109.253577 191.180425 
L 112.327957 190.882848 
L 115.402337 190.571536 
L 118.476717 190.245862 
L 121.551098 189.905167 
L 124.625478 189.548762 
L 127.699858 189.175923 
L 130.774238 188.842634 
L 133.848618 188.842599 
L 136.922998 188.842599 
L 139.997379 188.842599 
L 143.071759 188.842599 
L 146.146139 188.842599 
L 149.220519 188.842599 
L 152.294899 188.842599 
L 155.369279 188.842599 
L 158.44366 188.842598 
L 161.51804 188.842599 
L 164.59242 188.842598 
L 167.6668 188.842598 
L 170.74118 188.842598 
L 173.81556 188.842599 
L 176.889941 188.842598 
L 179.964321 188.842598 
L 183.038701 188.842599 
L 186.113081 188.842598 
L 189.187461 188.842598 
L 192.261841 188.842598 
L 195.336222 188.842598 
L 198.410602 188.842598 
L 201.484982 188.842598 
L 204.559362 188.842598 
L 207.633742 188.842598 
L 210.708122 188.842598 
L 213.782503 188.842598 
L 216.856883 188.842598 
L 219.931263 188.842598 
L 223.005643 188.842598 
L 226.080023 188.842598 
L 229.154403 188.842598 
L 232.228784 188.842598 
L 235.303164 188.842598 
L 238.377544 188.842598 
L 241.451924 188.842598 
L 244.526304 188.842598 
L 247.600684 188.842598 
L 250.675065 188.842598 
L 253.749445 188.842598 
L 256.823825 188.842598 
L 259.898205 188.842598 
L 262.972585 188.842598 
L 266.046965 188.842598 
L 269.121346 188.842598 
L 272.195726 188.842598 
L 275.270106 188.842598 
L 278.344486 188.842598 
L 281.418866 188.842598 
L 284.493246 188.842598 
L 287.567627 188.842598 
L 290.642007 188.842598 
L 293.716387 188.842598 
L 296.790767 188.842598 
L 299.865147 188.842598 
L 302.939527 188.842598 
L 306.013908 188.842598 
L 309.088288 188.842598 
L 312.162668 188.842598 
L 315.237048 188.842598 
L 318.311428 188.842598 
L 321.385808 188.842598 
L 324.460189 188.842598 
L 327.534569 188.842598 
L 330.608949 188.842598 
L 333.683329 188.842598 
L 336.757709 188.842598 
L 339.832089 188.842598 
L 342.90647 188.842598 
L 345.98085 188.842598 
L 349.05523 188.842598 
L 352.12961 188.842598 
L 355.20399 188.842598 
L 358.27837 188.842598 
L 361.352751 188.842598 
L 364.427131 188.842598 
" style="fill:none;stroke:#9467bd;stroke-linecap:square;stroke-width:1.5;"/>
   </g>
   <g id="line2d_35">
    <path clip-path="url(#pfa262691f6)" d="M 60.063494 175.601418 
L 63.137874 175.717089 
L 66.212255 175.83802 
L 69.286635 175.964516 
L 72.361015 176.096825 
L 75.435395 176.235207 
L 78.509775 176.379932 
L 81.584155 176.53122 
L 84.658536 176.685598 
L 87.732916 176.847002 
L 90.807296 177.015757 
L 93.881676 177.192185 
L 96.956056 177.376621 
L 100.030436 177.569416 
L 103.104817 177.770933 
L 106.179197 177.981554 
L 109.253577 178.201672 
L 112.327957 178.431699 
L 115.402337 178.672067 
L 118.476717 178.92322 
L 121.551098 179.185626 
L 124.625478 179.459772 
L 127.699858 179.746165 
L 130.774238 180.045523 
L 133.848618 180.359445 
L 136.922998 180.689432 
L 139.997379 181.033277 
L 143.071759 181.384194 
L 146.146139 181.750861 
L 149.220519 182.15698 
L 152.294899 182.572829 
L 155.369279 183.007763 
L 158.44366 183.462808 
L 161.51804 183.943727 
L 164.59242 184.45628 
L 167.6668 184.992979 
L 170.74118 185.557052 
L 173.81556 186.147184 
L 176.889941 186.789384 
L 179.964321 187.467407 
L 183.038701 188.176685 
L 186.113081 188.842587 
L 189.187461 188.842598 
L 192.261841 188.842598 
L 195.336222 188.842598 
L 198.410602 188.842598 
L 201.484982 188.842598 
L 204.559362 188.842598 
L 207.633742 188.842598 
L 210.708122 188.842598 
L 213.782503 188.842598 
L 216.856883 188.842598 
L 219.931263 188.842598 
L 223.005643 188.842598 
L 226.080023 188.842598 
L 229.154403 188.842598 
L 232.228784 188.842598 
L 235.303164 188.842598 
L 238.377544 188.842598 
L 241.451924 188.842598 
L 244.526304 188.842598 
L 247.600684 188.842598 
L 250.675065 188.842598 
L 253.749445 188.842598 
L 256.823825 188.842598 
L 259.898205 188.842598 
L 262.972585 188.842598 
L 266.046965 188.842598 
L 269.121346 188.842598 
L 272.195726 188.842598 
L 275.270106 188.842598 
L 278.344486 188.842598 
L 281.418866 188.842598 
L 284.493246 188.842598 
L 287.567627 188.842598 
L 290.642007 188.842598 
L 293.716387 188.842598 
L 296.790767 188.842598 
L 299.865147 188.842598 
L 302.939527 188.842598 
L 306.013908 188.842598 
L 309.088288 188.842598 
L 312.162668 188.842598 
L 315.237048 188.842598 
L 318.311428 188.842598 
L 321.385808 188.842598 
L 324.460189 188.842598 
L 327.534569 188.842598 
L 330.608949 188.842598 
L 333.683329 188.842598 
L 336.757709 188.842599 
L 339.832089 188.842598 
L 342.90647 188.842598 
L 345.98085 188.842598 
L 349.05523 188.842598 
L 352.12961 188.842598 
L 355.20399 188.842598 
L 358.27837 188.842598 
L 361.352751 188.842598 
L 364.427131 188.842598 
" style="fill:none;stroke:#8c564b;stroke-linecap:square;stroke-width:1.5;"/>
   </g>
   <g id="line2d_36">
    <path clip-path="url(#pfa262691f6)" d="M 60.063494 194.887421 
L 63.137874 194.760683 
L 66.212255 194.627963 
L 69.286635 194.489043 
L 72.361015 194.343637 
L 75.435395 194.191446 
L 78.509775 194.032156 
L 81.584155 193.865473 
L 84.658536 193.693003 
L 87.732916 193.512499 
L 90.807296 193.323585 
L 93.881676 193.125873 
L 96.956056 192.918957 
L 100.030436 192.702414 
L 103.104817 192.475799 
L 106.179197 192.238647 
L 109.253577 191.990473 
L 112.327957 191.730767 
L 115.402337 191.458994 
L 118.476717 191.174595 
L 121.551098 190.876983 
L 124.625478 190.56554 
L 127.699858 190.23962 
L 130.774238 189.898974 
L 133.848618 189.545065 
L 136.922998 189.175369 
L 139.997379 188.842618 
L 143.071759 188.842599 
L 146.146139 188.842599 
L 149.220519 188.842599 
L 152.294899 188.842599 
L 155.369279 188.842599 
L 158.44366 188.842599 
L 161.51804 188.842599 
L 164.59242 188.842598 
L 167.6668 188.842598 
L 170.74118 188.842598 
L 173.81556 188.842599 
L 176.889941 188.842599 
L 179.964321 188.842598 
L 183.038701 188.842599 
L 186.113081 188.842598 
L 189.187461 188.842598 
L 192.261841 188.842598 
L 195.336222 188.842598 
L 198.410602 188.842598 
L 201.484982 188.842598 
L 204.559362 188.842598 
L 207.633742 188.842598 
L 210.708122 188.842598 
L 213.782503 188.842598 
L 216.856883 188.842598 
L 219.931263 188.842598 
L 223.005643 188.842598 
L 226.080023 188.842598 
L 229.154403 188.842598 
L 232.228784 188.842598 
L 235.303164 188.842598 
L 238.377544 188.842598 
L 241.451924 188.842598 
L 244.526304 188.842598 
L 247.600684 188.842598 
L 250.675065 188.842598 
L 253.749445 188.842598 
L 256.823825 188.842598 
L 259.898205 188.842598 
L 262.972585 188.842598 
L 266.046965 188.842598 
L 269.121346 188.842598 
L 272.195726 188.842598 
L 275.270106 188.842598 
L 278.344486 188.842598 
L 281.418866 188.842598 
L 284.493246 188.842598 
L 287.567627 188.842598 
L 290.642007 188.842598 
L 293.716387 188.842598 
L 296.790767 188.842598 
L 299.865147 188.842598 
L 302.939527 188.842598 
L 306.013908 188.842598 
L 309.088288 188.842598 
L 312.162668 188.842598 
L 315.237048 188.842598 
L 318.311428 188.842598 
L 321.385808 188.842598 
L 324.460189 188.842598 
L 327.534569 188.842598 
L 330.608949 188.842598 
L 333.683329 188.842598 
L 336.757709 188.842598 
L 339.832089 188.842598 
L 342.90647 188.842598 
L 345.98085 188.842598 
L 349.05523 188.842598 
L 352.12961 188.842598 
L 355.20399 188.842598 
L 358.27837 188.842598 
L 361.352751 188.842598 
L 364.427131 188.842598 
" style="fill:none;stroke:#e377c2;stroke-linecap:square;stroke-width:1.5;"/>
   </g>
   <g id="line2d_37">
    <path clip-path="url(#pfa262691f6)" d="M 60.063494 165.322722 
L 63.137874 165.417813 
L 66.212255 165.517536 
L 69.286635 165.621831 
L 72.361015 165.7309 
L 75.435395 165.844953 
L 78.509775 165.964209 
L 81.584155 166.088892 
L 84.658536 166.219131 
L 87.732916 166.355283 
L 90.807296 166.497608 
L 93.881676 166.646372 
L 96.956056 166.801855 
L 100.030436 166.964346 
L 103.104817 167.134147 
L 106.179197 167.311571 
L 109.253577 167.496943 
L 112.327957 167.690602 
L 115.402337 167.892902 
L 118.476717 168.104208 
L 121.551098 168.324902 
L 124.625478 168.555379 
L 127.699858 168.796054 
L 130.774238 169.050736 
L 133.848618 169.337442 
L 136.922998 169.632519 
L 139.997379 169.940337 
L 143.071759 170.26503 
L 146.146139 170.604128 
L 149.220519 170.925612 
L 152.294899 171.262728 
L 155.369279 171.615196 
L 158.44366 171.983588 
L 161.51804 172.376748 
L 164.59242 172.803482 
L 167.6668 173.251906 
L 170.74118 173.733922 
L 173.81556 174.237666 
L 176.889941 174.766867 
L 179.964321 175.320607 
L 183.038701 175.899273 
L 186.113081 176.505279 
L 189.187461 177.150615 
L 192.261841 177.825323 
L 195.336222 178.55587 
L 198.410602 179.319325 
L 201.484982 180.085836 
L 204.559362 180.884914 
L 207.633742 181.720028 
L 210.708122 182.592795 
L 213.782503 183.504905 
L 216.856883 184.457075 
L 219.931263 185.452266 
L 223.005643 186.492603 
L 226.080023 187.658593 
L 229.154403 188.842584 
L 232.228784 188.842598 
L 235.303164 188.842598 
L 238.377544 188.842598 
L 241.451924 188.842598 
L 244.526304 188.842598 
L 247.600684 188.842598 
L 250.675065 188.842598 
L 253.749445 188.842598 
L 256.823825 188.842598 
L 259.898205 188.842598 
L 262.972585 188.842598 
L 266.046965 188.842598 
L 269.121346 188.842598 
L 272.195726 188.842598 
L 275.270106 188.842598 
L 278.344486 188.842598 
L 281.418866 188.842598 
L 284.493246 188.842598 
L 287.567627 188.842598 
L 290.642007 188.842598 
L 293.716387 188.842598 
L 296.790767 188.842598 
L 299.865147 188.842598 
L 302.939527 188.842598 
L 306.013908 188.842598 
L 309.088288 188.842598 
L 312.162668 188.842598 
L 315.237048 188.842598 
L 318.311428 188.842598 
L 321.385808 188.842598 
L 324.460189 188.842598 
L 327.534569 188.842598 
L 330.608949 188.842598 
L 333.683329 188.842598 
L 336.757709 188.842599 
L 339.832089 188.842598 
L 342.90647 188.842598 
L 345.98085 188.842598 
L 349.05523 188.842598 
L 352.12961 188.842599 
L 355.20399 188.842598 
L 358.27837 188.842598 
L 361.352751 188.842598 
L 364.427131 188.842598 
" style="fill:none;stroke:#7f7f7f;stroke-linecap:square;stroke-width:1.5;"/>
   </g>
   <g id="line2d_38">
    <path clip-path="url(#pfa262691f6)" d="M 60.063494 189.738646 
L 63.137874 189.627228 
L 66.212255 189.510669 
L 69.286635 189.388655 
L 72.361015 189.260929 
L 75.435395 189.127239 
L 78.509775 188.987308 
L 81.584155 188.843149 
L 84.658536 188.842603 
L 87.732916 188.8426 
L 90.807296 188.842599 
L 93.881676 188.842599 
L 96.956056 188.8426 
L 100.030436 188.842599 
L 103.104817 188.842599 
L 106.179197 188.842599 
L 109.253577 188.842599 
L 112.327957 188.842599 
L 115.402337 188.842599 
L 118.476717 188.842598 
L 121.551098 188.842598 
L 124.625478 188.842599 
L 127.699858 188.842599 
L 130.774238 188.842599 
L 133.848618 188.842598 
L 136.922998 188.842598 
L 139.997379 188.842599 
L 143.071759 188.842598 
L 146.146139 188.842598 
L 149.220519 188.842599 
L 152.294899 188.842599 
L 155.369279 188.842598 
L 158.44366 188.842598 
L 161.51804 188.842598 
L 164.59242 188.842598 
L 167.6668 188.842598 
L 170.74118 188.842598 
L 173.81556 188.842598 
L 176.889941 188.842598 
L 179.964321 188.842598 
L 183.038701 188.842598 
L 186.113081 188.842598 
L 189.187461 188.842598 
L 192.261841 188.842598 
L 195.336222 188.842598 
L 198.410602 188.842598 
L 201.484982 188.842598 
L 204.559362 188.842598 
L 207.633742 188.842598 
L 210.708122 188.842598 
L 213.782503 188.842598 
L 216.856883 188.842598 
L 219.931263 188.842598 
L 223.005643 188.842598 
L 226.080023 188.842598 
L 229.154403 188.842598 
L 232.228784 188.842598 
L 235.303164 188.842598 
L 238.377544 188.842598 
L 241.451924 188.842598 
L 244.526304 188.842598 
L 247.600684 188.842598 
L 250.675065 188.842598 
L 253.749445 188.842598 
L 256.823825 188.842598 
L 259.898205 188.842598 
L 262.972585 188.842598 
L 266.046965 188.842598 
L 269.121346 188.842598 
L 272.195726 188.842598 
L 275.270106 188.842598 
L 278.344486 188.842598 
L 281.418866 188.842598 
L 284.493246 188.842598 
L 287.567627 188.842598 
L 290.642007 188.842598 
L 293.716387 188.842598 
L 296.790767 188.842598 
L 299.865147 188.842598 
L 302.939527 188.842598 
L 306.013908 188.842598 
L 309.088288 188.842598 
L 312.162668 188.842598 
L 315.237048 188.842598 
L 318.311428 188.842598 
L 321.385808 188.842598 
L 324.460189 188.842598 
L 327.534569 188.842598 
L 330.608949 188.842598 
L 333.683329 188.842598 
L 336.757709 188.842598 
L 339.832089 188.842598 
L 342.90647 188.842598 
L 345.98085 188.842598 
L 349.05523 188.842598 
L 352.12961 188.842598 
L 355.20399 188.842598 
L 358.27837 188.842598 
L 361.352751 188.842598 
L 364.427131 188.842598 
" style="fill:none;stroke:#bcbd22;stroke-linecap:square;stroke-width:1.5;"/>
   </g>
   <g id="line2d_39">
    <path clip-path="url(#pfa262691f6)" d="M 60.063494 170.002817 
L 63.137874 170.133281 
L 66.212255 170.2699 
L 69.286635 170.412826 
L 72.361015 170.562342 
L 75.435395 170.718746 
L 78.509775 170.882345 
L 81.584155 171.053517 
L 84.658536 171.235945 
L 87.732916 171.426762 
L 90.807296 171.626321 
L 93.881676 171.835013 
L 96.956056 172.053244 
L 100.030436 172.281436 
L 103.104817 172.520031 
L 106.179197 172.769489 
L 109.253577 173.030291 
L 112.327957 173.302936 
L 115.402337 173.587952 
L 118.476717 173.885883 
L 121.551098 174.197298 
L 124.625478 174.522796 
L 127.699858 174.863 
L 130.774238 175.218921 
L 133.848618 175.59311 
L 136.922998 175.978805 
L 139.997379 176.382551 
L 143.071759 176.815193 
L 146.146139 177.267288 
L 149.220519 177.707899 
L 152.294899 178.171817 
L 155.369279 178.657267 
L 158.44366 179.165111 
L 161.51804 179.701299 
L 164.59242 180.271774 
L 167.6668 180.870273 
L 170.74118 181.505977 
L 173.81556 182.170949 
L 176.889941 182.879006 
L 179.964321 183.622782 
L 183.038701 184.400794 
L 186.113081 185.213399 
L 189.187461 186.052205 
L 192.261841 186.929372 
L 195.336222 187.836482 
L 198.410602 188.78505 
L 201.484982 188.842598 
L 204.559362 188.842598 
L 207.633742 188.842598 
L 210.708122 188.842598 
L 213.782503 188.842598 
L 216.856883 188.842598 
L 219.931263 188.842598 
L 223.005643 188.842598 
L 226.080023 188.842598 
L 229.154403 188.842598 
L 232.228784 188.842598 
L 235.303164 188.842598 
L 238.377544 188.842598 
L 241.451924 188.842598 
L 244.526304 188.842598 
L 247.600684 188.842598 
L 250.675065 188.842598 
L 253.749445 188.842598 
L 256.823825 188.842598 
L 259.898205 188.842598 
L 262.972585 188.842598 
L 266.046965 188.842598 
L 269.121346 188.842598 
L 272.195726 188.842598 
L 275.270106 188.842598 
L 278.344486 188.842598 
L 281.418866 188.842598 
L 284.493246 188.842598 
L 287.567627 188.842598 
L 290.642007 188.842598 
L 293.716387 188.842598 
L 296.790767 188.842598 
L 299.865147 188.842598 
L 302.939527 188.842598 
L 306.013908 188.842598 
L 309.088288 188.842598 
L 312.162668 188.842598 
L 315.237048 188.842598 
L 318.311428 188.842598 
L 321.385808 188.842598 
L 324.460189 188.842598 
L 327.534569 188.842598 
L 330.608949 188.842598 
L 333.683329 188.842598 
L 336.757709 188.842598 
L 339.832089 188.842598 
L 342.90647 188.842598 
L 345.98085 188.842598 
L 349.05523 188.842598 
L 352.12961 188.842599 
L 355.20399 188.842598 
L 358.27837 188.842598 
L 361.352751 188.842598 
L 364.427131 188.842598 
" style="fill:none;stroke:#17becf;stroke-linecap:square;stroke-width:1.5;"/>
   </g>
   <g id="line2d_40">
    <path clip-path="url(#pfa262691f6)" d="M 60.063494 179.861598 
L 63.137874 179.96005 
L 66.212255 180.06284 
L 69.286635 180.170426 
L 72.361015 180.283029 
L 75.435395 180.400878 
L 78.509775 180.524214 
L 81.584155 180.653293 
L 84.658536 180.7888 
L 87.732916 180.93061 
L 90.807296 181.07901 
L 93.881676 181.234302 
L 96.956056 181.396799 
L 100.030436 181.566832 
L 103.104817 181.744745 
L 106.179197 181.930898 
L 109.253577 182.125667 
L 112.327957 182.329446 
L 115.402337 182.542649 
L 118.476717 182.765705 
L 121.551098 182.999067 
L 124.625478 183.243209 
L 127.699858 183.498626 
L 130.774238 183.765414 
L 133.848618 184.041927 
L 136.922998 184.33415 
L 139.997379 184.642448 
L 143.071759 184.977997 
L 146.146139 185.329106 
L 149.220519 185.75736 
L 152.294899 186.232827 
L 155.369279 186.730482 
L 158.44366 187.251243 
L 161.51804 187.792259 
L 164.59242 188.350755 
L 167.6668 188.842592 
L 170.74118 188.842597 
L 173.81556 188.842598 
L 176.889941 188.842598 
L 179.964321 188.842598 
L 183.038701 188.842598 
L 186.113081 188.842598 
L 189.187461 188.842598 
L 192.261841 188.842598 
L 195.336222 188.842598 
L 198.410602 188.842598 
L 201.484982 188.842598 
L 204.559362 188.842598 
L 207.633742 188.842598 
L 210.708122 188.842598 
L 213.782503 188.842598 
L 216.856883 188.842598 
L 219.931263 188.842598 
L 223.005643 188.842598 
L 226.080023 188.842598 
L 229.154403 188.842598 
L 232.228784 188.842598 
L 235.303164 188.842598 
L 238.377544 188.842598 
L 241.451924 188.842598 
L 244.526304 188.842598 
L 247.600684 188.842598 
L 250.675065 188.842598 
L 253.749445 188.842598 
L 256.823825 188.842598 
L 259.898205 188.842598 
L 262.972585 188.842598 
L 266.046965 188.842598 
L 269.121346 188.842598 
L 272.195726 188.842598 
L 275.270106 188.842598 
L 278.344486 188.842598 
L 281.418866 188.842598 
L 284.493246 188.842598 
L 287.567627 188.842598 
L 290.642007 188.842598 
L 293.716387 188.842598 
L 296.790767 188.842598 
L 299.865147 188.842598 
L 302.939527 188.842598 
L 306.013908 188.842598 
L 309.088288 188.842598 
L 312.162668 188.842598 
L 315.237048 188.842598 
L 318.311428 188.842598 
L 321.385808 188.842598 
L 324.460189 188.842598 
L 327.534569 188.842598 
L 330.608949 188.842598 
L 333.683329 188.842598 
L 336.757709 188.842598 
L 339.832089 188.842598 
L 342.90647 188.842598 
L 345.98085 188.842598 
L 349.05523 188.842598 
L 352.12961 188.842598 
L 355.20399 188.842598 
L 358.27837 188.842598 
L 361.352751 188.842598 
L 364.427131 188.842598 
" style="fill:none;stroke:#1f77b4;stroke-linecap:square;stroke-width:1.5;"/>
   </g>
   <g id="line2d_41">
    <path clip-path="url(#pfa262691f6)" d="M 60.063494 183.573782 
L 63.137874 183.695068 
L 66.212255 183.821965 
L 69.286635 183.954784 
L 72.361015 184.093799 
L 75.435395 184.239292 
L 78.509775 184.391563 
L 81.584155 184.550961 
L 84.658536 184.720466 
L 87.732916 184.897858 
L 90.807296 185.083489 
L 93.881676 185.277737 
L 96.956056 185.480996 
L 100.030436 185.69368 
L 103.104817 185.91622 
L 106.179197 186.149067 
L 109.253577 186.392696 
L 112.327957 186.6476 
L 115.402337 186.914299 
L 118.476717 187.193337 
L 121.551098 187.485282 
L 124.625478 187.790734 
L 127.699858 188.110319 
L 130.774238 188.444122 
L 133.848618 188.789884 
L 136.922998 188.842596 
L 139.997379 188.842597 
L 143.071759 188.842598 
L 146.146139 188.842598 
L 149.220519 188.842598 
L 152.294899 188.842598 
L 155.369279 188.842598 
L 158.44366 188.842598 
L 161.51804 188.842598 
L 164.59242 188.842598 
L 167.6668 188.842598 
L 170.74118 188.842598 
L 173.81556 188.842598 
L 176.889941 188.842598 
L 179.964321 188.842598 
L 183.038701 188.842598 
L 186.113081 188.842598 
L 189.187461 188.842598 
L 192.261841 188.842598 
L 195.336222 188.842598 
L 198.410602 188.842598 
L 201.484982 188.842598 
L 204.559362 188.842598 
L 207.633742 188.842598 
L 210.708122 188.842598 
L 213.782503 188.842598 
L 216.856883 188.842598 
L 219.931263 188.842598 
L 223.005643 188.842598 
L 226.080023 188.842598 
L 229.154403 188.842598 
L 232.228784 188.842598 
L 235.303164 188.842598 
L 238.377544 188.842598 
L 241.451924 188.842598 
L 244.526304 188.842598 
L 247.600684 188.842598 
L 250.675065 188.842598 
L 253.749445 188.842598 
L 256.823825 188.842598 
L 259.898205 188.842598 
L 262.972585 188.842598 
L 266.046965 188.842598 
L 269.121346 188.842598 
L 272.195726 188.842598 
L 275.270106 188.842598 
L 278.344486 188.842598 
L 281.418866 188.842598 
L 284.493246 188.842598 
L 287.567627 188.842598 
L 290.642007 188.842598 
L 293.716387 188.842598 
L 296.790767 188.842598 
L 299.865147 188.842598 
L 302.939527 188.842598 
L 306.013908 188.842598 
L 309.088288 188.842598 
L 312.162668 188.842598 
L 315.237048 188.842598 
L 318.311428 188.842598 
L 321.385808 188.842598 
L 324.460189 188.842598 
L 327.534569 188.842598 
L 330.608949 188.842598 
L 333.683329 188.842598 
L 336.757709 188.842598 
L 339.832089 188.842598 
L 342.90647 188.842598 
L 345.98085 188.842598 
L 349.05523 188.842598 
L 352.12961 188.842598 
L 355.20399 188.842598 
L 358.27837 188.842598 
L 361.352751 188.842598 
L 364.427131 188.842598 
" style="fill:none;stroke:#ff7f0e;stroke-linecap:square;stroke-width:1.5;"/>
   </g>
   <g id="line2d_42">
    <path clip-path="url(#pfa262691f6)" d="M 60.063494 194.587998 
L 63.137874 194.497746 
L 66.212255 194.403105 
L 69.286635 194.304062 
L 72.361015 194.200418 
L 75.435395 194.09196 
L 78.509775 193.978471 
L 81.584155 193.859596 
L 84.658536 193.727013 
L 87.732916 193.588243 
L 90.807296 193.443036 
L 93.881676 193.291097 
L 96.956056 193.132121 
L 100.030436 192.965785 
L 103.104817 192.791756 
L 106.179197 192.609681 
L 109.253577 192.419193 
L 112.327957 192.219909 
L 115.402337 192.011426 
L 118.476717 191.793323 
L 121.551098 191.56516 
L 124.625478 191.326475 
L 127.699858 191.076782 
L 130.774238 190.815889 
L 133.848618 190.544892 
L 136.922998 190.252056 
L 139.997379 189.94457 
L 143.071759 189.626379 
L 146.146139 189.293545 
L 149.220519 188.847344 
L 152.294899 188.8426 
L 155.369279 188.842599 
L 158.44366 188.842599 
L 161.51804 188.842599 
L 164.59242 188.842599 
L 167.6668 188.842599 
L 170.74118 188.842599 
L 173.81556 188.842599 
L 176.889941 188.842599 
L 179.964321 188.842598 
L 183.038701 188.842599 
L 186.113081 188.842598 
L 189.187461 188.842598 
L 192.261841 188.842598 
L 195.336222 188.842598 
L 198.410602 188.842598 
L 201.484982 188.842598 
L 204.559362 188.842598 
L 207.633742 188.842598 
L 210.708122 188.842598 
L 213.782503 188.842598 
L 216.856883 188.842598 
L 219.931263 188.842598 
L 223.005643 188.842598 
L 226.080023 188.842598 
L 229.154403 188.842598 
L 232.228784 188.842598 
L 235.303164 188.842598 
L 238.377544 188.842598 
L 241.451924 188.842598 
L 244.526304 188.842598 
L 247.600684 188.842598 
L 250.675065 188.842598 
L 253.749445 188.842598 
L 256.823825 188.842598 
L 259.898205 188.842598 
L 262.972585 188.842598 
L 266.046965 188.842598 
L 269.121346 188.842598 
L 272.195726 188.842598 
L 275.270106 188.842598 
L 278.344486 188.842598 
L 281.418866 188.842598 
L 284.493246 188.842598 
L 287.567627 188.842598 
L 290.642007 188.842598 
L 293.716387 188.842598 
L 296.790767 188.842598 
L 299.865147 188.842598 
L 302.939527 188.842598 
L 306.013908 188.842598 
L 309.088288 188.842598 
L 312.162668 188.842598 
L 315.237048 188.842598 
L 318.311428 188.842598 
L 321.385808 188.842598 
L 324.460189 188.842598 
L 327.534569 188.842598 
L 330.608949 188.842598 
L 333.683329 188.842598 
L 336.757709 188.842598 
L 339.832089 188.842598 
L 342.90647 188.842598 
L 345.98085 188.842598 
L 349.05523 188.842598 
L 352.12961 188.842598 
L 355.20399 188.842599 
L 358.27837 188.842598 
L 361.352751 188.842598 
L 364.427131 188.842599 
" style="fill:none;stroke:#2ca02c;stroke-linecap:square;stroke-width:1.5;"/>
   </g>
   <g id="line2d_43">
    <path clip-path="url(#pfa262691f6)" d="M 60.063494 181.348237 
L 63.137874 181.445466 
L 66.212255 181.547034 
L 69.286635 181.653365 
L 72.361015 181.76468 
L 75.435395 181.881208 
L 78.509775 182.003193 
L 81.584155 182.13088 
L 84.658536 182.264339 
L 87.732916 182.404029 
L 90.807296 182.550237 
L 93.881676 182.703266 
L 96.956056 182.863429 
L 100.030436 183.031056 
L 103.104817 183.206491 
L 106.179197 183.390095 
L 109.253577 183.582243 
L 112.327957 183.783332 
L 115.402337 183.993775 
L 118.476717 184.214005 
L 121.551098 184.444475 
L 124.625478 184.685662 
L 127.699858 184.938065 
L 130.774238 185.201185 
L 133.848618 185.470294 
L 136.922998 185.762042 
L 139.997379 186.068758 
L 143.071759 186.38705 
L 146.146139 186.720074 
L 149.220519 187.125939 
L 152.294899 187.56782 
L 155.369279 188.030125 
L 158.44366 188.513778 
L 161.51804 188.842589 
L 164.59242 188.842598 
L 167.6668 188.842598 
L 170.74118 188.842598 
L 173.81556 188.842598 
L 176.889941 188.842598 
L 179.964321 188.842598 
L 183.038701 188.842598 
L 186.113081 188.842598 
L 189.187461 188.842598 
L 192.261841 188.842598 
L 195.336222 188.842598 
L 198.410602 188.842598 
L 201.484982 188.842598 
L 204.559362 188.842598 
L 207.633742 188.842598 
L 210.708122 188.842598 
L 213.782503 188.842598 
L 216.856883 188.842598 
L 219.931263 188.842598 
L 223.005643 188.842598 
L 226.080023 188.842598 
L 229.154403 188.842598 
L 232.228784 188.842598 
L 235.303164 188.842598 
L 238.377544 188.842598 
L 241.451924 188.842598 
L 244.526304 188.842598 
L 247.600684 188.842598 
L 250.675065 188.842598 
L 253.749445 188.842598 
L 256.823825 188.842598 
L 259.898205 188.842598 
L 262.972585 188.842598 
L 266.046965 188.842598 
L 269.121346 188.842598 
L 272.195726 188.842598 
L 275.270106 188.842598 
L 278.344486 188.842598 
L 281.418866 188.842598 
L 284.493246 188.842598 
L 287.567627 188.842598 
L 290.642007 188.842598 
L 293.716387 188.842598 
L 296.790767 188.842598 
L 299.865147 188.842598 
L 302.939527 188.842598 
L 306.013908 188.842598 
L 309.088288 188.842598 
L 312.162668 188.842598 
L 315.237048 188.842598 
L 318.311428 188.842598 
L 321.385808 188.842598 
L 324.460189 188.842598 
L 327.534569 188.842598 
L 330.608949 188.842598 
L 333.683329 188.842598 
L 336.757709 188.842599 
L 339.832089 188.842598 
L 342.90647 188.842598 
L 345.98085 188.842598 
L 349.05523 188.842598 
L 352.12961 188.842598 
L 355.20399 188.842598 
L 358.27837 188.842598 
L 361.352751 188.842598 
L 364.427131 188.842598 
" style="fill:none;stroke:#d62728;stroke-linecap:square;stroke-width:1.5;"/>
   </g>
   <g id="line2d_44">
    <path clip-path="url(#pfa262691f6)" d="M 60.063494 164.377645 
L 63.137874 164.528272 
L 66.212255 164.685573 
L 69.286635 164.850163 
L 72.361015 165.022372 
L 75.435395 165.202545 
L 78.509775 165.391041 
L 81.584155 165.58824 
L 84.658536 165.79498 
L 87.732916 166.011264 
L 90.807296 166.237518 
L 93.881676 166.474193 
L 96.956056 166.721755 
L 100.030436 166.980693 
L 103.104817 167.251515 
L 106.179197 167.534753 
L 109.253577 167.830963 
L 112.327957 168.140722 
L 115.402337 168.464637 
L 118.476717 168.803339 
L 121.551098 169.157486 
L 124.625478 169.527767 
L 127.699858 169.914903 
L 130.774238 170.319208 
L 133.848618 170.739215 
L 136.922998 171.168778 
L 139.997379 171.614037 
L 143.071759 172.065587 
L 146.146139 172.537657 
L 149.220519 172.99242 
L 152.294899 173.463894 
L 155.369279 173.957163 
L 158.44366 174.473155 
L 161.51804 175.00587 
L 164.59242 175.549418 
L 167.6668 176.118235 
L 170.74118 176.7149 
L 173.81556 177.338896 
L 176.889941 177.99377 
L 179.964321 178.679205 
L 183.038701 179.396004 
L 186.113081 180.146497 
L 189.187461 180.939626 
L 192.261841 181.76913 
L 195.336222 182.645472 
L 198.410602 183.561804 
L 201.484982 184.501168 
L 204.559362 185.482204 
L 207.633742 186.508016 
L 210.708122 187.580651 
L 213.782503 188.702245 
L 216.856883 188.842598 
L 219.931263 188.842598 
L 223.005643 188.842598 
L 226.080023 188.842598 
L 229.154403 188.842598 
L 232.228784 188.842598 
L 235.303164 188.842598 
L 238.377544 188.842598 
L 241.451924 188.842598 
L 244.526304 188.842598 
L 247.600684 188.842598 
L 250.675065 188.842598 
L 253.749445 188.842598 
L 256.823825 188.842598 
L 259.898205 188.842598 
L 262.972585 188.842598 
L 266.046965 188.842598 
L 269.121346 188.842598 
L 272.195726 188.842598 
L 275.270106 188.842598 
L 278.344486 188.842598 
L 281.418866 188.842598 
L 284.493246 188.842598 
L 287.567627 188.842598 
L 290.642007 188.842598 
L 293.716387 188.842598 
L 296.790767 188.842598 
L 299.865147 188.842598 
L 302.939527 188.842598 
L 306.013908 188.842598 
L 309.088288 188.842598 
L 312.162668 188.842598 
L 315.237048 188.842598 
L 318.311428 188.842598 
L 321.385808 188.842598 
L 324.460189 188.842598 
L 327.534569 188.842598 
L 330.608949 188.842598 
L 333.683329 188.842598 
L 336.757709 188.842599 
L 339.832089 188.842598 
L 342.90647 188.842598 
L 345.98085 188.842598 
L 349.05523 188.842598 
L 352.12961 188.842599 
L 355.20399 188.842598 
L 358.27837 188.842598 
L 361.352751 188.842598 
L 364.427131 188.842598 
" style="fill:none;stroke:#9467bd;stroke-linecap:square;stroke-width:1.5;"/>
   </g>
   <g id="line2d_45">
    <path clip-path="url(#pfa262691f6)" d="M 60.063494 188.842598 
L 63.137874 188.842598 
L 66.212255 188.842598 
L 69.286635 188.842598 
L 72.361015 188.842598 
L 75.435395 188.842598 
L 78.509775 188.842598 
L 81.584155 188.842598 
L 84.658536 188.842598 
L 87.732916 188.842598 
L 90.807296 188.842598 
L 93.881676 188.842598 
L 96.956056 188.842598 
L 100.030436 188.842598 
L 103.104817 188.842598 
L 106.179197 188.842598 
L 109.253577 188.842598 
L 112.327957 188.842598 
L 115.402337 188.842598 
L 118.476717 188.842598 
L 121.551098 188.842598 
L 124.625478 188.842598 
L 127.699858 188.842598 
L 130.774238 188.842598 
L 133.848618 188.842598 
L 136.922998 188.842598 
L 139.997379 188.842598 
L 143.071759 188.842598 
L 146.146139 188.842598 
L 149.220519 188.842598 
L 152.294899 188.842598 
L 155.369279 188.842598 
L 158.44366 188.842598 
L 161.51804 188.842598 
L 164.59242 188.842598 
L 167.6668 188.842598 
L 170.74118 188.842598 
L 173.81556 188.842598 
L 176.889941 188.842598 
L 179.964321 188.842598 
L 183.038701 188.842598 
L 186.113081 188.842598 
L 189.187461 188.842598 
L 192.261841 188.842598 
L 195.336222 188.842598 
L 198.410602 188.842598 
L 201.484982 188.842598 
L 204.559362 188.842598 
L 207.633742 188.842598 
L 210.708122 188.842598 
L 213.782503 188.842598 
L 216.856883 188.842598 
L 219.931263 188.842598 
L 223.005643 188.842598 
L 226.080023 188.842598 
L 229.154403 188.842598 
L 232.228784 188.842598 
L 235.303164 188.842598 
L 238.377544 188.842598 
L 241.451924 188.842598 
L 244.526304 188.842598 
L 247.600684 188.842598 
L 250.675065 188.842598 
L 253.749445 188.842598 
L 256.823825 188.842598 
L 259.898205 188.842598 
L 262.972585 188.842598 
L 266.046965 188.842598 
L 269.121346 188.842598 
L 272.195726 188.842598 
L 275.270106 188.842598 
L 278.344486 188.842598 
L 281.418866 188.842598 
L 284.493246 188.842598 
L 287.567627 188.842598 
L 290.642007 188.842598 
L 293.716387 188.842598 
L 296.790767 188.842598 
L 299.865147 188.842598 
L 302.939527 188.842598 
L 306.013908 188.842598 
L 309.088288 188.842598 
L 312.162668 188.842598 
L 315.237048 188.842598 
L 318.311428 188.842598 
L 321.385808 188.842598 
L 324.460189 188.842598 
L 327.534569 188.842598 
L 330.608949 188.842598 
L 333.683329 188.842598 
L 336.757709 188.842598 
L 339.832089 188.842598 
L 342.90647 188.842598 
L 345.98085 188.842598 
L 349.05523 188.842598 
L 352.12961 188.842598 
L 355.20399 188.842598 
L 358.27837 188.842598 
L 361.352751 188.842598 
L 364.427131 188.842598 
" style="fill:none;stroke:#8c564b;stroke-linecap:square;stroke-width:1.5;"/>
   </g>
   <g id="line2d_46">
    <path clip-path="url(#pfa262691f6)" d="M 60.063494 138.633974 
L 63.137874 138.764729 
L 66.212255 138.901173 
L 69.286635 139.043839 
L 72.361015 139.192997 
L 75.435395 139.34893 
L 78.509775 139.511933 
L 81.584155 139.682314 
L 84.658536 139.86073 
L 87.732916 140.047192 
L 90.807296 140.242038 
L 93.881676 140.445628 
L 96.956056 140.65833 
L 100.030436 140.88053 
L 103.104817 141.112626 
L 106.179197 141.355031 
L 109.253577 141.608176 
L 112.327957 141.872502 
L 115.402337 142.148475 
L 118.476717 142.436572 
L 121.551098 142.737287 
L 124.625478 143.051133 
L 127.699858 143.378643 
L 130.774238 143.718653 
L 133.848618 144.062861 
L 136.922998 144.419868 
L 139.997379 144.792893 
L 143.071759 145.188365 
L 146.146139 145.60084 
L 149.220519 146.064273 
L 152.294899 146.525261 
L 155.369279 147.006862 
L 158.44366 147.510307 
L 161.51804 148.040016 
L 164.59242 148.600441 
L 167.6668 149.181542 
L 170.74118 149.762795 
L 173.81556 150.370311 
L 176.889941 151.009228 
L 179.964321 151.67798 
L 183.038701 152.376881 
L 186.113081 153.103068 
L 189.187461 153.823556 
L 192.261841 154.576596 
L 195.336222 155.386351 
L 198.410602 156.232348 
L 201.484982 157.126183 
L 204.559362 158.060767 
L 207.633742 159.037249 
L 210.708122 160.05747 
L 213.782503 161.123358 
L 216.856883 162.192145 
L 219.931263 163.302527 
L 223.005643 164.462725 
L 226.080023 165.647136 
L 229.154403 166.886763 
L 232.228784 168.302314 
L 235.303164 169.781854 
L 238.377544 171.328227 
L 241.451924 172.94441 
L 244.526304 174.633522 
L 247.600684 176.398834 
L 250.675065 178.243781 
L 253.749445 180.17197 
L 256.823825 182.187198 
L 259.898205 184.293465 
L 262.972585 186.494992 
L 266.046965 188.796236 
L 269.121346 188.842598 
L 272.195726 188.842598 
L 275.270106 188.842598 
L 278.344486 188.842598 
L 281.418866 188.842598 
L 284.493246 188.842598 
L 287.567627 188.842598 
L 290.642007 188.842598 
L 293.716387 188.842598 
L 296.790767 188.842598 
L 299.865147 188.842598 
L 302.939527 188.842598 
L 306.013908 188.842598 
L 309.088288 188.842599 
L 312.162668 188.842599 
L 315.237048 188.842598 
L 318.311428 188.842598 
L 321.385808 188.842598 
L 324.460189 188.842598 
L 327.534569 188.842598 
L 330.608949 188.842598 
L 333.683329 188.842598 
L 336.757709 188.842599 
L 339.832089 188.842598 
L 342.90647 188.842598 
L 345.98085 188.842598 
L 349.05523 188.842598 
L 352.12961 188.842599 
L 355.20399 188.842598 
L 358.27837 188.842598 
L 361.352751 188.842598 
L 364.427131 188.842598 
" style="fill:none;stroke:#e377c2;stroke-linecap:square;stroke-width:1.5;"/>
   </g>
   <g id="line2d_47">
    <path clip-path="url(#pfa262691f6)" d="M 60.063494 199.599541 
L 63.137874 199.47645 
L 66.212255 199.347256 
L 69.286635 199.212064 
L 72.361015 199.070602 
L 75.435395 198.922586 
L 78.509775 198.767718 
L 81.584155 198.605735 
L 84.658536 198.439302 
L 87.732916 198.265197 
L 90.807296 198.083066 
L 93.881676 197.892546 
L 96.956056 197.69326 
L 100.030436 197.484812 
L 103.104817 197.266793 
L 106.179197 197.038772 
L 109.253577 196.800301 
L 112.327957 196.55091 
L 115.402337 196.29011 
L 118.476717 196.017388 
L 121.551098 195.73221 
L 124.625478 195.434016 
L 127.699858 195.122218 
L 130.774238 194.795982 
L 133.848618 194.453522 
L 136.922998 194.096191 
L 139.997379 193.72076 
L 143.071759 193.315661 
L 146.146139 192.892139 
L 149.220519 192.491836 
L 152.294899 192.101141 
L 155.369279 191.692601 
L 158.44366 191.265247 
L 161.51804 190.827894 
L 164.59242 190.389167 
L 167.6668 189.929972 
L 170.74118 189.448222 
L 173.81556 188.944327 
L 176.889941 188.842601 
L 179.964321 188.842599 
L 183.038701 188.842599 
L 186.113081 188.842599 
L 189.187461 188.842599 
L 192.261841 188.842599 
L 195.336222 188.842599 
L 198.410602 188.842599 
L 201.484982 188.842598 
L 204.559362 188.842598 
L 207.633742 188.842599 
L 210.708122 188.842599 
L 213.782503 188.842598 
L 216.856883 188.842598 
L 219.931263 188.842599 
L 223.005643 188.842598 
L 226.080023 188.842598 
L 229.154403 188.842598 
L 232.228784 188.842598 
L 235.303164 188.842598 
L 238.377544 188.842598 
L 241.451924 188.842598 
L 244.526304 188.842598 
L 247.600684 188.842598 
L 250.675065 188.842598 
L 253.749445 188.842598 
L 256.823825 188.842598 
L 259.898205 188.842598 
L 262.972585 188.842598 
L 266.046965 188.842598 
L 269.121346 188.842598 
L 272.195726 188.842598 
L 275.270106 188.842598 
L 278.344486 188.842598 
L 281.418866 188.842598 
L 284.493246 188.842598 
L 287.567627 188.842598 
L 290.642007 188.842598 
L 293.716387 188.842598 
L 296.790767 188.842598 
L 299.865147 188.842598 
L 302.939527 188.842598 
L 306.013908 188.842598 
L 309.088288 188.842598 
L 312.162668 188.842598 
L 315.237048 188.842598 
L 318.311428 188.842598 
L 321.385808 188.842598 
L 324.460189 188.842598 
L 327.534569 188.842598 
L 330.608949 188.842598 
L 333.683329 188.842598 
L 336.757709 188.842598 
L 339.832089 188.842598 
L 342.90647 188.842598 
L 345.98085 188.842598 
L 349.05523 188.842598 
L 352.12961 188.842598 
L 355.20399 188.842598 
L 358.27837 188.842598 
L 361.352751 188.842598 
L 364.427131 188.842598 
" style="fill:none;stroke:#7f7f7f;stroke-linecap:square;stroke-width:1.5;"/>
   </g>
   <g id="line2d_48">
    <path clip-path="url(#pfa262691f6)" d="M 60.063494 218.256364 
L 63.137874 218.099983 
L 66.212255 217.936557 
L 69.286635 217.765594 
L 72.361015 217.586756 
L 75.435395 217.399691 
L 78.509775 217.204032 
L 81.584155 216.999302 
L 84.658536 216.779205 
L 87.732916 216.549016 
L 90.807296 216.308313 
L 93.881676 216.056632 
L 96.956056 215.79349 
L 100.030436 215.518381 
L 103.104817 215.230782 
L 106.179197 214.930144 
L 109.253577 214.615897 
L 112.327957 214.287447 
L 115.402337 213.944171 
L 118.476717 213.585423 
L 121.551098 213.21053 
L 124.625478 212.818787 
L 127.699858 212.409457 
L 130.774238 211.983681 
L 133.848618 211.550584 
L 136.922998 211.111348 
L 139.997379 210.655954 
L 143.071759 210.187408 
L 146.146139 209.698035 
L 149.220519 209.209454 
L 152.294899 208.705181 
L 155.369279 208.17781 
L 158.44366 207.626297 
L 161.51804 207.058003 
L 164.59242 206.4801 
L 167.6668 205.875079 
L 170.74118 205.238611 
L 173.81556 204.573059 
L 176.889941 203.87592 
L 179.964321 203.146651 
L 183.038701 202.3841 
L 186.113081 201.587996 
L 189.187461 200.766873 
L 192.261841 199.908237 
L 195.336222 199.009695 
L 198.410602 198.070134 
L 201.484982 197.101587 
L 204.559362 196.089783 
L 207.633742 195.031864 
L 210.708122 193.925726 
L 213.782503 192.769161 
L 216.856883 191.547219 
L 219.931263 190.267979 
L 223.005643 188.930652 
L 226.080023 188.842599 
L 229.154403 188.842599 
L 232.228784 188.842599 
L 235.303164 188.842598 
L 238.377544 188.842598 
L 241.451924 188.842598 
L 244.526304 188.842598 
L 247.600684 188.842598 
L 250.675065 188.842598 
L 253.749445 188.842598 
L 256.823825 188.842598 
L 259.898205 188.842598 
L 262.972585 188.842598 
L 266.046965 188.842598 
L 269.121346 188.842598 
L 272.195726 188.842598 
L 275.270106 188.842598 
L 278.344486 188.842598 
L 281.418866 188.842598 
L 284.493246 188.842598 
L 287.567627 188.842598 
L 290.642007 188.842598 
L 293.716387 188.842598 
L 296.790767 188.842598 
L 299.865147 188.842598 
L 302.939527 188.842598 
L 306.013908 188.842598 
L 309.088288 188.842598 
L 312.162668 188.842598 
L 315.237048 188.842598 
L 318.311428 188.842598 
L 321.385808 188.842598 
L 324.460189 188.842598 
L 327.534569 188.842598 
L 330.608949 188.842598 
L 333.683329 188.842598 
L 336.757709 188.842598 
L 339.832089 188.842598 
L 342.90647 188.842598 
L 345.98085 188.842598 
L 349.05523 188.842598 
L 352.12961 188.842598 
L 355.20399 188.842598 
L 358.27837 188.842598 
L 361.352751 188.842598 
L 364.427131 188.842598 
" style="fill:none;stroke:#bcbd22;stroke-linecap:square;stroke-width:1.5;"/>
   </g>
   <g id="line2d_49">
    <path clip-path="url(#pfa262691f6)" d="M 60.063494 203.938515 
L 63.137874 203.807084 
L 66.212255 203.669453 
L 69.286635 203.525461 
L 72.361015 203.374819 
L 75.435395 203.21723 
L 78.509775 203.052381 
L 81.584155 202.879925 
L 84.658536 202.698012 
L 87.732916 202.507741 
L 90.807296 202.308749 
L 93.881676 202.100648 
L 96.956056 201.883033 
L 100.030436 201.655484 
L 103.104817 201.41756 
L 106.179197 201.168806 
L 109.253577 200.908742 
L 112.327957 200.636871 
L 115.402337 200.352674 
L 118.476717 200.05561 
L 121.551098 199.745112 
L 124.625478 199.420592 
L 127.699858 199.081433 
L 130.774238 198.728313 
L 133.848618 198.367399 
L 136.922998 198.003389 
L 139.997379 197.627403 
L 143.071759 197.247787 
L 146.146139 196.851061 
L 149.220519 196.458919 
L 152.294899 196.054028 
L 155.369279 195.630578 
L 158.44366 195.187743 
L 161.51804 194.725106 
L 164.59242 194.242173 
L 167.6668 193.73834 
L 170.74118 193.218174 
L 173.81556 192.67418 
L 176.889941 192.097655 
L 179.964321 191.492789 
L 183.038701 190.860197 
L 186.113081 190.200965 
L 189.187461 189.532987 
L 192.261841 188.842717 
L 195.336222 188.842599 
L 198.410602 188.842599 
L 201.484982 188.842599 
L 204.559362 188.842599 
L 207.633742 188.842599 
L 210.708122 188.842599 
L 213.782503 188.842599 
L 216.856883 188.842599 
L 219.931263 188.842599 
L 223.005643 188.842599 
L 226.080023 188.842598 
L 229.154403 188.842598 
L 232.228784 188.842598 
L 235.303164 188.842598 
L 238.377544 188.842598 
L 241.451924 188.842598 
L 244.526304 188.842598 
L 247.600684 188.842598 
L 250.675065 188.842598 
L 253.749445 188.842598 
L 256.823825 188.842598 
L 259.898205 188.842598 
L 262.972585 188.842598 
L 266.046965 188.842598 
L 269.121346 188.842598 
L 272.195726 188.842598 
L 275.270106 188.842598 
L 278.344486 188.842598 
L 281.418866 188.842598 
L 284.493246 188.842598 
L 287.567627 188.842598 
L 290.642007 188.842598 
L 293.716387 188.842598 
L 296.790767 188.842598 
L 299.865147 188.842598 
L 302.939527 188.842598 
L 306.013908 188.842598 
L 309.088288 188.842598 
L 312.162668 188.842598 
L 315.237048 188.842598 
L 318.311428 188.842598 
L 321.385808 188.842598 
L 324.460189 188.842598 
L 327.534569 188.842598 
L 330.608949 188.842598 
L 333.683329 188.842598 
L 336.757709 188.842598 
L 339.832089 188.842598 
L 342.90647 188.842598 
L 345.98085 188.842598 
L 349.05523 188.842598 
L 352.12961 188.842598 
L 355.20399 188.842598 
L 358.27837 188.842598 
L 361.352751 188.842598 
L 364.427131 188.842598 
" style="fill:none;stroke:#17becf;stroke-linecap:square;stroke-width:1.5;"/>
   </g>
   <g id="patch_3">
    <path d="M 44.845313 228.14 
L 44.845313 10.7 
" style="fill:none;stroke:#000000;stroke-linecap:square;stroke-linejoin:miter;stroke-width:0.8;"/>
   </g>
   <g id="patch_4">
    <path d="M 379.645313 228.14 
L 379.645313 10.7 
" style="fill:none;stroke:#000000;stroke-linecap:square;stroke-linejoin:miter;stroke-width:0.8;"/>
   </g>
   <g id="patch_5">
    <path d="M 44.845312 228.14 
L 379.645312 228.14 
" style="fill:none;stroke:#000000;stroke-linecap:square;stroke-linejoin:miter;stroke-width:0.8;"/>
   </g>
   <g id="patch_6">
    <path d="M 44.845312 10.7 
L 379.645312 10.7 
" style="fill:none;stroke:#000000;stroke-linecap:square;stroke-linejoin:miter;stroke-width:0.8;"/>
   </g>
  </g>
 </g>
 <defs>
  <clipPath id="pfa262691f6">
   <rect height="217.44" width="334.8" x="44.845313" y="10.7"/>
  </clipPath>
 </defs>
</svg>
